DBRep_DrawableShape

CASCADE Topology V3, (c) Open Cascade
Locations 0
Curve2ds 8
1 4.7160760737074687 -27.24255725205024 1.3322676295500281e-15 1 
7 0 0  1 2 2  4.716076073707506 1  4.7123889803905064 1.0000000014000001 
 -32.051195485065001 2 -32.032760060242502 2
7 0 0  1 2 2  4.7123889803904344 -1.0000000000002398  4.7123889803905064 1.0000000014000001 
 26.242557252049998 2 28.242557252049899 2
7 0 0  1 2 2  4.7123889803904344 1.0000000000002398  4.7123889803903705 -1.0000000014000001 
 26.242557252049998 2 28.242557252049899 2
7 0 0  1 2 2  4.7123889803904344 -1.0000000000002398  4.7160760737075034 -1.0000000000002398 
 32.032760060242197 2 32.051195485314899 2
7 0 0  1 2 2  4.7123889803904344 1.0000000000002398  4.7160760737073675 1.0000000000002398 
 -32.032760060242197 2 -32.014324635428103 2
7 0 0  1 2 2  4.7160760737379865 -1.0000000014000001  4.7123889803903705 -1.0000000014000001 
 32.014324635275003 2 32.032760060242502 2
7 0 0  1 2 2  4.7160760737073675 1.0000000000002398  4.7160760737379865 -1.0000000014000001 
 26.242557252049998 2 28.242557252049899 2
Curves 7
7 0 0  1 2 2  174.000033986463 -9.4999999999998597 -0.018435424382577299  174.000033986463 -11.500000000000099 -0.0184354243825769 
 26.242557252049998 2 28.242557252049899 2
7 0 0  1 2 2  174.000033986463 -11.500000000000099 -0.0184354243825769  174.000033986463 -11.5000000014001 4.3181103137612798e-10 
 -32.051195485065001 2 -32.032760060242502 2
7 0 0  1 2 2  174.000033986463 -9.4999999999998597 4.3215209188929298e-10  174.000033986463 -11.5000000014001 4.3181103137612798e-10 
 26.242557252049998 2 28.242557252049899 2
7 0 0  1 2 2  174.000033986463 -9.4999999999998597 4.3215209188929298e-10  174.000033986463 -9.4999999999998597 -0.018435424382577299 
 32.032760060242197 2 32.051195485314899 2
7 0 0  1 2 2  174.000033986463 -9.4999999999998597 4.3215209188929298e-10  174.000033986463 -9.4999999999998597 0.0184354252462029 
 -32.032760060242197 2 -32.014324635428103 2
7 0 0  1 2 2  174.000033986463 -11.5000000014001 0.018435425399282199  174.000033986463 -11.5000000014001 4.3181103137612798e-10 
 32.014324635275003 2 32.032760060242502 2
7 0 0  1 2 2  174.000033986463 -9.4999999999998597 0.0184354252462029  174.000033986463 -11.5000000014001 0.018435425399282199 
 26.242557252049998 2 28.242557252049899 2
Polygon3D 0
PolygonOnTriangulations 14
2 1 2 
p 0.05 1 26.24255725205 28.2425572520499 
2 2 6 
p 0.05 1 26.24255725205 28.2425572520499 
2 2 3 
p 0.05 1 -32.051195485065 -32.0327600602425 
2 6 5 
p 0.05 1 -32.051195485065 -32.0327600602425 
2 4 3 
p 0.05 1 26.24255725205 28.2425572520499 
2 1 3 
p 0.05 1 26.24255725205 28.2425572520499 
2 4 1 
p 0.05 1 32.0327600602422 32.0511954853149 
2 1 2 
p 0.05 1 32.0327600602422 32.0511954853149 
2 1 2 
p 0.05 1 -32.0327600602422 -32.0143246354281 
2 1 3 
p 0.05 1 -32.0327600602422 -32.0143246354281 
2 4 3 
p 0.05 1 32.014324635275 32.0327600602425 
2 4 5 
p 0.05 1 32.014324635275 32.0327600602425 
2 2 4 
p 0.05 1 26.24255725205 28.2425572520499 
2 3 4 
p 0.05 1 26.24255725205 28.2425572520499 
Surfaces 3
2 178.999999999859 -10.500000000000099 4.6088644012343102e-10 0 -1 8.5265128291212003e-15 0 -8.5265128291212003e-15 -1 1 0 0 4.9999999999999698
1 174.000033986463 -9.4999999999998597 32.032760060674299 1 0 0 -0 0 1 0 -1 0 
2 178.999999999859 -10.500000000000099 4.0341774365515402e-10 0 1 8.5265128291212003e-15 0 -8.5265128291212003e-15 1 1 0 -0 4.9999999999999698
Triangulations 3
4 2 1 0 3.02103133037324e-05
174.000033986463 -9.49999999999986 -0.0184354243825773 174.000033986463 -11.5000000000001 -0.0184354243825769 174.000033986463 -11.5000000014001 4.31811031376128e-10 174.000033986463 -9.49999999999986 4.32152091889293e-10 4.7160760737075 -1.00000000000024 4.71607607370751 1 4.71238898039051 1.0000000014 4.71238898039043 -1.00000000000024 2 3 4 2 4 1 
6 4 1 0 5.0661056967513e-15
174.000033986463 -9.49999999999986 4.32152091889293e-10 174.000033986463 -9.49999999999986 -0.0184354243825773 174.000033986463 -9.49999999999986 0.0184354252462029 174.000033986463 -11.5000000014001 0.0184354253992822 174.000033986463 -11.5000000014001 4.31811031376128e-10 174.000033986463 -11.5000000000001 -0.0184354243825769 -32.0327600602421 0 -32.0511954850569 0 -32.0143246354281 0 -32.014324635275 2.00000000140024 -32.0327600602425 2.00000000140024 -32.0511954850569 2.00000000000024 6 2 1 5 1 3 5 6 1 4 5 3 
4 2 1 0 3.02103133037331e-05
174.000033986463 -9.49999999999986 4.32152091889293e-10 174.000033986463 -9.49999999999986 0.0184354252462029 174.000033986463 -11.5000000014001 4.31811031376128e-10 174.000033986463 -11.5000000014001 0.0184354253992822 4.71238898039043 1.00000000000024 4.71607607370737 1.00000000000024 4.71238898039037 -1.0000000014 4.71607607373799 -1.0000000014 2 1 3 2 3 4 

TShapes 21
Ve
3.39869438327355e-05
174.000033986463 -9.49999999999986 -0.0184354243825773
0 0

0101101
*
Ve
3.39869438327355e-05
174.000033986463 -11.5000000000001 -0.0184354243825769
0 0

0101101
*
Ed
 1e-07 1 1 0
1  1 0 26.24255725205 28.2425572520499
2  1 1 0 26.24255725205 28.2425572520499
4 C0 1 0 2 0
6  1 1 0
6  2 2 0
0

0101000
+21 0 -20 0 *
Ve
3.39869438327355e-05
174.000033986463 -11.5000000014001 4.31811031376128e-10
0 0

0101101
*
Ed
 3.39869438327355e-05 1 1 0
1  2 0 -32.051195485065 -32.0327600602425
2  2 1 0 -32.051195485065 -32.0327600602425
4 C0 1 0 2 0
6  3 1 0
6  4 2 0
0

0101000
+20 0 -18 0 *
Ve
3.39869438327355e-05
174.000033986463 -9.49999999999986 4.32152091889293e-10
0 0

0101101
*
Ed
 3.39869438327355e-05 1 1 0
1  3 0 26.24255725205 28.2425572520499
2  3 1 0 26.24255725205 28.2425572520499
2  4 3 0 26.24255725205 28.2425572520499
4 G2 1 0 3 0
6  5 1 0
6  6 3 0
0

0101000
+16 0 -18 0 *
Ed
 3.39869438327355e-05 1 1 0
1  4 0 32.0327600602422 32.0511954853149
2  5 1 0 32.0327600602422 32.0511954853149
4 C0 1 0 2 0
6  7 1 0
6  8 2 0
0

0101000
+16 0 -21 0 *
Wi

0101100
+19 0 +17 0 -15 0 +14 0 *
Fa
0  1e-07 1 0
2  1
0111000
+13 0 *
Ve
3.39869438327355e-05
174.000033986463 -9.49999999999986 0.0184354252462029
0 0

0101101
*
Ed
 3.39869438327355e-05 1 1 0
1  5 0 -32.0327600602422 -32.0143246354281
2  6 3 0 -32.0327600602422 -32.0143246354281
4 C0 3 0 2 0
6  9 3 0
6  10 2 0
0

0101000
+16 0 -11 0 *
Ve
3.39869438327355e-05
174.000033986463 -11.5000000014001 0.0184354253992822
0 0

0101101
*
Ed
 3.39869438327355e-05 1 1 0
1  6 0 32.014324635275 32.0327600602425
2  7 3 0 32.014324635275 32.0327600602425
4 C0 3 0 2 0
6  11 3 0
6  12 2 0
0

0101000
+9 0 -18 0 *
Ed
 1e-07 1 1 0
1  7 0 26.24255725205 28.2425572520499
2  8 3 0 26.24255725205 28.2425572520499
4 C0 3 0 2 0
6  13 3 0
6  14 2 0
0

0101000
+11 0 -9 0 *
Wi

0101100
-10 0 +15 0 -8 0 -7 0 *
Fa
0  1e-07 3 0
2  3
0111000
+6 0 *
Wi

0101100
-14 0 +10 0 +7 0 +8 0 -17 0 -19 0 *
Fa
0  1e-07 2 0
2  2
0111000
+4 0 *
Sh

0101100
+12 0 +5 0 +3 0 *
So

0100000
+2 0 *

+1 0 