# robocad OBJ
mtllib dowel_pin.mtl
o pin
usemtl PLA_a8adb5
v 0.00150 -0.00670 -0.00000
v 0.00150 0.00670 -0.00000
v 0.00148 0.00670 -0.00026
v 0.00141 0.00670 -0.00051
v 0.00130 0.00670 -0.00075
v 0.00115 0.00670 -0.00096
v 0.00096 0.00670 -0.00115
v 0.00075 0.00670 -0.00130
v 0.00051 0.00670 -0.00141
v 0.00026 0.00670 -0.00148
v 0.00000 0.00670 -0.00150
v -0.00026 0.00670 -0.00148
v -0.00051 0.00670 -0.00141
v -0.00075 0.00670 -0.00130
v -0.00096 0.00670 -0.00115
v -0.00115 0.00670 -0.00096
v -0.00130 0.00670 -0.00075
v -0.00141 0.00670 -0.00051
v -0.00148 0.00670 -0.00026
v -0.00150 0.00670 -0.00000
v -0.00148 0.00670 0.00026
v -0.00141 0.00670 0.00051
v -0.00130 0.00670 0.00075
v -0.00115 0.00670 0.00096
v -0.00096 0.00670 0.00115
v -0.00075 0.00670 0.00130
v -0.00051 0.00670 0.00141
v -0.00026 0.00670 0.00148
v -0.00000 0.00670 0.00150
v 0.00026 0.00670 0.00148
v 0.00051 0.00670 0.00141
v 0.00075 0.00670 0.00130
v 0.00096 0.00670 0.00115
v 0.00115 0.00670 0.00096
v 0.00130 0.00670 0.00075
v 0.00141 0.00670 0.00051
v 0.00148 0.00670 0.00026
v 0.00148 -0.00670 -0.00026
v 0.00141 -0.00670 -0.00051
v 0.00130 -0.00670 -0.00075
v 0.00115 -0.00670 -0.00096
v 0.00096 -0.00670 -0.00115
v 0.00075 -0.00670 -0.00130
v 0.00051 -0.00670 -0.00141
v 0.00026 -0.00670 -0.00148
v 0.00000 -0.00670 -0.00150
v -0.00026 -0.00670 -0.00148
v -0.00051 -0.00670 -0.00141
v -0.00075 -0.00670 -0.00130
v -0.00096 -0.00670 -0.00115
v -0.00115 -0.00670 -0.00096
v -0.00130 -0.00670 -0.00075
v -0.00141 -0.00670 -0.00051
v -0.00148 -0.00670 -0.00026
v -0.00150 -0.00670 -0.00000
v -0.00148 -0.00670 0.00026
v -0.00141 -0.00670 0.00051
v -0.00130 -0.00670 0.00075
v -0.00115 -0.00670 0.00096
v -0.00096 -0.00670 0.00115
v -0.00075 -0.00670 0.00130
v -0.00051 -0.00670 0.00141
v -0.00026 -0.00670 0.00148
v -0.00000 -0.00670 0.00150
v 0.00026 -0.00670 0.00148
v 0.00051 -0.00670 0.00141
v 0.00075 -0.00670 0.00130
v 0.00096 -0.00670 0.00115
v 0.00115 -0.00670 0.00096
v 0.00130 -0.00670 0.00075
v 0.00141 -0.00670 0.00051
v 0.00148 -0.00670 0.00026
v 0.00150 -0.00675 -0.00000
v 0.00148 -0.00680 -0.00000
v 0.00146 -0.00685 -0.00000
v 0.00143 -0.00689 -0.00000
v 0.00139 -0.00693 -0.00000
v 0.00135 -0.00696 -0.00000
v 0.00130 -0.00698 -0.00000
v 0.00125 -0.00700 -0.00000
v 0.00120 -0.00700 -0.00000
v 0.00118 -0.00700 -0.00021
v 0.00113 -0.00700 -0.00041
v 0.00104 -0.00700 -0.00060
v 0.00092 -0.00700 -0.00077
v 0.00077 -0.00700 -0.00092
v 0.00060 -0.00700 -0.00104
v 0.00041 -0.00700 -0.00113
v 0.00021 -0.00700 -0.00118
v 0.00000 -0.00700 -0.00120
v -0.00021 -0.00700 -0.00118
v -0.00041 -0.00700 -0.00113
v -0.00060 -0.00700 -0.00104
v -0.00077 -0.00700 -0.00092
v -0.00092 -0.00700 -0.00077
v -0.00104 -0.00700 -0.00060
v -0.00113 -0.00700 -0.00041
v -0.00118 -0.00700 -0.00021
v -0.00120 -0.00700 -0.00000
v -0.00118 -0.00700 0.00021
v -0.00113 -0.00700 0.00041
v -0.00104 -0.00700 0.00060
v -0.00092 -0.00700 0.00077
v -0.00077 -0.00700 0.00092
v -0.00060 -0.00700 0.00104
v -0.00041 -0.00700 0.00113
v -0.00021 -0.00700 0.00118
v -0.00000 -0.00700 0.00120
v 0.00021 -0.00700 0.00118
v 0.00041 -0.00700 0.00113
v 0.00060 -0.00700 0.00104
v 0.00077 -0.00700 0.00092
v 0.00092 -0.00700 0.00077
v 0.00104 -0.00700 0.00060
v 0.00113 -0.00700 0.00041
v 0.00118 -0.00700 0.00021
v 0.00147 -0.00675 -0.00026
v 0.00146 -0.00680 -0.00026
v 0.00144 -0.00685 -0.00025
v 0.00141 -0.00689 -0.00025
v 0.00137 -0.00693 -0.00024
v 0.00141 -0.00675 -0.00051
v 0.00133 -0.00696 -0.00023
v 0.00139 -0.00680 -0.00051
v 0.00128 -0.00698 -0.00023
v 0.00137 -0.00685 -0.00050
v 0.00123 -0.00700 -0.00022
v 0.00134 -0.00689 -0.00049
v 0.00131 -0.00693 -0.00048
v 0.00130 -0.00675 -0.00075
v 0.00127 -0.00696 -0.00046
v 0.00128 -0.00680 -0.00074
v 0.00122 -0.00698 -0.00045
v 0.00126 -0.00685 -0.00073
v 0.00118 -0.00700 -0.00043
v 0.00124 -0.00689 -0.00071
v 0.00121 -0.00693 -0.00070
v 0.00115 -0.00675 -0.00096
v 0.00117 -0.00696 -0.00067
v 0.00114 -0.00680 -0.00095
v 0.00113 -0.00698 -0.00065
v 0.00112 -0.00685 -0.00094
v 0.00108 -0.00700 -0.00063
v 0.00110 -0.00689 -0.00092
v 0.00107 -0.00693 -0.00090
v 0.00096 -0.00675 -0.00115
v 0.00103 -0.00696 -0.00087
v 0.00095 -0.00680 -0.00114
v 0.00100 -0.00698 -0.00084
v 0.00094 -0.00685 -0.00112
v 0.00096 -0.00700 -0.00080
v 0.00092 -0.00689 -0.00110
v 0.00090 -0.00693 -0.00107
v 0.00075 -0.00675 -0.00130
v 0.00087 -0.00696 -0.00103
v 0.00074 -0.00680 -0.00128
v 0.00084 -0.00698 -0.00100
v 0.00073 -0.00685 -0.00126
v 0.00080 -0.00700 -0.00096
v 0.00071 -0.00689 -0.00124
v 0.00070 -0.00693 -0.00121
v 0.00051 -0.00675 -0.00141
v 0.00068 -0.00696 -0.00117
v 0.00051 -0.00680 -0.00139
v 0.00065 -0.00698 -0.00113
v 0.00050 -0.00685 -0.00137
v 0.00063 -0.00700 -0.00108
v 0.00049 -0.00689 -0.00134
v 0.00048 -0.00693 -0.00131
v 0.00026 -0.00675 -0.00147
v 0.00046 -0.00696 -0.00127
v 0.00026 -0.00680 -0.00146
v 0.00045 -0.00698 -0.00122
v 0.00025 -0.00685 -0.00144
v 0.00043 -0.00700 -0.00118
v 0.00025 -0.00689 -0.00141
v 0.00024 -0.00693 -0.00137
v 0.00000 -0.00675 -0.00150
v 0.00023 -0.00696 -0.00133
v 0.00000 -0.00680 -0.00148
v 0.00023 -0.00698 -0.00128
v 0.00000 -0.00685 -0.00146
v 0.00022 -0.00700 -0.00123
v 0.00000 -0.00689 -0.00143
v 0.00000 -0.00693 -0.00139
v -0.00026 -0.00675 -0.00147
v 0.00000 -0.00696 -0.00135
v -0.00026 -0.00680 -0.00146
v 0.00000 -0.00698 -0.00130
v -0.00025 -0.00685 -0.00144
v 0.00000 -0.00700 -0.00125
v -0.00025 -0.00689 -0.00141
v -0.00024 -0.00693 -0.00137
v -0.00051 -0.00675 -0.00141
v -0.00023 -0.00696 -0.00133
v -0.00051 -0.00680 -0.00139
v -0.00023 -0.00698 -0.00128
v -0.00050 -0.00685 -0.00137
v -0.00022 -0.00700 -0.00123
v -0.00049 -0.00689 -0.00134
v -0.00048 -0.00693 -0.00131
v -0.00075 -0.00675 -0.00130
v -0.00046 -0.00696 -0.00127
v -0.00074 -0.00680 -0.00128
v -0.00045 -0.00698 -0.00122
v -0.00073 -0.00685 -0.00126
v -0.00043 -0.00700 -0.00118
v -0.00071 -0.00689 -0.00124
v -0.00070 -0.00693 -0.00121
v -0.00096 -0.00675 -0.00115
v -0.00067 -0.00696 -0.00117
v -0.00095 -0.00680 -0.00114
v -0.00065 -0.00698 -0.00113
v -0.00094 -0.00685 -0.00112
v -0.00063 -0.00700 -0.00108
v -0.00092 -0.00689 -0.00110
v -0.00090 -0.00693 -0.00107
v -0.00115 -0.00675 -0.00096
v -0.00087 -0.00696 -0.00103
v -0.00114 -0.00680 -0.00095
v -0.00084 -0.00698 -0.00100
v -0.00112 -0.00685 -0.00094
v -0.00080 -0.00700 -0.00096
v -0.00110 -0.00689 -0.00092
v -0.00107 -0.00693 -0.00090
v -0.00130 -0.00675 -0.00075
v -0.00103 -0.00696 -0.00087
v -0.00128 -0.00680 -0.00074
v -0.00100 -0.00698 -0.00084
v -0.00126 -0.00685 -0.00073
v -0.00096 -0.00700 -0.00080
v -0.00124 -0.00689 -0.00071
v -0.00121 -0.00693 -0.00070
v -0.00141 -0.00675 -0.00051
v -0.00117 -0.00696 -0.00068
v -0.00139 -0.00680 -0.00051
v -0.00113 -0.00698 -0.00065
v -0.00137 -0.00685 -0.00050
v -0.00108 -0.00700 -0.00063
v -0.00134 -0.00689 -0.00049
v -0.00131 -0.00693 -0.00048
v -0.00147 -0.00675 -0.00026
v -0.00127 -0.00696 -0.00046
v -0.00146 -0.00680 -0.00026
v -0.00122 -0.00698 -0.00045
v -0.00144 -0.00685 -0.00025
v -0.00118 -0.00700 -0.00043
v -0.00141 -0.00689 -0.00025
v -0.00137 -0.00693 -0.00024
v -0.00150 -0.00675 -0.00000
v -0.00133 -0.00696 -0.00023
v -0.00148 -0.00680 -0.00000
v -0.00128 -0.00698 -0.00023
v -0.00146 -0.00685 -0.00000
v -0.00123 -0.00700 -0.00022
v -0.00143 -0.00689 -0.00000
v -0.00139 -0.00693 -0.00000
v -0.00147 -0.00675 0.00026
v -0.00135 -0.00696 -0.00000
v -0.00146 -0.00680 0.00026
v -0.00130 -0.00698 -0.00000
v -0.00144 -0.00685 0.00025
v -0.00125 -0.00700 -0.00000
v -0.00141 -0.00689 0.00025
v -0.00137 -0.00693 0.00024
v -0.00141 -0.00675 0.00051
v -0.00133 -0.00696 0.00023
v -0.00139 -0.00680 0.00051
v -0.00128 -0.00698 0.00023
v -0.00137 -0.00685 0.00050
v -0.00123 -0.00700 0.00022
v -0.00134 -0.00689 0.00049
v -0.00131 -0.00693 0.00048
v -0.00130 -0.00675 0.00075
v -0.00127 -0.00696 0.00046
v -0.00128 -0.00680 0.00074
v -0.00122 -0.00698 0.00045
v -0.00126 -0.00685 0.00073
v -0.00118 -0.00700 0.00043
v -0.00124 -0.00689 0.00071
v -0.00121 -0.00693 0.00070
v -0.00115 -0.00675 0.00096
v -0.00117 -0.00696 0.00067
v -0.00114 -0.00680 0.00095
v -0.00113 -0.00698 0.00065
v -0.00112 -0.00685 0.00094
v -0.00108 -0.00700 0.00063
v -0.00110 -0.00689 0.00092
v -0.00107 -0.00693 0.00090
v -0.00096 -0.00675 0.00115
v -0.00103 -0.00696 0.00087
v -0.00095 -0.00680 0.00114
v -0.00100 -0.00698 0.00084
v -0.00094 -0.00685 0.00112
v -0.00096 -0.00700 0.00080
v -0.00092 -0.00689 0.00110
v -0.00090 -0.00693 0.00107
v -0.00075 -0.00675 0.00130
v -0.00087 -0.00696 0.00103
v -0.00074 -0.00680 0.00128
v -0.00084 -0.00698 0.00100
v -0.00073 -0.00685 0.00126
v -0.00080 -0.00700 0.00096
v -0.00071 -0.00689 0.00124
v -0.00070 -0.00693 0.00121
v -0.00051 -0.00675 0.00141
v -0.00068 -0.00696 0.00117
v -0.00051 -0.00680 0.00139
v -0.00065 -0.00698 0.00113
v -0.00050 -0.00685 0.00137
v -0.00063 -0.00700 0.00108
v -0.00049 -0.00689 0.00134
v -0.00048 -0.00693 0.00131
v -0.00026 -0.00675 0.00147
v -0.00046 -0.00696 0.00127
v -0.00026 -0.00680 0.00146
v -0.00045 -0.00698 0.00122
v -0.00025 -0.00685 0.00144
v -0.00043 -0.00700 0.00118
v -0.00025 -0.00689 0.00141
v -0.00024 -0.00693 0.00137
v -0.00000 -0.00675 0.00150
v -0.00023 -0.00696 0.00133
v -0.00000 -0.00680 0.00148
v -0.00023 -0.00698 0.00128
v -0.00000 -0.00685 0.00146
v -0.00022 -0.00700 0.00123
v -0.00000 -0.00689 0.00143
v -0.00000 -0.00693 0.00139
v 0.00026 -0.00675 0.00147
v -0.00000 -0.00696 0.00135
v 0.00026 -0.00680 0.00146
v -0.00000 -0.00698 0.00130
v 0.00025 -0.00685 0.00144
v -0.00000 -0.00700 0.00125
v 0.00025 -0.00689 0.00141
v 0.00024 -0.00693 0.00137
v 0.00051 -0.00675 0.00141
v 0.00023 -0.00696 0.00133
v 0.00051 -0.00680 0.00139
v 0.00023 -0.00698 0.00128
v 0.00050 -0.00685 0.00137
v 0.00022 -0.00700 0.00123
v 0.00049 -0.00689 0.00134
v 0.00048 -0.00693 0.00131
v 0.00075 -0.00675 0.00130
v 0.00046 -0.00696 0.00127
v 0.00074 -0.00680 0.00128
v 0.00045 -0.00698 0.00122
v 0.00073 -0.00685 0.00126
v 0.00043 -0.00700 0.00118
v 0.00071 -0.00689 0.00124
v 0.00070 -0.00693 0.00121
v 0.00096 -0.00675 0.00115
v 0.00067 -0.00696 0.00117
v 0.00095 -0.00680 0.00114
v 0.00065 -0.00698 0.00113
v 0.00094 -0.00685 0.00112
v 0.00063 -0.00700 0.00108
v 0.00092 -0.00689 0.00110
v 0.00090 -0.00693 0.00107
v 0.00115 -0.00675 0.00096
v 0.00087 -0.00696 0.00103
v 0.00114 -0.00680 0.00095
v 0.00084 -0.00698 0.00100
v 0.00112 -0.00685 0.00094
v 0.00080 -0.00700 0.00096
v 0.00110 -0.00689 0.00092
v 0.00107 -0.00693 0.00090
v 0.00130 -0.00675 0.00075
v 0.00103 -0.00696 0.00087
v 0.00128 -0.00680 0.00074
v 0.00100 -0.00698 0.00084
v 0.00126 -0.00685 0.00073
v 0.00096 -0.00700 0.00080
v 0.00124 -0.00689 0.00071
v 0.00121 -0.00693 0.00070
v 0.00141 -0.00675 0.00051
v 0.00117 -0.00696 0.00068
v 0.00139 -0.00680 0.00051
v 0.00113 -0.00698 0.00065
v 0.00137 -0.00685 0.00050
v 0.00108 -0.00700 0.00063
v 0.00134 -0.00689 0.00049
v 0.00131 -0.00693 0.00048
v 0.00147 -0.00675 0.00026
v 0.00127 -0.00696 0.00046
v 0.00146 -0.00680 0.00026
v 0.00122 -0.00698 0.00045
v 0.00144 -0.00685 0.00025
v 0.00118 -0.00700 0.00043
v 0.00141 -0.00689 0.00025
v 0.00137 -0.00693 0.00024
v 0.00133 -0.00696 0.00023
v 0.00128 -0.00698 0.00023
v 0.00123 -0.00700 0.00022
v 0.00150 0.00675 -0.00000
v 0.00148 0.00680 -0.00000
v 0.00146 0.00685 -0.00000
v 0.00143 0.00689 -0.00000
v 0.00139 0.00693 -0.00000
v 0.00135 0.00696 -0.00000
v 0.00130 0.00698 -0.00000
v 0.00125 0.00700 -0.00000
v 0.00120 0.00700 -0.00000
v 0.00118 0.00700 -0.00021
v 0.00113 0.00700 -0.00041
v 0.00104 0.00700 -0.00060
v 0.00092 0.00700 -0.00077
v 0.00077 0.00700 -0.00092
v 0.00060 0.00700 -0.00104
v 0.00041 0.00700 -0.00113
v 0.00021 0.00700 -0.00118
v 0.00000 0.00700 -0.00120
v -0.00021 0.00700 -0.00118
v -0.00041 0.00700 -0.00113
v -0.00060 0.00700 -0.00104
v -0.00077 0.00700 -0.00092
v -0.00092 0.00700 -0.00077
v -0.00104 0.00700 -0.00060
v -0.00113 0.00700 -0.00041
v -0.00118 0.00700 -0.00021
v -0.00120 0.00700 -0.00000
v -0.00118 0.00700 0.00021
v -0.00113 0.00700 0.00041
v -0.00104 0.00700 0.00060
v -0.00092 0.00700 0.00077
v -0.00077 0.00700 0.00092
v -0.00060 0.00700 0.00104
v -0.00041 0.00700 0.00113
v -0.00021 0.00700 0.00118
v -0.00000 0.00700 0.00120
v 0.00021 0.00700 0.00118
v 0.00041 0.00700 0.00113
v 0.00060 0.00700 0.00104
v 0.00077 0.00700 0.00092
v 0.00092 0.00700 0.00077
v 0.00104 0.00700 0.00060
v 0.00113 0.00700 0.00041
v 0.00118 0.00700 0.00021
v 0.00147 0.00675 -0.00026
v 0.00146 0.00680 -0.00026
v 0.00144 0.00685 -0.00025
v 0.00141 0.00689 -0.00025
v 0.00137 0.00693 -0.00024
v 0.00141 0.00675 -0.00051
v 0.00133 0.00696 -0.00023
v 0.00139 0.00680 -0.00051
v 0.00128 0.00698 -0.00023
v 0.00137 0.00685 -0.00050
v 0.00123 0.00700 -0.00022
v 0.00134 0.00689 -0.00049
v 0.00131 0.00693 -0.00048
v 0.00130 0.00675 -0.00075
v 0.00127 0.00696 -0.00046
v 0.00128 0.00680 -0.00074
v 0.00122 0.00698 -0.00045
v 0.00126 0.00685 -0.00073
v 0.00118 0.00700 -0.00043
v 0.00124 0.00689 -0.00071
v 0.00121 0.00693 -0.00070
v 0.00115 0.00675 -0.00096
v 0.00117 0.00696 -0.00067
v 0.00114 0.00680 -0.00095
v 0.00113 0.00698 -0.00065
v 0.00112 0.00685 -0.00094
v 0.00108 0.00700 -0.00063
v 0.00110 0.00689 -0.00092
v 0.00107 0.00693 -0.00090
v 0.00096 0.00675 -0.00115
v 0.00103 0.00696 -0.00087
v 0.00095 0.00680 -0.00114
v 0.00100 0.00698 -0.00084
v 0.00094 0.00685 -0.00112
v 0.00096 0.00700 -0.00080
v 0.00092 0.00689 -0.00110
v 0.00090 0.00693 -0.00107
v 0.00075 0.00675 -0.00130
v 0.00087 0.00696 -0.00103
v 0.00074 0.00680 -0.00128
v 0.00084 0.00698 -0.00100
v 0.00073 0.00685 -0.00126
v 0.00080 0.00700 -0.00096
v 0.00071 0.00689 -0.00124
v 0.00070 0.00693 -0.00121
v 0.00051 0.00675 -0.00141
v 0.00068 0.00696 -0.00117
v 0.00051 0.00680 -0.00139
v 0.00065 0.00698 -0.00113
v 0.00050 0.00685 -0.00137
v 0.00063 0.00700 -0.00108
v 0.00049 0.00689 -0.00134
v 0.00048 0.00693 -0.00131
v 0.00026 0.00675 -0.00147
v 0.00046 0.00696 -0.00127
v 0.00026 0.00680 -0.00146
v 0.00045 0.00698 -0.00122
v 0.00025 0.00685 -0.00144
v 0.00043 0.00700 -0.00118
v 0.00025 0.00689 -0.00141
v 0.00024 0.00693 -0.00137
v 0.00000 0.00675 -0.00150
v 0.00023 0.00696 -0.00133
v 0.00000 0.00680 -0.00148
v 0.00023 0.00698 -0.00128
v 0.00000 0.00685 -0.00146
v 0.00022 0.00700 -0.00123
v 0.00000 0.00689 -0.00143
v 0.00000 0.00693 -0.00139
v -0.00026 0.00675 -0.00147
v 0.00000 0.00696 -0.00135
v -0.00026 0.00680 -0.00146
v 0.00000 0.00698 -0.00130
v -0.00025 0.00685 -0.00144
v 0.00000 0.00700 -0.00125
v -0.00025 0.00689 -0.00141
v -0.00024 0.00693 -0.00137
v -0.00051 0.00675 -0.00141
v -0.00023 0.00696 -0.00133
v -0.00051 0.00680 -0.00139
v -0.00023 0.00698 -0.00128
v -0.00050 0.00685 -0.00137
v -0.00022 0.00700 -0.00123
v -0.00049 0.00689 -0.00134
v -0.00048 0.00693 -0.00131
v -0.00075 0.00675 -0.00130
v -0.00046 0.00696 -0.00127
v -0.00074 0.00680 -0.00128
v -0.00045 0.00698 -0.00122
v -0.00073 0.00685 -0.00126
v -0.00043 0.00700 -0.00118
v -0.00071 0.00689 -0.00124
v -0.00070 0.00693 -0.00121
v -0.00096 0.00675 -0.00115
v -0.00067 0.00696 -0.00117
v -0.00095 0.00680 -0.00114
v -0.00065 0.00698 -0.00113
v -0.00094 0.00685 -0.00112
v -0.00063 0.00700 -0.00108
v -0.00092 0.00689 -0.00110
v -0.00090 0.00693 -0.00107
v -0.00115 0.00675 -0.00096
v -0.00087 0.00696 -0.00103
v -0.00114 0.00680 -0.00095
v -0.00084 0.00698 -0.00100
v -0.00112 0.00685 -0.00094
v -0.00080 0.00700 -0.00096
v -0.00110 0.00689 -0.00092
v -0.00107 0.00693 -0.00090
v -0.00130 0.00675 -0.00075
v -0.00103 0.00696 -0.00087
v -0.00128 0.00680 -0.00074
v -0.00100 0.00698 -0.00084
v -0.00126 0.00685 -0.00073
v -0.00096 0.00700 -0.00080
v -0.00124 0.00689 -0.00071
v -0.00121 0.00693 -0.00070
v -0.00141 0.00675 -0.00051
v -0.00117 0.00696 -0.00068
v -0.00139 0.00680 -0.00051
v -0.00113 0.00698 -0.00065
v -0.00137 0.00685 -0.00050
v -0.00108 0.00700 -0.00063
v -0.00134 0.00689 -0.00049
v -0.00131 0.00693 -0.00048
v -0.00147 0.00675 -0.00026
v -0.00127 0.00696 -0.00046
v -0.00146 0.00680 -0.00026
v -0.00122 0.00698 -0.00045
v -0.00144 0.00685 -0.00025
v -0.00118 0.00700 -0.00043
v -0.00141 0.00689 -0.00025
v -0.00137 0.00693 -0.00024
v -0.00150 0.00675 -0.00000
v -0.00133 0.00696 -0.00023
v -0.00148 0.00680 -0.00000
v -0.00128 0.00698 -0.00023
v -0.00146 0.00685 -0.00000
v -0.00123 0.00700 -0.00022
v -0.00143 0.00689 -0.00000
v -0.00139 0.00693 -0.00000
v -0.00147 0.00675 0.00026
v -0.00135 0.00696 -0.00000
v -0.00146 0.00680 0.00026
v -0.00130 0.00698 -0.00000
v -0.00144 0.00685 0.00025
v -0.00125 0.00700 -0.00000
v -0.00141 0.00689 0.00025
v -0.00137 0.00693 0.00024
v -0.00141 0.00675 0.00051
v -0.00133 0.00696 0.00023
v -0.00139 0.00680 0.00051
v -0.00128 0.00698 0.00023
v -0.00137 0.00685 0.00050
v -0.00123 0.00700 0.00022
v -0.00134 0.00689 0.00049
v -0.00131 0.00693 0.00048
v -0.00130 0.00675 0.00075
v -0.00127 0.00696 0.00046
v -0.00128 0.00680 0.00074
v -0.00122 0.00698 0.00045
v -0.00126 0.00685 0.00073
v -0.00118 0.00700 0.00043
v -0.00124 0.00689 0.00071
v -0.00121 0.00693 0.00070
v -0.00115 0.00675 0.00096
v -0.00117 0.00696 0.00067
v -0.00114 0.00680 0.00095
v -0.00113 0.00698 0.00065
v -0.00112 0.00685 0.00094
v -0.00108 0.00700 0.00063
v -0.00110 0.00689 0.00092
v -0.00107 0.00693 0.00090
v -0.00096 0.00675 0.00115
v -0.00103 0.00696 0.00087
v -0.00095 0.00680 0.00114
v -0.00100 0.00698 0.00084
v -0.00094 0.00685 0.00112
v -0.00096 0.00700 0.00080
v -0.00092 0.00689 0.00110
v -0.00090 0.00693 0.00107
v -0.00075 0.00675 0.00130
v -0.00087 0.00696 0.00103
v -0.00074 0.00680 0.00128
v -0.00084 0.00698 0.00100
v -0.00073 0.00685 0.00126
v -0.00080 0.00700 0.00096
v -0.00071 0.00689 0.00124
v -0.00070 0.00693 0.00121
v -0.00051 0.00675 0.00141
v -0.00068 0.00696 0.00117
v -0.00051 0.00680 0.00139
v -0.00065 0.00698 0.00113
v -0.00050 0.00685 0.00137
v -0.00063 0.00700 0.00108
v -0.00049 0.00689 0.00134
v -0.00048 0.00693 0.00131
v -0.00026 0.00675 0.00147
v -0.00046 0.00696 0.00127
v -0.00026 0.00680 0.00146
v -0.00045 0.00698 0.00122
v -0.00025 0.00685 0.00144
v -0.00043 0.00700 0.00118
v -0.00025 0.00689 0.00141
v -0.00024 0.00693 0.00137
v -0.00000 0.00675 0.00150
v -0.00023 0.00696 0.00133
v -0.00000 0.00680 0.00148
v -0.00023 0.00698 0.00128
v -0.00000 0.00685 0.00146
v -0.00022 0.00700 0.00123
v -0.00000 0.00689 0.00143
v -0.00000 0.00693 0.00139
v 0.00026 0.00675 0.00147
v -0.00000 0.00696 0.00135
v 0.00026 0.00680 0.00146
v -0.00000 0.00698 0.00130
v 0.00025 0.00685 0.00144
v -0.00000 0.00700 0.00125
v 0.00025 0.00689 0.00141
v 0.00024 0.00693 0.00137
v 0.00051 0.00675 0.00141
v 0.00023 0.00696 0.00133
v 0.00051 0.00680 0.00139
v 0.00023 0.00698 0.00128
v 0.00050 0.00685 0.00137
v 0.00022 0.00700 0.00123
v 0.00049 0.00689 0.00134
v 0.00048 0.00693 0.00131
v 0.00075 0.00675 0.00130
v 0.00046 0.00696 0.00127
v 0.00074 0.00680 0.00128
v 0.00045 0.00698 0.00122
v 0.00073 0.00685 0.00126
v 0.00043 0.00700 0.00118
v 0.00071 0.00689 0.00124
v 0.00070 0.00693 0.00121
v 0.00096 0.00675 0.00115
v 0.00067 0.00696 0.00117
v 0.00095 0.00680 0.00114
v 0.00065 0.00698 0.00113
v 0.00094 0.00685 0.00112
v 0.00063 0.00700 0.00108
v 0.00092 0.00689 0.00110
v 0.00090 0.00693 0.00107
v 0.00115 0.00675 0.00096
v 0.00087 0.00696 0.00103
v 0.00114 0.00680 0.00095
v 0.00084 0.00698 0.00100
v 0.00112 0.00685 0.00094
v 0.00080 0.00700 0.00096
v 0.00110 0.00689 0.00092
v 0.00107 0.00693 0.00090
v 0.00130 0.00675 0.00075
v 0.00103 0.00696 0.00087
v 0.00128 0.00680 0.00074
v 0.00100 0.00698 0.00084
v 0.00126 0.00685 0.00073
v 0.00096 0.00700 0.00080
v 0.00124 0.00689 0.00071
v 0.00121 0.00693 0.00070
v 0.00141 0.00675 0.00051
v 0.00117 0.00696 0.00068
v 0.00139 0.00680 0.00051
v 0.00113 0.00698 0.00065
v 0.00137 0.00685 0.00050
v 0.00108 0.00700 0.00063
v 0.00134 0.00689 0.00049
v 0.00131 0.00693 0.00048
v 0.00147 0.00675 0.00026
v 0.00127 0.00696 0.00046
v 0.00146 0.00680 0.00026
v 0.00122 0.00698 0.00045
v 0.00144 0.00685 0.00025
v 0.00118 0.00700 0.00043
v 0.00141 0.00689 0.00025
v 0.00137 0.00693 0.00024
v 0.00133 0.00696 0.00023
v 0.00128 0.00698 0.00023
v 0.00123 0.00700 0.00022
vn 1.0000 0.0000 0.0000
vn 1.0000 0.0000 0.0000
vn 0.9848 -0.0000 -0.1736
vn 0.9397 -0.0000 -0.3420
vn 0.8660 -0.0000 -0.5000
vn 0.7660 -0.0000 -0.6428
vn 0.6428 -0.0000 -0.7660
vn 0.5000 -0.0000 -0.8660
vn 0.3420 -0.0000 -0.9397
vn 0.1736 -0.0000 -0.9848
vn 0.0000 -0.0000 -1.0000
vn -0.1736 0.0000 -0.9848
vn -0.3420 0.0000 -0.9397
vn -0.5000 0.0000 -0.8660
vn -0.6428 0.0000 -0.7660
vn -0.7660 0.0000 -0.6428
vn -0.8660 0.0000 -0.5000
vn -0.9397 0.0000 -0.3420
vn -0.9848 0.0000 -0.1736
vn -1.0000 0.0000 -0.0000
vn -0.9848 0.0000 0.1736
vn -0.9397 0.0000 0.3420
vn -0.8660 0.0000 0.5000
vn -0.7660 0.0000 0.6428
vn -0.6428 0.0000 0.7660
vn -0.5000 0.0000 0.8660
vn -0.3420 0.0000 0.9397
vn -0.1736 0.0000 0.9848
vn -0.0000 0.0000 1.0000
vn 0.1736 0.0000 0.9848
vn 0.3420 0.0000 0.9397
vn 0.5000 0.0000 0.8660
vn 0.6428 0.0000 0.7660
vn 0.7660 0.0000 0.6428
vn 0.8660 0.0000 0.5000
vn 0.9397 0.0000 0.3420
vn 0.9848 0.0000 0.1736
vn 0.9848 -0.0000 -0.1736
vn 0.9397 -0.0000 -0.3420
vn 0.8660 -0.0000 -0.5000
vn 0.7660 -0.0000 -0.6428
vn 0.6428 -0.0000 -0.7660
vn 0.5000 -0.0000 -0.8660
vn 0.3420 -0.0000 -0.9397
vn 0.1736 -0.0000 -0.9848
vn 0.0000 -0.0000 -1.0000
vn -0.1736 0.0000 -0.9848
vn -0.3420 0.0000 -0.9397
vn -0.5000 0.0000 -0.8660
vn -0.6428 0.0000 -0.7660
vn -0.7660 0.0000 -0.6428
vn -0.8660 0.0000 -0.5000
vn -0.9397 0.0000 -0.3420
vn -0.9848 0.0000 -0.1736
vn -1.0000 0.0000 -0.0000
vn -0.9848 0.0000 0.1736
vn -0.9397 0.0000 0.3420
vn -0.8660 0.0000 0.5000
vn -0.7660 0.0000 0.6428
vn -0.6428 0.0000 0.7660
vn -0.5000 0.0000 0.8660
vn -0.3420 0.0000 0.9397
vn -0.1736 0.0000 0.9848
vn -0.0000 0.0000 1.0000
vn 0.1736 0.0000 0.9848
vn 0.3420 0.0000 0.9397
vn 0.5000 0.0000 0.8660
vn 0.6428 0.0000 0.7660
vn 0.7660 0.0000 0.6428
vn 0.8660 0.0000 0.5000
vn 0.9397 0.0000 0.3420
vn 0.9848 0.0000 0.1736
vn 0.9848 -0.1736 -0.0000
vn 0.9397 -0.3420 -0.0000
vn 0.8660 -0.5000 -0.0000
vn 0.7660 -0.6428 -0.0000
vn 0.6428 -0.7660 -0.0000
vn 0.5000 -0.8660 -0.0000
vn 0.3420 -0.9397 -0.0000
vn 0.1736 -0.9848 -0.0000
vn 0.0000 -1.0000 -0.0000
vn 0.0000 -1.0000 -0.0000
vn 0.0000 -1.0000 -0.0000
vn 0.0000 -1.0000 -0.0000
vn 0.0000 -1.0000 -0.0000
vn 0.0000 -1.0000 -0.0000
vn 0.0000 -1.0000 -0.0000
vn 0.0000 -1.0000 -0.0000
vn 0.0000 -1.0000 -0.0000
vn -0.0000 -1.0000 -0.0000
vn -0.0000 -1.0000 -0.0000
vn -0.0000 -1.0000 -0.0000
vn -0.0000 -1.0000 -0.0000
vn -0.0000 -1.0000 -0.0000
vn -0.0000 -1.0000 -0.0000
vn -0.0000 -1.0000 -0.0000
vn -0.0000 -1.0000 -0.0000
vn -0.0000 -1.0000 -0.0000
vn -0.0000 -1.0000 0.0000
vn -0.0000 -1.0000 0.0000
vn -0.0000 -1.0000 0.0000
vn -0.0000 -1.0000 0.0000
vn -0.0000 -1.0000 0.0000
vn -0.0000 -1.0000 0.0000
vn -0.0000 -1.0000 0.0000
vn -0.0000 -1.0000 0.0000
vn -0.0000 -1.0000 0.0000
vn -0.0000 -1.0000 0.0000
vn 0.0000 -1.0000 0.0000
vn 0.0000 -1.0000 0.0000
vn 0.0000 -1.0000 0.0000
vn 0.0000 -1.0000 0.0000
vn 0.0000 -1.0000 0.0000
vn 0.0000 -1.0000 0.0000
vn 0.0000 -1.0000 0.0000
vn 0.0000 -1.0000 0.0000
vn 0.9698 -0.1736 -0.1710
vn 0.9254 -0.3420 -0.1632
vn 0.8529 -0.5000 -0.1504
vn 0.7544 -0.6428 -0.1330
vn 0.6330 -0.7660 -0.1116
vn 0.9254 -0.1736 -0.3368
vn 0.4924 -0.8660 -0.0868
vn 0.8830 -0.3420 -0.3214
vn 0.3368 -0.9397 -0.0594
vn 0.8138 -0.5000 -0.2962
vn 0.1710 -0.9848 -0.0302
vn 0.7198 -0.6428 -0.2620
vn 0.6040 -0.7660 -0.2198
vn 0.8529 -0.1736 -0.4924
vn 0.4698 -0.8660 -0.1710
vn 0.8138 -0.3420 -0.4698
vn 0.3214 -0.9397 -0.1170
vn 0.7500 -0.5000 -0.4330
vn 0.1632 -0.9848 -0.0594
vn 0.6634 -0.6428 -0.3830
vn 0.5567 -0.7660 -0.3214
vn 0.7544 -0.1736 -0.6330
vn 0.4330 -0.8660 -0.2500
vn 0.7198 -0.3420 -0.6040
vn 0.2962 -0.9397 -0.1710
vn 0.6634 -0.5000 -0.5567
vn 0.1504 -0.9848 -0.0868
vn 0.5868 -0.6428 -0.4924
vn 0.4924 -0.7660 -0.4132
vn 0.6330 -0.1736 -0.7544
vn 0.3830 -0.8660 -0.3214
vn 0.6040 -0.3420 -0.7198
vn 0.2620 -0.9397 -0.2198
vn 0.5567 -0.5000 -0.6634
vn 0.1330 -0.9848 -0.1116
vn 0.4924 -0.6428 -0.5868
vn 0.4132 -0.7660 -0.4924
vn 0.4924 -0.1736 -0.8529
vn 0.3214 -0.8660 -0.3830
vn 0.4698 -0.3420 -0.8138
vn 0.2198 -0.9397 -0.2620
vn 0.4330 -0.5000 -0.7500
vn 0.1116 -0.9848 -0.1330
vn 0.3830 -0.6428 -0.6634
vn 0.3214 -0.7660 -0.5567
vn 0.3368 -0.1736 -0.9254
vn 0.2500 -0.8660 -0.4330
vn 0.3214 -0.3420 -0.8830
vn 0.1710 -0.9397 -0.2962
vn 0.2962 -0.5000 -0.8138
vn 0.0868 -0.9848 -0.1504
vn 0.2620 -0.6428 -0.7198
vn 0.2198 -0.7660 -0.6040
vn 0.1710 -0.1736 -0.9698
vn 0.1710 -0.8660 -0.4698
vn 0.1632 -0.3420 -0.9254
vn 0.1170 -0.9397 -0.3214
vn 0.1504 -0.5000 -0.8529
vn 0.0594 -0.9848 -0.1632
vn 0.1330 -0.6428 -0.7544
vn 0.1116 -0.7660 -0.6330
vn -0.0000 -0.1736 -0.9848
vn 0.0868 -0.8660 -0.4924
vn -0.0000 -0.3420 -0.9397
vn 0.0594 -0.9397 -0.3368
vn -0.0000 -0.5000 -0.8660
vn 0.0302 -0.9848 -0.1710
vn -0.0000 -0.6428 -0.7660
vn -0.0000 -0.7660 -0.6428
vn -0.1710 -0.1736 -0.9698
vn -0.0000 -0.8660 -0.5000
vn -0.1632 -0.3420 -0.9254
vn -0.0000 -0.9397 -0.3420
vn -0.1504 -0.5000 -0.8529
vn -0.0000 -0.9848 -0.1736
vn -0.1330 -0.6428 -0.7544
vn -0.1116 -0.7660 -0.6330
vn -0.3368 -0.1736 -0.9254
vn -0.0868 -0.8660 -0.4924
vn -0.3214 -0.3420 -0.8830
vn -0.0594 -0.9397 -0.3368
vn -0.2962 -0.5000 -0.8138
vn -0.0302 -0.9848 -0.1710
vn -0.2620 -0.6428 -0.7198
vn -0.2198 -0.7660 -0.6040
vn -0.4924 -0.1736 -0.8529
vn -0.1710 -0.8660 -0.4698
vn -0.4698 -0.3420 -0.8138
vn -0.1170 -0.9397 -0.3214
vn -0.4330 -0.5000 -0.7500
vn -0.0594 -0.9848 -0.1632
vn -0.3830 -0.6428 -0.6634
vn -0.3214 -0.7660 -0.5567
vn -0.6330 -0.1736 -0.7544
vn -0.2500 -0.8660 -0.4330
vn -0.6040 -0.3420 -0.7198
vn -0.1710 -0.9397 -0.2962
vn -0.5567 -0.5000 -0.6634
vn -0.0868 -0.9848 -0.1504
vn -0.4924 -0.6428 -0.5868
vn -0.4132 -0.7660 -0.4924
vn -0.7544 -0.1736 -0.6330
vn -0.3214 -0.8660 -0.3830
vn -0.7198 -0.3420 -0.6040
vn -0.2198 -0.9397 -0.2620
vn -0.6634 -0.5000 -0.5567
vn -0.1116 -0.9848 -0.1330
vn -0.5868 -0.6428 -0.4924
vn -0.4924 -0.7660 -0.4132
vn -0.8529 -0.1736 -0.4924
vn -0.3830 -0.8660 -0.3214
vn -0.8138 -0.3420 -0.4698
vn -0.2620 -0.9397 -0.2198
vn -0.7500 -0.5000 -0.4330
vn -0.1330 -0.9848 -0.1116
vn -0.6634 -0.6428 -0.3830
vn -0.5567 -0.7660 -0.3214
vn -0.9254 -0.1736 -0.3368
vn -0.4330 -0.8660 -0.2500
vn -0.8830 -0.3420 -0.3214
vn -0.2962 -0.9397 -0.1710
vn -0.8138 -0.5000 -0.2962
vn -0.1504 -0.9848 -0.0868
vn -0.7198 -0.6428 -0.2620
vn -0.6040 -0.7660 -0.2198
vn -0.9698 -0.1736 -0.1710
vn -0.4698 -0.8660 -0.1710
vn -0.9254 -0.3420 -0.1632
vn -0.3214 -0.9397 -0.1170
vn -0.8529 -0.5000 -0.1504
vn -0.1632 -0.9848 -0.0594
vn -0.7544 -0.6428 -0.1330
vn -0.6330 -0.7660 -0.1116
vn -0.9848 -0.1736 0.0000
vn -0.4924 -0.8660 -0.0868
vn -0.9397 -0.3420 0.0000
vn -0.3368 -0.9397 -0.0594
vn -0.8660 -0.5000 0.0000
vn -0.1710 -0.9848 -0.0302
vn -0.7660 -0.6428 0.0000
vn -0.6428 -0.7660 0.0000
vn -0.9698 -0.1736 0.1710
vn -0.5000 -0.8660 0.0000
vn -0.9254 -0.3420 0.1632
vn -0.3420 -0.9397 0.0000
vn -0.8529 -0.5000 0.1504
vn -0.1736 -0.9848 0.0000
vn -0.7544 -0.6428 0.1330
vn -0.6330 -0.7660 0.1116
vn -0.9254 -0.1736 0.3368
vn -0.4924 -0.8660 0.0868
vn -0.8830 -0.3420 0.3214
vn -0.3368 -0.9397 0.0594
vn -0.8138 -0.5000 0.2962
vn -0.1710 -0.9848 0.0302
vn -0.7198 -0.6428 0.2620
vn -0.6040 -0.7660 0.2198
vn -0.8529 -0.1736 0.4924
vn -0.4698 -0.8660 0.1710
vn -0.8138 -0.3420 0.4698
vn -0.3214 -0.9397 0.1170
vn -0.7500 -0.5000 0.4330
vn -0.1632 -0.9848 0.0594
vn -0.6634 -0.6428 0.3830
vn -0.5567 -0.7660 0.3214
vn -0.7544 -0.1736 0.6330
vn -0.4330 -0.8660 0.2500
vn -0.7198 -0.3420 0.6040
vn -0.2962 -0.9397 0.1710
vn -0.6634 -0.5000 0.5567
vn -0.1504 -0.9848 0.0868
vn -0.5868 -0.6428 0.4924
vn -0.4924 -0.7660 0.4132
vn -0.6330 -0.1736 0.7544
vn -0.3830 -0.8660 0.3214
vn -0.6040 -0.3420 0.7198
vn -0.2620 -0.9397 0.2198
vn -0.5567 -0.5000 0.6634
vn -0.1330 -0.9848 0.1116
vn -0.4924 -0.6428 0.5868
vn -0.4132 -0.7660 0.4924
vn -0.4924 -0.1736 0.8529
vn -0.3214 -0.8660 0.3830
vn -0.4698 -0.3420 0.8138
vn -0.2198 -0.9397 0.2620
vn -0.4330 -0.5000 0.7500
vn -0.1116 -0.9848 0.1330
vn -0.3830 -0.6428 0.6634
vn -0.3214 -0.7660 0.5567
vn -0.3368 -0.1736 0.9254
vn -0.2500 -0.8660 0.4330
vn -0.3214 -0.3420 0.8830
vn -0.1710 -0.9397 0.2962
vn -0.2962 -0.5000 0.8138
vn -0.0868 -0.9848 0.1504
vn -0.2620 -0.6428 0.7198
vn -0.2198 -0.7660 0.6040
vn -0.1710 -0.1736 0.9698
vn -0.1710 -0.8660 0.4698
vn -0.1632 -0.3420 0.9254
vn -0.1170 -0.9397 0.3214
vn -0.1504 -0.5000 0.8529
vn -0.0594 -0.9848 0.1632
vn -0.1330 -0.6428 0.7544
vn -0.1116 -0.7660 0.6330
vn -0.0000 -0.1736 0.9848
vn -0.0868 -0.8660 0.4924
vn -0.0000 -0.3420 0.9397
vn -0.0594 -0.9397 0.3368
vn -0.0000 -0.5000 0.8660
vn -0.0302 -0.9848 0.1710
vn -0.0000 -0.6428 0.7660
vn -0.0000 -0.7660 0.6428
vn 0.1710 -0.1736 0.9698
vn -0.0000 -0.8660 0.5000
vn 0.1632 -0.3420 0.9254
vn -0.0000 -0.9397 0.3420
vn 0.1504 -0.5000 0.8529
vn -0.0000 -0.9848 0.1736
vn 0.1330 -0.6428 0.7544
vn 0.1116 -0.7660 0.6330
vn 0.3368 -0.1736 0.9254
vn 0.0868 -0.8660 0.4924
vn 0.3214 -0.3420 0.8830
vn 0.0594 -0.9397 0.3368
vn 0.2962 -0.5000 0.8138
vn 0.0302 -0.9848 0.1710
vn 0.2620 -0.6428 0.7198
vn 0.2198 -0.7660 0.6040
vn 0.4924 -0.1736 0.8529
vn 0.1710 -0.8660 0.4698
vn 0.4698 -0.3420 0.8138
vn 0.1170 -0.9397 0.3214
vn 0.4330 -0.5000 0.7500
vn 0.0594 -0.9848 0.1632
vn 0.3830 -0.6428 0.6634
vn 0.3214 -0.7660 0.5567
vn 0.6330 -0.1736 0.7544
vn 0.2500 -0.8660 0.4330
vn 0.6040 -0.3420 0.7198
vn 0.1710 -0.9397 0.2962
vn 0.5567 -0.5000 0.6634
vn 0.0868 -0.9848 0.1504
vn 0.4924 -0.6428 0.5868
vn 0.4132 -0.7660 0.4924
vn 0.7544 -0.1736 0.6330
vn 0.3214 -0.8660 0.3830
vn 0.7198 -0.3420 0.6040
vn 0.2198 -0.9397 0.2620
vn 0.6634 -0.5000 0.5567
vn 0.1116 -0.9848 0.1330
vn 0.5868 -0.6428 0.4924
vn 0.4924 -0.7660 0.4132
vn 0.8529 -0.1736 0.4924
vn 0.3830 -0.8660 0.3214
vn 0.8138 -0.3420 0.4698
vn 0.2620 -0.9397 0.2198
vn 0.7500 -0.5000 0.4330
vn 0.1330 -0.9848 0.1116
vn 0.6634 -0.6428 0.3830
vn 0.5567 -0.7660 0.3214
vn 0.9254 -0.1736 0.3368
vn 0.4330 -0.8660 0.2500
vn 0.8830 -0.3420 0.3214
vn 0.2962 -0.9397 0.1710
vn 0.8138 -0.5000 0.2962
vn 0.1504 -0.9848 0.0868
vn 0.7198 -0.6428 0.2620
vn 0.6040 -0.7660 0.2198
vn 0.9698 -0.1736 0.1710
vn 0.4698 -0.8660 0.1710
vn 0.9254 -0.3420 0.1632
vn 0.3214 -0.9397 0.1170
vn 0.8529 -0.5000 0.1504
vn 0.1632 -0.9848 0.0594
vn 0.7544 -0.6428 0.1330
vn 0.6330 -0.7660 0.1116
vn 0.4924 -0.8660 0.0868
vn 0.3368 -0.9397 0.0594
vn 0.1710 -0.9848 0.0302
vn 0.9848 0.1736 -0.0000
vn 0.9397 0.3420 -0.0000
vn 0.8660 0.5000 -0.0000
vn 0.7660 0.6428 -0.0000
vn 0.6428 0.7660 -0.0000
vn 0.5000 0.8660 -0.0000
vn 0.3420 0.9397 -0.0000
vn 0.1736 0.9848 -0.0000
vn 0.0000 1.0000 -0.0000
vn 0.0000 1.0000 -0.0000
vn 0.0000 1.0000 -0.0000
vn 0.0000 1.0000 -0.0000
vn 0.0000 1.0000 -0.0000
vn 0.0000 1.0000 -0.0000
vn 0.0000 1.0000 -0.0000
vn 0.0000 1.0000 -0.0000
vn 0.0000 1.0000 -0.0000
vn 0.0000 1.0000 -0.0000
vn -0.0000 1.0000 -0.0000
vn -0.0000 1.0000 -0.0000
vn -0.0000 1.0000 -0.0000
vn -0.0000 1.0000 -0.0000
vn -0.0000 1.0000 -0.0000
vn -0.0000 1.0000 -0.0000
vn -0.0000 1.0000 -0.0000
vn -0.0000 1.0000 -0.0000
vn -0.0000 1.0000 -0.0000
vn -0.0000 1.0000 0.0000
vn -0.0000 1.0000 0.0000
vn -0.0000 1.0000 0.0000
vn -0.0000 1.0000 0.0000
vn -0.0000 1.0000 0.0000
vn -0.0000 1.0000 0.0000
vn -0.0000 1.0000 0.0000
vn -0.0000 1.0000 0.0000
vn -0.0000 1.0000 0.0000
vn 0.0000 1.0000 0.0000
vn 0.0000 1.0000 0.0000
vn 0.0000 1.0000 0.0000
vn 0.0000 1.0000 0.0000
vn 0.0000 1.0000 0.0000
vn 0.0000 1.0000 0.0000
vn 0.0000 1.0000 0.0000
vn 0.0000 1.0000 0.0000
vn 0.9698 0.1736 -0.1710
vn 0.9254 0.3420 -0.1632
vn 0.8529 0.5000 -0.1504
vn 0.7544 0.6428 -0.1330
vn 0.6330 0.7660 -0.1116
vn 0.9254 0.1736 -0.3368
vn 0.4924 0.8660 -0.0868
vn 0.8830 0.3420 -0.3214
vn 0.3368 0.9397 -0.0594
vn 0.8138 0.5000 -0.2962
vn 0.1710 0.9848 -0.0302
vn 0.7198 0.6428 -0.2620
vn 0.6040 0.7660 -0.2198
vn 0.8529 0.1736 -0.4924
vn 0.4698 0.8660 -0.1710
vn 0.8138 0.3420 -0.4698
vn 0.3214 0.9397 -0.1170
vn 0.7500 0.5000 -0.4330
vn 0.1632 0.9848 -0.0594
vn 0.6634 0.6428 -0.3830
vn 0.5567 0.7660 -0.3214
vn 0.7544 0.1736 -0.6330
vn 0.4330 0.8660 -0.2500
vn 0.7198 0.3420 -0.6040
vn 0.2962 0.9397 -0.1710
vn 0.6634 0.5000 -0.5567
vn 0.1504 0.9848 -0.0868
vn 0.5868 0.6428 -0.4924
vn 0.4924 0.7660 -0.4132
vn 0.6330 0.1736 -0.7544
vn 0.3830 0.8660 -0.3214
vn 0.6040 0.3420 -0.7198
vn 0.2620 0.9397 -0.2198
vn 0.5567 0.5000 -0.6634
vn 0.1330 0.9848 -0.1116
vn 0.4924 0.6428 -0.5868
vn 0.4132 0.7660 -0.4924
vn 0.4924 0.1736 -0.8529
vn 0.3214 0.8660 -0.3830
vn 0.4698 0.3420 -0.8138
vn 0.2198 0.9397 -0.2620
vn 0.4330 0.5000 -0.7500
vn 0.1116 0.9848 -0.1330
vn 0.3830 0.6428 -0.6634
vn 0.3214 0.7660 -0.5567
vn 0.3368 0.1736 -0.9254
vn 0.2500 0.8660 -0.4330
vn 0.3214 0.3420 -0.8830
vn 0.1710 0.9397 -0.2962
vn 0.2962 0.5000 -0.8138
vn 0.0868 0.9848 -0.1504
vn 0.2620 0.6428 -0.7198
vn 0.2198 0.7660 -0.6040
vn 0.1710 0.1736 -0.9698
vn 0.1710 0.8660 -0.4698
vn 0.1632 0.3420 -0.9254
vn 0.1170 0.9397 -0.3214
vn 0.1504 0.5000 -0.8529
vn 0.0594 0.9848 -0.1632
vn 0.1330 0.6428 -0.7544
vn 0.1116 0.7660 -0.6330
vn 0.0000 0.1736 -0.9848
vn 0.0868 0.8660 -0.4924
vn 0.0000 0.3420 -0.9397
vn 0.0594 0.9397 -0.3368
vn 0.0000 0.5000 -0.8660
vn 0.0302 0.9848 -0.1710
vn 0.0000 0.6428 -0.7660
vn 0.0000 0.7660 -0.6428
vn -0.1710 0.1736 -0.9698
vn 0.0000 0.8660 -0.5000
vn -0.1632 0.3420 -0.9254
vn 0.0000 0.9397 -0.3420
vn -0.1504 0.5000 -0.8529
vn 0.0000 0.9848 -0.1736
vn -0.1330 0.6428 -0.7544
vn -0.1116 0.7660 -0.6330
vn -0.3368 0.1736 -0.9254
vn -0.0868 0.8660 -0.4924
vn -0.3214 0.3420 -0.8830
vn -0.0594 0.9397 -0.3368
vn -0.2962 0.5000 -0.8138
vn -0.0302 0.9848 -0.1710
vn -0.2620 0.6428 -0.7198
vn -0.2198 0.7660 -0.6040
vn -0.4924 0.1736 -0.8529
vn -0.1710 0.8660 -0.4698
vn -0.4698 0.3420 -0.8138
vn -0.1170 0.9397 -0.3214
vn -0.4330 0.5000 -0.7500
vn -0.0594 0.9848 -0.1632
vn -0.3830 0.6428 -0.6634
vn -0.3214 0.7660 -0.5567
vn -0.6330 0.1736 -0.7544
vn -0.2500 0.8660 -0.4330
vn -0.6040 0.3420 -0.7198
vn -0.1710 0.9397 -0.2962
vn -0.5567 0.5000 -0.6634
vn -0.0868 0.9848 -0.1504
vn -0.4924 0.6428 -0.5868
vn -0.4132 0.7660 -0.4924
vn -0.7544 0.1736 -0.6330
vn -0.3214 0.8660 -0.3830
vn -0.7198 0.3420 -0.6040
vn -0.2198 0.9397 -0.2620
vn -0.6634 0.5000 -0.5567
vn -0.1116 0.9848 -0.1330
vn -0.5868 0.6428 -0.4924
vn -0.4924 0.7660 -0.4132
vn -0.8529 0.1736 -0.4924
vn -0.3830 0.8660 -0.3214
vn -0.8138 0.3420 -0.4698
vn -0.2620 0.9397 -0.2198
vn -0.7500 0.5000 -0.4330
vn -0.1330 0.9848 -0.1116
vn -0.6634 0.6428 -0.3830
vn -0.5567 0.7660 -0.3214
vn -0.9254 0.1736 -0.3368
vn -0.4330 0.8660 -0.2500
vn -0.8830 0.3420 -0.3214
vn -0.2962 0.9397 -0.1710
vn -0.8138 0.5000 -0.2962
vn -0.1504 0.9848 -0.0868
vn -0.7198 0.6428 -0.2620
vn -0.6040 0.7660 -0.2198
vn -0.9698 0.1736 -0.1710
vn -0.4698 0.8660 -0.1710
vn -0.9254 0.3420 -0.1632
vn -0.3214 0.9397 -0.1170
vn -0.8529 0.5000 -0.1504
vn -0.1632 0.9848 -0.0594
vn -0.7544 0.6428 -0.1330
vn -0.6330 0.7660 -0.1116
vn -0.9848 0.1736 -0.0000
vn -0.4924 0.8660 -0.0868
vn -0.9397 0.3420 -0.0000
vn -0.3368 0.9397 -0.0594
vn -0.8660 0.5000 -0.0000
vn -0.1710 0.9848 -0.0302
vn -0.7660 0.6428 -0.0000
vn -0.6428 0.7660 -0.0000
vn -0.9698 0.1736 0.1710
vn -0.5000 0.8660 -0.0000
vn -0.9254 0.3420 0.1632
vn -0.3420 0.9397 -0.0000
vn -0.8529 0.5000 0.1504
vn -0.1736 0.9848 -0.0000
vn -0.7544 0.6428 0.1330
vn -0.6330 0.7660 0.1116
vn -0.9254 0.1736 0.3368
vn -0.4924 0.8660 0.0868
vn -0.8830 0.3420 0.3214
vn -0.3368 0.9397 0.0594
vn -0.8138 0.5000 0.2962
vn -0.1710 0.9848 0.0302
vn -0.7198 0.6428 0.2620
vn -0.6040 0.7660 0.2198
vn -0.8529 0.1736 0.4924
vn -0.4698 0.8660 0.1710
vn -0.8138 0.3420 0.4698
vn -0.3214 0.9397 0.1170
vn -0.7500 0.5000 0.4330
vn -0.1632 0.9848 0.0594
vn -0.6634 0.6428 0.3830
vn -0.5567 0.7660 0.3214
vn -0.7544 0.1736 0.6330
vn -0.4330 0.8660 0.2500
vn -0.7198 0.3420 0.6040
vn -0.2962 0.9397 0.1710
vn -0.6634 0.5000 0.5567
vn -0.1504 0.9848 0.0868
vn -0.5868 0.6428 0.4924
vn -0.4924 0.7660 0.4132
vn -0.6330 0.1736 0.7544
vn -0.3830 0.8660 0.3214
vn -0.6040 0.3420 0.7198
vn -0.2620 0.9397 0.2198
vn -0.5567 0.5000 0.6634
vn -0.1330 0.9848 0.1116
vn -0.4924 0.6428 0.5868
vn -0.4132 0.7660 0.4924
vn -0.4924 0.1736 0.8529
vn -0.3214 0.8660 0.3830
vn -0.4698 0.3420 0.8138
vn -0.2198 0.9397 0.2620
vn -0.4330 0.5000 0.7500
vn -0.1116 0.9848 0.1330
vn -0.3830 0.6428 0.6634
vn -0.3214 0.7660 0.5567
vn -0.3368 0.1736 0.9254
vn -0.2500 0.8660 0.4330
vn -0.3214 0.3420 0.8830
vn -0.1710 0.9397 0.2962
vn -0.2962 0.5000 0.8138
vn -0.0868 0.9848 0.1504
vn -0.2620 0.6428 0.7198
vn -0.2198 0.7660 0.6040
vn -0.1710 0.1736 0.9698
vn -0.1710 0.8660 0.4698
vn -0.1632 0.3420 0.9254
vn -0.1170 0.9397 0.3214
vn -0.1504 0.5000 0.8529
vn -0.0594 0.9848 0.1632
vn -0.1330 0.6428 0.7544
vn -0.1116 0.7660 0.6330
vn -0.0000 0.1736 0.9848
vn -0.0868 0.8660 0.4924
vn -0.0000 0.3420 0.9397
vn -0.0594 0.9397 0.3368
vn -0.0000 0.5000 0.8660
vn -0.0302 0.9848 0.1710
vn -0.0000 0.6428 0.7660
vn -0.0000 0.7660 0.6428
vn 0.1710 0.1736 0.9698
vn -0.0000 0.8660 0.5000
vn 0.1632 0.3420 0.9254
vn -0.0000 0.9397 0.3420
vn 0.1504 0.5000 0.8529
vn -0.0000 0.9848 0.1736
vn 0.1330 0.6428 0.7544
vn 0.1116 0.7660 0.6330
vn 0.3368 0.1736 0.9254
vn 0.0868 0.8660 0.4924
vn 0.3214 0.3420 0.8830
vn 0.0594 0.9397 0.3368
vn 0.2962 0.5000 0.8138
vn 0.0302 0.9848 0.1710
vn 0.2620 0.6428 0.7198
vn 0.2198 0.7660 0.6040
vn 0.4924 0.1736 0.8529
vn 0.1710 0.8660 0.4698
vn 0.4698 0.3420 0.8138
vn 0.1170 0.9397 0.3214
vn 0.4330 0.5000 0.7500
vn 0.0594 0.9848 0.1632
vn 0.3830 0.6428 0.6634
vn 0.3214 0.7660 0.5567
vn 0.6330 0.1736 0.7544
vn 0.2500 0.8660 0.4330
vn 0.6040 0.3420 0.7198
vn 0.1710 0.9397 0.2962
vn 0.5567 0.5000 0.6634
vn 0.0868 0.9848 0.1504
vn 0.4924 0.6428 0.5868
vn 0.4132 0.7660 0.4924
vn 0.7544 0.1736 0.6330
vn 0.3214 0.8660 0.3830
vn 0.7198 0.3420 0.6040
vn 0.2198 0.9397 0.2620
vn 0.6634 0.5000 0.5567
vn 0.1116 0.9848 0.1330
vn 0.5868 0.6428 0.4924
vn 0.4924 0.7660 0.4132
vn 0.8529 0.1736 0.4924
vn 0.3830 0.8660 0.3214
vn 0.8138 0.3420 0.4698
vn 0.2620 0.9397 0.2198
vn 0.7500 0.5000 0.4330
vn 0.1330 0.9848 0.1116
vn 0.6634 0.6428 0.3830
vn 0.5567 0.7660 0.3214
vn 0.9254 0.1736 0.3368
vn 0.4330 0.8660 0.2500
vn 0.8830 0.3420 0.3214
vn 0.2962 0.9397 0.1710
vn 0.8138 0.5000 0.2962
vn 0.1504 0.9848 0.0868
vn 0.7198 0.6428 0.2620
vn 0.6040 0.7660 0.2198
vn 0.9698 0.1736 0.1710
vn 0.4698 0.8660 0.1710
vn 0.9254 0.3420 0.1632
vn 0.3214 0.9397 0.1170
vn 0.8529 0.5000 0.1504
vn 0.1632 0.9848 0.0594
vn 0.7544 0.6428 0.1330
vn 0.6330 0.7660 0.1116
vn 0.4924 0.8660 0.0868
vn 0.3368 0.9397 0.0594
vn 0.1710 0.9848 0.0302
f 3//3 2//2 1//1
f 3//3 1//1 38//38
f 4//4 38//38 39//39
f 4//4 3//3 38//38
f 5//5 39//39 40//40
f 5//5 4//4 39//39
f 6//6 40//40 41//41
f 6//6 41//41 42//42
f 6//6 5//5 40//40
f 7//7 6//6 42//42
f 8//8 7//7 42//42
f 8//8 42//42 43//43
f 8//8 43//43 44//44
f 9//9 8//8 44//44
f 10//10 9//9 44//44
f 10//10 44//44 45//45
f 11//11 10//10 45//45
f 11//11 45//45 46//46
f 11//11 46//46 47//47
f 12//12 11//11 47//47
f 13//13 12//12 47//47
f 13//13 47//47 48//48
f 14//14 13//13 48//48
f 14//14 48//48 49//49
f 14//14 49//49 50//50
f 15//15 14//14 50//50
f 16//16 15//15 50//50
f 16//16 50//50 51//51
f 17//17 16//16 51//51
f 17//17 51//51 52//52
f 17//17 52//52 53//53
f 18//18 17//17 53//53
f 19//19 18//18 53//53
f 19//19 53//53 54//54
f 19//19 54//54 55//55
f 20//20 19//19 55//55
f 21//21 20//20 55//55
f 21//21 55//55 56//56
f 22//22 56//56 57//57
f 22//22 21//21 56//56
f 23//23 57//57 58//58
f 23//23 22//22 57//57
f 24//24 58//58 59//59
f 24//24 59//59 60//60
f 24//24 23//23 58//58
f 25//25 24//24 60//60
f 26//26 60//60 61//61
f 26//26 25//25 60//60
f 27//27 61//61 62//62
f 27//27 26//26 61//61
f 28//28 62//62 63//63
f 28//28 27//27 62//62
f 29//29 63//63 64//64
f 29//29 64//64 65//65
f 29//29 28//28 63//63
f 30//30 65//65 66//66
f 30//30 29//29 65//65
f 31//31 30//30 66//66
f 32//32 66//66 67//67
f 32//32 67//67 68//68
f 32//32 31//31 66//66
f 33//33 32//32 68//68
f 34//34 68//68 69//69
f 34//34 33//33 68//68
f 35//35 34//34 69//69
f 35//35 69//69 70//70
f 35//35 70//70 71//71
f 36//36 35//35 71//71
f 36//36 71//71 72//72
f 37//37 36//36 72//72
f 2//2 37//37 72//72
f 2//2 72//72 1//1
f 117//117 1//1 73//73
f 117//117 38//38 1//1
f 118//118 73//73 74//74
f 118//118 117//117 73//73
f 119//119 118//118 74//74
f 119//119 74//74 75//75
f 120//120 75//75 76//76
f 120//120 119//119 75//75
f 121//121 76//76 77//77
f 121//121 120//120 76//76
f 122//122 39//39 38//38
f 122//122 38//38 117//117
f 123//123 77//77 78//78
f 123//123 121//121 77//77
f 124//124 117//117 118//118
f 124//124 122//122 117//117
f 125//125 78//78 79//79
f 125//125 123//123 78//78
f 126//126 118//118 119//119
f 126//126 124//124 118//118
f 127//127 125//125 79//79
f 127//127 79//79 80//80
f 127//127 80//80 81//81
f 127//127 81//81 82//82
f 128//128 119//119 120//120
f 128//128 126//126 119//119
f 129//129 120//120 121//121
f 129//129 128//128 120//120
f 130//130 40//40 39//39
f 130//130 39//39 122//122
f 131//131 129//129 121//121
f 131//131 121//121 123//123
f 132//132 130//130 122//122
f 132//132 122//122 124//124
f 133//133 123//123 125//125
f 133//133 131//131 123//123
f 134//134 124//124 126//126
f 134//134 132//132 124//124
f 135//135 133//133 125//125
f 135//135 82//82 83//83
f 135//135 125//125 127//127
f 135//135 127//127 82//82
f 136//136 126//126 128//128
f 136//136 134//134 126//126
f 137//137 128//128 129//129
f 137//137 136//136 128//128
f 138//138 41//41 40//40
f 138//138 40//40 130//130
f 139//139 129//129 131//131
f 139//139 137//137 129//129
f 140//140 130//130 132//132
f 140//140 138//138 130//130
f 141//141 139//139 131//131
f 141//141 131//131 133//133
f 142//142 132//132 134//134
f 142//142 140//140 132//132
f 143//143 135//135 83//83
f 143//143 133//133 135//135
f 143//143 83//83 84//84
f 143//143 141//141 133//133
f 144//144 142//142 134//134
f 144//144 134//134 136//136
f 145//145 136//136 137//137
f 145//145 144//144 136//136
f 146//146 42//42 41//41
f 146//146 41//41 138//138
f 147//147 145//145 137//137
f 147//147 137//137 139//139
f 148//148 146//146 138//138
f 148//148 138//138 140//140
f 149//149 139//139 141//141
f 149//149 147//147 139//139
f 150//150 140//140 142//142
f 150//150 148//148 140//140
f 151//151 141//141 143//143
f 151//151 149//149 141//141
f 151//151 143//143 84//84
f 151//151 84//84 85//85
f 151//151 85//85 86//86
f 152//152 142//142 144//144
f 152//152 150//150 142//142
f 153//153 152//152 144//144
f 153//153 144//144 145//145
f 154//154 43//43 42//42
f 154//154 42//42 146//146
f 155//155 145//145 147//147
f 155//155 153//153 145//145
f 156//156 146//146 148//148
f 156//156 148//148 150//150
f 156//156 154//154 146//146
f 157//157 147//147 149//149
f 157//157 155//155 147//147
f 158//158 156//156 150//150
f 159//159 149//149 151//151
f 159//159 151//151 86//86
f 159//159 157//157 149//149
f 160//160 158//158 150//150
f 160//160 150//150 152//152
f 161//161 160//160 152//152
f 161//161 152//152 153//153
f 162//162 43//43 154//154
f 162//162 44//44 43//43
f 163//163 161//161 153//153
f 163//163 153//153 155//155
f 164//164 154//154 156//156
f 164//164 162//162 154//154
f 165//165 163//163 155//155
f 165//165 155//155 157//157
f 166//166 164//164 156//156
f 166//166 158//158 160//160
f 166//166 156//156 158//158
f 167//167 157//157 159//159
f 167//167 159//159 86//86
f 167//167 165//165 157//157
f 167//167 86//86 87//87
f 168//168 166//166 160//160
f 169//169 160//160 161//161
f 169//169 168//168 160//160
f 170//170 45//45 44//44
f 170//170 44//44 162//162
f 171//171 163//163 165//165
f 171//171 169//169 161//161
f 171//171 161//161 163//163
f 172//172 170//170 162//162
f 172//172 162//162 164//164
f 173//173 171//171 165//165
f 174//174 172//172 164//164
f 174//174 164//164 166//166
f 175//175 165//165 167//167
f 175//175 167//167 87//87
f 175//175 173//173 165//165
f 175//175 87//87 88//88
f 176//176 166//166 168//168
f 176//176 174//174 166//166
f 177//177 168//168 169//169
f 177//177 176//176 168//168
f 178//178 46//46 45//45
f 178//178 45//45 170//170
f 179//179 169//169 171//171
f 179//179 177//177 169//169
f 180//180 170//170 172//172
f 180//180 178//178 170//170
f 181//181 171//171 173//173
f 181//181 179//179 171//171
f 182//182 172//172 174//174
f 182//182 180//180 172//172
f 183//183 173//173 175//175
f 183//183 175//175 88//88
f 183//183 181//181 173//173
f 183//183 88//88 89//89
f 184//184 174//174 176//176
f 184//184 182//182 174//174
f 185//185 176//176 177//177
f 185//185 184//184 176//176
f 186//186 47//47 46//46
f 186//186 46//46 178//178
f 187//187 177//177 179//179
f 187//187 185//185 177//177
f 188//188 178//178 180//180
f 188//188 186//186 178//178
f 189//189 179//179 181//181
f 189//189 187//187 179//179
f 190//190 188//188 180//180
f 190//190 180//180 182//182
f 191//191 89//89 90//90
f 191//191 181//181 183//183
f 191//191 183//183 89//89
f 191//191 189//189 181//181
f 192//192 182//182 184//184
f 192//192 190//190 182//182
f 193//193 184//184 185//185
f 193//193 192//192 184//184
f 194//194 48//48 47//47
f 194//194 47//47 186//186
f 195//195 185//185 187//187
f 195//195 193//193 185//185
f 196//196 194//194 186//186
f 196//196 186//186 188//188
f 197//197 195//195 187//187
f 197//197 187//187 189//189
f 198//198 196//196 188//188
f 198//198 188//188 190//190
f 199//199 197//197 189//189
f 199//199 90//90 91//91
f 199//199 191//191 90//90
f 199//199 189//189 191//191
f 200//200 190//190 192//192
f 200//200 198//198 190//190
f 201//201 192//192 193//193
f 201//201 193//193 195//195
f 201//201 200//200 192//192
f 202//202 49//49 48//48
f 202//202 48//48 194//194
f 202//202 194//194 196//196
f 203//203 201//201 195//195
f 204//204 202//202 196//196
f 205//205 195//195 197//197
f 205//205 203//203 195//195
f 206//206 196//196 198//198
f 206//206 204//204 196//196
f 207//207 197//197 199//199
f 207//207 199//199 91//91
f 207//207 205//205 197//197
f 207//207 91//91 92//92
f 208//208 198//198 200//200
f 208//208 206//206 198//198
f 209//209 200//200 201//201
f 209//209 208//208 200//200
f 210//210 49//49 202//202
f 210//210 50//50 49//49
f 210//210 51//51 50//50
f 211//211 201//201 203//203
f 211//211 209//209 201//201
f 212//212 210//210 202//202
f 212//212 202//202 204//204
f 213//213 211//211 203//203
f 213//213 203//203 205//205
f 214//214 204//204 206//206
f 214//214 212//212 204//204
f 215//215 205//205 207//207
f 215//215 207//207 92//92
f 215//215 213//213 205//205
f 215//215 92//92 93//93
f 216//216 206//206 208//208
f 216//216 214//214 206//206
f 217//217 208//208 209//209
f 217//217 216//216 208//208
f 218//218 52//52 51//51
f 218//218 51//51 210//210
f 219//219 211//211 213//213
f 219//219 209//209 211//211
f 219//219 217//217 209//209
f 220//220 210//210 212//212
f 220//220 218//218 210//210
f 220//220 212//212 214//214
f 221//221 219//219 213//213
f 221//221 213//213 215//215
f 222//222 220//220 214//214
f 223//223 93//93 94//94
f 223//223 94//94 95//95
f 223//223 215//215 93//93
f 223//223 221//221 215//215
f 224//224 214//214 216//216
f 224//224 222//222 214//214
f 225//225 216//216 217//217
f 225//225 224//224 216//216
f 226//226 52//52 218//218
f 227//227 217//217 219//219
f 227//227 219//219 221//221
f 227//227 225//225 217//217
f 228//228 226//226 218//218
f 228//228 220//220 222//222
f 228//228 218//218 220//220
f 229//229 227//227 221//221
f 229//229 221//221 223//223
f 230//230 228//228 222//222
f 231//231 229//229 223//223
f 231//231 95//95 96//96
f 231//231 223//223 95//95
f 232//232 230//230 222//222
f 232//232 222//222 224//224
f 233//233 225//225 227//227
f 233//233 232//232 224//224
f 233//233 224//224 225//225
f 234//234 53//53 52//52
f 234//234 54//54 53//53
f 234//234 52//52 226//226
f 235//235 233//233 227//227
f 235//235 227//227 229//229
f 236//236 226//226 228//228
f 236//236 234//234 226//226
f 237//237 229//229 231//231
f 237//237 235//235 229//229
f 238//238 236//236 228//228
f 238//238 228//228 230//230
f 239//239 237//237 231//231
f 239//239 231//231 96//96
f 240//240 230//230 232//232
f 240//240 238//238 230//230
f 241//241 232//232 233//233
f 241//241 240//240 232//232
f 242//242 54//54 234//234
f 243//243 233//233 235//235
f 243//243 241//241 233//233
f 244//244 236//236 238//238
f 244//244 242//242 234//234
f 244//244 234//234 236//236
f 245//245 235//235 237//237
f 245//245 243//243 235//235
f 246//246 244//244 238//238
f 247//247 237//237 239//239
f 247//247 239//239 96//96
f 247//247 245//245 237//237
f 247//247 96//96 97//97
f 248//248 238//238 240//240
f 248//248 246//246 238//238
f 249//249 240//240 241//241
f 249//249 241//241 243//243
f 249//249 248//248 240//240
f 250//250 54//54 242//242
f 250//250 55//55 54//54
f 250//250 56//56 55//55
f 251//251 249//249 243//243
f 251//251 243//243 245//245
f 252//252 250//250 242//242
f 252//252 242//242 244//244
f 253//253 251//251 245//245
f 254//254 244//244 246//246
f 254//254 252//252 244//244
f 255//255 245//245 247//247
f 255//255 247//247 97//97
f 255//255 97//97 98//98
f 255//255 253//253 245//245
f 256//256 246//246 248//248
f 256//256 254//254 246//246
f 257//257 248//248 249//249
f 257//257 256//256 248//248
f 258//258 57//57 56//56
f 258//258 56//56 250//250
f 259//259 249//249 251//251
f 259//259 257//257 249//249
f 260//260 258//258 250//250
f 260//260 250//250 252//252
f 261//261 251//251 253//253
f 261//261 259//259 251//251
f 262//262 252//252 254//254
f 262//262 260//260 252//252
f 263//263 98//98 99//99
f 263//263 99//99 100//100
f 263//263 261//261 253//253
f 263//263 255//255 98//98
f 263//263 253//253 255//255
f 264//264 254//254 256//256
f 264//264 262//262 254//254
f 265//265 264//264 256//256
f 265//265 256//256 257//257
f 266//266 57//57 258//258
f 267//267 265//265 257//257
f 267//267 257//257 259//259
f 268//268 258//258 260//260
f 268//268 266//266 258//258
f 268//268 260//260 262//262
f 269//269 261//261 263//263
f 269//269 259//259 261//261
f 269//269 267//267 259//259
f 270//270 268//268 262//262
f 271//271 269//269 263//263
f 271//271 263//263 100//100
f 272//272 270//270 262//262
f 272//272 262//262 264//264
f 272//272 264//264 265//265
f 273//273 272//272 265//265
f 274//274 57//57 266//266
f 274//274 58//58 57//57
f 274//274 59//59 58//58
f 275//275 265//265 267//267
f 275//275 273//273 265//265
f 276//276 274//274 266//266
f 276//276 266//266 268//268
f 276//276 268//268 270//270
f 277//277 267//267 269//269
f 277//277 275//275 267//267
f 278//278 276//276 270//270
f 279//279 269//269 271//271
f 279//279 271//271 100//100
f 279//279 277//277 269//269
f 279//279 100//100 101//101
f 280//280 270//270 272//272
f 280//280 272//272 273//273
f 280//280 278//278 270//270
f 281//281 280//280 273//273
f 282//282 59//59 274//274
f 283//283 273//273 275//275
f 283//283 281//281 273//273
f 284//284 282//282 274//274
f 284//284 274//274 276//276
f 284//284 276//276 278//278
f 285//285 275//275 277//277
f 285//285 283//283 275//275
f 285//285 277//277 279//279
f 286//286 284//284 278//278
f 287//287 279//279 101//101
f 287//287 101//101 102//102
f 287//287 285//285 279//279
f 288//288 278//278 280//280
f 288//288 286//286 278//278
f 289//289 280//280 281//281
f 289//289 288//288 280//280
f 290//290 60//60 59//59
f 290//290 59//59 282//282
f 291//291 281//281 283//283
f 291//291 289//289 281//281
f 292//292 290//290 282//282
f 292//292 282//282 284//284
f 293//293 283//283 285//285
f 293//293 291//291 283//283
f 294//294 284//284 286//286
f 294//294 292//292 284//284
f 295//295 102//102 103//103
f 295//295 287//287 102//102
f 295//295 285//285 287//287
f 295//295 293//293 285//285
f 296//296 294//294 286//286
f 296//296 286//286 288//288
f 297//297 288//288 289//289
f 297//297 296//296 288//288
f 298//298 61//61 60//60
f 298//298 60//60 290//290
f 299//299 297//297 289//289
f 299//299 289//289 291//291
f 300//300 292//292 294//294
f 300//300 298//298 290//290
f 300//300 290//290 292//292
f 301//301 293//293 295//295
f 301//301 291//291 293//293
f 301//301 299//299 291//291
f 302//302 300//300 294//294
f 303//303 301//301 295//295
f 303//303 103//103 104//104
f 303//303 295//295 103//103
f 304//304 302//302 294//294
f 304//304 294//294 296//296
f 305//305 296//296 297//297
f 305//305 304//304 296//296
f 306//306 61//61 298//298
f 306//306 298//298 300//300
f 306//306 62//62 61//61
f 307//307 297//297 299//299
f 307//307 305//305 297//297
f 308//308 306//306 300//300
f 309//309 299//299 301//301
f 309//309 307//307 299//299
f 310//310 308//308 300//300
f 310//310 300//300 302//302
f 311//311 303//303 104//104
f 311//311 309//309 301//301
f 311//311 104//104 105//105
f 311//311 301//301 303//303
f 312//312 310//310 302//302
f 312//312 302//302 304//304
f 313//313 312//312 304//304
f 313//313 304//304 305//305
f 314//314 63//63 62//62
f 314//314 62//62 306//306
f 315//315 313//313 305//305
f 315//315 305//305 307//307
f 316//316 314//314 306//306
f 316//316 306//306 308//308
f 317//317 307//307 309//309
f 317//317 315//315 307//307
f 318//318 308//308 310//310
f 318//318 316//316 308//308
f 319//319 309//309 311//311
f 319//319 311//311 105//105
f 319//319 317//317 309//309
f 319//319 105//105 106//106
f 320//320 310//310 312//312
f 320//320 312//312 313//313
f 320//320 318//318 310//310
f 321//321 313//313 315//315
f 321//321 320//320 313//313
f 322//322 63//63 314//314
f 322//322 64//64 63//63
f 323//323 321//321 315//315
f 324//324 314//314 316//316
f 324//324 322//322 314//314
f 325//325 315//315 317//317
f 325//325 317//317 319//319
f 325//325 323//323 315//315
f 326//326 316//316 318//318
f 326//326 324//324 316//316
f 327//327 319//319 106//106
f 327//327 106//106 107//107
f 327//327 107//107 108//108
f 327//327 325//325 319//319
f 328//328 318//318 320//320
f 328//328 326//326 318//318
f 329//329 328//328 320//320
f 329//329 320//320 321//321
f 330//330 322//322 324//324
f 330//330 65//65 64//64
f 330//330 64//64 322//322
f 331//331 329//329 321//321
f 331//331 321//321 323//323
f 332//332 330//330 324//324
f 333//333 331//331 323//323
f 333//333 323//323 325//325
f 334//334 332//332 324//324
f 334//334 324//324 326//326
f 335//335 327//327 108//108
f 335//335 325//325 327//327
f 335//335 333//333 325//325
f 336//336 326//326 328//328
f 336//336 334//334 326//326
f 337//337 336//336 328//328
f 337//337 328//328 329//329
f 338//338 65//65 330//330
f 338//338 66//66 65//65
f 339//339 329//329 331//331
f 339//339 337//337 329//329
f 340//340 330//330 332//332
f 340//340 338//338 330//330
f 341//341 331//331 333//333
f 341//341 339//339 331//331
f 342//342 332//332 334//334
f 342//342 340//340 332//332
f 343//343 335//335 108//108
f 343//343 333//333 335//335
f 343//343 341//341 333//333
f 343//343 108//108 109//109
f 344//344 334//334 336//336
f 344//344 342//342 334//334
f 345//345 337//337 339//339
f 345//345 336//336 337//337
f 345//345 344//344 336//336
f 346//346 66//66 338//338
f 346//346 67//67 66//66
f 347//347 345//345 339//339
f 348//348 338//338 340//340
f 348//348 346//346 338//338
f 349//349 339//339 341//341
f 349//349 341//341 343//343
f 349//349 347//347 339//339
f 350//350 340//340 342//342
f 350//350 348//348 340//340
f 351//351 349//349 343//343
f 351//351 343//343 109//109
f 351//351 109//109 110//110
f 351//351 110//110 111//111
f 352//352 342//342 344//344
f 352//352 344//344 345//345
f 352//352 350//350 342//342
f 353//353 352//352 345//345
f 354//354 68//68 67//67
f 354//354 67//67 346//346
f 354//354 346//346 348//348
f 355//355 345//345 347//347
f 355//355 353//353 345//345
f 356//356 354//354 348//348
f 357//357 355//355 347//347
f 357//357 347//347 349//349
f 358//358 348//348 350//350
f 358//358 356//356 348//348
f 359//359 349//349 351//351
f 359//359 351//351 111//111
f 359//359 357//357 349//349
f 360//360 350//350 352//352
f 360//360 358//358 350//350
f 361//361 352//352 353//353
f 361//361 353//353 355//355
f 361//361 360//360 352//352
f 362//362 69//69 68//68
f 362//362 70//70 69//69
f 362//362 68//68 354//354
f 363//363 361//361 355//355
f 364//364 362//362 354//354
f 364//364 354//354 356//356
f 365//365 355//355 357//357
f 365//365 363//363 355//355
f 365//365 357//357 359//359
f 366//366 364//364 356//356
f 366//366 356//356 358//358
f 367//367 365//365 359//359
f 367//367 111//111 112//112
f 367//367 359//359 111//111
f 368//368 358//358 360//360
f 368//368 366//366 358//358
f 369//369 360//360 361//361
f 369//369 368//368 360//360
f 370//370 70//70 362//362
f 371//371 361//361 363//363
f 371//371 369//369 361//361
f 372//372 362//362 364//364
f 372//372 370//370 362//362
f 373//373 363//363 365//365
f 373//373 371//371 363//363
f 374//374 364//364 366//366
f 374//374 372//372 364//364
f 375//375 365//365 367//367
f 375//375 373//373 365//365
f 375//375 367//367 112//112
f 375//375 112//112 113//113
f 375//375 113//113 114//114
f 376//376 366//366 368//368
f 376//376 368//368 369//369
f 376//376 374//374 366//366
f 377//377 369//369 371//371
f 377//377 376//376 369//369
f 378//378 70//70 370//370
f 378//378 71//71 70//70
f 379//379 377//377 371//371
f 380//380 370//370 372//372
f 380//380 378//378 370//370
f 381//381 371//371 373//373
f 381//381 379//379 371//371
f 381//381 373//373 375//375
f 382//382 372//372 374//374
f 382//382 380//380 372//372
f 383//383 375//375 114//114
f 383//383 381//381 375//375
f 383//383 114//114 115//115
f 384//384 374//374 376//376
f 384//384 382//382 374//374
f 385//385 376//376 377//377
f 385//385 384//384 376//376
f 386//386 378//378 380//380
f 386//386 72//72 71//71
f 386//386 1//1 72//72
f 386//386 73//73 1//1
f 386//386 71//71 378//378
f 387//387 377//377 379//379
f 387//387 385//385 377//377
f 388//388 74//74 73//73
f 388//388 75//75 74//74
f 388//388 73//73 386//386
f 388//388 386//386 380//380
f 389//389 379//379 381//381
f 389//389 381//381 383//383
f 389//389 387//387 379//379
f 390//390 75//75 388//388
f 390//390 380//380 382//382
f 390//390 388//388 380//380
f 391//391 383//383 115//115
f 391//391 389//389 383//383
f 392//392 76//76 75//75
f 392//392 384//384 385//385
f 392//392 382//382 384//384
f 392//392 390//390 382//382
f 392//392 75//75 390//390
f 393//393 77//77 76//76
f 393//393 392//392 385//385
f 393//393 76//76 392//392
f 394//394 78//78 77//77
f 394//394 79//79 78//78
f 394//394 393//393 385//385
f 394//394 385//385 387//387
f 394//394 77//77 393//393
f 395//395 394//394 387//387
f 395//395 387//387 389//389
f 395//395 79//79 394//394
f 396//396 395//395 389//389
f 396//396 80//80 79//79
f 396//396 81//81 80//80
f 396//396 79//79 395//395
f 396//396 391//391 115//115
f 396//396 115//115 116//116
f 396//396 116//116 81//81
f 396//396 389//389 391//391
f 441//441 397//397 2//2
f 441//441 2//2 3//3
f 442//442 398//398 397//397
f 442//442 397//397 441//441
f 443//443 398//398 442//442
f 443//443 399//399 398//398
f 444//444 400//400 399//399
f 444//444 399//399 443//443
f 445//445 401//401 400//400
f 445//445 400//400 444//444
f 446//446 3//3 4//4
f 446//446 441//441 3//3
f 447//447 402//402 401//401
f 447//447 401//401 445//445
f 448//448 442//442 441//441
f 448//448 441//441 446//446
f 449//449 403//403 402//402
f 449//449 402//402 447//447
f 450//450 443//443 442//442
f 450//450 442//442 448//448
f 451//451 403//403 449//449
f 451//451 404//404 403//403
f 451//451 405//405 404//404
f 451//451 406//406 405//405
f 452//452 444//444 443//443
f 452//452 443//443 450//450
f 453//453 445//445 444//444
f 453//453 444//444 452//452
f 454//454 4//4 5//5
f 454//454 446//446 4//4
f 455//455 445//445 453//453
f 455//455 447//447 445//445
f 456//456 446//446 454//454
f 456//456 448//448 446//446
f 457//457 449//449 447//447
f 457//457 447//447 455//455
f 458//458 450//450 448//448
f 458//458 448//448 456//456
f 459//459 449//449 457//457
f 459//459 407//407 406//406
f 459//459 451//451 449//449
f 459//459 406//406 451//451
f 460//460 452//452 450//450
f 460//460 450//450 458//458
f 461//461 453//453 452//452
f 461//461 452//452 460//460
f 462//462 5//5 6//6
f 462//462 454//454 5//5
f 463//463 455//455 453//453
f 463//463 453//453 461//461
f 464//464 456//456 454//454
f 464//464 454//454 462//462
f 465//465 455//455 463//463
f 465//465 457//457 455//455
f 466//466 458//458 456//456
f 466//466 456//456 464//464
f 467//467 407//407 459//459
f 467//467 459//459 457//457
f 467//467 408//408 407//407
f 467//467 457//457 465//465
f 468//468 458//458 466//466
f 468//468 460//460 458//458
f 469//469 461//461 460//460
f 469//469 460//460 468//468
f 470//470 6//6 7//7
f 470//470 462//462 6//6
f 471//471 461//461 469//469
f 471//471 463//463 461//461
f 472//472 462//462 470//470
f 472//472 464//464 462//462
f 473//473 465//465 463//463
f 473//473 463//463 471//471
f 474//474 466//466 464//464
f 474//474 464//464 472//472
f 475//475 467//467 465//465
f 475//475 465//465 473//473
f 475//475 408//408 467//467
f 475//475 409//409 408//408
f 475//475 410//410 409//409
f 476//476 468//468 466//466
f 476//476 466//466 474//474
f 477//477 468//468 476//476
f 477//477 469//469 468//468
f 478//478 7//7 8//8
f 478//478 470//470 7//7
f 479//479 471//471 469//469
f 479//479 469//469 477//477
f 480//480 472//472 470//470
f 480//480 474//474 472//472
f 480//480 470//470 478//478
f 481//481 473//473 471//471
f 481//481 471//471 479//479
f 482//482 474//474 480//480
f 483//483 475//475 473//473
f 483//483 410//410 475//475
f 483//483 473//473 481//481
f 484//484 474//474 482//482
f 484//484 476//476 474//474
f 485//485 476//476 484//484
f 485//485 477//477 476//476
f 486//486 478//478 8//8
f 486//486 8//8 9//9
f 487//487 477//477 485//485
f 487//487 479//479 477//477
f 488//488 480//480 478//478
f 488//488 478//478 486//486
f 489//489 479//479 487//487
f 489//489 481//481 479//479
f 490//490 480//480 488//488
f 490//490 484//484 482//482
f 490//490 482//482 480//480
f 491//491 483//483 481//481
f 491//491 410//410 483//483
f 491//491 481//481 489//489
f 491//491 411//411 410//410
f 492//492 484//484 490//490
f 493//493 485//485 484//484
f 493//493 484//484 492//492
f 494//494 9//9 10//10
f 494//494 486//486 9//9
f 495//495 489//489 487//487
f 495//495 485//485 493//493
f 495//495 487//487 485//485
f 496//496 486//486 494//494
f 496//496 488//488 486//486
f 497//497 489//489 495//495
f 498//498 488//488 496//496
f 498//498 490//490 488//488
f 499//499 491//491 489//489
f 499//499 411//411 491//491
f 499//499 489//489 497//497
f 499//499 412//412 411//411
f 500//500 492//492 490//490
f 500//500 490//490 498//498
f 501//501 493//493 492//492
f 501//501 492//492 500//500
f 502//502 10//10 11//11
f 502//502 494//494 10//10
f 503//503 495//495 493//493
f 503//503 493//493 501//501
f 504//504 496//496 494//494
f 504//504 494//494 502//502
f 505//505 497//497 495//495
f 505//505 495//495 503//503
f 506//506 498//498 496//496
f 506//506 496//496 504//504
f 507//507 499//499 497//497
f 507//507 412//412 499//499
f 507//507 497//497 505//505
f 507//507 413//413 412//412
f 508//508 500//500 498//498
f 508//508 498//498 506//506
f 509//509 501//501 500//500
f 509//509 500//500 508//508
f 510//510 11//11 12//12
f 510//510 502//502 11//11
f 511//511 503//503 501//501
f 511//511 501//501 509//509
f 512//512 504//504 502//502
f 512//512 502//502 510//510
f 513//513 505//505 503//503
f 513//513 503//503 511//511
f 514//514 504//504 512//512
f 514//514 506//506 504//504
f 515//515 414//414 413//413
f 515//515 507//507 505//505
f 515//515 413//413 507//507
f 515//515 505//505 513//513
f 516//516 508//508 506//506
f 516//516 506//506 514//514
f 517//517 509//509 508//508
f 517//517 508//508 516//516
f 518//518 12//12 13//13
f 518//518 510//510 12//12
f 519//519 511//511 509//509
f 519//519 509//509 517//517
f 520//520 510//510 518//518
f 520//520 512//512 510//510
f 521//521 511//511 519//519
f 521//521 513//513 511//511
f 522//522 512//512 520//520
f 522//522 514//514 512//512
f 523//523 513//513 521//521
f 523//523 415//415 414//414
f 523//523 414//414 515//515
f 523//523 515//515 513//513
f 524//524 516//516 514//514
f 524//524 514//514 522//522
f 525//525 517//517 516//516
f 525//525 519//519 517//517
f 525//525 516//516 524//524
f 526//526 13//13 14//14
f 526//526 518//518 13//13
f 526//526 520//520 518//518
f 527//527 519//519 525//525
f 528//528 520//520 526//526
f 529//529 521//521 519//519
f 529//529 519//519 527//527
f 530//530 522//522 520//520
f 530//530 520//520 528//528
f 531//531 523//523 521//521
f 531//531 415//415 523//523
f 531//531 521//521 529//529
f 531//531 416//416 415//415
f 532//532 524//524 522//522
f 532//532 522//522 530//530
f 533//533 525//525 524//524
f 533//533 524//524 532//532
f 534//534 526//526 14//14
f 534//534 14//14 15//15
f 534//534 15//15 16//16
f 535//535 527//527 525//525
f 535//535 525//525 533//533
f 536//536 526//526 534//534
f 536//536 528//528 526//526
f 537//537 527//527 535//535
f 537//537 529//529 527//527
f 538//538 530//530 528//528
f 538//538 528//528 536//536
f 539//539 531//531 529//529
f 539//539 416//416 531//531
f 539//539 529//529 537//537
f 539//539 417//417 416//416
f 540//540 532//532 530//530
f 540//540 530//530 538//538
f 541//541 533//533 532//532
f 541//541 532//532 540//540
f 542//542 16//16 17//17
f 542//542 534//534 16//16
f 543//543 537//537 535//535
f 543//543 535//535 533//533
f 543//543 533//533 541//541
f 544//544 536//536 534//534
f 544//544 534//534 542//542
f 544//544 538//538 536//536
f 545//545 537//537 543//543
f 545//545 539//539 537//537
f 546//546 538//538 544//544
f 547//547 418//418 417//417
f 547//547 419//419 418//418
f 547//547 417//417 539//539
f 547//547 539//539 545//545
f 548//548 540//540 538//538
f 548//548 538//538 546//546
f 549//549 541//541 540//540
f 549//549 540//540 548//548
f 550//550 542//542 17//17
f 551//551 543//543 541//541
f 551//551 545//545 543//543
f 551//551 541//541 549//549
f 552//552 542//542 550//550
f 552//552 546//546 544//544
f 552//552 544//544 542//542
f 553//553 545//545 551//551
f 553//553 547//547 545//545
f 554//554 546//546 552//552
f 555//555 547//547 553//553
f 555//555 420//420 419//419
f 555//555 419//419 547//547
f 556//556 546//546 554//554
f 556//556 548//548 546//546
f 557//557 551//551 549//549
f 557//557 548//548 556//556
f 557//557 549//549 548//548
f 558//558 17//17 18//18
f 558//558 18//18 19//19
f 558//558 550//550 17//17
f 559//559 551//551 557//557
f 559//559 553//553 551//551
f 560//560 552//552 550//550
f 560//560 550//550 558//558
f 561//561 555//555 553//553
f 561//561 553//553 559//559
f 562//562 552//552 560//560
f 562//562 554//554 552//552
f 563//563 555//555 561//561
f 563//563 420//420 555//555
f 564//564 556//556 554//554
f 564//564 554//554 562//562
f 565//565 557//557 556//556
f 565//565 556//556 564//564
f 566//566 558//558 19//19
f 567//567 559//559 557//557
f 567//567 557//557 565//565
f 568//568 562//562 560//560
f 568//568 558//558 566//566
f 568//568 560//560 558//558
f 569//569 561//561 559//559
f 569//569 559//559 567//567
f 570//570 562//562 568//568
f 571//571 563//563 561//561
f 571//571 420//420 563//563
f 571//571 561//561 569//569
f 571//571 421//421 420//420
f 572//572 564//564 562//562
f 572//572 562//562 570//570
f 573//573 565//565 564//564
f 573//573 567//567 565//565
f 573//573 564//564 572//572
f 574//574 566//566 19//19
f 574//574 19//19 20//20
f 574//574 20//20 21//21
f 575//575 567//567 573//573
f 575//575 569//569 567//567
f 576//576 566//566 574//574
f 576//576 568//568 566//566
f 577//577 569//569 575//575
f 578//578 570//570 568//568
f 578//578 568//568 576//576
f 579//579 571//571 569//569
f 579//579 421//421 571//571
f 579//579 422//422 421//421
f 579//579 569//569 577//577
f 580//580 572//572 570//570
f 580//580 570//570 578//578
f 581//581 573//573 572//572
f 581//581 572//572 580//580
f 582//582 21//21 22//22
f 582//582 574//574 21//21
f 583//583 575//575 573//573
f 583//583 573//573 581//581
f 584//584 574//574 582//582
f 584//584 576//576 574//574
f 585//585 577//577 575//575
f 585//585 575//575 583//583
f 586//586 578//578 576//576
f 586//586 576//576 584//584
f 587//587 423//423 422//422
f 587//587 424//424 423//423
f 587//587 577//577 585//585
f 587//587 422//422 579//579
f 587//587 579//579 577//577
f 588//588 580//580 578//578
f 588//588 578//578 586//586
f 589//589 580//580 588//588
f 589//589 581//581 580//580
f 590//590 582//582 22//22
f 591//591 581//581 589//589
f 591//591 583//583 581//581
f 592//592 584//584 582//582
f 592//592 582//582 590//590
f 592//592 586//586 584//584
f 593//593 587//587 585//585
f 593//593 585//585 583//583
f 593//593 583//583 591//591
f 594//594 586//586 592//592
f 595//595 587//587 593//593
f 595//595 424//424 587//587
f 596//596 586//586 594//594
f 596//596 588//588 586//586
f 596//596 589//589 588//588
f 597//597 589//589 596//596
f 598//598 590//590 22//22
f 598//598 22//22 23//23
f 598//598 23//23 24//24
f 599//599 591//591 589//589
f 599//599 589//589 597//597
f 600//600 590//590 598//598
f 600//600 592//592 590//590
f 600//600 594//594 592//592
f 601//601 593//593 591//591
f 601//601 591//591 599//599
f 602//602 594//594 600//600
f 603//603 595//595 593//593
f 603//603 424//424 595//595
f 603//603 593//593 601//601
f 603//603 425//425 424//424
f 604//604 596//596 594//594
f 604//604 597//597 596//596
f 604//604 594//594 602//602
f 605//605 597//597 604//604
f 606//606 598//598 24//24
f 607//607 599//599 597//597
f 607//607 597//597 605//605
f 608//608 598//598 606//606
f 608//608 600//600 598//598
f 608//608 602//602 600//600
f 609//609 601//601 599//599
f 609//609 599//599 607//607
f 609//609 603//603 601//601
f 610//610 602//602 608//608
f 611//611 425//425 603//603
f 611//611 426//426 425//425
f 611//611 603//603 609//609
f 612//612 604//604 602//602
f 612//612 602//602 610//610
f 613//613 605//605 604//604
f 613//613 604//604 612//612
f 614//614 24//24 25//25
f 614//614 606//606 24//24
f 615//615 607//607 605//605
f 615//615 605//605 613//613
f 616//616 606//606 614//614
f 616//616 608//608 606//606
f 617//617 609//609 607//607
f 617//617 607//607 615//615
f 618//618 610//610 608//608
f 618//618 608//608 616//616
f 619//619 427//427 426//426
f 619//619 426//426 611//611
f 619//619 611//611 609//609
f 619//619 609//609 617//617
f 620//620 610//610 618//618
f 620//620 612//612 610//610
f 621//621 613//613 612//612
f 621//621 612//612 620//620
f 622//622 25//25 26//26
f 622//622 614//614 25//25
f 623//623 613//613 621//621
f 623//623 615//615 613//613
f 624//624 618//618 616//616
f 624//624 614//614 622//622
f 624//624 616//616 614//614
f 625//625 619//619 617//617
f 625//625 617//617 615//615
f 625//625 615//615 623//623
f 626//626 618//618 624//624
f 627//627 619//619 625//625
f 627//627 428//428 427//427
f 627//627 427//427 619//619
f 628//628 618//618 626//626
f 628//628 620//620 618//618
f 629//629 621//621 620//620
f 629//629 620//620 628//628
f 630//630 622//622 26//26
f 630//630 624//624 622//622
f 630//630 26//26 27//27
f 631//631 623//623 621//621
f 631//631 621//621 629//629
f 632//632 624//624 630//630
f 633//633 625//625 623//623
f 633//633 623//623 631//631
f 634//634 624//624 632//632
f 634//634 626//626 624//624
f 635//635 428//428 627//627
f 635//635 625//625 633//633
f 635//635 429//429 428//428
f 635//635 627//627 625//625
f 636//636 626//626 634//634
f 636//636 628//628 626//626
f 637//637 628//628 636//636
f 637//637 629//629 628//628
f 638//638 27//27 28//28
f 638//638 630//630 27//27
f 639//639 629//629 637//637
f 639//639 631//631 629//629
f 640//640 630//630 638//638
f 640//640 632//632 630//630
f 641//641 633//633 631//631
f 641//641 631//631 639//639
f 642//642 634//634 632//632
f 642//642 632//632 640//640
f 643//643 635//635 633//633
f 643//643 429//429 635//635
f 643//643 633//633 641//641
f 643//643 430//430 429//429
f 644//644 636//636 634//634
f 644//644 637//637 636//636
f 644//644 634//634 642//642
f 645//645 639//639 637//637
f 645//645 637//637 644//644
f 646//646 638//638 28//28
f 646//646 28//28 29//29
f 647//647 639//639 645//645
f 648//648 640//640 638//638
f 648//648 638//638 646//646
f 649//649 641//641 639//639
f 649//649 643//643 641//641
f 649//649 639//639 647//647
f 650//650 642//642 640//640
f 650//650 640//640 648//648
f 651//651 430//430 643//643
f 651//651 431//431 430//430
f 651//651 432//432 431//431
f 651//651 643//643 649//649
f 652//652 644//644 642//642
f 652//652 642//642 650//650
f 653//653 644//644 652//652
f 653//653 645//645 644//644
f 654//654 648//648 646//646
f 654//654 29//29 30//30
f 654//654 646//646 29//29
f 655//655 645//645 653//653
f 655//655 647//647 645//645
f 656//656 648//648 654//654
f 657//657 647//647 655//655
f 657//657 649//649 647//647
f 658//658 648//648 656//656
f 658//658 650//650 648//648
f 659//659 432//432 651//651
f 659//659 651//651 649//649
f 659//659 649//649 657//657
f 660//660 652//652 650//650
f 660//660 650//650 658//658
f 661//661 652//652 660//660
f 661//661 653//653 652//652
f 662//662 654//654 30//30
f 662//662 30//30 31//31
f 663//663 655//655 653//653
f 663//663 653//653 661//661
f 664//664 656//656 654//654
f 664//664 654//654 662//662
f 665//665 657//657 655//655
f 665//665 655//655 663//663
f 666//666 658//658 656//656
f 666//666 656//656 664//664
f 667//667 432//432 659//659
f 667//667 659//659 657//657
f 667//667 657//657 665//665
f 667//667 433//433 432//432
f 668//668 660//660 658//658
f 668//668 658//658 666//666
f 669//669 663//663 661//661
f 669//669 661//661 660//660
f 669//669 660//660 668//668
f 670//670 662//662 31//31
f 670//670 31//31 32//32
f 671//671 663//663 669//669
f 672//672 664//664 662//662
f 672//672 662//662 670//670
f 673//673 665//665 663//663
f 673//673 667//667 665//665
f 673//673 663//663 671//671
f 674//674 666//666 664//664
f 674//674 664//664 672//672
f 675//675 667//667 673//673
f 675//675 433//433 667//667
f 675//675 434//434 433//433
f 675//675 435//435 434//434
f 676//676 668//668 666//666
f 676//676 669//669 668//668
f 676//676 666//666 674//674
f 677//677 669//669 676//676
f 678//678 32//32 33//33
f 678//678 670//670 32//32
f 678//678 672//672 670//670
f 679//679 671//671 669//669
f 679//679 669//669 677//677
f 680//680 672//672 678//678
f 681//681 671//671 679//679
f 681//681 673//673 671//671
f 682//682 674//674 672//672
f 682//682 672//672 680//680
f 683//683 675//675 673//673
f 683//683 435//435 675//675
f 683//683 673//673 681//681
f 684//684 676//676 674//674
f 684//684 674//674 682//682
f 685//685 677//677 676//676
f 685//685 679//679 677//677
f 685//685 676//676 684//684
f 686//686 33//33 34//34
f 686//686 34//34 35//35
f 686//686 678//678 33//33
f 687//687 679//679 685//685
f 688//688 678//678 686//686
f 688//688 680//680 678//678
f 689//689 681//681 679//679
f 689//689 679//679 687//687
f 689//689 683//683 681//681
f 690//690 680//680 688//688
f 690//690 682//682 680//680
f 691//691 683//683 689//689
f 691//691 436//436 435//435
f 691//691 435//435 683//683
f 692//692 684//684 682//682
f 692//692 682//682 690//690
f 693//693 685//685 684//684
f 693//693 684//684 692//692
f 694//694 686//686 35//35
f 695//695 687//687 685//685
f 695//695 685//685 693//693
f 696//696 688//688 686//686
f 696//696 686//686 694//694
f 697//697 689//689 687//687
f 697//697 687//687 695//695
f 698//698 690//690 688//688
f 698//698 688//688 696//696
f 699//699 691//691 689//689
f 699//699 689//689 697//697
f 699//699 436//436 691//691
f 699//699 437//437 436//436
f 699//699 438//438 437//437
f 700//700 692//692 690//690
f 700//700 693//693 692//692
f 700//700 690//690 698//698
f 701//701 695//695 693//693
f 701//701 693//693 700//700
f 702//702 694//694 35//35
f 702//702 35//35 36//36
f 703//703 695//695 701//701
f 704//704 696//696 694//694
f 704//704 694//694 702//702
f 705//705 697//697 695//695
f 705//705 695//695 703//703
f 705//705 699//699 697//697
f 706//706 698//698 696//696
f 706//706 696//696 704//704
f 707//707 438//438 699//699
f 707//707 699//699 705//705
f 707//707 439//439 438//438
f 708//708 700//700 698//698
f 708//708 698//698 706//706
f 709//709 701//701 700//700
f 709//709 700//700 708//708
f 710//710 704//704 702//702
f 710//710 36//36 37//37
f 710//710 37//37 2//2
f 710//710 2//2 397//397
f 710//710 702//702 36//36
f 711//711 703//703 701//701
f 711//711 701//701 709//709
f 712//712 397//397 398//398
f 712//712 398//398 399//399
f 712//712 710//710 397//397
f 712//712 704//704 710//710
f 713//713 705//705 703//703
f 713//713 707//707 705//705
f 713//713 703//703 711//711
f 714//714 712//712 399//399
f 714//714 706//706 704//704
f 714//714 704//704 712//712
f 715//715 439//439 707//707
f 715//715 707//707 713//713
f 716//716 399//399 400//400
f 716//716 709//709 708//708
f 716//716 708//708 706//706
f 716//716 706//706 714//714
f 716//716 714//714 399//399
f 717//717 400//400 401//401
f 717//717 709//709 716//716
f 717//717 716//716 400//400
f 718//718 401//401 402//402
f 718//718 402//402 403//403
f 718//718 709//709 717//717
f 718//718 711//711 709//709
f 718//718 717//717 401//401
f 719//719 711//711 718//718
f 719//719 713//713 711//711
f 719//719 718//718 403//403
f 720//720 713//713 719//719
f 720//720 403//403 404//404
f 720//720 404//404 405//405
f 720//720 719//719 403//403
f 720//720 439//439 715//715
f 720//720 440//440 439//439
f 720//720 405//405 440//440
f 720//720 715//715 713//713
f 112//112 110//110 109//109
f 112//112 111//111 110//110
f 95//95 97//97 96//96
f 95//95 98//98 97//97
f 115//115 113//113 112//112
f 115//115 114//114 113//113
f 92//92 94//94 93//93
f 116//116 102//102 101//101
f 116//116 103//103 102//102
f 116//116 104//104 103//103
f 116//116 105//105 104//104
f 116//116 106//106 105//105
f 116//116 107//107 106//106
f 116//116 108//108 107//107
f 116//116 109//109 108//108
f 116//116 115//115 112//112
f 116//116 112//112 109//109
f 91//91 95//95 94//94
f 91//91 99//99 98//98
f 91//91 100//100 99//99
f 91//91 98//98 95//95
f 91//91 94//94 92//92
f 82//82 81//81 116//116
f 89//89 91//91 90//90
f 87//87 89//89 88//88
f 85//85 83//83 82//82
f 85//85 84//84 83//83
f 85//85 87//87 86//86
f 85//85 101//101 100//100
f 85//85 100//100 91//91
f 85//85 116//116 101//101
f 85//85 82//82 116//116
f 85//85 89//89 87//87
f 85//85 91//91 89//89
f 436//436 433//433 434//434
f 436//436 434//434 435//435
f 419//419 420//420 421//421
f 419//419 421//421 422//422
f 439//439 436//436 437//437
f 439//439 437//437 438//438
f 416//416 417//417 418//418
f 440//440 425//425 426//426
f 440//440 426//426 427//427
f 440//440 427//427 428//428
f 440//440 428//428 429//429
f 440//440 429//429 430//430
f 440//440 430//430 431//431
f 440//440 431//431 432//432
f 440//440 432//432 433//433
f 440//440 436//436 439//439
f 440//440 433//433 436//436
f 415//415 418//418 419//419
f 415//415 422//422 423//423
f 415//415 423//423 424//424
f 415//415 419//419 422//422
f 415//415 416//416 418//418
f 406//406 440//440 405//405
f 413//413 414//414 415//415
f 411//411 412//412 413//413
f 409//409 406//406 407//407
f 409//409 407//407 408//408
f 409//409 410//410 411//411
f 409//409 424//424 425//425
f 409//409 415//415 424//424
f 409//409 425//425 440//440
f 409//409 440//440 406//406
f 409//409 411//411 413//413
f 409//409 413//413 415//415
