# robocad OBJ
mtllib m3_screw.mtl
o shank
usemtl PLA_a8adb5
v 0.00150 0.00600 0.00000
v 0.00148 0.00600 -0.00026
v 0.00141 0.00600 -0.00051
v 0.00130 0.00600 -0.00075
v 0.00115 0.00600 -0.00096
v 0.00096 0.00600 -0.00115
v 0.00075 0.00600 -0.00130
v 0.00051 0.00600 -0.00141
v 0.00026 0.00600 -0.00148
v 0.00000 0.00600 -0.00150
v -0.00026 0.00600 -0.00148
v -0.00051 0.00600 -0.00141
v -0.00075 0.00600 -0.00130
v -0.00096 0.00600 -0.00115
v -0.00115 0.00600 -0.00096
v -0.00130 0.00600 -0.00075
v -0.00141 0.00600 -0.00051
v -0.00148 0.00600 -0.00026
v -0.00150 0.00600 -0.00000
v -0.00148 0.00600 0.00026
v -0.00141 0.00600 0.00051
v -0.00130 0.00600 0.00075
v -0.00115 0.00600 0.00096
v -0.00096 0.00600 0.00115
v -0.00075 0.00600 0.00130
v -0.00051 0.00600 0.00141
v -0.00026 0.00600 0.00148
v -0.00000 0.00600 0.00150
v 0.00026 0.00600 0.00148
v 0.00051 0.00600 0.00141
v 0.00075 0.00600 0.00130
v 0.00096 0.00600 0.00115
v 0.00115 0.00600 0.00096
v 0.00130 0.00600 0.00075
v 0.00141 0.00600 0.00051
v 0.00148 0.00600 0.00026
v 0.00150 -0.01200 0.00000
v 0.00148 -0.01200 -0.00026
v 0.00141 -0.01200 -0.00051
v 0.00130 -0.01200 -0.00075
v 0.00115 -0.01200 -0.00096
v 0.00096 -0.01200 -0.00115
v 0.00075 -0.01200 -0.00130
v 0.00051 -0.01200 -0.00141
v 0.00026 -0.01200 -0.00148
v 0.00000 -0.01200 -0.00150
v -0.00026 -0.01200 -0.00148
v -0.00051 -0.01200 -0.00141
v -0.00075 -0.01200 -0.00130
v -0.00096 -0.01200 -0.00115
v -0.00115 -0.01200 -0.00096
v -0.00130 -0.01200 -0.00075
v -0.00141 -0.01200 -0.00051
v -0.00148 -0.01200 -0.00026
v -0.00150 -0.01200 -0.00000
v -0.00148 -0.01200 0.00026
v -0.00141 -0.01200 0.00051
v -0.00130 -0.01200 0.00075
v -0.00115 -0.01200 0.00096
v -0.00096 -0.01200 0.00115
v -0.00075 -0.01200 0.00130
v -0.00051 -0.01200 0.00141
v -0.00026 -0.01200 0.00148
v -0.00000 -0.01200 0.00150
v 0.00026 -0.01200 0.00148
v 0.00051 -0.01200 0.00141
v 0.00075 -0.01200 0.00130
v 0.00096 -0.01200 0.00115
v 0.00115 -0.01200 0.00096
v 0.00130 -0.01200 0.00075
v 0.00141 -0.01200 0.00051
v 0.00148 -0.01200 0.00026
vn 1.0000 -0.0000 -0.0000
vn 0.9848 -0.0000 -0.1736
vn 0.9397 -0.0000 -0.3420
vn 0.8660 -0.0000 -0.5000
vn 0.7660 -0.0000 -0.6428
vn 0.6428 -0.0000 -0.7660
vn 0.5000 -0.0000 -0.8660
vn 0.3420 -0.0000 -0.9397
vn 0.1736 -0.0000 -0.9848
vn 0.0000 -0.0000 -1.0000
vn -0.1736 0.0000 -0.9848
vn -0.3420 0.0000 -0.9397
vn -0.5000 0.0000 -0.8660
vn -0.6428 0.0000 -0.7660
vn -0.7660 0.0000 -0.6428
vn -0.8660 0.0000 -0.5000
vn -0.9397 0.0000 -0.3420
vn -0.9848 0.0000 -0.1736
vn -1.0000 0.0000 -0.0000
vn -0.9848 0.0000 0.1736
vn -0.9397 0.0000 0.3420
vn -0.8660 0.0000 0.5000
vn -0.7660 0.0000 0.6428
vn -0.6428 0.0000 0.7660
vn -0.5000 0.0000 0.8660
vn -0.3420 0.0000 0.9397
vn -0.1736 0.0000 0.9848
vn -0.0000 0.0000 1.0000
vn 0.1736 0.0000 0.9848
vn 0.3420 0.0000 0.9397
vn 0.5000 0.0000 0.8660
vn 0.6428 0.0000 0.7660
vn 0.7660 0.0000 0.6428
vn 0.8660 0.0000 0.5000
vn 0.9397 0.0000 0.3420
vn 0.9848 0.0000 0.1736
vn 1.0000 -0.0000 -0.0000
vn 0.9848 -0.0000 -0.1736
vn 0.9397 -0.0000 -0.3420
vn 0.8660 -0.0000 -0.5000
vn 0.7660 -0.0000 -0.6428
vn 0.6428 -0.0000 -0.7660
vn 0.5000 -0.0000 -0.8660
vn 0.3420 -0.0000 -0.9397
vn 0.1736 -0.0000 -0.9848
vn 0.0000 -0.0000 -1.0000
vn -0.1736 0.0000 -0.9848
vn -0.3420 0.0000 -0.9397
vn -0.5000 0.0000 -0.8660
vn -0.6428 0.0000 -0.7660
vn -0.7660 0.0000 -0.6428
vn -0.8660 0.0000 -0.5000
vn -0.9397 0.0000 -0.3420
vn -0.9848 0.0000 -0.1736
vn -1.0000 0.0000 -0.0000
vn -0.9848 0.0000 0.1736
vn -0.9397 0.0000 0.3420
vn -0.8660 0.0000 0.5000
vn -0.7660 0.0000 0.6428
vn -0.6428 0.0000 0.7660
vn -0.5000 0.0000 0.8660
vn -0.3420 0.0000 0.9397
vn -0.1736 0.0000 0.9848
vn -0.0000 0.0000 1.0000
vn 0.1736 0.0000 0.9848
vn 0.3420 0.0000 0.9397
vn 0.5000 0.0000 0.8660
vn 0.6428 0.0000 0.7660
vn 0.7660 0.0000 0.6428
vn 0.8660 0.0000 0.5000
vn 0.9397 0.0000 0.3420
vn 0.9848 0.0000 0.1736
f 2//2 1//1 37//37
f 2//2 37//37 38//38
f 3//3 38//38 39//39
f 3//3 39//39 40//40
f 3//3 2//2 38//38
f 4//4 3//3 40//40
f 5//5 40//40 41//41
f 5//5 41//41 42//42
f 5//5 4//4 40//40
f 6//6 42//42 43//43
f 6//6 5//5 42//42
f 7//7 6//6 43//43
f 7//7 43//43 44//44
f 8//8 7//7 44//44
f 9//9 8//8 44//44
f 9//9 44//44 45//45
f 10//10 9//9 45//45
f 10//10 45//45 46//46
f 11//11 10//10 46//46
f 11//11 46//46 47//47
f 12//12 11//11 47//47
f 12//12 47//47 48//48
f 13//13 12//12 48//48
f 13//13 48//48 49//49
f 14//14 13//13 49//49
f 14//14 49//49 50//50
f 15//15 14//14 50//50
f 15//15 50//50 51//51
f 16//16 15//15 51//51
f 16//16 51//51 52//52
f 17//17 16//16 52//52
f 17//17 52//52 53//53
f 18//18 17//17 53//53
f 18//18 53//53 54//54
f 19//19 18//18 54//54
f 19//19 54//54 55//55
f 20//20 55//55 56//56
f 20//20 19//19 55//55
f 21//21 56//56 57//57
f 21//21 20//20 56//56
f 22//22 57//57 58//58
f 22//22 21//21 57//57
f 23//23 58//58 59//59
f 23//23 22//22 58//58
f 24//24 59//59 60//60
f 24//24 23//23 59//59
f 25//25 60//60 61//61
f 25//25 24//24 60//60
f 26//26 61//61 62//62
f 26//26 25//25 61//61
f 27//27 62//62 63//63
f 27//27 26//26 62//62
f 28//28 63//63 64//64
f 28//28 64//64 65//65
f 28//28 27//27 63//63
f 29//29 28//28 65//65
f 30//30 65//65 66//66
f 30//30 29//29 65//65
f 31//31 66//66 67//67
f 31//31 30//30 66//66
f 32//32 31//31 67//67
f 32//32 67//67 68//68
f 33//33 32//32 68//68
f 33//33 68//68 69//69
f 34//34 33//33 69//69
f 34//34 69//69 70//70
f 35//35 34//34 70//70
f 35//35 70//70 71//71
f 36//36 35//35 71//71
f 36//36 71//71 72//72
f 1//1 36//36 72//72
f 1//1 72//72 37//37
f 31//31 29//29 30//30
f 16//16 17//17 18//18
f 32//32 29//29 31//31
f 15//15 16//16 18//18
f 33//33 29//29 32//32
f 13//13 14//14 15//15
f 11//11 12//12 13//13
f 11//11 18//18 19//19
f 11//11 19//19 20//20
f 11//11 20//20 21//21
f 11//11 21//21 22//22
f 11//11 22//22 23//23
f 11//11 15//15 18//18
f 11//11 13//13 15//15
f 1//1 34//34 35//35
f 1//1 35//35 36//36
f 2//2 33//33 34//34
f 2//2 34//34 1//1
f 9//9 10//10 11//11
f 7//7 8//8 9//9
f 4//4 2//2 3//3
f 5//5 7//7 9//9
f 5//5 2//2 4//4
f 5//5 6//6 7//7
f 5//5 23//23 24//24
f 5//5 24//24 25//25
f 5//5 25//25 26//26
f 5//5 26//26 27//27
f 5//5 27//27 28//28
f 5//5 28//28 29//29
f 5//5 33//33 2//2
f 5//5 29//29 33//33
f 5//5 11//11 23//23
f 5//5 9//9 11//11
f 67//67 66//66 65//65
f 52//52 54//54 53//53
f 68//68 67//67 65//65
f 51//51 54//54 52//52
f 69//69 68//68 65//65
f 49//49 51//51 50//50
f 47//47 49//49 48//48
f 47//47 55//55 54//54
f 47//47 56//56 55//55
f 47//47 57//57 56//56
f 47//47 58//58 57//57
f 47//47 59//59 58//58
f 47//47 54//54 51//51
f 47//47 51//51 49//49
f 37//37 71//71 70//70
f 37//37 72//72 71//71
f 38//38 70//70 69//69
f 38//38 37//37 70//70
f 45//45 47//47 46//46
f 43//43 45//45 44//44
f 40//40 39//39 38//38
f 41//41 45//45 43//43
f 41//41 40//40 38//38
f 41//41 43//43 42//42
f 41//41 60//60 59//59
f 41//41 61//61 60//60
f 41//41 62//62 61//61
f 41//41 63//63 62//62
f 41//41 64//64 63//63
f 41//41 65//65 64//64
f 41//41 38//38 69//69
f 41//41 69//69 65//65
f 41//41 59//59 47//47
f 41//41 47//47 45//45
o head
usemtl PLA_a8adb5
v 0.00275 0.00640 -0.00000
v 0.00275 0.00860 -0.00000
v 0.00271 0.00860 -0.00048
v 0.00258 0.00860 -0.00094
v 0.00238 0.00860 -0.00137
v 0.00211 0.00860 -0.00177
v 0.00177 0.00860 -0.00211
v 0.00138 0.00860 -0.00238
v 0.00094 0.00860 -0.00258
v 0.00048 0.00860 -0.00271
v 0.00000 0.00860 -0.00275
v -0.00048 0.00860 -0.00271
v -0.00094 0.00860 -0.00258
v -0.00137 0.00860 -0.00238
v -0.00177 0.00860 -0.00211
v -0.00211 0.00860 -0.00177
v -0.00238 0.00860 -0.00138
v -0.00258 0.00860 -0.00094
v -0.00271 0.00860 -0.00048
v -0.00275 0.00860 -0.00000
v -0.00271 0.00860 0.00048
v -0.00258 0.00860 0.00094
v -0.00238 0.00860 0.00137
v -0.00211 0.00860 0.00177
v -0.00177 0.00860 0.00211
v -0.00138 0.00860 0.00238
v -0.00094 0.00860 0.00258
v -0.00048 0.00860 0.00271
v -0.00000 0.00860 0.00275
v 0.00048 0.00860 0.00271
v 0.00094 0.00860 0.00258
v 0.00137 0.00860 0.00238
v 0.00177 0.00860 0.00211
v 0.00211 0.00860 0.00177
v 0.00238 0.00860 0.00138
v 0.00258 0.00860 0.00094
v 0.00271 0.00860 0.00048
v 0.00271 0.00640 -0.00048
v 0.00258 0.00640 -0.00094
v 0.00238 0.00640 -0.00137
v 0.00211 0.00640 -0.00177
v 0.00177 0.00640 -0.00211
v 0.00138 0.00640 -0.00238
v 0.00094 0.00640 -0.00258
v 0.00048 0.00640 -0.00271
v 0.00000 0.00640 -0.00275
v -0.00048 0.00640 -0.00271
v -0.00094 0.00640 -0.00258
v -0.00137 0.00640 -0.00238
v -0.00177 0.00640 -0.00211
v -0.00211 0.00640 -0.00177
v -0.00238 0.00640 -0.00138
v -0.00258 0.00640 -0.00094
v -0.00271 0.00640 -0.00048
v -0.00275 0.00640 -0.00000
v -0.00271 0.00640 0.00048
v -0.00258 0.00640 0.00094
v -0.00238 0.00640 0.00137
v -0.00211 0.00640 0.00177
v -0.00177 0.00640 0.00211
v -0.00138 0.00640 0.00238
v -0.00094 0.00640 0.00258
v -0.00048 0.00640 0.00271
v -0.00000 0.00640 0.00275
v 0.00048 0.00640 0.00271
v 0.00094 0.00640 0.00258
v 0.00137 0.00640 0.00238
v 0.00177 0.00640 0.00211
v 0.00211 0.00640 0.00177
v 0.00238 0.00640 0.00138
v 0.00258 0.00640 0.00094
v 0.00271 0.00640 0.00048
v 0.00274 0.00633 -0.00000
v 0.00273 0.00626 -0.00000
v 0.00270 0.00620 -0.00000
v 0.00266 0.00614 -0.00000
v 0.00261 0.00609 -0.00000
v 0.00255 0.00605 -0.00000
v 0.00249 0.00602 -0.00000
v 0.00242 0.00601 -0.00000
v 0.00235 0.00600 -0.00000
v 0.00231 0.00600 -0.00041
v 0.00221 0.00600 -0.00080
v 0.00204 0.00600 -0.00117
v 0.00180 0.00600 -0.00151
v 0.00151 0.00600 -0.00180
v 0.00118 0.00600 -0.00204
v 0.00080 0.00600 -0.00221
v 0.00041 0.00600 -0.00231
v 0.00000 0.00600 -0.00235
v -0.00041 0.00600 -0.00231
v -0.00080 0.00600 -0.00221
v -0.00117 0.00600 -0.00204
v -0.00151 0.00600 -0.00180
v -0.00180 0.00600 -0.00151
v -0.00204 0.00600 -0.00118
v -0.00221 0.00600 -0.00080
v -0.00231 0.00600 -0.00041
v -0.00235 0.00600 -0.00000
v -0.00231 0.00600 0.00041
v -0.00221 0.00600 0.00080
v -0.00204 0.00600 0.00117
v -0.00180 0.00600 0.00151
v -0.00151 0.00600 0.00180
v -0.00118 0.00600 0.00204
v -0.00080 0.00600 0.00221
v -0.00041 0.00600 0.00231
v -0.00000 0.00600 0.00235
v 0.00041 0.00600 0.00231
v 0.00080 0.00600 0.00221
v 0.00117 0.00600 0.00204
v 0.00151 0.00600 0.00180
v 0.00180 0.00600 0.00151
v 0.00204 0.00600 0.00118
v 0.00221 0.00600 0.00080
v 0.00231 0.00600 0.00041
v 0.00270 0.00633 -0.00048
v 0.00268 0.00626 -0.00047
v 0.00266 0.00620 -0.00047
v 0.00262 0.00614 -0.00046
v 0.00257 0.00609 -0.00045
v 0.00251 0.00605 -0.00044
v 0.00245 0.00602 -0.00043
v 0.00258 0.00633 -0.00094
v 0.00238 0.00601 -0.00042
v 0.00256 0.00626 -0.00093
v 0.00253 0.00620 -0.00092
v 0.00250 0.00614 -0.00091
v 0.00245 0.00609 -0.00089
v 0.00240 0.00605 -0.00087
v 0.00234 0.00602 -0.00085
v 0.00238 0.00633 -0.00137
v 0.00227 0.00601 -0.00083
v 0.00236 0.00626 -0.00136
v 0.00234 0.00620 -0.00135
v 0.00230 0.00614 -0.00133
v 0.00226 0.00609 -0.00130
v 0.00221 0.00605 -0.00127
v 0.00215 0.00602 -0.00124
v 0.00210 0.00633 -0.00176
v 0.00210 0.00601 -0.00121
v 0.00209 0.00626 -0.00175
v 0.00207 0.00620 -0.00173
v 0.00203 0.00614 -0.00171
v 0.00200 0.00609 -0.00168
v 0.00195 0.00605 -0.00164
v 0.00191 0.00602 -0.00160
v 0.00176 0.00633 -0.00210
v 0.00185 0.00601 -0.00156
v 0.00175 0.00626 -0.00209
v 0.00173 0.00620 -0.00207
v 0.00171 0.00614 -0.00203
v 0.00168 0.00609 -0.00200
v 0.00164 0.00605 -0.00195
v 0.00160 0.00602 -0.00191
v 0.00137 0.00633 -0.00238
v 0.00156 0.00601 -0.00185
v 0.00136 0.00626 -0.00236
v 0.00135 0.00620 -0.00234
v 0.00133 0.00614 -0.00230
v 0.00130 0.00609 -0.00226
v 0.00128 0.00605 -0.00221
v 0.00124 0.00602 -0.00215
v 0.00094 0.00633 -0.00258
v 0.00121 0.00601 -0.00210
v 0.00093 0.00626 -0.00256
v 0.00092 0.00620 -0.00253
v 0.00091 0.00614 -0.00250
v 0.00089 0.00609 -0.00245
v 0.00087 0.00605 -0.00240
v 0.00085 0.00602 -0.00234
v 0.00048 0.00633 -0.00270
v 0.00083 0.00601 -0.00227
v 0.00047 0.00626 -0.00268
v 0.00047 0.00620 -0.00266
v 0.00046 0.00614 -0.00262
v 0.00045 0.00609 -0.00257
v 0.00044 0.00605 -0.00251
v 0.00043 0.00602 -0.00245
v 0.00000 0.00633 -0.00274
v 0.00042 0.00601 -0.00238
v 0.00000 0.00626 -0.00273
v 0.00000 0.00620 -0.00270
v 0.00000 0.00614 -0.00266
v 0.00000 0.00609 -0.00261
v 0.00000 0.00605 -0.00255
v 0.00000 0.00602 -0.00249
v -0.00048 0.00633 -0.00270
v 0.00000 0.00601 -0.00242
v -0.00047 0.00626 -0.00268
v -0.00047 0.00620 -0.00266
v -0.00046 0.00614 -0.00262
v -0.00045 0.00609 -0.00257
v -0.00044 0.00605 -0.00251
v -0.00043 0.00602 -0.00245
v -0.00094 0.00633 -0.00258
v -0.00042 0.00601 -0.00238
v -0.00093 0.00626 -0.00256
v -0.00092 0.00620 -0.00253
v -0.00091 0.00614 -0.00250
v -0.00089 0.00609 -0.00245
v -0.00087 0.00605 -0.00240
v -0.00085 0.00602 -0.00234
v -0.00137 0.00633 -0.00238
v -0.00083 0.00601 -0.00227
v -0.00136 0.00626 -0.00236
v -0.00135 0.00620 -0.00234
v -0.00133 0.00614 -0.00230
v -0.00130 0.00609 -0.00226
v -0.00127 0.00605 -0.00221
v -0.00124 0.00602 -0.00215
v -0.00176 0.00633 -0.00210
v -0.00121 0.00601 -0.00210
v -0.00175 0.00626 -0.00209
v -0.00173 0.00620 -0.00207
v -0.00171 0.00614 -0.00203
v -0.00168 0.00609 -0.00200
v -0.00164 0.00605 -0.00195
v -0.00160 0.00602 -0.00191
v -0.00210 0.00633 -0.00176
v -0.00156 0.00601 -0.00185
v -0.00209 0.00626 -0.00175
v -0.00207 0.00620 -0.00173
v -0.00203 0.00614 -0.00171
v -0.00200 0.00609 -0.00168
v -0.00195 0.00605 -0.00164
v -0.00191 0.00602 -0.00160
v -0.00238 0.00633 -0.00137
v -0.00185 0.00601 -0.00156
v -0.00236 0.00626 -0.00136
v -0.00234 0.00620 -0.00135
v -0.00230 0.00614 -0.00133
v -0.00226 0.00609 -0.00130
v -0.00221 0.00605 -0.00128
v -0.00215 0.00602 -0.00124
v -0.00258 0.00633 -0.00094
v -0.00210 0.00601 -0.00121
v -0.00256 0.00626 -0.00093
v -0.00253 0.00620 -0.00092
v -0.00250 0.00614 -0.00091
v -0.00245 0.00609 -0.00089
v -0.00240 0.00605 -0.00087
v -0.00234 0.00602 -0.00085
v -0.00270 0.00633 -0.00048
v -0.00227 0.00601 -0.00083
v -0.00268 0.00626 -0.00047
v -0.00266 0.00620 -0.00047
v -0.00262 0.00614 -0.00046
v -0.00257 0.00609 -0.00045
v -0.00251 0.00605 -0.00044
v -0.00245 0.00602 -0.00043
v -0.00274 0.00633 -0.00000
v -0.00238 0.00601 -0.00042
v -0.00273 0.00626 -0.00000
v -0.00270 0.00620 -0.00000
v -0.00266 0.00614 -0.00000
v -0.00261 0.00609 -0.00000
v -0.00255 0.00605 -0.00000
v -0.00249 0.00602 -0.00000
v -0.00270 0.00633 0.00048
v -0.00242 0.00601 -0.00000
v -0.00268 0.00626 0.00047
v -0.00266 0.00620 0.00047
v -0.00262 0.00614 0.00046
v -0.00257 0.00609 0.00045
v -0.00251 0.00605 0.00044
v -0.00245 0.00602 0.00043
v -0.00258 0.00633 0.00094
v -0.00238 0.00601 0.00042
v -0.00256 0.00626 0.00093
v -0.00253 0.00620 0.00092
v -0.00250 0.00614 0.00091
v -0.00245 0.00609 0.00089
v -0.00240 0.00605 0.00087
v -0.00234 0.00602 0.00085
v -0.00238 0.00633 0.00137
v -0.00227 0.00601 0.00083
v -0.00236 0.00626 0.00136
v -0.00234 0.00620 0.00135
v -0.00230 0.00614 0.00133
v -0.00226 0.00609 0.00130
v -0.00221 0.00605 0.00127
v -0.00215 0.00602 0.00124
v -0.00210 0.00633 0.00176
v -0.00210 0.00601 0.00121
v -0.00209 0.00626 0.00175
v -0.00207 0.00620 0.00173
v -0.00203 0.00614 0.00171
v -0.00200 0.00609 0.00168
v -0.00195 0.00605 0.00164
v -0.00191 0.00602 0.00160
v -0.00176 0.00633 0.00210
v -0.00185 0.00601 0.00156
v -0.00175 0.00626 0.00209
v -0.00173 0.00620 0.00207
v -0.00171 0.00614 0.00203
v -0.00168 0.00609 0.00200
v -0.00164 0.00605 0.00195
v -0.00160 0.00602 0.00191
v -0.00137 0.00633 0.00238
v -0.00156 0.00601 0.00185
v -0.00136 0.00626 0.00236
v -0.00135 0.00620 0.00234
v -0.00133 0.00614 0.00230
v -0.00130 0.00609 0.00226
v -0.00128 0.00605 0.00221
v -0.00124 0.00602 0.00215
v -0.00094 0.00633 0.00258
v -0.00121 0.00601 0.00210
v -0.00093 0.00626 0.00256
v -0.00092 0.00620 0.00253
v -0.00091 0.00614 0.00250
v -0.00089 0.00609 0.00245
v -0.00087 0.00605 0.00240
v -0.00085 0.00602 0.00234
v -0.00048 0.00633 0.00270
v -0.00083 0.00601 0.00227
v -0.00047 0.00626 0.00268
v -0.00047 0.00620 0.00266
v -0.00046 0.00614 0.00262
v -0.00045 0.00609 0.00257
v -0.00044 0.00605 0.00251
v -0.00043 0.00602 0.00245
v -0.00000 0.00633 0.00274
v -0.00042 0.00601 0.00238
v -0.00000 0.00626 0.00273
v -0.00000 0.00620 0.00270
v -0.00000 0.00614 0.00266
v -0.00000 0.00609 0.00261
v -0.00000 0.00605 0.00255
v -0.00000 0.00602 0.00249
v 0.00048 0.00633 0.00270
v -0.00000 0.00601 0.00242
v 0.00047 0.00626 0.00268
v 0.00047 0.00620 0.00266
v 0.00046 0.00614 0.00262
v 0.00045 0.00609 0.00257
v 0.00044 0.00605 0.00251
v 0.00043 0.00602 0.00245
v 0.00094 0.00633 0.00258
v 0.00042 0.00601 0.00238
v 0.00093 0.00626 0.00256
v 0.00092 0.00620 0.00253
v 0.00091 0.00614 0.00250
v 0.00089 0.00609 0.00245
v 0.00087 0.00605 0.00240
v 0.00085 0.00602 0.00234
v 0.00137 0.00633 0.00238
v 0.00083 0.00601 0.00227
v 0.00136 0.00626 0.00236
v 0.00135 0.00620 0.00234
v 0.00133 0.00614 0.00230
v 0.00130 0.00609 0.00226
v 0.00127 0.00605 0.00221
v 0.00124 0.00602 0.00215
v 0.00176 0.00633 0.00210
v 0.00121 0.00601 0.00210
v 0.00175 0.00626 0.00209
v 0.00173 0.00620 0.00207
v 0.00171 0.00614 0.00203
v 0.00168 0.00609 0.00200
v 0.00164 0.00605 0.00195
v 0.00160 0.00602 0.00191
v 0.00210 0.00633 0.00176
v 0.00156 0.00601 0.00185
v 0.00209 0.00626 0.00175
v 0.00207 0.00620 0.00173
v 0.00203 0.00614 0.00171
v 0.00200 0.00609 0.00168
v 0.00195 0.00605 0.00164
v 0.00191 0.00602 0.00160
v 0.00238 0.00633 0.00137
v 0.00185 0.00601 0.00156
v 0.00236 0.00626 0.00136
v 0.00234 0.00620 0.00135
v 0.00230 0.00614 0.00133
v 0.00226 0.00609 0.00130
v 0.00221 0.00605 0.00128
v 0.00215 0.00602 0.00124
v 0.00258 0.00633 0.00094
v 0.00210 0.00601 0.00121
v 0.00256 0.00626 0.00093
v 0.00253 0.00620 0.00092
v 0.00250 0.00614 0.00091
v 0.00245 0.00609 0.00089
v 0.00240 0.00605 0.00087
v 0.00234 0.00602 0.00085
v 0.00270 0.00633 0.00048
v 0.00227 0.00601 0.00083
v 0.00268 0.00626 0.00047
v 0.00266 0.00620 0.00047
v 0.00262 0.00614 0.00046
v 0.00257 0.00609 0.00045
v 0.00251 0.00605 0.00044
v 0.00245 0.00602 0.00043
v 0.00238 0.00601 0.00042
v 0.00274 0.00867 -0.00000
v 0.00273 0.00874 -0.00000
v 0.00270 0.00880 -0.00000
v 0.00266 0.00886 -0.00000
v 0.00261 0.00891 -0.00000
v 0.00255 0.00895 -0.00000
v 0.00249 0.00898 -0.00000
v 0.00242 0.00899 -0.00000
v 0.00235 0.00900 -0.00000
v 0.00231 0.00900 -0.00041
v 0.00221 0.00900 -0.00080
v 0.00204 0.00900 -0.00117
v 0.00180 0.00900 -0.00151
v 0.00151 0.00900 -0.00180
v 0.00118 0.00900 -0.00204
v 0.00080 0.00900 -0.00221
v 0.00041 0.00900 -0.00231
v 0.00000 0.00900 -0.00235
v -0.00041 0.00900 -0.00231
v -0.00080 0.00900 -0.00221
v -0.00117 0.00900 -0.00204
v -0.00151 0.00900 -0.00180
v -0.00180 0.00900 -0.00151
v -0.00204 0.00900 -0.00118
v -0.00221 0.00900 -0.00080
v -0.00231 0.00900 -0.00041
v -0.00235 0.00900 -0.00000
v -0.00231 0.00900 0.00041
v -0.00221 0.00900 0.00080
v -0.00204 0.00900 0.00117
v -0.00180 0.00900 0.00151
v -0.00151 0.00900 0.00180
v -0.00118 0.00900 0.00204
v -0.00080 0.00900 0.00221
v -0.00041 0.00900 0.00231
v -0.00000 0.00900 0.00235
v 0.00041 0.00900 0.00231
v 0.00080 0.00900 0.00221
v 0.00117 0.00900 0.00204
v 0.00151 0.00900 0.00180
v 0.00180 0.00900 0.00151
v 0.00204 0.00900 0.00118
v 0.00221 0.00900 0.00080
v 0.00231 0.00900 0.00041
v 0.00270 0.00867 -0.00048
v 0.00268 0.00874 -0.00047
v 0.00266 0.00880 -0.00047
v 0.00262 0.00886 -0.00046
v 0.00257 0.00891 -0.00045
v 0.00251 0.00895 -0.00044
v 0.00245 0.00898 -0.00043
v 0.00258 0.00867 -0.00094
v 0.00238 0.00899 -0.00042
v 0.00256 0.00874 -0.00093
v 0.00253 0.00880 -0.00092
v 0.00250 0.00886 -0.00091
v 0.00245 0.00891 -0.00089
v 0.00240 0.00895 -0.00087
v 0.00234 0.00898 -0.00085
v 0.00238 0.00867 -0.00137
v 0.00227 0.00899 -0.00083
v 0.00236 0.00874 -0.00136
v 0.00234 0.00880 -0.00135
v 0.00230 0.00886 -0.00133
v 0.00226 0.00891 -0.00130
v 0.00221 0.00895 -0.00127
v 0.00215 0.00898 -0.00124
v 0.00210 0.00867 -0.00176
v 0.00210 0.00899 -0.00121
v 0.00209 0.00874 -0.00175
v 0.00207 0.00880 -0.00173
v 0.00203 0.00886 -0.00171
v 0.00200 0.00891 -0.00168
v 0.00195 0.00895 -0.00164
v 0.00191 0.00898 -0.00160
v 0.00176 0.00867 -0.00210
v 0.00185 0.00899 -0.00156
v 0.00175 0.00874 -0.00209
v 0.00173 0.00880 -0.00207
v 0.00171 0.00886 -0.00203
v 0.00168 0.00891 -0.00200
v 0.00164 0.00895 -0.00195
v 0.00160 0.00898 -0.00191
v 0.00137 0.00867 -0.00238
v 0.00156 0.00899 -0.00185
v 0.00136 0.00874 -0.00236
v 0.00135 0.00880 -0.00234
v 0.00133 0.00886 -0.00230
v 0.00130 0.00891 -0.00226
v 0.00128 0.00895 -0.00221
v 0.00124 0.00898 -0.00215
v 0.00094 0.00867 -0.00258
v 0.00121 0.00899 -0.00210
v 0.00093 0.00874 -0.00256
v 0.00092 0.00880 -0.00253
v 0.00091 0.00886 -0.00250
v 0.00089 0.00891 -0.00245
v 0.00087 0.00895 -0.00240
v 0.00085 0.00898 -0.00234
v 0.00048 0.00867 -0.00270
v 0.00083 0.00899 -0.00227
v 0.00047 0.00874 -0.00268
v 0.00047 0.00880 -0.00266
v 0.00046 0.00886 -0.00262
v 0.00045 0.00891 -0.00257
v 0.00044 0.00895 -0.00251
v 0.00043 0.00898 -0.00245
v 0.00000 0.00867 -0.00274
v 0.00042 0.00899 -0.00238
v 0.00000 0.00874 -0.00273
v 0.00000 0.00880 -0.00270
v 0.00000 0.00886 -0.00266
v 0.00000 0.00891 -0.00261
v 0.00000 0.00895 -0.00255
v 0.00000 0.00898 -0.00249
v -0.00048 0.00867 -0.00270
v 0.00000 0.00899 -0.00242
v -0.00047 0.00874 -0.00268
v -0.00047 0.00880 -0.00266
v -0.00046 0.00886 -0.00262
v -0.00045 0.00891 -0.00257
v -0.00044 0.00895 -0.00251
v -0.00043 0.00898 -0.00245
v -0.00094 0.00867 -0.00258
v -0.00042 0.00899 -0.00238
v -0.00093 0.00874 -0.00256
v -0.00092 0.00880 -0.00253
v -0.00091 0.00886 -0.00250
v -0.00089 0.00891 -0.00245
v -0.00087 0.00895 -0.00240
v -0.00085 0.00898 -0.00234
v -0.00137 0.00867 -0.00238
v -0.00083 0.00899 -0.00227
v -0.00136 0.00874 -0.00236
v -0.00135 0.00880 -0.00234
v -0.00133 0.00886 -0.00230
v -0.00130 0.00891 -0.00226
v -0.00127 0.00895 -0.00221
v -0.00124 0.00898 -0.00215
v -0.00176 0.00867 -0.00210
v -0.00121 0.00899 -0.00210
v -0.00175 0.00874 -0.00209
v -0.00173 0.00880 -0.00207
v -0.00171 0.00886 -0.00203
v -0.00168 0.00891 -0.00200
v -0.00164 0.00895 -0.00195
v -0.00160 0.00898 -0.00191
v -0.00210 0.00867 -0.00176
v -0.00156 0.00899 -0.00185
v -0.00209 0.00874 -0.00175
v -0.00207 0.00880 -0.00173
v -0.00203 0.00886 -0.00171
v -0.00200 0.00891 -0.00168
v -0.00195 0.00895 -0.00164
v -0.00191 0.00898 -0.00160
v -0.00238 0.00867 -0.00137
v -0.00185 0.00899 -0.00156
v -0.00236 0.00874 -0.00136
v -0.00234 0.00880 -0.00135
v -0.00230 0.00886 -0.00133
v -0.00226 0.00891 -0.00130
v -0.00221 0.00895 -0.00128
v -0.00215 0.00898 -0.00124
v -0.00258 0.00867 -0.00094
v -0.00210 0.00899 -0.00121
v -0.00256 0.00874 -0.00093
v -0.00253 0.00880 -0.00092
v -0.00250 0.00886 -0.00091
v -0.00245 0.00891 -0.00089
v -0.00240 0.00895 -0.00087
v -0.00234 0.00898 -0.00085
v -0.00270 0.00867 -0.00048
v -0.00227 0.00899 -0.00083
v -0.00268 0.00874 -0.00047
v -0.00266 0.00880 -0.00047
v -0.00262 0.00886 -0.00046
v -0.00257 0.00891 -0.00045
v -0.00251 0.00895 -0.00044
v -0.00245 0.00898 -0.00043
v -0.00274 0.00867 -0.00000
v -0.00238 0.00899 -0.00042
v -0.00273 0.00874 -0.00000
v -0.00270 0.00880 -0.00000
v -0.00266 0.00886 -0.00000
v -0.00261 0.00891 -0.00000
v -0.00255 0.00895 -0.00000
v -0.00249 0.00898 -0.00000
v -0.00270 0.00867 0.00048
v -0.00242 0.00899 -0.00000
v -0.00268 0.00874 0.00047
v -0.00266 0.00880 0.00047
v -0.00262 0.00886 0.00046
v -0.00257 0.00891 0.00045
v -0.00251 0.00895 0.00044
v -0.00245 0.00898 0.00043
v -0.00258 0.00867 0.00094
v -0.00238 0.00899 0.00042
v -0.00256 0.00874 0.00093
v -0.00253 0.00880 0.00092
v -0.00250 0.00886 0.00091
v -0.00245 0.00891 0.00089
v -0.00240 0.00895 0.00087
v -0.00234 0.00898 0.00085
v -0.00238 0.00867 0.00137
v -0.00227 0.00899 0.00083
v -0.00236 0.00874 0.00136
v -0.00234 0.00880 0.00135
v -0.00230 0.00886 0.00133
v -0.00226 0.00891 0.00130
v -0.00221 0.00895 0.00127
v -0.00215 0.00898 0.00124
v -0.00210 0.00867 0.00176
v -0.00210 0.00899 0.00121
v -0.00209 0.00874 0.00175
v -0.00207 0.00880 0.00173
v -0.00203 0.00886 0.00171
v -0.00200 0.00891 0.00168
v -0.00195 0.00895 0.00164
v -0.00191 0.00898 0.00160
v -0.00176 0.00867 0.00210
v -0.00185 0.00899 0.00156
v -0.00175 0.00874 0.00209
v -0.00173 0.00880 0.00207
v -0.00171 0.00886 0.00203
v -0.00168 0.00891 0.00200
v -0.00164 0.00895 0.00195
v -0.00160 0.00898 0.00191
v -0.00137 0.00867 0.00238
v -0.00156 0.00899 0.00185
v -0.00136 0.00874 0.00236
v -0.00135 0.00880 0.00234
v -0.00133 0.00886 0.00230
v -0.00130 0.00891 0.00226
v -0.00128 0.00895 0.00221
v -0.00124 0.00898 0.00215
v -0.00094 0.00867 0.00258
v -0.00121 0.00899 0.00210
v -0.00093 0.00874 0.00256
v -0.00092 0.00880 0.00253
v -0.00091 0.00886 0.00250
v -0.00089 0.00891 0.00245
v -0.00087 0.00895 0.00240
v -0.00085 0.00898 0.00234
v -0.00048 0.00867 0.00270
v -0.00083 0.00899 0.00227
v -0.00047 0.00874 0.00268
v -0.00047 0.00880 0.00266
v -0.00046 0.00886 0.00262
v -0.00045 0.00891 0.00257
v -0.00044 0.00895 0.00251
v -0.00043 0.00898 0.00245
v -0.00000 0.00867 0.00274
v -0.00042 0.00899 0.00238
v -0.00000 0.00874 0.00273
v -0.00000 0.00880 0.00270
v -0.00000 0.00886 0.00266
v -0.00000 0.00891 0.00261
v -0.00000 0.00895 0.00255
v -0.00000 0.00898 0.00249
v 0.00048 0.00867 0.00270
v -0.00000 0.00899 0.00242
v 0.00047 0.00874 0.00268
v 0.00047 0.00880 0.00266
v 0.00046 0.00886 0.00262
v 0.00045 0.00891 0.00257
v 0.00044 0.00895 0.00251
v 0.00043 0.00898 0.00245
v 0.00094 0.00867 0.00258
v 0.00042 0.00899 0.00238
v 0.00093 0.00874 0.00256
v 0.00092 0.00880 0.00253
v 0.00091 0.00886 0.00250
v 0.00089 0.00891 0.00245
v 0.00087 0.00895 0.00240
v 0.00085 0.00898 0.00234
v 0.00137 0.00867 0.00238
v 0.00083 0.00899 0.00227
v 0.00136 0.00874 0.00236
v 0.00135 0.00880 0.00234
v 0.00133 0.00886 0.00230
v 0.00130 0.00891 0.00226
v 0.00127 0.00895 0.00221
v 0.00124 0.00898 0.00215
v 0.00176 0.00867 0.00210
v 0.00121 0.00899 0.00210
v 0.00175 0.00874 0.00209
v 0.00173 0.00880 0.00207
v 0.00171 0.00886 0.00203
v 0.00168 0.00891 0.00200
v 0.00164 0.00895 0.00195
v 0.00160 0.00898 0.00191
v 0.00210 0.00867 0.00176
v 0.00156 0.00899 0.00185
v 0.00209 0.00874 0.00175
v 0.00207 0.00880 0.00173
v 0.00203 0.00886 0.00171
v 0.00200 0.00891 0.00168
v 0.00195 0.00895 0.00164
v 0.00191 0.00898 0.00160
v 0.00238 0.00867 0.00137
v 0.00185 0.00899 0.00156
v 0.00236 0.00874 0.00136
v 0.00234 0.00880 0.00135
v 0.00230 0.00886 0.00133
v 0.00226 0.00891 0.00130
v 0.00221 0.00895 0.00128
v 0.00215 0.00898 0.00124
v 0.00258 0.00867 0.00094
v 0.00210 0.00899 0.00121
v 0.00256 0.00874 0.00093
v 0.00253 0.00880 0.00092
v 0.00250 0.00886 0.00091
v 0.00245 0.00891 0.00089
v 0.00240 0.00895 0.00087
v 0.00234 0.00898 0.00085
v 0.00270 0.00867 0.00048
v 0.00227 0.00899 0.00083
v 0.00268 0.00874 0.00047
v 0.00266 0.00880 0.00047
v 0.00262 0.00886 0.00046
v 0.00257 0.00891 0.00045
v 0.00251 0.00895 0.00044
v 0.00245 0.00898 0.00043
v 0.00238 0.00899 0.00042
vn 1.0000 0.0000 0.0000
vn 1.0000 0.0000 0.0000
vn 0.9848 -0.0000 -0.1736
vn 0.9397 -0.0000 -0.3420
vn 0.8660 -0.0000 -0.5000
vn 0.7660 -0.0000 -0.6428
vn 0.6428 -0.0000 -0.7660
vn 0.5000 -0.0000 -0.8660
vn 0.3420 -0.0000 -0.9397
vn 0.1736 -0.0000 -0.9848
vn 0.0000 -0.0000 -1.0000
vn -0.1736 0.0000 -0.9848
vn -0.3420 0.0000 -0.9397
vn -0.5000 0.0000 -0.8660
vn -0.6428 0.0000 -0.7660
vn -0.7660 0.0000 -0.6428
vn -0.8660 0.0000 -0.5000
vn -0.9397 0.0000 -0.3420
vn -0.9848 0.0000 -0.1736
vn -1.0000 0.0000 -0.0000
vn -0.9848 0.0000 0.1736
vn -0.9397 0.0000 0.3420
vn -0.8660 0.0000 0.5000
vn -0.7660 0.0000 0.6428
vn -0.6428 0.0000 0.7660
vn -0.5000 0.0000 0.8660
vn -0.3420 0.0000 0.9397
vn -0.1736 0.0000 0.9848
vn -0.0000 0.0000 1.0000
vn 0.1736 0.0000 0.9848
vn 0.3420 0.0000 0.9397
vn 0.5000 0.0000 0.8660
vn 0.6428 0.0000 0.7660
vn 0.7660 0.0000 0.6428
vn 0.8660 0.0000 0.5000
vn 0.9397 0.0000 0.3420
vn 0.9848 0.0000 0.1736
vn 0.9848 -0.0000 -0.1736
vn 0.9397 -0.0000 -0.3420
vn 0.8660 -0.0000 -0.5000
vn 0.7660 -0.0000 -0.6428
vn 0.6428 -0.0000 -0.7660
vn 0.5000 -0.0000 -0.8660
vn 0.3420 -0.0000 -0.9397
vn 0.1736 -0.0000 -0.9848
vn 0.0000 -0.0000 -1.0000
vn -0.1736 0.0000 -0.9848
vn -0.3420 0.0000 -0.9397
vn -0.5000 0.0000 -0.8660
vn -0.6428 0.0000 -0.7660
vn -0.7660 0.0000 -0.6428
vn -0.8660 0.0000 -0.5000
vn -0.9397 0.0000 -0.3420
vn -0.9848 0.0000 -0.1736
vn -1.0000 0.0000 -0.0000
vn -0.9848 0.0000 0.1736
vn -0.9397 0.0000 0.3420
vn -0.8660 0.0000 0.5000
vn -0.7660 0.0000 0.6428
vn -0.6428 0.0000 0.7660
vn -0.5000 0.0000 0.8660
vn -0.3420 0.0000 0.9397
vn -0.1736 0.0000 0.9848
vn -0.0000 0.0000 1.0000
vn 0.1736 0.0000 0.9848
vn 0.3420 0.0000 0.9397
vn 0.5000 0.0000 0.8660
vn 0.6428 0.0000 0.7660
vn 0.7660 0.0000 0.6428
vn 0.8660 0.0000 0.5000
vn 0.9397 0.0000 0.3420
vn 0.9848 0.0000 0.1736
vn 0.9848 -0.1736 -0.0000
vn 0.9397 -0.3420 -0.0000
vn 0.8660 -0.5000 -0.0000
vn 0.7660 -0.6428 -0.0000
vn 0.6428 -0.7660 -0.0000
vn 0.5000 -0.8660 -0.0000
vn 0.3420 -0.9397 -0.0000
vn 0.1736 -0.9848 -0.0000
vn 0.0000 -1.0000 -0.0000
vn 0.0000 -1.0000 -0.0000
vn 0.0000 -1.0000 -0.0000
vn 0.0000 -1.0000 -0.0000
vn 0.0000 -1.0000 -0.0000
vn 0.0000 -1.0000 -0.0000
vn 0.0000 -1.0000 -0.0000
vn 0.0000 -1.0000 -0.0000
vn 0.0000 -1.0000 -0.0000
vn -0.0000 -1.0000 -0.0000
vn -0.0000 -1.0000 -0.0000
vn -0.0000 -1.0000 -0.0000
vn -0.0000 -1.0000 -0.0000
vn -0.0000 -1.0000 -0.0000
vn -0.0000 -1.0000 -0.0000
vn -0.0000 -1.0000 -0.0000
vn -0.0000 -1.0000 -0.0000
vn -0.0000 -1.0000 -0.0000
vn -0.0000 -1.0000 0.0000
vn -0.0000 -1.0000 0.0000
vn -0.0000 -1.0000 0.0000
vn -0.0000 -1.0000 0.0000
vn -0.0000 -1.0000 0.0000
vn -0.0000 -1.0000 0.0000
vn -0.0000 -1.0000 0.0000
vn -0.0000 -1.0000 0.0000
vn -0.0000 -1.0000 0.0000
vn -0.0000 -1.0000 0.0000
vn 0.0000 -1.0000 0.0000
vn 0.0000 -1.0000 0.0000
vn 0.0000 -1.0000 0.0000
vn 0.0000 -1.0000 0.0000
vn 0.0000 -1.0000 0.0000
vn 0.0000 -1.0000 0.0000
vn 0.0000 -1.0000 0.0000
vn 0.0000 -1.0000 0.0000
vn 0.9698 -0.1736 -0.1710
vn 0.9254 -0.3420 -0.1632
vn 0.8529 -0.5000 -0.1504
vn 0.7544 -0.6428 -0.1330
vn 0.6330 -0.7660 -0.1116
vn 0.4924 -0.8660 -0.0868
vn 0.3368 -0.9397 -0.0594
vn 0.9254 -0.1736 -0.3368
vn 0.1710 -0.9848 -0.0302
vn 0.8830 -0.3420 -0.3214
vn 0.8138 -0.5000 -0.2962
vn 0.7198 -0.6428 -0.2620
vn 0.6040 -0.7660 -0.2198
vn 0.4698 -0.8660 -0.1710
vn 0.3214 -0.9397 -0.1170
vn 0.8529 -0.1736 -0.4924
vn 0.1632 -0.9848 -0.0594
vn 0.8138 -0.3420 -0.4698
vn 0.7500 -0.5000 -0.4330
vn 0.6634 -0.6428 -0.3830
vn 0.5567 -0.7660 -0.3214
vn 0.4330 -0.8660 -0.2500
vn 0.2962 -0.9397 -0.1710
vn 0.7544 -0.1736 -0.6330
vn 0.1504 -0.9848 -0.0868
vn 0.7198 -0.3420 -0.6040
vn 0.6634 -0.5000 -0.5567
vn 0.5868 -0.6428 -0.4924
vn 0.4924 -0.7660 -0.4132
vn 0.3830 -0.8660 -0.3214
vn 0.2620 -0.9397 -0.2198
vn 0.6330 -0.1736 -0.7544
vn 0.1330 -0.9848 -0.1116
vn 0.6040 -0.3420 -0.7198
vn 0.5567 -0.5000 -0.6634
vn 0.4924 -0.6428 -0.5868
vn 0.4132 -0.7660 -0.4924
vn 0.3214 -0.8660 -0.3830
vn 0.2198 -0.9397 -0.2620
vn 0.4924 -0.1736 -0.8529
vn 0.1116 -0.9848 -0.1330
vn 0.4698 -0.3420 -0.8138
vn 0.4330 -0.5000 -0.7500
vn 0.3830 -0.6428 -0.6634
vn 0.3214 -0.7660 -0.5567
vn 0.2500 -0.8660 -0.4330
vn 0.1710 -0.9397 -0.2962
vn 0.3368 -0.1736 -0.9254
vn 0.0868 -0.9848 -0.1504
vn 0.3214 -0.3420 -0.8830
vn 0.2962 -0.5000 -0.8138
vn 0.2620 -0.6428 -0.7198
vn 0.2198 -0.7660 -0.6040
vn 0.1710 -0.8660 -0.4698
vn 0.1170 -0.9397 -0.3214
vn 0.1710 -0.1736 -0.9698
vn 0.0594 -0.9848 -0.1632
vn 0.1632 -0.3420 -0.9254
vn 0.1504 -0.5000 -0.8529
vn 0.1330 -0.6428 -0.7544
vn 0.1116 -0.7660 -0.6330
vn 0.0868 -0.8660 -0.4924
vn 0.0594 -0.9397 -0.3368
vn -0.0000 -0.1736 -0.9848
vn 0.0302 -0.9848 -0.1710
vn -0.0000 -0.3420 -0.9397
vn -0.0000 -0.5000 -0.8660
vn -0.0000 -0.6428 -0.7660
vn -0.0000 -0.7660 -0.6428
vn -0.0000 -0.8660 -0.5000
vn -0.0000 -0.9397 -0.3420
vn -0.1710 -0.1736 -0.9698
vn -0.0000 -0.9848 -0.1736
vn -0.1632 -0.3420 -0.9254
vn -0.1504 -0.5000 -0.8529
vn -0.1330 -0.6428 -0.7544
vn -0.1116 -0.7660 -0.6330
vn -0.0868 -0.8660 -0.4924
vn -0.0594 -0.9397 -0.3368
vn -0.3368 -0.1736 -0.9254
vn -0.0302 -0.9848 -0.1710
vn -0.3214 -0.3420 -0.8830
vn -0.2962 -0.5000 -0.8138
vn -0.2620 -0.6428 -0.7198
vn -0.2198 -0.7660 -0.6040
vn -0.1710 -0.8660 -0.4698
vn -0.1170 -0.9397 -0.3214
vn -0.4924 -0.1736 -0.8529
vn -0.0594 -0.9848 -0.1632
vn -0.4698 -0.3420 -0.8138
vn -0.4330 -0.5000 -0.7500
vn -0.3830 -0.6428 -0.6634
vn -0.3214 -0.7660 -0.5567
vn -0.2500 -0.8660 -0.4330
vn -0.1710 -0.9397 -0.2962
vn -0.6330 -0.1736 -0.7544
vn -0.0868 -0.9848 -0.1504
vn -0.6040 -0.3420 -0.7198
vn -0.5567 -0.5000 -0.6634
vn -0.4924 -0.6428 -0.5868
vn -0.4132 -0.7660 -0.4924
vn -0.3214 -0.8660 -0.3830
vn -0.2198 -0.9397 -0.2620
vn -0.7544 -0.1736 -0.6330
vn -0.1116 -0.9848 -0.1330
vn -0.7198 -0.3420 -0.6040
vn -0.6634 -0.5000 -0.5567
vn -0.5868 -0.6428 -0.4924
vn -0.4924 -0.7660 -0.4132
vn -0.3830 -0.8660 -0.3214
vn -0.2620 -0.9397 -0.2198
vn -0.8529 -0.1736 -0.4924
vn -0.1330 -0.9848 -0.1116
vn -0.8138 -0.3420 -0.4698
vn -0.7500 -0.5000 -0.4330
vn -0.6634 -0.6428 -0.3830
vn -0.5567 -0.7660 -0.3214
vn -0.4330 -0.8660 -0.2500
vn -0.2962 -0.9397 -0.1710
vn -0.9254 -0.1736 -0.3368
vn -0.1504 -0.9848 -0.0868
vn -0.8830 -0.3420 -0.3214
vn -0.8138 -0.5000 -0.2962
vn -0.7198 -0.6428 -0.2620
vn -0.6040 -0.7660 -0.2198
vn -0.4698 -0.8660 -0.1710
vn -0.3214 -0.9397 -0.1170
vn -0.9698 -0.1736 -0.1710
vn -0.1632 -0.9848 -0.0594
vn -0.9254 -0.3420 -0.1632
vn -0.8529 -0.5000 -0.1504
vn -0.7544 -0.6428 -0.1330
vn -0.6330 -0.7660 -0.1116
vn -0.4924 -0.8660 -0.0868
vn -0.3368 -0.9397 -0.0594
vn -0.9848 -0.1736 0.0000
vn -0.1710 -0.9848 -0.0302
vn -0.9397 -0.3420 0.0000
vn -0.8660 -0.5000 0.0000
vn -0.7660 -0.6428 0.0000
vn -0.6428 -0.7660 0.0000
vn -0.5000 -0.8660 0.0000
vn -0.3420 -0.9397 0.0000
vn -0.9698 -0.1736 0.1710
vn -0.1736 -0.9848 0.0000
vn -0.9254 -0.3420 0.1632
vn -0.8529 -0.5000 0.1504
vn -0.7544 -0.6428 0.1330
vn -0.6330 -0.7660 0.1116
vn -0.4924 -0.8660 0.0868
vn -0.3368 -0.9397 0.0594
vn -0.9254 -0.1736 0.3368
vn -0.1710 -0.9848 0.0302
vn -0.8830 -0.3420 0.3214
vn -0.8138 -0.5000 0.2962
vn -0.7198 -0.6428 0.2620
vn -0.6040 -0.7660 0.2198
vn -0.4698 -0.8660 0.1710
vn -0.3214 -0.9397 0.1170
vn -0.8529 -0.1736 0.4924
vn -0.1632 -0.9848 0.0594
vn -0.8138 -0.3420 0.4698
vn -0.7500 -0.5000 0.4330
vn -0.6634 -0.6428 0.3830
vn -0.5567 -0.7660 0.3214
vn -0.4330 -0.8660 0.2500
vn -0.2962 -0.9397 0.1710
vn -0.7544 -0.1736 0.6330
vn -0.1504 -0.9848 0.0868
vn -0.7198 -0.3420 0.6040
vn -0.6634 -0.5000 0.5567
vn -0.5868 -0.6428 0.4924
vn -0.4924 -0.7660 0.4132
vn -0.3830 -0.8660 0.3214
vn -0.2620 -0.9397 0.2198
vn -0.6330 -0.1736 0.7544
vn -0.1330 -0.9848 0.1116
vn -0.6040 -0.3420 0.7198
vn -0.5567 -0.5000 0.6634
vn -0.4924 -0.6428 0.5868
vn -0.4132 -0.7660 0.4924
vn -0.3214 -0.8660 0.3830
vn -0.2198 -0.9397 0.2620
vn -0.4924 -0.1736 0.8529
vn -0.1116 -0.9848 0.1330
vn -0.4698 -0.3420 0.8138
vn -0.4330 -0.5000 0.7500
vn -0.3830 -0.6428 0.6634
vn -0.3214 -0.7660 0.5567
vn -0.2500 -0.8660 0.4330
vn -0.1710 -0.9397 0.2962
vn -0.3368 -0.1736 0.9254
vn -0.0868 -0.9848 0.1504
vn -0.3214 -0.3420 0.8830
vn -0.2962 -0.5000 0.8138
vn -0.2620 -0.6428 0.7198
vn -0.2198 -0.7660 0.6040
vn -0.1710 -0.8660 0.4698
vn -0.1170 -0.9397 0.3214
vn -0.1710 -0.1736 0.9698
vn -0.0594 -0.9848 0.1632
vn -0.1632 -0.3420 0.9254
vn -0.1504 -0.5000 0.8529
vn -0.1330 -0.6428 0.7544
vn -0.1116 -0.7660 0.6330
vn -0.0868 -0.8660 0.4924
vn -0.0594 -0.9397 0.3368
vn -0.0000 -0.1736 0.9848
vn -0.0302 -0.9848 0.1710
vn -0.0000 -0.3420 0.9397
vn -0.0000 -0.5000 0.8660
vn -0.0000 -0.6428 0.7660
vn -0.0000 -0.7660 0.6428
vn -0.0000 -0.8660 0.5000
vn -0.0000 -0.9397 0.3420
vn 0.1710 -0.1736 0.9698
vn -0.0000 -0.9848 0.1736
vn 0.1632 -0.3420 0.9254
vn 0.1504 -0.5000 0.8529
vn 0.1330 -0.6428 0.7544
vn 0.1116 -0.7660 0.6330
vn 0.0868 -0.8660 0.4924
vn 0.0594 -0.9397 0.3368
vn 0.3368 -0.1736 0.9254
vn 0.0302 -0.9848 0.1710
vn 0.3214 -0.3420 0.8830
vn 0.2962 -0.5000 0.8138
vn 0.2620 -0.6428 0.7198
vn 0.2198 -0.7660 0.6040
vn 0.1710 -0.8660 0.4698
vn 0.1170 -0.9397 0.3214
vn 0.4924 -0.1736 0.8529
vn 0.0594 -0.9848 0.1632
vn 0.4698 -0.3420 0.8138
vn 0.4330 -0.5000 0.7500
vn 0.3830 -0.6428 0.6634
vn 0.3214 -0.7660 0.5567
vn 0.2500 -0.8660 0.4330
vn 0.1710 -0.9397 0.2962
vn 0.6330 -0.1736 0.7544
vn 0.0868 -0.9848 0.1504
vn 0.6040 -0.3420 0.7198
vn 0.5567 -0.5000 0.6634
vn 0.4924 -0.6428 0.5868
vn 0.4132 -0.7660 0.4924
vn 0.3214 -0.8660 0.3830
vn 0.2198 -0.9397 0.2620
vn 0.7544 -0.1736 0.6330
vn 0.1116 -0.9848 0.1330
vn 0.7198 -0.3420 0.6040
vn 0.6634 -0.5000 0.5567
vn 0.5868 -0.6428 0.4924
vn 0.4924 -0.7660 0.4132
vn 0.3830 -0.8660 0.3214
vn 0.2620 -0.9397 0.2198
vn 0.8529 -0.1736 0.4924
vn 0.1330 -0.9848 0.1116
vn 0.8138 -0.3420 0.4698
vn 0.7500 -0.5000 0.4330
vn 0.6634 -0.6428 0.3830
vn 0.5567 -0.7660 0.3214
vn 0.4330 -0.8660 0.2500
vn 0.2962 -0.9397 0.1710
vn 0.9254 -0.1736 0.3368
vn 0.1504 -0.9848 0.0868
vn 0.8830 -0.3420 0.3214
vn 0.8138 -0.5000 0.2962
vn 0.7198 -0.6428 0.2620
vn 0.6040 -0.7660 0.2198
vn 0.4698 -0.8660 0.1710
vn 0.3214 -0.9397 0.1170
vn 0.9698 -0.1736 0.1710
vn 0.1632 -0.9848 0.0594
vn 0.9254 -0.3420 0.1632
vn 0.8529 -0.5000 0.1504
vn 0.7544 -0.6428 0.1330
vn 0.6330 -0.7660 0.1116
vn 0.4924 -0.8660 0.0868
vn 0.3368 -0.9397 0.0594
vn 0.1710 -0.9848 0.0302
vn 0.9848 0.1736 -0.0000
vn 0.9397 0.3420 -0.0000
vn 0.8660 0.5000 -0.0000
vn 0.7660 0.6428 -0.0000
vn 0.6428 0.7660 -0.0000
vn 0.5000 0.8660 -0.0000
vn 0.3420 0.9397 -0.0000
vn 0.1736 0.9848 -0.0000
vn 0.0000 1.0000 -0.0000
vn 0.0000 1.0000 -0.0000
vn 0.0000 1.0000 -0.0000
vn 0.0000 1.0000 -0.0000
vn 0.0000 1.0000 -0.0000
vn 0.0000 1.0000 -0.0000
vn 0.0000 1.0000 -0.0000
vn 0.0000 1.0000 -0.0000
vn 0.0000 1.0000 -0.0000
vn 0.0000 1.0000 -0.0000
vn -0.0000 1.0000 -0.0000
vn -0.0000 1.0000 -0.0000
vn -0.0000 1.0000 -0.0000
vn -0.0000 1.0000 -0.0000
vn -0.0000 1.0000 -0.0000
vn -0.0000 1.0000 -0.0000
vn -0.0000 1.0000 -0.0000
vn -0.0000 1.0000 -0.0000
vn -0.0000 1.0000 -0.0000
vn -0.0000 1.0000 0.0000
vn -0.0000 1.0000 0.0000
vn -0.0000 1.0000 0.0000
vn -0.0000 1.0000 0.0000
vn -0.0000 1.0000 0.0000
vn -0.0000 1.0000 0.0000
vn -0.0000 1.0000 0.0000
vn -0.0000 1.0000 0.0000
vn -0.0000 1.0000 0.0000
vn 0.0000 1.0000 0.0000
vn 0.0000 1.0000 0.0000
vn 0.0000 1.0000 0.0000
vn 0.0000 1.0000 0.0000
vn 0.0000 1.0000 0.0000
vn 0.0000 1.0000 0.0000
vn 0.0000 1.0000 0.0000
vn 0.0000 1.0000 0.0000
vn 0.9698 0.1736 -0.1710
vn 0.9254 0.3420 -0.1632
vn 0.8529 0.5000 -0.1504
vn 0.7544 0.6428 -0.1330
vn 0.6330 0.7660 -0.1116
vn 0.4924 0.8660 -0.0868
vn 0.3368 0.9397 -0.0594
vn 0.9254 0.1736 -0.3368
vn 0.1710 0.9848 -0.0302
vn 0.8830 0.3420 -0.3214
vn 0.8138 0.5000 -0.2962
vn 0.7198 0.6428 -0.2620
vn 0.6040 0.7660 -0.2198
vn 0.4698 0.8660 -0.1710
vn 0.3214 0.9397 -0.1170
vn 0.8529 0.1736 -0.4924
vn 0.1632 0.9848 -0.0594
vn 0.8138 0.3420 -0.4698
vn 0.7500 0.5000 -0.4330
vn 0.6634 0.6428 -0.3830
vn 0.5567 0.7660 -0.3214
vn 0.4330 0.8660 -0.2500
vn 0.2962 0.9397 -0.1710
vn 0.7544 0.1736 -0.6330
vn 0.1504 0.9848 -0.0868
vn 0.7198 0.3420 -0.6040
vn 0.6634 0.5000 -0.5567
vn 0.5868 0.6428 -0.4924
vn 0.4924 0.7660 -0.4132
vn 0.3830 0.8660 -0.3214
vn 0.2620 0.9397 -0.2198
vn 0.6330 0.1736 -0.7544
vn 0.1330 0.9848 -0.1116
vn 0.6040 0.3420 -0.7198
vn 0.5567 0.5000 -0.6634
vn 0.4924 0.6428 -0.5868
vn 0.4132 0.7660 -0.4924
vn 0.3214 0.8660 -0.3830
vn 0.2198 0.9397 -0.2620
vn 0.4924 0.1736 -0.8529
vn 0.1116 0.9848 -0.1330
vn 0.4698 0.3420 -0.8138
vn 0.4330 0.5000 -0.7500
vn 0.3830 0.6428 -0.6634
vn 0.3214 0.7660 -0.5567
vn 0.2500 0.8660 -0.4330
vn 0.1710 0.9397 -0.2962
vn 0.3368 0.1736 -0.9254
vn 0.0868 0.9848 -0.1504
vn 0.3214 0.3420 -0.8830
vn 0.2962 0.5000 -0.8138
vn 0.2620 0.6428 -0.7198
vn 0.2198 0.7660 -0.6040
vn 0.1710 0.8660 -0.4698
vn 0.1170 0.9397 -0.3214
vn 0.1710 0.1736 -0.9698
vn 0.0594 0.9848 -0.1632
vn 0.1632 0.3420 -0.9254
vn 0.1504 0.5000 -0.8529
vn 0.1330 0.6428 -0.7544
vn 0.1116 0.7660 -0.6330
vn 0.0868 0.8660 -0.4924
vn 0.0594 0.9397 -0.3368
vn 0.0000 0.1736 -0.9848
vn 0.0302 0.9848 -0.1710
vn 0.0000 0.3420 -0.9397
vn 0.0000 0.5000 -0.8660
vn 0.0000 0.6428 -0.7660
vn 0.0000 0.7660 -0.6428
vn 0.0000 0.8660 -0.5000
vn 0.0000 0.9397 -0.3420
vn -0.1710 0.1736 -0.9698
vn 0.0000 0.9848 -0.1736
vn -0.1632 0.3420 -0.9254
vn -0.1504 0.5000 -0.8529
vn -0.1330 0.6428 -0.7544
vn -0.1116 0.7660 -0.6330
vn -0.0868 0.8660 -0.4924
vn -0.0594 0.9397 -0.3368
vn -0.3368 0.1736 -0.9254
vn -0.0302 0.9848 -0.1710
vn -0.3214 0.3420 -0.8830
vn -0.2962 0.5000 -0.8138
vn -0.2620 0.6428 -0.7198
vn -0.2198 0.7660 -0.6040
vn -0.1710 0.8660 -0.4698
vn -0.1170 0.9397 -0.3214
vn -0.4924 0.1736 -0.8529
vn -0.0594 0.9848 -0.1632
vn -0.4698 0.3420 -0.8138
vn -0.4330 0.5000 -0.7500
vn -0.3830 0.6428 -0.6634
vn -0.3214 0.7660 -0.5567
vn -0.2500 0.8660 -0.4330
vn -0.1710 0.9397 -0.2962
vn -0.6330 0.1736 -0.7544
vn -0.0868 0.9848 -0.1504
vn -0.6040 0.3420 -0.7198
vn -0.5567 0.5000 -0.6634
vn -0.4924 0.6428 -0.5868
vn -0.4132 0.7660 -0.4924
vn -0.3214 0.8660 -0.3830
vn -0.2198 0.9397 -0.2620
vn -0.7544 0.1736 -0.6330
vn -0.1116 0.9848 -0.1330
vn -0.7198 0.3420 -0.6040
vn -0.6634 0.5000 -0.5567
vn -0.5868 0.6428 -0.4924
vn -0.4924 0.7660 -0.4132
vn -0.3830 0.8660 -0.3214
vn -0.2620 0.9397 -0.2198
vn -0.8529 0.1736 -0.4924
vn -0.1330 0.9848 -0.1116
vn -0.8138 0.3420 -0.4698
vn -0.7500 0.5000 -0.4330
vn -0.6634 0.6428 -0.3830
vn -0.5567 0.7660 -0.3214
vn -0.4330 0.8660 -0.2500
vn -0.2962 0.9397 -0.1710
vn -0.9254 0.1736 -0.3368
vn -0.1504 0.9848 -0.0868
vn -0.8830 0.3420 -0.3214
vn -0.8138 0.5000 -0.2962
vn -0.7198 0.6428 -0.2620
vn -0.6040 0.7660 -0.2198
vn -0.4698 0.8660 -0.1710
vn -0.3214 0.9397 -0.1170
vn -0.9698 0.1736 -0.1710
vn -0.1632 0.9848 -0.0594
vn -0.9254 0.3420 -0.1632
vn -0.8529 0.5000 -0.1504
vn -0.7544 0.6428 -0.1330
vn -0.6330 0.7660 -0.1116
vn -0.4924 0.8660 -0.0868
vn -0.3368 0.9397 -0.0594
vn -0.9848 0.1736 -0.0000
vn -0.1710 0.9848 -0.0302
vn -0.9397 0.3420 -0.0000
vn -0.8660 0.5000 -0.0000
vn -0.7660 0.6428 -0.0000
vn -0.6428 0.7660 -0.0000
vn -0.5000 0.8660 -0.0000
vn -0.3420 0.9397 -0.0000
vn -0.9698 0.1736 0.1710
vn -0.1736 0.9848 -0.0000
vn -0.9254 0.3420 0.1632
vn -0.8529 0.5000 0.1504
vn -0.7544 0.6428 0.1330
vn -0.6330 0.7660 0.1116
vn -0.4924 0.8660 0.0868
vn -0.3368 0.9397 0.0594
vn -0.9254 0.1736 0.3368
vn -0.1710 0.9848 0.0302
vn -0.8830 0.3420 0.3214
vn -0.8138 0.5000 0.2962
vn -0.7198 0.6428 0.2620
vn -0.6040 0.7660 0.2198
vn -0.4698 0.8660 0.1710
vn -0.3214 0.9397 0.1170
vn -0.8529 0.1736 0.4924
vn -0.1632 0.9848 0.0594
vn -0.8138 0.3420 0.4698
vn -0.7500 0.5000 0.4330
vn -0.6634 0.6428 0.3830
vn -0.5567 0.7660 0.3214
vn -0.4330 0.8660 0.2500
vn -0.2962 0.9397 0.1710
vn -0.7544 0.1736 0.6330
vn -0.1504 0.9848 0.0868
vn -0.7198 0.3420 0.6040
vn -0.6634 0.5000 0.5567
vn -0.5868 0.6428 0.4924
vn -0.4924 0.7660 0.4132
vn -0.3830 0.8660 0.3214
vn -0.2620 0.9397 0.2198
vn -0.6330 0.1736 0.7544
vn -0.1330 0.9848 0.1116
vn -0.6040 0.3420 0.7198
vn -0.5567 0.5000 0.6634
vn -0.4924 0.6428 0.5868
vn -0.4132 0.7660 0.4924
vn -0.3214 0.8660 0.3830
vn -0.2198 0.9397 0.2620
vn -0.4924 0.1736 0.8529
vn -0.1116 0.9848 0.1330
vn -0.4698 0.3420 0.8138
vn -0.4330 0.5000 0.7500
vn -0.3830 0.6428 0.6634
vn -0.3214 0.7660 0.5567
vn -0.2500 0.8660 0.4330
vn -0.1710 0.9397 0.2962
vn -0.3368 0.1736 0.9254
vn -0.0868 0.9848 0.1504
vn -0.3214 0.3420 0.8830
vn -0.2962 0.5000 0.8138
vn -0.2620 0.6428 0.7198
vn -0.2198 0.7660 0.6040
vn -0.1710 0.8660 0.4698
vn -0.1170 0.9397 0.3214
vn -0.1710 0.1736 0.9698
vn -0.0594 0.9848 0.1632
vn -0.1632 0.3420 0.9254
vn -0.1504 0.5000 0.8529
vn -0.1330 0.6428 0.7544
vn -0.1116 0.7660 0.6330
vn -0.0868 0.8660 0.4924
vn -0.0594 0.9397 0.3368
vn -0.0000 0.1736 0.9848
vn -0.0302 0.9848 0.1710
vn -0.0000 0.3420 0.9397
vn -0.0000 0.5000 0.8660
vn -0.0000 0.6428 0.7660
vn -0.0000 0.7660 0.6428
vn -0.0000 0.8660 0.5000
vn -0.0000 0.9397 0.3420
vn 0.1710 0.1736 0.9698
vn -0.0000 0.9848 0.1736
vn 0.1632 0.3420 0.9254
vn 0.1504 0.5000 0.8529
vn 0.1330 0.6428 0.7544
vn 0.1116 0.7660 0.6330
vn 0.0868 0.8660 0.4924
vn 0.0594 0.9397 0.3368
vn 0.3368 0.1736 0.9254
vn 0.0302 0.9848 0.1710
vn 0.3214 0.3420 0.8830
vn 0.2962 0.5000 0.8138
vn 0.2620 0.6428 0.7198
vn 0.2198 0.7660 0.6040
vn 0.1710 0.8660 0.4698
vn 0.1170 0.9397 0.3214
vn 0.4924 0.1736 0.8529
vn 0.0594 0.9848 0.1632
vn 0.4698 0.3420 0.8138
vn 0.4330 0.5000 0.7500
vn 0.3830 0.6428 0.6634
vn 0.3214 0.7660 0.5567
vn 0.2500 0.8660 0.4330
vn 0.1710 0.9397 0.2962
vn 0.6330 0.1736 0.7544
vn 0.0868 0.9848 0.1504
vn 0.6040 0.3420 0.7198
vn 0.5567 0.5000 0.6634
vn 0.4924 0.6428 0.5868
vn 0.4132 0.7660 0.4924
vn 0.3214 0.8660 0.3830
vn 0.2198 0.9397 0.2620
vn 0.7544 0.1736 0.6330
vn 0.1116 0.9848 0.1330
vn 0.7198 0.3420 0.6040
vn 0.6634 0.5000 0.5567
vn 0.5868 0.6428 0.4924
vn 0.4924 0.7660 0.4132
vn 0.3830 0.8660 0.3214
vn 0.2620 0.9397 0.2198
vn 0.8529 0.1736 0.4924
vn 0.1330 0.9848 0.1116
vn 0.8138 0.3420 0.4698
vn 0.7500 0.5000 0.4330
vn 0.6634 0.6428 0.3830
vn 0.5567 0.7660 0.3214
vn 0.4330 0.8660 0.2500
vn 0.2962 0.9397 0.1710
vn 0.9254 0.1736 0.3368
vn 0.1504 0.9848 0.0868
vn 0.8830 0.3420 0.3214
vn 0.8138 0.5000 0.2962
vn 0.7198 0.6428 0.2620
vn 0.6040 0.7660 0.2198
vn 0.4698 0.8660 0.1710
vn 0.3214 0.9397 0.1170
vn 0.9698 0.1736 0.1710
vn 0.1632 0.9848 0.0594
vn 0.9254 0.3420 0.1632
vn 0.8529 0.5000 0.1504
vn 0.7544 0.6428 0.1330
vn 0.6330 0.7660 0.1116
vn 0.4924 0.8660 0.0868
vn 0.3368 0.9397 0.0594
vn 0.1710 0.9848 0.0302
f 75//75 74//74 73//73
f 75//75 73//73 110//110
f 76//76 110//110 111//111
f 76//76 75//75 110//110
f 77//77 111//111 112//112
f 77//77 76//76 111//111
f 78//78 112//112 113//113
f 78//78 77//77 112//112
f 79//79 113//113 114//114
f 79//79 78//78 113//113
f 80//80 79//79 114//114
f 80//80 114//114 115//115
f 80//80 115//115 116//116
f 81//81 80//80 116//116
f 82//82 81//81 116//116
f 82//82 116//116 117//117
f 83//83 82//82 117//117
f 83//83 117//117 118//118
f 84//84 83//83 118//118
f 84//84 118//118 119//119
f 85//85 84//84 119//119
f 85//85 119//119 120//120
f 86//86 85//85 120//120
f 86//86 120//120 121//121
f 86//86 121//121 122//122
f 87//87 86//86 122//122
f 88//88 87//87 122//122
f 88//88 122//122 123//123
f 88//88 123//123 124//124
f 89//89 88//88 124//124
f 89//89 124//124 125//125
f 90//90 89//89 125//125
f 91//91 90//90 125//125
f 91//91 125//125 126//126
f 91//91 126//126 127//127
f 92//92 91//91 127//127
f 92//92 127//127 128//128
f 93//93 92//92 128//128
f 94//94 93//93 128//128
f 94//94 128//128 129//129
f 94//94 129//129 130//130
f 95//95 94//94 130//130
f 96//96 130//130 131//131
f 96//96 131//131 132//132
f 96//96 95//95 130//130
f 97//97 96//96 132//132
f 98//98 132//132 133//133
f 98//98 97//97 132//132
f 99//99 133//133 134//134
f 99//99 98//98 133//133
f 100//100 134//134 135//135
f 100//100 135//135 136//136
f 100//100 99//99 134//134
f 101//101 100//100 136//136
f 102//102 136//136 137//137
f 102//102 101//101 136//136
f 103//103 137//137 138//138
f 103//103 138//138 139//139
f 103//103 102//102 137//137
f 104//104 103//103 139//139
f 105//105 104//104 139//139
f 105//105 139//139 140//140
f 106//106 105//105 140//140
f 106//106 140//140 141//141
f 107//107 106//106 141//141
f 107//107 141//141 142//142
f 108//108 107//107 142//142
f 108//108 142//142 143//143
f 109//109 108//108 143//143
f 109//109 143//143 144//144
f 74//74 109//109 144//144
f 74//74 144//144 73//73
f 145//145 73//73 144//144
f 153//153 152//152 188//188
f 189//189 73//73 145//145
f 189//189 110//110 73//73
f 190//190 145//145 146//146
f 190//190 189//189 145//145
f 191//191 146//146 147//147
f 191//191 190//190 146//146
f 192//192 147//147 148//148
f 192//192 191//191 147//147
f 193//193 192//192 148//148
f 193//193 148//148 149//149
f 194//194 149//149 150//150
f 194//194 193//193 149//149
f 195//195 150//150 151//151
f 195//195 194//194 150//150
f 196//196 110//110 189//189
f 196//196 111//111 110//110
f 197//197 151//151 152//152
f 197//197 152//152 153//153
f 197//197 195//195 151//151
f 197//197 153//153 154//154
f 198//198 196//196 189//189
f 198//198 189//189 190//190
f 199//199 198//198 190//190
f 199//199 190//190 191//191
f 200//200 191//191 192//192
f 200//200 199//199 191//191
f 201//201 200//200 192//192
f 201//201 192//192 193//193
f 202//202 193//193 194//194
f 202//202 201//201 193//193
f 203//203 194//194 195//195
f 203//203 202//202 194//194
f 204//204 112//112 111//111
f 204//204 111//111 196//196
f 205//205 197//197 154//154
f 205//205 203//203 195//195
f 205//205 154//154 155//155
f 205//205 195//195 197//197
f 206//206 196//196 198//198
f 206//206 204//204 196//196
f 207//207 198//198 199//199
f 207//207 206//206 198//198
f 208//208 207//207 199//199
f 208//208 199//199 200//200
f 209//209 200//200 201//201
f 209//209 208//208 200//200
f 210//210 209//209 201//201
f 210//210 201//201 202//202
f 211//211 210//210 202//202
f 211//211 202//202 203//203
f 212//212 113//113 112//112
f 212//212 112//112 204//204
f 213//213 205//205 155//155
f 213//213 211//211 203//203
f 213//213 155//155 156//156
f 213//213 203//203 205//205
f 214//214 212//212 204//204
f 214//214 204//204 206//206
f 215//215 206//206 207//207
f 215//215 214//214 206//206
f 216//216 207//207 208//208
f 216//216 215//215 207//207
f 217//217 208//208 209//209
f 217//217 216//216 208//208
f 218//218 217//217 209//209
f 218//218 209//209 210//210
f 219//219 218//218 210//210
f 219//219 210//210 211//211
f 220//220 114//114 113//113
f 220//220 115//115 114//114
f 220//220 113//113 212//212
f 221//221 213//213 156//156
f 221//221 211//211 213//213
f 221//221 219//219 211//211
f 221//221 156//156 157//157
f 222//222 212//212 214//214
f 222//222 220//220 212//212
f 223//223 214//214 215//215
f 223//223 222//222 214//214
f 224//224 215//215 216//216
f 224//224 223//223 215//215
f 225//225 216//216 217//217
f 225//225 224//224 216//216
f 226//226 217//217 218//218
f 226//226 225//225 217//217
f 227//227 226//226 218//218
f 227//227 218//218 219//219
f 228//228 115//115 220//220
f 228//228 220//220 222//222
f 229//229 157//157 158//158
f 229//229 219//219 221//221
f 229//229 221//221 157//157
f 229//229 227//227 219//219
f 230//230 228//228 222//222
f 231//231 222//222 223//223
f 231//231 230//230 222//222
f 232//232 231//231 223//223
f 232//232 223//223 224//224
f 233//233 232//232 224//224
f 233//233 224//224 225//225
f 234//234 233//233 225//225
f 234//234 225//225 226//226
f 235//235 234//234 226//226
f 235//235 226//226 227//227
f 235//235 227//227 229//229
f 236//236 115//115 228//228
f 236//236 116//116 115//115
f 237//237 235//235 229//229
f 237//237 158//158 159//159
f 237//237 159//159 160//160
f 237//237 229//229 158//158
f 238//238 236//236 228//228
f 238//238 228//228 230//230
f 239//239 238//238 230//230
f 239//239 230//230 231//231
f 240//240 232//232 233//233
f 240//240 239//239 231//231
f 240//240 231//231 232//232
f 241//241 240//240 233//233
f 242//242 233//233 234//234
f 242//242 241//241 233//233
f 243//243 234//234 235//235
f 243//243 242//242 234//234
f 244//244 117//117 116//116
f 244//244 116//116 236//236
f 245//245 235//235 237//237
f 245//245 243//243 235//235
f 245//245 237//237 160//160
f 246//246 244//244 236//236
f 246//246 236//236 238//238
f 247//247 238//238 239//239
f 247//247 246//246 238//238
f 248//248 239//239 240//240
f 248//248 247//247 239//239
f 249//249 240//240 241//241
f 249//249 241//241 242//242
f 249//249 248//248 240//240
f 250//250 249//249 242//242
f 250//250 242//242 243//243
f 251//251 250//250 243//243
f 252//252 118//118 117//117
f 252//252 117//117 244//244
f 253//253 251//251 243//243
f 253//253 243//243 245//245
f 253//253 245//245 160//160
f 253//253 160//160 161//161
f 254//254 244//244 246//246
f 254//254 252//252 244//244
f 254//254 246//246 247//247
f 255//255 254//254 247//247
f 256//256 247//247 248//248
f 256//256 255//255 247//247
f 257//257 248//248 249//249
f 257//257 256//256 248//248
f 258//258 249//249 250//250
f 258//258 257//257 249//249
f 259//259 250//250 251//251
f 259//259 258//258 250//250
f 260//260 119//119 118//118
f 260//260 118//118 252//252
f 261//261 251//251 253//253
f 261//261 161//161 162//162
f 261//261 162//162 163//163
f 261//261 253//253 161//161
f 261//261 259//259 251//251
f 262//262 252//252 254//254
f 262//262 260//260 252//252
f 263//263 254//254 255//255
f 263//263 262//262 254//254
f 264//264 263//263 255//255
f 264//264 255//255 256//256
f 265//265 256//256 257//257
f 265//265 264//264 256//256
f 266//266 257//257 258//258
f 266//266 265//265 257//257
f 267//267 266//266 258//258
f 267//267 258//258 259//259
f 268//268 120//120 119//119
f 268//268 119//119 260//260
f 268//268 260//260 262//262
f 269//269 267//267 259//259
f 269//269 261//261 163//163
f 269//269 259//259 261//261
f 270//270 268//268 262//262
f 271//271 262//262 263//263
f 271//271 270//270 262//262
f 272//272 271//271 263//263
f 272//272 263//263 264//264
f 273//273 264//264 265//265
f 273//273 272//272 264//264
f 274//274 273//273 265//265
f 274//274 265//265 266//266
f 274//274 266//266 267//267
f 275//275 274//274 267//267
f 276//276 268//268 270//270
f 276//276 121//121 120//120
f 276//276 120//120 268//268
f 277//277 267//267 269//269
f 277//277 269//269 163//163
f 277//277 163//163 164//164
f 277//277 275//275 267//267
f 278//278 276//276 270//270
f 279//279 270//270 271//271
f 279//279 278//278 270//270
f 280//280 271//271 272//272
f 280//280 279//279 271//271
f 281//281 272//272 273//273
f 281//281 280//280 272//272
f 282//282 273//273 274//274
f 282//282 281//281 273//273
f 283//283 274//274 275//275
f 283//283 282//282 274//274
f 284//284 276//276 278//278
f 284//284 122//122 121//121
f 284//284 121//121 276//276
f 285//285 275//275 277//277
f 285//285 277//277 164//164
f 285//285 283//283 275//275
f 285//285 164//164 165//165
f 285//285 165//165 166//166
f 286//286 284//284 278//278
f 287//287 278//278 279//279
f 287//287 279//279 280//280
f 287//287 286//286 278//278
f 288//288 280//280 281//281
f 288//288 287//287 280//280
f 289//289 288//288 281//281
f 290//290 282//282 283//283
f 290//290 281//281 282//282
f 290//290 289//289 281//281
f 291//291 290//290 283//283
f 292//292 123//123 122//122
f 292//292 122//122 284//284
f 292//292 284//284 286//286
f 293//293 283//283 285//285
f 293//293 285//285 166//166
f 293//293 166//166 167//167
f 293//293 291//291 283//283
f 294//294 292//292 286//286
f 295//295 286//286 287//287
f 295//295 294//294 286//286
f 296//296 287//287 288//288
f 296//296 295//295 287//287
f 297//297 288//288 289//289
f 297//297 289//289 290//290
f 297//297 296//296 288//288
f 298//298 297//297 290//290
f 299//299 290//290 291//291
f 299//299 291//291 293//293
f 299//299 298//298 290//290
f 300//300 124//124 123//123
f 300//300 123//123 292//292
f 301//301 299//299 293//293
f 301//301 293//293 167//167
f 302//302 300//300 292//292
f 302//302 292//292 294//294
f 302//302 294//294 295//295
f 303//303 302//302 295//295
f 304//304 303//303 295//295
f 304//304 295//295 296//296
f 305//305 304//304 296//296
f 305//305 296//296 297//297
f 306//306 297//297 298//298
f 306//306 305//305 297//297
f 307//307 298//298 299//299
f 307//307 306//306 298//298
f 308//308 125//125 124//124
f 308//308 300//300 302//302
f 308//308 124//124 300//300
f 309//309 299//299 301//301
f 309//309 301//301 167//167
f 309//309 307//307 299//299
f 309//309 167//167 168//168
f 309//309 168//168 169//169
f 310//310 308//308 302//302
f 311//311 302//302 303//303
f 311//311 310//310 302//302
f 312//312 303//303 304//304
f 312//312 304//304 305//305
f 312//312 311//311 303//303
f 313//313 312//312 305//305
f 314//314 305//305 306//306
f 314//314 313//313 305//305
f 314//314 306//306 307//307
f 315//315 314//314 307//307
f 316//316 308//308 310//310
f 316//316 126//126 125//125
f 316//316 125//125 308//308
f 317//317 307//307 309//309
f 317//317 309//309 169//169
f 317//317 315//315 307//307
f 318//318 310//310 311//311
f 318//318 316//316 310//310
f 319//319 318//318 311//311
f 320//320 311//311 312//312
f 320//320 319//319 311//311
f 321//321 313//313 314//314
f 321//321 312//312 313//313
f 321//321 320//320 312//312
f 322//322 321//321 314//314
f 323//323 314//314 315//315
f 323//323 315//315 317//317
f 323//323 322//322 314//314
f 324//324 127//127 126//126
f 324//324 126//126 316//316
f 324//324 316//316 318//318
f 325//325 323//323 317//317
f 325//325 317//317 169//169
f 325//325 169//169 170//170
f 325//325 170//170 171//171
f 326//326 324//324 318//318
f 327//327 318//318 319//319
f 327//327 326//326 318//318
f 328//328 319//319 320//320
f 328//328 320//320 321//321
f 328//328 327//327 319//319
f 329//329 328//328 321//321
f 330//330 321//321 322//322
f 330//330 329//329 321//321
f 330//330 322//322 323//323
f 331//331 330//330 323//323
f 332//332 128//128 127//127
f 332//332 129//129 128//128
f 332//332 127//127 324//324
f 333//333 323//323 325//325
f 333//333 171//171 172//172
f 333//333 325//325 171//171
f 333//333 331//331 323//323
f 334//334 324//324 326//326
f 334//334 332//332 324//324
f 335//335 334//334 326//326
f 335//335 326//326 327//327
f 336//336 335//335 327//327
f 336//336 327//327 328//328
f 337//337 336//336 328//328
f 337//337 329//329 330//330
f 337//337 328//328 329//329
f 338//338 330//330 331//331
f 338//338 337//337 330//330
f 339//339 338//338 331//331
f 340//340 129//129 332//332
f 341//341 333//333 172//172
f 341//341 331//331 333//333
f 341//341 339//339 331//331
f 342//342 332//332 334//334
f 342//342 340//340 332//332
f 343//343 334//334 335//335
f 343//343 342//342 334//334
f 344//344 335//335 336//336
f 344//344 343//343 335//335
f 345//345 344//344 336//336
f 345//345 336//336 337//337
f 345//345 337//337 338//338
f 346//346 345//345 338//338
f 347//347 338//338 339//339
f 347//347 346//346 338//338
f 348//348 129//129 340//340
f 348//348 130//130 129//129
f 348//348 131//131 130//130
f 349//349 339//339 341//341
f 349//349 347//347 339//339
f 349//349 172//172 173//173
f 349//349 341//341 172//172
f 350//350 340//340 342//342
f 350//350 342//342 343//343
f 350//350 348//348 340//340
f 351//351 343//343 344//344
f 351//351 350//350 343//343
f 352//352 351//351 344//344
f 353//353 352//352 344//344
f 353//353 344//344 345//345
f 354//354 345//345 346//346
f 354//354 353//353 345//345
f 355//355 346//346 347//347
f 355//355 354//354 346//346
f 356//356 131//131 348//348
f 357//357 355//355 347//347
f 357//357 347//347 349//349
f 357//357 349//349 173//173
f 357//357 173//173 174//174
f 358//358 356//356 348//348
f 358//358 348//348 350//350
f 359//359 350//350 351//351
f 359//359 351//351 352//352
f 359//359 358//358 350//350
f 360//360 359//359 352//352
f 361//361 352//352 353//353
f 361//361 360//360 352//352
f 362//362 353//353 354//354
f 362//362 361//361 353//353
f 363//363 354//354 355//355
f 363//363 362//362 354//354
f 364//364 132//132 131//131
f 364//364 131//131 356//356
f 365//365 355//355 357//357
f 365//365 174//174 175//175
f 365//365 357//357 174//174
f 365//365 363//363 355//355
f 366//366 364//364 356//356
f 366//366 356//356 358//358
f 367//367 366//366 358//358
f 367//367 359//359 360//360
f 367//367 358//358 359//359
f 368//368 367//367 360//360
f 369//369 368//368 360//360
f 369//369 360//360 361//361
f 369//369 361//361 362//362
f 370//370 369//369 362//362
f 371//371 370//370 362//362
f 371//371 362//362 363//363
f 372//372 364//364 366//366
f 372//372 133//133 132//132
f 372//372 134//134 133//133
f 372//372 132//132 364//364
f 373//373 363//363 365//365
f 373//373 365//365 175//175
f 373//373 175//175 176//176
f 373//373 176//176 177//177
f 373//373 371//371 363//363
f 374//374 372//372 366//366
f 375//375 366//366 367//367
f 375//375 374//374 366//366
f 376//376 367//367 368//368
f 376//376 375//375 367//367
f 377//377 368//368 369//369
f 377//377 376//376 368//368
f 378//378 369//369 370//370
f 378//378 377//377 369//369
f 379//379 370//370 371//371
f 379//379 378//378 370//370
f 380//380 134//134 372//372
f 381//381 371//371 373//373
f 381//381 373//373 177//177
f 381//381 379//379 371//371
f 382//382 372//372 374//374
f 382//382 380//380 372//372
f 383//383 374//374 375//375
f 383//383 375//375 376//376
f 383//383 382//382 374//374
f 384//384 383//383 376//376
f 385//385 376//376 377//377
f 385//385 377//377 378//378
f 385//385 384//384 376//376
f 386//386 378//378 379//379
f 386//386 385//385 378//378
f 387//387 386//386 379//379
f 388//388 134//134 380//380
f 388//388 135//135 134//134
f 389//389 387//387 379//379
f 389//389 381//381 177//177
f 389//389 379//379 381//381
f 389//389 177//177 178//178
f 389//389 178//178 179//179
f 390//390 380//380 382//382
f 390//390 388//388 380//380
f 390//390 382//382 383//383
f 391//391 390//390 383//383
f 391//391 383//383 384//384
f 392//392 391//391 384//384
f 393//393 384//384 385//385
f 393//393 392//392 384//384
f 394//394 385//385 386//386
f 394//394 393//393 385//385
f 395//395 387//387 389//389
f 395//395 386//386 387//387
f 395//395 394//394 386//386
f 396//396 135//135 388//388
f 396//396 136//136 135//135
f 396//396 388//388 390//390
f 397//397 389//389 179//179
f 397//397 395//395 389//389
f 398//398 396//396 390//390
f 399//399 390//390 391//391
f 399//399 398//398 390//390
f 400//400 391//391 392//392
f 400//400 399//399 391//391
f 401//401 400//400 392//392
f 401//401 392//392 393//393
f 402//402 401//401 393//393
f 402//402 393//393 394//394
f 403//403 402//402 394//394
f 403//403 394//394 395//395
f 404//404 137//137 136//136
f 404//404 136//136 396//396
f 405//405 403//403 395//395
f 405//405 179//179 180//180
f 405//405 397//397 179//179
f 405//405 395//395 397//397
f 406//406 404//404 396//396
f 406//406 396//396 398//398
f 407//407 398//398 399//399
f 407//407 406//406 398//398
f 408//408 399//399 400//400
f 408//408 407//407 399//399
f 409//409 400//400 401//401
f 409//409 408//408 400//400
f 410//410 401//401 402//402
f 410//410 402//402 403//403
f 410//410 409//409 401//401
f 411//411 410//410 403//403
f 412//412 137//137 404//404
f 412//412 138//138 137//137
f 413//413 403//403 405//405
f 413//413 405//405 180//180
f 413//413 411//411 403//403
f 413//413 180//180 181//181
f 414//414 404//404 406//406
f 414//414 406//406 407//407
f 414//414 412//412 404//404
f 415//415 414//414 407//407
f 416//416 407//407 408//408
f 416//416 408//408 409//409
f 416//416 415//415 407//407
f 417//417 416//416 409//409
f 418//418 409//409 410//410
f 418//418 417//417 409//409
f 419//419 410//410 411//411
f 419//419 418//418 410//410
f 420//420 412//412 414//414
f 420//420 139//139 138//138
f 420//420 138//138 412//412
f 421//421 411//411 413//413
f 421//421 413//413 181//181
f 421//421 419//419 411//411
f 421//421 181//181 182//182
f 422//422 420//420 414//414
f 423//423 414//414 415//415
f 423//423 422//422 414//414
f 424//424 416//416 417//417
f 424//424 415//415 416//416
f 424//424 423//423 415//415
f 425//425 417//417 418//418
f 425//425 424//424 417//417
f 426//426 425//425 418//418
f 427//427 418//418 419//419
f 427//427 426//426 418//418
f 428//428 139//139 420//420
f 428//428 140//140 139//139
f 429//429 419//419 421//421
f 429//429 421//421 182//182
f 429//429 427//427 419//419
f 429//429 182//182 183//183
f 430//430 420//420 422//422
f 430//430 428//428 420//420
f 431//431 422//422 423//423
f 431//431 430//430 422//422
f 432//432 423//423 424//424
f 432//432 431//431 423//423
f 433//433 424//424 425//425
f 433//433 432//432 424//424
f 434//434 425//425 426//426
f 434//434 433//433 425//425
f 435//435 434//434 426//426
f 435//435 426//426 427//427
f 436//436 140//140 428//428
f 436//436 141//141 140//140
f 437//437 183//183 184//184
f 437//437 427//427 429//429
f 437//437 429//429 183//183
f 437//437 435//435 427//427
f 438//438 428//428 430//430
f 438//438 436//436 428//428
f 439//439 438//438 430//430
f 439//439 430//430 431//431
f 440//440 431//431 432//432
f 440//440 432//432 433//433
f 440//440 439//439 431//431
f 441//441 433//433 434//434
f 441//441 440//440 433//433
f 442//442 441//441 434//434
f 443//443 434//434 435//435
f 443//443 442//442 434//434
f 444//444 141//141 436//436
f 444//444 436//436 438//438
f 444//444 142//142 141//141
f 445//445 435//435 437//437
f 445//445 443//443 435//435
f 445//445 184//184 185//185
f 445//445 437//437 184//184
f 446//446 444//444 438//438
f 446//446 438//438 439//439
f 447//447 446//446 439//439
f 448//448 439//439 440//440
f 448//448 447//447 439//439
f 449//449 440//440 441//441
f 449//449 448//448 440//440
f 450//450 441//441 442//442
f 450//450 449//449 441//441
f 451//451 442//442 443//443
f 451//451 450//450 442//442
f 452//452 142//142 444//444
f 452//452 143//143 142//142
f 453//453 443//443 445//445
f 453//453 445//445 185//185
f 453//453 451//451 443//443
f 453//453 185//185 186//186
f 454//454 444//444 446//446
f 454//454 452//452 444//444
f 455//455 446//446 447//447
f 455//455 454//454 446//446
f 456//456 447//447 448//448
f 456//456 455//455 447//447
f 457//457 449//449 450//450
f 457//457 448//448 449//449
f 457//457 456//456 448//448
f 458//458 457//457 450//450
f 459//459 450//450 451//451
f 459//459 458//458 450//450
f 460//460 452//452 454//454
f 460//460 144//144 143//143
f 460//460 143//143 452//452
f 460//460 145//145 144//144
f 461//461 451//451 453//453
f 461//461 453//453 186//186
f 461//461 459//459 451//451
f 461//461 186//186 187//187
f 462//462 145//145 460//460
f 462//462 146//146 145//145
f 462//462 454//454 455//455
f 462//462 460//460 454//454
f 463//463 147//147 146//146
f 463//463 462//462 455//455
f 463//463 146//146 462//462
f 464//464 148//148 147//147
f 464//464 149//149 148//148
f 464//464 463//463 455//455
f 464//464 455//455 456//456
f 464//464 456//456 457//457
f 464//464 147//147 463//463
f 465//465 150//150 149//149
f 465//465 149//149 464//464
f 465//465 464//464 457//457
f 466//466 151//151 150//150
f 466//466 457//457 458//458
f 466//466 150//150 465//465
f 466//466 465//465 457//457
f 467//467 151//151 466//466
f 467//467 466//466 458//458
f 467//467 458//458 459//459
f 468//468 151//151 467//467
f 468//468 467//467 459//459
f 468//468 152//152 151//151
f 468//468 188//188 152//152
f 468//468 459//459 461//461
f 468//468 461//461 187//187
f 468//468 187//187 188//188
f 477//477 512//512 476//476
f 513//513 469//469 74//74
f 513//513 74//74 75//75
f 514//514 470//470 469//469
f 514//514 469//469 513//513
f 515//515 471//471 470//470
f 515//515 470//470 514//514
f 516//516 472//472 471//471
f 516//516 471//471 515//515
f 517//517 472//472 516//516
f 517//517 473//473 472//472
f 518//518 474//474 473//473
f 518//518 473//473 517//517
f 519//519 475//475 474//474
f 519//519 474//474 518//518
f 520//520 513//513 75//75
f 520//520 75//75 76//76
f 521//521 476//476 475//475
f 521//521 477//477 476//476
f 521//521 475//475 519//519
f 521//521 478//478 477//477
f 522//522 513//513 520//520
f 522//522 514//514 513//513
f 523//523 514//514 522//522
f 523//523 515//515 514//514
f 524//524 516//516 515//515
f 524//524 515//515 523//523
f 525//525 516//516 524//524
f 525//525 517//517 516//516
f 526//526 518//518 517//517
f 526//526 517//517 525//525
f 527//527 519//519 518//518
f 527//527 518//518 526//526
f 528//528 76//76 77//77
f 528//528 520//520 76//76
f 529//529 478//478 521//521
f 529//529 519//519 527//527
f 529//529 479//479 478//478
f 529//529 521//521 519//519
f 530//530 522//522 520//520
f 530//530 520//520 528//528
f 531//531 523//523 522//522
f 531//531 522//522 530//530
f 532//532 523//523 531//531
f 532//532 524//524 523//523
f 533//533 525//525 524//524
f 533//533 524//524 532//532
f 534//534 525//525 533//533
f 534//534 526//526 525//525
f 535//535 526//526 534//534
f 535//535 527//527 526//526
f 536//536 77//77 78//78
f 536//536 78//78 79//79
f 536//536 528//528 77//77
f 537//537 527//527 535//535
f 537//537 479//479 529//529
f 537//537 480//480 479//479
f 537//537 529//529 527//527
f 538//538 530//530 528//528
f 538//538 528//528 536//536
f 539//539 531//531 530//530
f 539//539 530//530 538//538
f 540//540 531//531 539//539
f 540//540 532//532 531//531
f 541//541 533//533 532//532
f 541//541 532//532 540//540
f 542//542 533//533 541//541
f 542//542 534//534 533//533
f 543//543 534//534 542//542
f 543//543 535//535 534//534
f 544//544 536//536 79//79
f 545//545 537//537 535//535
f 545//545 480//480 537//537
f 545//545 535//535 543//543
f 545//545 481//481 480//480
f 545//545 482//482 481//481
f 546//546 536//536 544//544
f 546//546 538//538 536//536
f 547//547 539//539 538//538
f 547//547 538//538 546//546
f 548//548 539//539 547//547
f 548//548 540//540 539//539
f 549//549 541//541 540//540
f 549//549 540//540 548//548
f 550//550 542//542 541//541
f 550//550 541//541 549//549
f 551//551 543//543 542//542
f 551//551 542//542 550//550
f 552//552 79//79 80//80
f 552//552 80//80 81//81
f 552//552 544//544 79//79
f 553//553 545//545 543//543
f 553//553 482//482 545//545
f 553//553 543//543 551//551
f 554//554 544//544 552//552
f 554//554 546//546 544//544
f 555//555 546//546 554//554
f 555//555 547//547 546//546
f 556//556 547//547 555//555
f 556//556 548//548 547//547
f 557//557 548//548 556//556
f 557//557 549//549 548//548
f 558//558 549//549 557//557
f 558//558 550//550 549//549
f 559//559 550//550 558//558
f 559//559 551//551 550//550
f 560//560 552//552 81//81
f 561//561 551//551 559//559
f 561//561 483//483 482//482
f 561//561 482//482 553//553
f 561//561 553//553 551//551
f 562//562 552//552 560//560
f 562//562 554//554 552//552
f 563//563 554//554 562//562
f 563//563 555//555 554//554
f 564//564 556//556 555//555
f 564//564 557//557 556//556
f 564//564 555//555 563//563
f 565//565 557//557 564//564
f 566//566 558//558 557//557
f 566//566 557//557 565//565
f 567//567 559//559 558//558
f 567//567 558//558 566//566
f 568//568 81//81 82//82
f 568//568 82//82 83//83
f 568//568 560//560 81//81
f 569//569 561//561 559//559
f 569//569 559//559 567//567
f 569//569 484//484 483//483
f 569//569 483//483 561//561
f 570//570 562//562 560//560
f 570//570 560//560 568//568
f 571//571 563//563 562//562
f 571//571 562//562 570//570
f 572//572 564//564 563//563
f 572//572 563//563 571//571
f 573//573 565//565 564//564
f 573//573 566//566 565//565
f 573//573 564//564 572//572
f 574//574 566//566 573//573
f 575//575 567//567 566//566
f 575//575 566//566 574//574
f 576//576 568//568 83//83
f 577//577 569//569 567//567
f 577//577 567//567 575//575
f 577//577 484//484 569//569
f 577//577 485//485 484//484
f 578//578 570//570 568//568
f 578//578 571//571 570//570
f 578//578 568//568 576//576
f 579//579 571//571 578//578
f 580//580 572//572 571//571
f 580//580 571//571 579//579
f 581//581 573//573 572//572
f 581//581 572//572 580//580
f 582//582 574//574 573//573
f 582//582 573//573 581//581
f 582//582 575//575 574//574
f 583//583 575//575 582//582
f 584//584 83//83 84//84
f 584//584 576//576 83//83
f 585//585 577//577 575//575
f 585//585 486//486 485//485
f 585//585 575//575 583//583
f 585//585 487//487 486//486
f 585//585 485//485 577//577
f 586//586 578//578 576//576
f 586//586 576//576 584//584
f 587//587 579//579 578//578
f 587//587 578//578 586//586
f 588//588 579//579 587//587
f 588//588 580//580 579//579
f 589//589 580//580 588//588
f 589//589 581//581 580//580
f 590//590 581//581 589//589
f 590//590 582//582 581//581
f 591//591 582//582 590//590
f 591//591 583//583 582//582
f 592//592 84//84 85//85
f 592//592 584//584 84//84
f 593//593 583//583 591//591
f 593//593 585//585 583//583
f 593//593 487//487 585//585
f 594//594 584//584 592//592
f 594//594 586//586 584//584
f 595//595 586//586 594//594
f 595//595 587//587 586//586
f 596//596 587//587 595//595
f 596//596 588//588 587//587
f 597//597 588//588 596//596
f 597//597 589//589 588//588
f 598//598 590//590 589//589
f 598//598 591//591 590//590
f 598//598 589//589 597//597
f 599//599 591//591 598//598
f 600//600 85//85 86//86
f 600//600 592//592 85//85
f 601//601 593//593 591//591
f 601//601 487//487 593//593
f 601//601 488//488 487//487
f 601//601 591//591 599//599
f 602//602 594//594 592//592
f 602//602 592//592 600//600
f 603//603 595//595 594//594
f 603//603 594//594 602//602
f 604//604 596//596 595//595
f 604//604 595//595 603//603
f 605//605 596//596 604//604
f 605//605 597//597 596//596
f 606//606 598//598 597//597
f 606//606 597//597 605//605
f 607//607 598//598 606//606
f 607//607 599//599 598//598
f 608//608 86//86 87//87
f 608//608 602//602 600//600
f 608//608 600//600 86//86
f 609//609 599//599 607//607
f 609//609 601//601 599//599
f 609//609 488//488 601//601
f 609//609 489//489 488//488
f 609//609 490//490 489//489
f 610//610 602//602 608//608
f 611//611 603//603 602//602
f 611//611 602//602 610//610
f 612//612 604//604 603//603
f 612//612 605//605 604//604
f 612//612 603//603 611//611
f 613//613 605//605 612//612
f 614//614 606//606 605//605
f 614//614 605//605 613//613
f 615//615 607//607 606//606
f 615//615 606//606 614//614
f 616//616 87//87 88//88
f 616//616 608//608 87//87
f 616//616 610//610 608//608
f 617//617 609//609 607//607
f 617//617 490//490 609//609
f 617//617 491//491 490//490
f 617//617 607//607 615//615
f 618//618 610//610 616//616
f 619//619 611//611 610//610
f 619//619 610//610 618//618
f 620//620 612//612 611//611
f 620//620 611//611 619//619
f 621//621 614//614 613//613
f 621//621 613//613 612//612
f 621//621 612//612 620//620
f 622//622 614//614 621//621
f 623//623 614//614 622//622
f 623//623 615//615 614//614
f 623//623 617//617 615//615
f 624//624 88//88 89//89
f 624//624 616//616 88//88
f 625//625 617//617 623//623
f 625//625 491//491 617//617
f 626//626 616//616 624//624
f 626//626 618//618 616//616
f 626//626 619//619 618//618
f 627//627 619//619 626//626
f 628//628 619//619 627//627
f 628//628 620//620 619//619
f 629//629 620//620 628//628
f 629//629 621//621 620//620
f 630//630 622//622 621//621
f 630//630 621//621 629//629
f 631//631 622//622 630//630
f 631//631 623//623 622//622
f 632//632 89//89 90//90
f 632//632 624//624 89//89
f 633//633 625//625 623//623
f 633//633 491//491 625//625
f 633//633 623//623 631//631
f 633//633 492//492 491//491
f 633//633 493//493 492//492
f 634//634 624//624 632//632
f 634//634 626//626 624//624
f 635//635 627//627 626//626
f 635//635 626//626 634//634
f 636//636 628//628 627//627
f 636//636 629//629 628//628
f 636//636 627//627 635//635
f 637//637 629//629 636//636
f 638//638 630//630 629//629
f 638//638 629//629 637//637
f 639//639 631//631 630//630
f 639//639 630//630 638//638
f 640//640 634//634 632//632
f 640//640 90//90 91//91
f 640//640 632//632 90//90
f 641//641 633//633 631//631
f 641//641 493//493 633//633
f 641//641 631//631 639//639
f 642//642 635//635 634//634
f 642//642 634//634 640//640
f 643//643 635//635 642//642
f 644//644 636//636 635//635
f 644//644 635//635 643//643
f 645//645 637//637 636//636
f 645//645 638//638 637//637
f 645//645 636//636 644//644
f 646//646 638//638 645//645
f 647//647 638//638 646//646
f 647//647 639//639 638//638
f 647//647 641//641 639//639
f 648//648 91//91 92//92
f 648//648 642//642 640//640
f 648//648 640//640 91//91
f 649//649 493//493 641//641
f 649//649 494//494 493//493
f 649//649 495//495 494//494
f 649//649 641//641 647//647
f 650//650 642//642 648//648
f 651//651 643//643 642//642
f 651//651 642//642 650//650
f 652//652 644//644 643//643
f 652//652 645//645 644//644
f 652//652 643//643 651//651
f 653//653 645//645 652//652
f 654//654 646//646 645//645
f 654//654 645//645 653//653
f 655//655 647//647 646//646
f 655//655 646//646 654//654
f 656//656 92//92 93//93
f 656//656 93//93 94//94
f 656//656 648//648 92//92
f 657//657 496//496 495//495
f 657//657 495//495 649//649
f 657//657 649//649 647//647
f 657//657 647//647 655//655
f 658//658 648//648 656//656
f 658//658 650//650 648//648
f 659//659 651//651 650//650
f 659//659 650//650 658//658
f 659//659 652//652 651//651
f 660//660 652//652 659//659
f 661//661 652//652 660//660
f 661//661 653//653 652//652
f 661//661 654//654 653//653
f 662//662 654//654 661//661
f 663//663 654//654 662//662
f 663//663 655//655 654//654
f 664//664 656//656 94//94
f 665//665 496//496 657//657
f 665//665 657//657 655//655
f 665//665 655//655 663//663
f 666//666 658//658 656//656
f 666//666 656//656 664//664
f 667//667 659//659 658//658
f 667//667 658//658 666//666
f 668//668 660//660 659//659
f 668//668 659//659 667//667
f 669//669 661//661 660//660
f 669//669 662//662 661//661
f 669//669 660//660 668//668
f 670//670 662//662 669//669
f 671//671 662//662 670//670
f 671//671 663//663 662//662
f 672//672 94//94 95//95
f 672//672 95//95 96//96
f 672//672 664//664 94//94
f 673//673 496//496 665//665
f 673//673 665//665 663//663
f 673//673 663//663 671//671
f 673//673 497//497 496//496
f 674//674 666//666 664//664
f 674//674 667//667 666//666
f 674//674 664//664 672//672
f 675//675 667//667 674//674
f 676//676 668//668 667//667
f 676//676 667//667 675//675
f 677//677 669//669 668//668
f 677//677 668//668 676//676
f 678//678 670//670 669//669
f 678//678 669//669 677//677
f 679//679 671//671 670//670
f 679//679 670//670 678//678
f 680//680 96//96 97//97
f 680//680 672//672 96//96
f 681//681 673//673 671//671
f 681//681 497//497 673//673
f 681//681 671//671 679//679
f 681//681 498//498 497//497
f 682//682 672//672 680//680
f 682//682 674//674 672//672
f 683//683 675//675 674//674
f 683//683 674//674 682//682
f 683//683 676//676 675//675
f 684//684 676//676 683//683
f 685//685 677//677 676//676
f 685//685 676//676 684//684
f 686//686 678//678 677//677
f 686//686 677//677 685//685
f 687//687 679//679 678//678
f 687//687 678//678 686//686
f 688//688 680//680 97//97
f 689//689 499//499 498//498
f 689//689 681//681 679//679
f 689//689 498//498 681//681
f 689//689 679//679 687//687
f 690//690 680//680 688//688
f 690//690 682//682 680//680
f 691//691 682//682 690//690
f 691//691 683//683 682//682
f 692//692 684//684 683//683
f 692//692 683//683 691//691
f 693//693 684//684 692//692
f 693//693 685//685 684//684
f 693//693 686//686 685//685
f 694//694 686//686 693//693
f 694//694 687//687 686//686
f 695//695 687//687 694//694
f 696//696 97//97 98//98
f 696//696 98//98 99//99
f 696//696 688//688 97//97
f 697//697 689//689 687//687
f 697//697 687//687 695//695
f 697//697 500//500 499//499
f 697//697 501//501 500//500
f 697//697 499//499 689//689
f 698//698 688//688 696//696
f 698//698 690//690 688//688
f 699//699 691//691 690//690
f 699//699 692//692 691//691
f 699//699 690//690 698//698
f 700//700 692//692 699//699
f 701//701 693//693 692//692
f 701//701 692//692 700//700
f 702//702 694//694 693//693
f 702//702 693//693 701//701
f 703//703 695//695 694//694
f 703//703 694//694 702//702
f 704//704 696//696 99//99
f 705//705 697//697 695//695
f 705//705 501//501 697//697
f 705//705 695//695 703//703
f 706//706 696//696 704//704
f 706//706 698//698 696//696
f 707//707 699//699 698//698
f 707//707 698//698 706//706
f 708//708 700//700 699//699
f 708//708 699//699 707//707
f 709//709 701//701 700//700
f 709//709 702//702 701//701
f 709//709 700//700 708//708
f 710//710 702//702 709//709
f 711//711 703//703 702//702
f 711//711 702//702 710//710
f 712//712 704//704 99//99
f 712//712 99//99 100//100
f 713//713 501//501 705//705
f 713//713 705//705 703//703
f 713//713 703//703 711//711
f 713//713 502//502 501//501
f 713//713 503//503 502//502
f 714//714 706//706 704//704
f 714//714 707//707 706//706
f 714//714 704//704 712//712
f 715//715 708//708 707//707
f 715//715 707//707 714//714
f 716//716 708//708 715//715
f 717//717 709//709 708//708
f 717//717 708//708 716//716
f 718//718 710//710 709//709
f 718//718 711//711 710//710
f 718//718 709//709 717//717
f 719//719 711//711 718//718
f 720//720 712//712 100//100
f 720//720 100//100 101//101
f 720//720 714//714 712//712
f 721//721 713//713 711//711
f 721//721 503//503 713//713
f 721//721 711//711 719//719
f 722//722 714//714 720//720
f 723//723 715//715 714//714
f 723//723 714//714 722//722
f 724//724 715//715 723//723
f 724//724 716//716 715//715
f 725//725 716//716 724//724
f 725//725 717//717 716//716
f 726//726 717//717 725//725
f 726//726 718//718 717//717
f 727//727 718//718 726//726
f 727//727 719//719 718//718
f 728//728 101//101 102//102
f 728//728 720//720 101//101
f 729//729 719//719 727//727
f 729//729 504//504 503//503
f 729//729 503//503 721//721
f 729//729 721//721 719//719
f 730//730 720//720 728//728
f 730//730 722//722 720//720
f 731//731 723//723 722//722
f 731//731 722//722 730//730
f 731//731 724//724 723//723
f 732//732 724//724 731//731
f 733//733 725//725 724//724
f 733//733 724//724 732//732
f 734//734 726//726 725//725
f 734//734 727//727 726//726
f 734//734 725//725 733//733
f 735//735 727//727 734//734
f 736//736 728//728 102//102
f 736//736 730//730 728//728
f 736//736 102//102 103//103
f 737//737 729//729 727//727
f 737//737 504//504 729//729
f 737//737 727//727 735//735
f 737//737 505//505 504//504
f 738//738 731//731 730//730
f 738//738 730//730 736//736
f 739//739 731//731 738//738
f 740//740 732//732 731//731
f 740//740 733//733 732//732
f 740//740 731//731 739//739
f 741//741 733//733 740//740
f 742//742 734//734 733//733
f 742//742 733//733 741//741
f 743//743 735//735 734//734
f 743//743 734//734 742//742
f 744//744 738//738 736//736
f 744//744 103//103 104//104
f 744//744 736//736 103//103
f 745//745 737//737 735//735
f 745//745 505//505 737//737
f 745//745 735//735 743//743
f 745//745 506//506 505//505
f 746//746 738//738 744//744
f 747//747 738//738 746//746
f 747//747 739//739 738//738
f 748//748 740//740 739//739
f 748//748 741//741 740//740
f 748//748 739//739 747//747
f 749//749 742//742 741//741
f 749//749 741//741 748//748
f 750//750 742//742 749//749
f 751//751 743//743 742//742
f 751//751 742//742 750//750
f 752//752 104//104 105//105
f 752//752 744//744 104//104
f 753//753 745//745 743//743
f 753//753 506//506 745//745
f 753//753 743//743 751//751
f 753//753 507//507 506//506
f 754//754 744//744 752//752
f 754//754 746//746 744//744
f 755//755 746//746 754//754
f 755//755 747//747 746//746
f 756//756 747//747 755//755
f 756//756 748//748 747//747
f 757//757 748//748 756//756
f 757//757 749//749 748//748
f 758//758 749//749 757//757
f 758//758 750//750 749//749
f 759//759 750//750 758//758
f 759//759 751//751 750//750
f 760//760 105//105 106//106
f 760//760 752//752 105//105
f 761//761 751//751 759//759
f 761//761 508//508 507//507
f 761//761 753//753 751//751
f 761//761 507//507 753//753
f 762//762 752//752 760//760
f 762//762 754//754 752//752
f 763//763 754//754 762//762
f 763//763 755//755 754//754
f 764//764 755//755 763//763
f 764//764 757//757 756//756
f 764//764 756//756 755//755
f 765//765 758//758 757//757
f 765//765 757//757 764//764
f 766//766 758//758 765//765
f 767//767 759//759 758//758
f 767//767 758//758 766//766
f 768//768 762//762 760//760
f 768//768 106//106 107//107
f 768//768 760//760 106//106
f 769//769 761//761 759//759
f 769//769 759//759 767//767
f 769//769 509//509 508//508
f 769//769 508//508 761//761
f 770//770 763//763 762//762
f 770//770 762//762 768//768
f 771//771 763//763 770//770
f 772//772 764//764 763//763
f 772//772 763//763 771//771
f 773//773 765//765 764//764
f 773//773 764//764 772//772
f 774//774 766//766 765//765
f 774//774 765//765 773//773
f 774//774 767//767 766//766
f 775//775 767//767 774//774
f 776//776 768//768 107//107
f 776//776 107//107 108//108
f 777//777 769//769 767//767
f 777//777 767//767 775//775
f 777//777 509//509 769//769
f 777//777 510//510 509//509
f 778//778 770//770 768//768
f 778//778 768//768 776//776
f 779//779 771//771 770//770
f 779//779 770//770 778//778
f 780//780 772//772 771//771
f 780//780 771//771 779//779
f 781//781 774//774 773//773
f 781//781 772//772 780//780
f 781//781 773//773 772//772
f 782//782 774//774 781//781
f 783//783 775//775 774//774
f 783//783 774//774 782//782
f 784//784 776//776 108//108
f 784//784 108//108 109//109
f 784//784 109//109 74//74
f 784//784 74//74 469//469
f 784//784 778//778 776//776
f 785//785 777//777 775//775
f 785//785 510//510 777//777
f 785//785 775//775 783//783
f 785//785 511//511 510//510
f 786//786 469//469 470//470
f 786//786 784//784 469//469
f 786//786 778//778 784//784
f 786//786 779//779 778//778
f 787//787 470//470 471//471
f 787//787 786//786 470//470
f 787//787 779//779 786//786
f 788//788 471//471 472//472
f 788//788 472//472 473//473
f 788//788 779//779 787//787
f 788//788 780//780 779//779
f 788//788 781//781 780//780
f 788//788 787//787 471//471
f 789//789 473//473 474//474
f 789//789 788//788 473//473
f 789//789 781//781 788//788
f 790//790 474//474 475//475
f 790//790 782//782 781//781
f 790//790 789//789 474//474
f 790//790 781//781 789//789
f 791//791 782//782 790//790
f 791//791 783//783 782//782
f 791//791 790//790 475//475
f 792//792 791//791 475//475
f 792//792 783//783 791//791
f 792//792 475//475 476//476
f 792//792 476//476 512//512
f 792//792 785//785 783//783
f 792//792 511//511 785//785
f 792//792 512//512 511//511
f 173//173 175//175 174//174
f 173//173 176//176 175//175
f 180//180 179//179 178//178
f 171//171 173//173 172//172
f 183//183 181//181 180//180
f 183//183 182//182 181//181
f 184//184 183//183 180//180
f 187//187 185//185 184//184
f 187//187 186//186 185//185
f 164//164 166//166 165//165
f 164//164 167//167 166//166
f 164//164 168//168 167//167
f 164//164 169//169 168//168
f 164//164 170//170 169//169
f 164//164 171//171 170//170
f 154//154 188//188 187//187
f 154//154 153//153 188//188
f 154//154 187//187 184//184
f 161//161 163//163 162//162
f 156//156 155//155 154//154
f 158//158 160//160 159//159
f 158//158 161//161 160//160
f 158//158 164//164 163//163
f 158//158 163//163 161//161
f 157//157 177//177 176//176
f 157//157 178//178 177//177
f 157//157 176//176 173//173
f 157//157 180//180 178//178
f 157//157 173//173 171//171
f 157//157 171//171 164//164
f 157//157 184//184 180//180
f 157//157 156//156 154//154
f 157//157 164//164 158//158
f 157//157 154//154 184//184
f 497//497 498//498 499//499
f 497//497 499//499 500//500
f 504//504 502//502 503//503
f 495//495 496//496 497//497
f 507//507 504//504 505//505
f 507//507 505//505 506//506
f 508//508 504//504 507//507
f 511//511 508//508 509//509
f 511//511 509//509 510//510
f 488//488 489//489 490//490
f 488//488 490//490 491//491
f 488//488 491//491 492//492
f 488//488 492//492 493//493
f 488//488 493//493 494//494
f 488//488 494//494 495//495
f 478//478 511//511 512//512
f 478//478 512//512 477//477
f 478//478 508//508 511//511
f 485//485 486//486 487//487
f 480//480 478//478 479//479
f 482//482 483//483 484//484
f 482//482 484//484 485//485
f 482//482 487//487 488//488
f 482//482 485//485 487//487
f 481//481 500//500 501//501
f 481//481 501//501 502//502
f 481//481 497//497 500//500
f 481//481 502//502 504//504
f 481//481 495//495 497//497
f 481//481 488//488 495//495
f 481//481 504//504 508//508
f 481//481 478//478 480//480
f 481//481 482//482 488//488
f 481//481 508//508 478//478
