# robocad OBJ
mtllib servo.mtl
o case
usemtl PLA_111114
v -0.02000 0.00120 0.00880
v -0.02000 0.03480 0.00880
v -0.02000 0.00120 -0.00880
v -0.02000 0.03480 -0.00880
v -0.01998 0.00120 0.00901
v -0.01993 0.00120 0.00921
v -0.01984 0.00120 0.00940
v -0.01972 0.00120 0.00957
v -0.01957 0.00120 0.00972
v -0.01940 0.00120 0.00984
v -0.01921 0.00120 0.00993
v -0.01901 0.00120 0.00998
v -0.01880 0.00120 0.01000
v -0.01880 0.03480 0.01000
v -0.01998 0.03480 0.00901
v -0.01993 0.03480 0.00921
v -0.01984 0.03480 0.00940
v -0.01972 0.03480 0.00957
v -0.01957 0.03480 0.00972
v -0.01940 0.03480 0.00984
v -0.01921 0.03480 0.00993
v -0.01901 0.03480 0.00998
v -0.01880 0.00000 0.00880
v -0.01901 0.00002 0.00880
v -0.01921 0.00007 0.00880
v -0.01940 0.00016 0.00880
v -0.01957 0.00028 0.00880
v -0.01972 0.00043 0.00880
v -0.01984 0.00060 0.00880
v -0.01993 0.00079 0.00880
v -0.01998 0.00099 0.00880
v -0.01880 0.00000 -0.00880
v -0.01901 0.00002 -0.00880
v -0.01921 0.00007 -0.00880
v -0.01940 0.00016 -0.00880
v -0.01957 0.00028 -0.00880
v -0.01972 0.00043 -0.00880
v -0.01984 0.00060 -0.00880
v -0.01993 0.00079 -0.00880
v -0.01998 0.00099 -0.00880
v -0.01880 0.03600 0.00880
v -0.01901 0.03598 0.00880
v -0.01921 0.03593 0.00880
v -0.01940 0.03584 0.00880
v -0.01957 0.03572 0.00880
v -0.01972 0.03557 0.00880
v -0.01984 0.03540 0.00880
v -0.01993 0.03521 0.00880
v -0.01998 0.03501 0.00880
v -0.01880 0.03600 -0.00880
v -0.01998 0.03501 -0.00880
v -0.01993 0.03521 -0.00880
v -0.01984 0.03540 -0.00880
v -0.01972 0.03557 -0.00880
v -0.01957 0.03572 -0.00880
v -0.01940 0.03584 -0.00880
v -0.01921 0.03593 -0.00880
v -0.01901 0.03598 -0.00880
v -0.01998 0.00120 -0.00901
v -0.01993 0.00120 -0.00921
v -0.01984 0.00120 -0.00940
v -0.01972 0.00120 -0.00957
v -0.01957 0.00120 -0.00972
v -0.01940 0.00120 -0.00984
v -0.01921 0.00120 -0.00993
v -0.01901 0.00120 -0.00998
v -0.01880 0.00120 -0.01000
v -0.01880 0.03480 -0.01000
v -0.01901 0.03480 -0.00998
v -0.01921 0.03480 -0.00993
v -0.01940 0.03480 -0.00984
v -0.01957 0.03480 -0.00972
v -0.01972 0.03480 -0.00957
v -0.01984 0.03480 -0.00940
v -0.01993 0.03480 -0.00921
v -0.01998 0.03480 -0.00901
v -0.01880 0.00002 0.00901
v -0.01880 0.00007 0.00921
v -0.01880 0.00016 0.00940
v -0.01880 0.00028 0.00957
v -0.01880 0.00043 0.00972
v -0.01880 0.00060 0.00984
v -0.01880 0.00079 0.00993
v -0.01880 0.00099 0.00998
v -0.01907 0.00003 0.00883
v -0.01905 0.00003 0.00889
v -0.01903 0.00003 0.00894
v -0.01931 0.00012 0.00892
v -0.01899 0.00003 0.00899
v -0.01927 0.00012 0.00903
v -0.01954 0.00026 0.00888
v -0.01894 0.00003 0.00903
v -0.01921 0.00012 0.00912
v -0.01951 0.00026 0.00905
v -0.01889 0.00003 0.00905
v -0.01912 0.00012 0.00921
v -0.01943 0.00026 0.00920
v -0.01971 0.00045 0.00901
v -0.01883 0.00003 0.00907
v -0.01903 0.00012 0.00927
v -0.01933 0.00026 0.00933
v -0.01965 0.00045 0.00921
v -0.01987 0.00068 0.00892
v -0.01892 0.00012 0.00931
v -0.01920 0.00026 0.00943
v -0.01953 0.00045 0.00938
v -0.01982 0.00068 0.00916
v -0.01905 0.00026 0.00951
v -0.01938 0.00045 0.00953
v -0.01972 0.00068 0.00938
v -0.01994 0.00093 0.00906
v -0.01888 0.00026 0.00954
v -0.01921 0.00045 0.00965
v -0.01956 0.00068 0.00956
v -0.01985 0.00093 0.00931
v -0.01901 0.00045 0.00971
v -0.01938 0.00068 0.00972
v -0.01971 0.00093 0.00953
v -0.01916 0.00068 0.00982
v -0.01953 0.00093 0.00971
v -0.01892 0.00068 0.00987
v -0.01931 0.00093 0.00985
v -0.01906 0.00093 0.00994
v -0.01880 0.03598 0.00901
v -0.01880 0.03593 0.00921
v -0.01880 0.03584 0.00940
v -0.01880 0.03572 0.00957
v -0.01880 0.03557 0.00972
v -0.01880 0.03540 0.00984
v -0.01880 0.03521 0.00993
v -0.01880 0.03501 0.00998
v -0.01907 0.03597 0.00883
v -0.01905 0.03597 0.00889
v -0.01903 0.03597 0.00894
v -0.01931 0.03588 0.00892
v -0.01899 0.03597 0.00899
v -0.01927 0.03588 0.00903
v -0.01954 0.03574 0.00888
v -0.01894 0.03597 0.00903
v -0.01921 0.03588 0.00912
v -0.01951 0.03574 0.00905
v -0.01889 0.03597 0.00905
v -0.01912 0.03588 0.00921
v -0.01943 0.03574 0.00920
v -0.01971 0.03555 0.00901
v -0.01883 0.03597 0.00907
v -0.01903 0.03588 0.00927
v -0.01933 0.03574 0.00933
v -0.01965 0.03555 0.00921
v -0.01987 0.03532 0.00892
v -0.01892 0.03588 0.00931
v -0.01920 0.03574 0.00943
v -0.01953 0.03555 0.00938
v -0.01982 0.03532 0.00916
v -0.01905 0.03574 0.00951
v -0.01938 0.03555 0.00953
v -0.01972 0.03532 0.00938
v -0.01994 0.03507 0.00906
v -0.01888 0.03574 0.00954
v -0.01921 0.03555 0.00965
v -0.01956 0.03532 0.00956
v -0.01985 0.03507 0.00931
v -0.01901 0.03555 0.00971
v -0.01938 0.03532 0.00972
v -0.01971 0.03507 0.00953
v -0.01916 0.03532 0.00982
v -0.01953 0.03507 0.00971
v -0.01892 0.03532 0.00987
v -0.01931 0.03507 0.00985
v -0.01906 0.03507 0.00994
v 0.01880 0.03480 0.01000
v 0.01880 0.00120 0.01000
v 0.01880 0.00000 0.00880
v 0.01880 0.00000 -0.00880
v -0.01880 0.00002 -0.00901
v -0.01880 0.00007 -0.00921
v -0.01880 0.00016 -0.00940
v -0.01880 0.00028 -0.00957
v -0.01880 0.00043 -0.00972
v -0.01880 0.00060 -0.00984
v -0.01880 0.00079 -0.00993
v -0.01880 0.00099 -0.00998
v -0.01907 0.00003 -0.00883
v -0.01905 0.00003 -0.00889
v -0.01903 0.00003 -0.00894
v -0.01931 0.00012 -0.00892
v -0.01899 0.00003 -0.00899
v -0.01927 0.00012 -0.00903
v -0.01954 0.00026 -0.00888
v -0.01894 0.00003 -0.00903
v -0.01921 0.00012 -0.00912
v -0.01951 0.00026 -0.00905
v -0.01889 0.00003 -0.00905
v -0.01912 0.00012 -0.00921
v -0.01943 0.00026 -0.00920
v -0.01971 0.00045 -0.00901
v -0.01883 0.00003 -0.00907
v -0.01903 0.00012 -0.00927
v -0.01933 0.00026 -0.00933
v -0.01965 0.00045 -0.00921
v -0.01987 0.00068 -0.00892
v -0.01892 0.00012 -0.00931
v -0.01920 0.00026 -0.00943
v -0.01953 0.00045 -0.00938
v -0.01982 0.00068 -0.00916
v -0.01905 0.00026 -0.00951
v -0.01938 0.00045 -0.00953
v -0.01972 0.00068 -0.00938
v -0.01994 0.00093 -0.00906
v -0.01888 0.00026 -0.00954
v -0.01921 0.00045 -0.00965
v -0.01956 0.00068 -0.00956
v -0.01985 0.00093 -0.00931
v -0.01901 0.00045 -0.00971
v -0.01938 0.00068 -0.00972
v -0.01971 0.00093 -0.00953
v -0.01916 0.00068 -0.00982
v -0.01953 0.00093 -0.00971
v -0.01892 0.00068 -0.00987
v -0.01931 0.00093 -0.00985
v -0.01906 0.00093 -0.00994
v 0.01880 0.03600 0.00880
v 0.01880 0.03600 -0.00880
v -0.01880 0.03501 -0.00998
v -0.01880 0.03521 -0.00993
v -0.01880 0.03540 -0.00984
v -0.01880 0.03557 -0.00972
v -0.01880 0.03572 -0.00957
v -0.01880 0.03584 -0.00940
v -0.01880 0.03593 -0.00921
v -0.01880 0.03598 -0.00901
v -0.01907 0.03483 -0.00997
v -0.01905 0.03489 -0.00997
v -0.01903 0.03494 -0.00997
v -0.01931 0.03492 -0.00988
v -0.01899 0.03499 -0.00997
v -0.01927 0.03503 -0.00988
v -0.01954 0.03488 -0.00974
v -0.01894 0.03503 -0.00997
v -0.01921 0.03512 -0.00988
v -0.01951 0.03505 -0.00974
v -0.01889 0.03505 -0.00997
v -0.01912 0.03521 -0.00988
v -0.01943 0.03520 -0.00974
v -0.01971 0.03501 -0.00955
v -0.01883 0.03507 -0.00997
v -0.01903 0.03527 -0.00988
v -0.01933 0.03533 -0.00974
v -0.01965 0.03521 -0.00955
v -0.01987 0.03492 -0.00932
v -0.01892 0.03531 -0.00988
v -0.01920 0.03543 -0.00974
v -0.01953 0.03538 -0.00955
v -0.01982 0.03516 -0.00932
v -0.01905 0.03551 -0.00974
v -0.01938 0.03553 -0.00955
v -0.01972 0.03538 -0.00932
v -0.01994 0.03506 -0.00907
v -0.01888 0.03554 -0.00974
v -0.01921 0.03565 -0.00955
v -0.01956 0.03556 -0.00932
v -0.01985 0.03531 -0.00907
v -0.01901 0.03571 -0.00955
v -0.01938 0.03572 -0.00932
v -0.01971 0.03553 -0.00907
v -0.01916 0.03582 -0.00932
v -0.01953 0.03571 -0.00907
v -0.01892 0.03587 -0.00932
v -0.01931 0.03585 -0.00907
v -0.01906 0.03594 -0.00907
v 0.01880 0.03480 -0.01000
v 0.01880 0.00120 -0.01000
v 0.01880 0.00002 0.00901
v 0.01880 0.00007 0.00921
v 0.01880 0.00016 0.00940
v 0.01880 0.00028 0.00957
v 0.01880 0.00043 0.00972
v 0.01880 0.00060 0.00984
v 0.01880 0.00079 0.00993
v 0.01880 0.00099 0.00998
v 0.01880 0.03598 0.00901
v 0.01880 0.03593 0.00921
v 0.01880 0.03584 0.00940
v 0.01880 0.03572 0.00957
v 0.01880 0.03557 0.00972
v 0.01880 0.03540 0.00984
v 0.01880 0.03521 0.00993
v 0.01880 0.03501 0.00998
v 0.02000 0.00120 0.00880
v 0.02000 0.03480 0.00880
v 0.01998 0.00120 0.00901
v 0.01993 0.00120 0.00921
v 0.01984 0.00120 0.00940
v 0.01972 0.00120 0.00957
v 0.01957 0.00120 0.00972
v 0.01940 0.00120 0.00984
v 0.01921 0.00120 0.00993
v 0.01901 0.00120 0.00998
v 0.01998 0.03480 0.00901
v 0.01993 0.03480 0.00921
v 0.01984 0.03480 0.00940
v 0.01972 0.03480 0.00957
v 0.01957 0.03480 0.00972
v 0.01940 0.03480 0.00984
v 0.01921 0.03480 0.00993
v 0.01901 0.03480 0.00998
v 0.01880 0.00002 -0.00901
v 0.01880 0.00007 -0.00921
v 0.01880 0.00016 -0.00940
v 0.01880 0.00028 -0.00957
v 0.01880 0.00043 -0.00972
v 0.01880 0.00060 -0.00984
v 0.01880 0.00079 -0.00993
v 0.01880 0.00099 -0.00998
v 0.01901 0.00002 0.00880
v 0.01921 0.00007 0.00880
v 0.01940 0.00016 0.00880
v 0.01957 0.00028 0.00880
v 0.01972 0.00043 0.00880
v 0.01984 0.00060 0.00880
v 0.01993 0.00079 0.00880
v 0.01998 0.00099 0.00880
v 0.01901 0.00002 -0.00880
v 0.01921 0.00007 -0.00880
v 0.01940 0.00016 -0.00880
v 0.01957 0.00028 -0.00880
v 0.01972 0.00043 -0.00880
v 0.01984 0.00060 -0.00880
v 0.01993 0.00079 -0.00880
v 0.01998 0.00099 -0.00880
v 0.02000 0.00120 -0.00880
v 0.01880 0.03501 -0.00998
v 0.01880 0.03521 -0.00993
v 0.01880 0.03540 -0.00984
v 0.01880 0.03557 -0.00972
v 0.01880 0.03572 -0.00957
v 0.01880 0.03584 -0.00940
v 0.01880 0.03593 -0.00921
v 0.01880 0.03598 -0.00901
v 0.01901 0.03598 0.00880
v 0.01921 0.03593 0.00880
v 0.01940 0.03584 0.00880
v 0.01957 0.03572 0.00880
v 0.01972 0.03557 0.00880
v 0.01984 0.03540 0.00880
v 0.01993 0.03521 0.00880
v 0.01998 0.03501 0.00880
v 0.02000 0.03480 -0.00880
v 0.01998 0.03501 -0.00880
v 0.01993 0.03521 -0.00880
v 0.01984 0.03540 -0.00880
v 0.01972 0.03557 -0.00880
v 0.01957 0.03572 -0.00880
v 0.01940 0.03584 -0.00880
v 0.01921 0.03593 -0.00880
v 0.01901 0.03598 -0.00880
v 0.01998 0.00120 -0.00901
v 0.01993 0.00120 -0.00921
v 0.01984 0.00120 -0.00940
v 0.01972 0.00120 -0.00957
v 0.01957 0.00120 -0.00972
v 0.01940 0.00120 -0.00984
v 0.01921 0.00120 -0.00993
v 0.01901 0.00120 -0.00998
v 0.01901 0.03480 -0.00998
v 0.01921 0.03480 -0.00993
v 0.01940 0.03480 -0.00984
v 0.01957 0.03480 -0.00972
v 0.01972 0.03480 -0.00957
v 0.01984 0.03480 -0.00940
v 0.01993 0.03480 -0.00921
v 0.01998 0.03480 -0.00901
v 0.01907 0.00003 0.00883
v 0.01905 0.00003 0.00889
v 0.01903 0.00003 0.00894
v 0.01931 0.00012 0.00892
v 0.01899 0.00003 0.00899
v 0.01927 0.00012 0.00903
v 0.01954 0.00026 0.00888
v 0.01894 0.00003 0.00903
v 0.01921 0.00012 0.00912
v 0.01951 0.00026 0.00905
v 0.01889 0.00003 0.00905
v 0.01912 0.00012 0.00921
v 0.01943 0.00026 0.00920
v 0.01971 0.00045 0.00901
v 0.01883 0.00003 0.00907
v 0.01903 0.00012 0.00927
v 0.01933 0.00026 0.00933
v 0.01965 0.00045 0.00921
v 0.01987 0.00068 0.00892
v 0.01892 0.00012 0.00931
v 0.01920 0.00026 0.00943
v 0.01953 0.00045 0.00938
v 0.01982 0.00068 0.00916
v 0.01905 0.00026 0.00951
v 0.01938 0.00045 0.00953
v 0.01972 0.00068 0.00938
v 0.01994 0.00093 0.00906
v 0.01888 0.00026 0.00954
v 0.01921 0.00045 0.00965
v 0.01956 0.00068 0.00956
v 0.01985 0.00093 0.00931
v 0.01901 0.00045 0.00971
v 0.01938 0.00068 0.00972
v 0.01971 0.00093 0.00953
v 0.01916 0.00068 0.00982
v 0.01953 0.00093 0.00971
v 0.01892 0.00068 0.00987
v 0.01931 0.00093 0.00985
v 0.01906 0.00093 0.00994
v 0.01907 0.03597 0.00883
v 0.01905 0.03597 0.00889
v 0.01903 0.03597 0.00894
v 0.01931 0.03588 0.00892
v 0.01899 0.03597 0.00899
v 0.01927 0.03588 0.00903
v 0.01954 0.03574 0.00888
v 0.01894 0.03597 0.00903
v 0.01921 0.03588 0.00912
v 0.01951 0.03574 0.00905
v 0.01889 0.03597 0.00905
v 0.01912 0.03588 0.00921
v 0.01943 0.03574 0.00920
v 0.01971 0.03555 0.00901
v 0.01883 0.03597 0.00907
v 0.01903 0.03588 0.00927
v 0.01933 0.03574 0.00933
v 0.01965 0.03555 0.00921
v 0.01987 0.03532 0.00892
v 0.01892 0.03588 0.00931
v 0.01920 0.03574 0.00943
v 0.01953 0.03555 0.00938
v 0.01982 0.03532 0.00916
v 0.01905 0.03574 0.00951
v 0.01938 0.03555 0.00953
v 0.01972 0.03532 0.00938
v 0.01994 0.03507 0.00906
v 0.01888 0.03574 0.00954
v 0.01921 0.03555 0.00965
v 0.01956 0.03532 0.00956
v 0.01985 0.03507 0.00931
v 0.01901 0.03555 0.00971
v 0.01938 0.03532 0.00972
v 0.01971 0.03507 0.00953
v 0.01916 0.03532 0.00982
v 0.01953 0.03507 0.00971
v 0.01892 0.03532 0.00987
v 0.01931 0.03507 0.00985
v 0.01906 0.03507 0.00994
v 0.01907 0.00003 -0.00883
v 0.01905 0.00003 -0.00889
v 0.01903 0.00003 -0.00894
v 0.01931 0.00012 -0.00892
v 0.01899 0.00003 -0.00899
v 0.01927 0.00012 -0.00903
v 0.01954 0.00026 -0.00888
v 0.01894 0.00003 -0.00903
v 0.01921 0.00012 -0.00912
v 0.01951 0.00026 -0.00905
v 0.01889 0.00003 -0.00905
v 0.01912 0.00012 -0.00921
v 0.01943 0.00026 -0.00920
v 0.01971 0.00045 -0.00901
v 0.01883 0.00003 -0.00907
v 0.01903 0.00012 -0.00927
v 0.01933 0.00026 -0.00933
v 0.01965 0.00045 -0.00921
v 0.01987 0.00068 -0.00892
v 0.01892 0.00012 -0.00931
v 0.01920 0.00026 -0.00943
v 0.01953 0.00045 -0.00938
v 0.01982 0.00068 -0.00916
v 0.01905 0.00026 -0.00951
v 0.01938 0.00045 -0.00953
v 0.01972 0.00068 -0.00938
v 0.01994 0.00093 -0.00906
v 0.01888 0.00026 -0.00954
v 0.01921 0.00045 -0.00965
v 0.01956 0.00068 -0.00956
v 0.01985 0.00093 -0.00931
v 0.01901 0.00045 -0.00971
v 0.01938 0.00068 -0.00972
v 0.01971 0.00093 -0.00953
v 0.01916 0.00068 -0.00982
v 0.01953 0.00093 -0.00971
v 0.01892 0.00068 -0.00987
v 0.01931 0.00093 -0.00985
v 0.01906 0.00093 -0.00994
v 0.01907 0.03483 -0.00997
v 0.01905 0.03489 -0.00997
v 0.01903 0.03494 -0.00997
v 0.01931 0.03492 -0.00988
v 0.01899 0.03499 -0.00997
v 0.01927 0.03503 -0.00988
v 0.01954 0.03488 -0.00974
v 0.01894 0.03503 -0.00997
v 0.01921 0.03512 -0.00988
v 0.01951 0.03505 -0.00974
v 0.01889 0.03505 -0.00997
v 0.01912 0.03521 -0.00988
v 0.01943 0.03520 -0.00974
v 0.01971 0.03501 -0.00955
v 0.01883 0.03507 -0.00997
v 0.01903 0.03527 -0.00988
v 0.01933 0.03533 -0.00974
v 0.01965 0.03521 -0.00955
v 0.01987 0.03492 -0.00932
v 0.01892 0.03531 -0.00988
v 0.01920 0.03543 -0.00974
v 0.01953 0.03538 -0.00955
v 0.01982 0.03516 -0.00932
v 0.01905 0.03551 -0.00974
v 0.01938 0.03553 -0.00955
v 0.01972 0.03538 -0.00932
v 0.01994 0.03506 -0.00907
v 0.01888 0.03554 -0.00974
v 0.01921 0.03565 -0.00955
v 0.01956 0.03556 -0.00932
v 0.01985 0.03531 -0.00907
v 0.01901 0.03571 -0.00955
v 0.01938 0.03572 -0.00932
v 0.01971 0.03553 -0.00907
v 0.01916 0.03582 -0.00932
v 0.01953 0.03571 -0.00907
v 0.01892 0.03587 -0.00932
v 0.01931 0.03585 -0.00907
v 0.01906 0.03594 -0.00907
vn -1.0000 0.0000 0.0000
vn -1.0000 0.0000 0.0000
vn -1.0000 0.0000 0.0000
vn -1.0000 0.0000 0.0000
vn -0.9848 0.0000 0.1736
vn -0.9397 0.0000 0.3420
vn -0.8660 0.0000 0.5000
vn -0.7660 0.0000 0.6428
vn -0.6428 0.0000 0.7660
vn -0.5000 0.0000 0.8660
vn -0.3420 0.0000 0.9397
vn -0.1736 0.0000 0.9848
vn -0.0000 0.0000 1.0000
vn -0.0000 0.0000 1.0000
vn -0.9848 0.0000 0.1736
vn -0.9397 0.0000 0.3420
vn -0.8660 0.0000 0.5000
vn -0.7660 0.0000 0.6428
vn -0.6428 0.0000 0.7660
vn -0.5000 0.0000 0.8660
vn -0.3420 0.0000 0.9397
vn -0.1736 0.0000 0.9848
vn -0.0000 -1.0000 0.0000
vn -0.1736 -0.9848 0.0000
vn -0.3420 -0.9397 0.0000
vn -0.5000 -0.8660 0.0000
vn -0.6428 -0.7660 0.0000
vn -0.7660 -0.6428 0.0000
vn -0.8660 -0.5000 0.0000
vn -0.9397 -0.3420 0.0000
vn -0.9848 -0.1736 0.0000
vn -0.0000 -1.0000 0.0000
vn -0.1736 -0.9848 0.0000
vn -0.3420 -0.9397 0.0000
vn -0.5000 -0.8660 0.0000
vn -0.6428 -0.7660 0.0000
vn -0.7660 -0.6428 0.0000
vn -0.8660 -0.5000 0.0000
vn -0.9397 -0.3420 0.0000
vn -0.9848 -0.1736 0.0000
vn -0.0000 1.0000 0.0000
vn -0.1736 0.9848 0.0000
vn -0.3420 0.9397 0.0000
vn -0.5000 0.8660 0.0000
vn -0.6428 0.7660 0.0000
vn -0.7660 0.6428 0.0000
vn -0.8660 0.5000 0.0000
vn -0.9397 0.3420 0.0000
vn -0.9848 0.1736 0.0000
vn -0.0000 1.0000 0.0000
vn -0.9848 0.1736 0.0000
vn -0.9397 0.3420 0.0000
vn -0.8660 0.5000 0.0000
vn -0.7660 0.6428 0.0000
vn -0.6428 0.7660 0.0000
vn -0.5000 0.8660 0.0000
vn -0.3420 0.9397 0.0000
vn -0.1736 0.9848 0.0000
vn -0.9848 -0.0000 -0.1736
vn -0.9397 -0.0000 -0.3420
vn -0.8660 -0.0000 -0.5000
vn -0.7660 -0.0000 -0.6428
vn -0.6428 -0.0000 -0.7660
vn -0.5000 -0.0000 -0.8660
vn -0.3420 -0.0000 -0.9397
vn -0.1736 -0.0000 -0.9848
vn -0.0000 -0.0000 -1.0000
vn -0.0000 -0.0000 -1.0000
vn -0.1736 -0.0000 -0.9848
vn -0.3420 -0.0000 -0.9397
vn -0.5000 -0.0000 -0.8660
vn -0.6428 -0.0000 -0.7660
vn -0.7660 -0.0000 -0.6428
vn -0.8660 -0.0000 -0.5000
vn -0.9397 -0.0000 -0.3420
vn -0.9848 -0.0000 -0.1736
vn -0.0000 -0.9848 0.1736
vn -0.0000 -0.9397 0.3420
vn -0.0000 -0.8660 0.5000
vn -0.0000 -0.7660 0.6428
vn -0.0000 -0.6428 0.7660
vn -0.0000 -0.5000 0.8660
vn -0.0000 -0.3420 0.9397
vn -0.0000 -0.1736 0.9848
vn -0.2211 -0.9749 0.0249
vn -0.2100 -0.9749 0.0735
vn -0.1884 -0.9749 0.1184
vn -0.4230 -0.9010 0.0965
vn -0.1573 -0.9749 0.1573
vn -0.3909 -0.9010 0.1883
vn -0.6196 -0.7818 0.0698
vn -0.1184 -0.9749 0.1884
vn -0.3392 -0.9010 0.2705
vn -0.5885 -0.7818 0.2059
vn -0.0735 -0.9749 0.2100
vn -0.2705 -0.9010 0.3392
vn -0.5279 -0.7818 0.3317
vn -0.7622 -0.6235 0.1740
vn -0.0249 -0.9749 0.2211
vn -0.1883 -0.9010 0.3909
vn -0.4409 -0.7818 0.4409
vn -0.7044 -0.6235 0.3392
vn -0.8953 -0.4339 0.1009
vn -0.0965 -0.9010 0.4230
vn -0.3317 -0.7818 0.5279
vn -0.6113 -0.6235 0.4875
vn -0.8504 -0.4339 0.2976
vn -0.2059 -0.7818 0.5885
vn -0.4875 -0.6235 0.6113
vn -0.7629 -0.4339 0.4793
vn -0.9505 -0.2225 0.2169
vn -0.0698 -0.7818 0.6196
vn -0.3392 -0.6235 0.7044
vn -0.6371 -0.4339 0.6371
vn -0.8784 -0.2225 0.4230
vn -0.1740 -0.6235 0.7622
vn -0.4793 -0.4339 0.7629
vn -0.7622 -0.2225 0.6079
vn -0.2976 -0.4339 0.8504
vn -0.6079 -0.2225 0.7622
vn -0.1009 -0.4339 0.8953
vn -0.4230 -0.2225 0.8784
vn -0.2169 -0.2225 0.9505
vn -0.0000 0.9848 0.1736
vn -0.0000 0.9397 0.3420
vn -0.0000 0.8660 0.5000
vn -0.0000 0.7660 0.6428
vn -0.0000 0.6428 0.7660
vn -0.0000 0.5000 0.8660
vn -0.0000 0.3420 0.9397
vn -0.0000 0.1736 0.9848
vn -0.2211 0.9749 0.0249
vn -0.2100 0.9749 0.0735
vn -0.1884 0.9749 0.1184
vn -0.4230 0.9010 0.0965
vn -0.1573 0.9749 0.1573
vn -0.3909 0.9010 0.1883
vn -0.6196 0.7818 0.0698
vn -0.1184 0.9749 0.1884
vn -0.3392 0.9010 0.2705
vn -0.5885 0.7818 0.2059
vn -0.0735 0.9749 0.2100
vn -0.2705 0.9010 0.3392
vn -0.5279 0.7818 0.3317
vn -0.7622 0.6235 0.1740
vn -0.0249 0.9749 0.2211
vn -0.1883 0.9010 0.3909
vn -0.4409 0.7818 0.4409
vn -0.7044 0.6235 0.3392
vn -0.8953 0.4339 0.1009
vn -0.0965 0.9010 0.4230
vn -0.3317 0.7818 0.5279
vn -0.6113 0.6235 0.4875
vn -0.8504 0.4339 0.2976
vn -0.2059 0.7818 0.5885
vn -0.4875 0.6235 0.6113
vn -0.7629 0.4339 0.4793
vn -0.9505 0.2225 0.2169
vn -0.0698 0.7818 0.6196
vn -0.3392 0.6235 0.7044
vn -0.6371 0.4339 0.6371
vn -0.8784 0.2225 0.4230
vn -0.1740 0.6235 0.7622
vn -0.4793 0.4339 0.7629
vn -0.7622 0.2225 0.6079
vn -0.2976 0.4339 0.8504
vn -0.6079 0.2225 0.7622
vn -0.1009 0.4339 0.8953
vn -0.4230 0.2225 0.8784
vn -0.2169 0.2225 0.9505
vn 0.0000 -0.0000 1.0000
vn 0.0000 -0.0000 1.0000
vn -0.0000 -1.0000 0.0000
vn -0.0000 -1.0000 0.0000
vn -0.0000 -0.9848 -0.1736
vn -0.0000 -0.9397 -0.3420
vn -0.0000 -0.8660 -0.5000
vn -0.0000 -0.7660 -0.6428
vn -0.0000 -0.6428 -0.7660
vn -0.0000 -0.5000 -0.8660
vn -0.0000 -0.3420 -0.9397
vn -0.0000 -0.1736 -0.9848
vn -0.2211 -0.9749 -0.0249
vn -0.2100 -0.9749 -0.0735
vn -0.1884 -0.9749 -0.1184
vn -0.4230 -0.9010 -0.0965
vn -0.1573 -0.9749 -0.1573
vn -0.3909 -0.9010 -0.1883
vn -0.6196 -0.7818 -0.0698
vn -0.1184 -0.9749 -0.1884
vn -0.3392 -0.9010 -0.2705
vn -0.5885 -0.7818 -0.2059
vn -0.0735 -0.9749 -0.2100
vn -0.2705 -0.9010 -0.3392
vn -0.5279 -0.7818 -0.3317
vn -0.7622 -0.6235 -0.1740
vn -0.0249 -0.9749 -0.2211
vn -0.1883 -0.9010 -0.3909
vn -0.4409 -0.7818 -0.4409
vn -0.7044 -0.6235 -0.3392
vn -0.8953 -0.4339 -0.1009
vn -0.0965 -0.9010 -0.4230
vn -0.3317 -0.7818 -0.5279
vn -0.6113 -0.6235 -0.4875
vn -0.8504 -0.4339 -0.2976
vn -0.2059 -0.7818 -0.5885
vn -0.4875 -0.6235 -0.6113
vn -0.7629 -0.4339 -0.4793
vn -0.9505 -0.2225 -0.2169
vn -0.0698 -0.7818 -0.6196
vn -0.3392 -0.6235 -0.7044
vn -0.6371 -0.4339 -0.6371
vn -0.8784 -0.2225 -0.4230
vn -0.1740 -0.6235 -0.7622
vn -0.4793 -0.4339 -0.7629
vn -0.7622 -0.2225 -0.6079
vn -0.2976 -0.4339 -0.8504
vn -0.6079 -0.2225 -0.7622
vn -0.1009 -0.4339 -0.8953
vn -0.4230 -0.2225 -0.8784
vn -0.2169 -0.2225 -0.9505
vn 0.0000 1.0000 -0.0000
vn 0.0000 1.0000 -0.0000
vn -0.0000 0.1736 -0.9848
vn -0.0000 0.3420 -0.9397
vn -0.0000 0.5000 -0.8660
vn -0.0000 0.6428 -0.7660
vn -0.0000 0.7660 -0.6428
vn -0.0000 0.8660 -0.5000
vn -0.0000 0.9397 -0.3420
vn -0.0000 0.9848 -0.1736
vn -0.2211 0.0249 -0.9749
vn -0.2100 0.0735 -0.9749
vn -0.1884 0.1184 -0.9749
vn -0.4230 0.0965 -0.9010
vn -0.1573 0.1573 -0.9749
vn -0.3909 0.1883 -0.9010
vn -0.6196 0.0698 -0.7818
vn -0.1184 0.1884 -0.9749
vn -0.3392 0.2705 -0.9010
vn -0.5885 0.2059 -0.7818
vn -0.0735 0.2100 -0.9749
vn -0.2705 0.3392 -0.9010
vn -0.5279 0.3317 -0.7818
vn -0.7622 0.1740 -0.6235
vn -0.0249 0.2211 -0.9749
vn -0.1883 0.3909 -0.9010
vn -0.4409 0.4409 -0.7818
vn -0.7044 0.3392 -0.6235
vn -0.8953 0.1009 -0.4339
vn -0.0965 0.4230 -0.9010
vn -0.3317 0.5279 -0.7818
vn -0.6113 0.4875 -0.6235
vn -0.8504 0.2976 -0.4339
vn -0.2059 0.5885 -0.7818
vn -0.4875 0.6113 -0.6235
vn -0.7629 0.4793 -0.4339
vn -0.9505 0.2169 -0.2225
vn -0.0698 0.6196 -0.7818
vn -0.3392 0.7044 -0.6235
vn -0.6371 0.6371 -0.4339
vn -0.8784 0.4230 -0.2225
vn -0.1740 0.7622 -0.6235
vn -0.4793 0.7629 -0.4339
vn -0.7622 0.6079 -0.2225
vn -0.2976 0.8504 -0.4339
vn -0.6079 0.7622 -0.2225
vn -0.1009 0.8953 -0.4339
vn -0.4230 0.8784 -0.2225
vn -0.2169 0.9505 -0.2225
vn -0.0000 0.0000 -1.0000
vn -0.0000 0.0000 -1.0000
vn 0.0000 -0.9848 0.1736
vn 0.0000 -0.9397 0.3420
vn 0.0000 -0.8660 0.5000
vn 0.0000 -0.7660 0.6428
vn 0.0000 -0.6428 0.7660
vn 0.0000 -0.5000 0.8660
vn 0.0000 -0.3420 0.9397
vn 0.0000 -0.1736 0.9848
vn 0.0000 0.9848 0.1736
vn 0.0000 0.9397 0.3420
vn 0.0000 0.8660 0.5000
vn 0.0000 0.7660 0.6428
vn 0.0000 0.6428 0.7660
vn 0.0000 0.5000 0.8660
vn 0.0000 0.3420 0.9397
vn 0.0000 0.1736 0.9848
vn 1.0000 -0.0000 0.0000
vn 1.0000 -0.0000 0.0000
vn 0.9848 -0.0000 0.1736
vn 0.9397 -0.0000 0.3420
vn 0.8660 -0.0000 0.5000
vn 0.7660 -0.0000 0.6428
vn 0.6428 -0.0000 0.7660
vn 0.5000 -0.0000 0.8660
vn 0.3420 -0.0000 0.9397
vn 0.1736 -0.0000 0.9848
vn 0.9848 -0.0000 0.1736
vn 0.9397 -0.0000 0.3420
vn 0.8660 -0.0000 0.5000
vn 0.7660 -0.0000 0.6428
vn 0.6428 -0.0000 0.7660
vn 0.5000 -0.0000 0.8660
vn 0.3420 -0.0000 0.9397
vn 0.1736 -0.0000 0.9848
vn -0.0000 -0.9848 -0.1736
vn -0.0000 -0.9397 -0.3420
vn -0.0000 -0.8660 -0.5000
vn -0.0000 -0.7660 -0.6428
vn -0.0000 -0.6428 -0.7660
vn -0.0000 -0.5000 -0.8660
vn -0.0000 -0.3420 -0.9397
vn -0.0000 -0.1736 -0.9848
vn 0.1736 -0.9848 -0.0000
vn 0.3420 -0.9397 -0.0000
vn 0.5000 -0.8660 -0.0000
vn 0.6428 -0.7660 -0.0000
vn 0.7660 -0.6428 -0.0000
vn 0.8660 -0.5000 -0.0000
vn 0.9397 -0.3420 -0.0000
vn 0.9848 -0.1736 -0.0000
vn 0.1736 -0.9848 -0.0000
vn 0.3420 -0.9397 -0.0000
vn 0.5000 -0.8660 -0.0000
vn 0.6428 -0.7660 -0.0000
vn 0.7660 -0.6428 -0.0000
vn 0.8660 -0.5000 -0.0000
vn 0.9397 -0.3420 -0.0000
vn 0.9848 -0.1736 -0.0000
vn 1.0000 0.0000 -0.0000
vn 0.0000 0.1736 -0.9848
vn 0.0000 0.3420 -0.9397
vn 0.0000 0.5000 -0.8660
vn 0.0000 0.6428 -0.7660
vn 0.0000 0.7660 -0.6428
vn 0.0000 0.8660 -0.5000
vn 0.0000 0.9397 -0.3420
vn 0.0000 0.9848 -0.1736
vn 0.1736 0.9848 0.0000
vn 0.3420 0.9397 0.0000
vn 0.5000 0.8660 0.0000
vn 0.6428 0.7660 0.0000
vn 0.7660 0.6428 0.0000
vn 0.8660 0.5000 0.0000
vn 0.9397 0.3420 0.0000
vn 0.9848 0.1736 0.0000
vn 1.0000 -0.0000 -0.0000
vn 0.9848 0.1736 0.0000
vn 0.9397 0.3420 0.0000
vn 0.8660 0.5000 0.0000
vn 0.7660 0.6428 0.0000
vn 0.6428 0.7660 0.0000
vn 0.5000 0.8660 0.0000
vn 0.3420 0.9397 0.0000
vn 0.1736 0.9848 0.0000
vn 0.9848 -0.0000 -0.1736
vn 0.9397 -0.0000 -0.3420
vn 0.8660 -0.0000 -0.5000
vn 0.7660 -0.0000 -0.6428
vn 0.6428 -0.0000 -0.7660
vn 0.5000 -0.0000 -0.8660
vn 0.3420 -0.0000 -0.9397
vn 0.1736 -0.0000 -0.9848
vn 0.1736 -0.0000 -0.9848
vn 0.3420 -0.0000 -0.9397
vn 0.5000 -0.0000 -0.8660
vn 0.6428 -0.0000 -0.7660
vn 0.7660 -0.0000 -0.6428
vn 0.8660 -0.0000 -0.5000
vn 0.9397 -0.0000 -0.3420
vn 0.9848 -0.0000 -0.1736
vn 0.2211 -0.9749 0.0249
vn 0.2100 -0.9749 0.0735
vn 0.1884 -0.9749 0.1184
vn 0.4230 -0.9010 0.0965
vn 0.1573 -0.9749 0.1573
vn 0.3909 -0.9010 0.1883
vn 0.6196 -0.7818 0.0698
vn 0.1184 -0.9749 0.1884
vn 0.3392 -0.9010 0.2705
vn 0.5885 -0.7818 0.2059
vn 0.0735 -0.9749 0.2100
vn 0.2705 -0.9010 0.3392
vn 0.5279 -0.7818 0.3317
vn 0.7622 -0.6235 0.1740
vn 0.0249 -0.9749 0.2211
vn 0.1883 -0.9010 0.3909
vn 0.4409 -0.7818 0.4409
vn 0.7044 -0.6235 0.3392
vn 0.8953 -0.4339 0.1009
vn 0.0965 -0.9010 0.4230
vn 0.3317 -0.7818 0.5279
vn 0.6113 -0.6235 0.4875
vn 0.8504 -0.4339 0.2976
vn 0.2059 -0.7818 0.5885
vn 0.4875 -0.6235 0.6113
vn 0.7629 -0.4339 0.4793
vn 0.9505 -0.2225 0.2169
vn 0.0698 -0.7818 0.6196
vn 0.3392 -0.6235 0.7044
vn 0.6371 -0.4339 0.6371
vn 0.8784 -0.2225 0.4230
vn 0.1740 -0.6235 0.7622
vn 0.4793 -0.4339 0.7629
vn 0.7622 -0.2225 0.6079
vn 0.2976 -0.4339 0.8504
vn 0.6079 -0.2225 0.7622
vn 0.1009 -0.4339 0.8953
vn 0.4230 -0.2225 0.8784
vn 0.2169 -0.2225 0.9505
vn 0.2211 0.9749 0.0249
vn 0.2100 0.9749 0.0735
vn 0.1884 0.9749 0.1184
vn 0.4230 0.9010 0.0965
vn 0.1573 0.9749 0.1573
vn 0.3909 0.9010 0.1883
vn 0.6196 0.7818 0.0698
vn 0.1184 0.9749 0.1884
vn 0.3392 0.9010 0.2705
vn 0.5885 0.7818 0.2059
vn 0.0735 0.9749 0.2100
vn 0.2705 0.9010 0.3392
vn 0.5279 0.7818 0.3317
vn 0.7622 0.6235 0.1740
vn 0.0249 0.9749 0.2211
vn 0.1883 0.9010 0.3909
vn 0.4409 0.7818 0.4409
vn 0.7044 0.6235 0.3392
vn 0.8953 0.4339 0.1009
vn 0.0965 0.9010 0.4230
vn 0.3317 0.7818 0.5279
vn 0.6113 0.6235 0.4875
vn 0.8504 0.4339 0.2976
vn 0.2059 0.7818 0.5885
vn 0.4875 0.6235 0.6113
vn 0.7629 0.4339 0.4793
vn 0.9505 0.2225 0.2169
vn 0.0698 0.7818 0.6196
vn 0.3392 0.6235 0.7044
vn 0.6371 0.4339 0.6371
vn 0.8784 0.2225 0.4230
vn 0.1740 0.6235 0.7622
vn 0.4793 0.4339 0.7629
vn 0.7622 0.2225 0.6079
vn 0.2976 0.4339 0.8504
vn 0.6079 0.2225 0.7622
vn 0.1009 0.4339 0.8953
vn 0.4230 0.2225 0.8784
vn 0.2169 0.2225 0.9505
vn 0.2211 -0.9749 -0.0249
vn 0.2100 -0.9749 -0.0735
vn 0.1884 -0.9749 -0.1184
vn 0.4230 -0.9010 -0.0965
vn 0.1573 -0.9749 -0.1573
vn 0.3909 -0.9010 -0.1883
vn 0.6196 -0.7818 -0.0698
vn 0.1184 -0.9749 -0.1884
vn 0.3392 -0.9010 -0.2705
vn 0.5885 -0.7818 -0.2059
vn 0.0735 -0.9749 -0.2100
vn 0.2705 -0.9010 -0.3392
vn 0.5279 -0.7818 -0.3317
vn 0.7622 -0.6235 -0.1740
vn 0.0249 -0.9749 -0.2211
vn 0.1883 -0.9010 -0.3909
vn 0.4409 -0.7818 -0.4409
vn 0.7044 -0.6235 -0.3392
vn 0.8953 -0.4339 -0.1009
vn 0.0965 -0.9010 -0.4230
vn 0.3317 -0.7818 -0.5279
vn 0.6113 -0.6235 -0.4875
vn 0.8504 -0.4339 -0.2976
vn 0.2059 -0.7818 -0.5885
vn 0.4875 -0.6235 -0.6113
vn 0.7629 -0.4339 -0.4793
vn 0.9505 -0.2225 -0.2169
vn 0.0698 -0.7818 -0.6196
vn 0.3392 -0.6235 -0.7044
vn 0.6371 -0.4339 -0.6371
vn 0.8784 -0.2225 -0.4230
vn 0.1740 -0.6235 -0.7622
vn 0.4793 -0.4339 -0.7629
vn 0.7622 -0.2225 -0.6079
vn 0.2976 -0.4339 -0.8504
vn 0.6079 -0.2225 -0.7622
vn 0.1009 -0.4339 -0.8953
vn 0.4230 -0.2225 -0.8784
vn 0.2169 -0.2225 -0.9505
vn 0.2211 0.0249 -0.9749
vn 0.2100 0.0735 -0.9749
vn 0.1884 0.1184 -0.9749
vn 0.4230 0.0965 -0.9010
vn 0.1573 0.1573 -0.9749
vn 0.3909 0.1883 -0.9010
vn 0.6196 0.0698 -0.7818
vn 0.1184 0.1884 -0.9749
vn 0.3392 0.2705 -0.9010
vn 0.5885 0.2059 -0.7818
vn 0.0735 0.2100 -0.9749
vn 0.2705 0.3392 -0.9010
vn 0.5279 0.3317 -0.7818
vn 0.7622 0.1740 -0.6235
vn 0.0249 0.2211 -0.9749
vn 0.1883 0.3909 -0.9010
vn 0.4409 0.4409 -0.7818
vn 0.7044 0.3392 -0.6235
vn 0.8953 0.1009 -0.4339
vn 0.0965 0.4230 -0.9010
vn 0.3317 0.5279 -0.7818
vn 0.6113 0.4875 -0.6235
vn 0.8504 0.2976 -0.4339
vn 0.2059 0.5885 -0.7818
vn 0.4875 0.6113 -0.6235
vn 0.7629 0.4793 -0.4339
vn 0.9505 0.2169 -0.2225
vn 0.0698 0.6196 -0.7818
vn 0.3392 0.7044 -0.6235
vn 0.6371 0.6371 -0.4339
vn 0.8784 0.4230 -0.2225
vn 0.1740 0.7622 -0.6235
vn 0.4793 0.7629 -0.4339
vn 0.7622 0.6079 -0.2225
vn 0.2976 0.8504 -0.4339
vn 0.6079 0.7622 -0.2225
vn 0.1009 0.8953 -0.4339
vn 0.4230 0.8784 -0.2225
vn 0.2169 0.9505 -0.2225
f 2//2 3//3 1//1
f 2//2 4//4 3//3
f 15//15 2//2 1//1
f 15//15 1//1 5//5
f 16//16 5//5 6//6
f 16//16 15//15 5//5
f 17//17 6//6 7//7
f 17//17 16//16 6//6
f 18//18 7//7 8//8
f 18//18 8//8 9//9
f 18//18 17//17 7//7
f 19//19 18//18 9//9
f 20//20 9//9 10//10
f 20//20 10//10 11//11
f 20//20 19//19 9//9
f 21//21 20//20 11//11
f 22//22 11//11 12//12
f 22//22 12//12 13//13
f 22//22 21//21 11//11
f 14//14 22//22 13//13
f 40//40 31//31 1//1
f 40//40 1//1 3//3
f 39//39 30//30 31//31
f 39//39 31//31 40//40
f 38//38 28//28 29//29
f 38//38 29//29 30//30
f 38//38 30//30 39//39
f 37//37 28//28 38//38
f 36//36 27//27 28//28
f 36//36 28//28 37//37
f 35//35 26//26 27//27
f 35//35 27//27 36//36
f 34//34 24//24 25//25
f 34//34 25//25 26//26
f 34//34 26//26 35//35
f 33//33 23//23 24//24
f 33//33 24//24 34//34
f 32//32 23//23 33//33
f 51//51 2//2 49//49
f 51//51 4//4 2//2
f 52//52 49//49 48//48
f 52//52 51//51 49//49
f 53//53 48//48 47//47
f 53//53 52//52 48//48
f 54//54 47//47 46//46
f 54//54 53//53 47//47
f 55//55 46//46 45//45
f 55//55 54//54 46//46
f 56//56 45//45 44//44
f 56//56 55//55 45//45
f 57//57 43//43 42//42
f 57//57 44//44 43//43
f 57//57 56//56 44//44
f 58//58 57//57 42//42
f 50//50 42//42 41//41
f 50//50 58//58 42//42
f 4//4 59//59 3//3
f 76//76 60//60 59//59
f 76//76 59//59 4//4
f 75//75 61//61 60//60
f 75//75 60//60 76//76
f 74//74 62//62 61//61
f 74//74 61//61 75//75
f 73//73 63//63 62//62
f 73//73 62//62 74//74
f 72//72 64//64 63//63
f 72//72 63//63 73//73
f 71//71 65//65 64//64
f 71//71 64//64 72//72
f 70//70 65//65 71//71
f 69//69 66//66 65//65
f 69//69 67//67 66//66
f 69//69 65//65 70//70
f 68//68 67//67 69//69
f 5//5 1//1 31//31
f 13//13 12//12 84//84
f 85//85 24//24 23//23
f 85//85 25//25 24//24
f 86//86 85//85 23//23
f 87//87 86//86 23//23
f 88//88 26//26 25//25
f 88//88 25//25 85//85
f 88//88 85//85 86//86
f 89//89 87//87 23//23
f 90//90 88//88 86//86
f 90//90 86//86 87//87
f 91//91 27//27 26//26
f 91//91 28//28 27//27
f 91//91 26//26 88//88
f 92//92 89//89 23//23
f 93//93 90//90 87//87
f 93//93 87//87 89//89
f 94//94 91//91 88//88
f 94//94 88//88 90//90
f 95//95 92//92 23//23
f 96//96 89//89 92//92
f 96//96 93//93 89//89
f 97//97 90//90 93//93
f 97//97 94//94 90//90
f 98//98 29//29 28//28
f 98//98 91//91 94//94
f 98//98 28//28 91//91
f 99//99 23//23 77//77
f 99//99 77//77 78//78
f 99//99 95//95 23//23
f 100//100 92//92 95//95
f 100//100 96//96 92//92
f 101//101 93//93 96//96
f 101//101 97//97 93//93
f 102//102 94//94 97//97
f 102//102 98//98 94//94
f 103//103 30//30 29//29
f 103//103 29//29 98//98
f 104//104 78//78 79//79
f 104//104 99//99 78//78
f 104//104 95//95 99//99
f 104//104 100//100 95//95
f 105//105 96//96 100//100
f 105//105 101//101 96//96
f 106//106 102//102 97//97
f 106//106 97//97 101//101
f 107//107 98//98 102//102
f 107//107 103//103 98//98
f 108//108 100//100 104//104
f 108//108 105//105 100//100
f 109//109 101//101 105//105
f 109//109 106//106 101//101
f 110//110 102//102 106//106
f 110//110 107//107 102//102
f 111//111 31//31 30//30
f 111//111 6//6 5//5
f 111//111 103//103 107//107
f 111//111 5//5 31//31
f 111//111 30//30 103//103
f 112//112 79//79 80//80
f 112//112 80//80 81//81
f 112//112 104//104 79//79
f 112//112 108//108 104//104
f 113//113 109//109 105//105
f 113//113 105//105 108//108
f 114//114 106//106 109//109
f 114//114 110//110 106//106
f 115//115 7//7 6//6
f 115//115 107//107 110//110
f 115//115 6//6 111//111
f 115//115 111//111 107//107
f 116//116 81//81 82//82
f 116//116 112//112 81//81
f 116//116 108//108 112//112
f 116//116 113//113 108//108
f 117//117 114//114 109//109
f 117//117 109//109 113//113
f 118//118 8//8 7//7
f 118//118 110//110 114//114
f 118//118 115//115 110//110
f 118//118 7//7 115//115
f 119//119 113//113 116//116
f 119//119 117//117 113//113
f 120//120 9//9 8//8
f 120//120 10//10 9//9
f 120//120 8//8 118//118
f 120//120 118//118 114//114
f 120//120 114//114 117//117
f 121//121 82//82 83//83
f 121//121 116//116 82//82
f 121//121 119//119 116//116
f 122//122 11//11 10//10
f 122//122 10//10 120//120
f 122//122 117//117 119//119
f 122//122 120//120 117//117
f 123//123 83//83 84//84
f 123//123 12//12 11//11
f 123//123 11//11 122//122
f 123//123 121//121 83//83
f 123//123 119//119 121//121
f 123//123 122//122 119//119
f 123//123 84//84 12//12
f 15//15 49//49 2//2
f 14//14 131//131 22//22
f 132//132 41//41 42//42
f 132//132 42//42 43//43
f 133//133 41//41 132//132
f 134//134 41//41 133//133
f 135//135 43//43 44//44
f 135//135 132//132 43//43
f 135//135 133//133 132//132
f 136//136 41//41 134//134
f 137//137 133//133 135//135
f 137//137 134//134 133//133
f 138//138 44//44 45//45
f 138//138 45//45 46//46
f 138//138 135//135 44//44
f 139//139 41//41 136//136
f 140//140 134//134 137//137
f 140//140 136//136 134//134
f 141//141 135//135 138//138
f 141//141 137//137 135//135
f 142//142 41//41 139//139
f 143//143 139//139 136//136
f 143//143 136//136 140//140
f 144//144 140//140 137//137
f 144//144 137//137 141//141
f 145//145 46//46 47//47
f 145//145 141//141 138//138
f 145//145 138//138 46//46
f 146//146 124//124 41//41
f 146//146 125//125 124//124
f 146//146 41//41 142//142
f 147//147 142//142 139//139
f 147//147 139//139 143//143
f 148//148 143//143 140//140
f 148//148 140//140 144//144
f 149//149 144//144 141//141
f 149//149 141//141 145//145
f 150//150 47//47 48//48
f 150//150 145//145 47//47
f 151//151 126//126 125//125
f 151//151 125//125 146//146
f 151//151 146//146 142//142
f 151//151 142//142 147//147
f 152//152 147//147 143//143
f 152//152 143//143 148//148
f 153//153 144//144 149//149
f 153//153 148//148 144//144
f 154//154 149//149 145//145
f 154//154 145//145 150//150
f 155//155 151//151 147//147
f 155//155 147//147 152//152
f 156//156 152//152 148//148
f 156//156 148//148 153//153
f 157//157 153//153 149//149
f 157//157 149//149 154//154
f 158//158 48//48 49//49
f 158//158 15//15 16//16
f 158//158 154//154 150//150
f 158//158 49//49 15//15
f 158//158 150//150 48//48
f 159//159 127//127 126//126
f 159//159 128//128 127//127
f 159//159 126//126 151//151
f 159//159 151//151 155//155
f 160//160 152//152 156//156
f 160//160 155//155 152//152
f 161//161 156//156 153//153
f 161//161 153//153 157//157
f 162//162 16//16 17//17
f 162//162 157//157 154//154
f 162//162 158//158 16//16
f 162//162 154//154 158//158
f 163//163 129//129 128//128
f 163//163 128//128 159//159
f 163//163 159//159 155//155
f 163//163 155//155 160//160
f 164//164 156//156 161//161
f 164//164 160//160 156//156
f 165//165 17//17 18//18
f 165//165 18//18 19//19
f 165//165 161//161 157//157
f 165//165 157//157 162//162
f 165//165 162//162 17//17
f 166//166 163//163 160//160
f 166//166 160//160 164//164
f 167//167 19//19 20//20
f 167//167 161//161 165//165
f 167//167 164//164 161//161
f 167//167 165//165 19//19
f 168//168 130//130 129//129
f 168//168 129//129 163//163
f 168//168 163//163 166//166
f 169//169 20//20 21//21
f 169//169 166//166 164//164
f 169//169 164//164 167//167
f 169//169 167//167 20//20
f 170//170 131//131 130//130
f 170//170 21//21 22//22
f 170//170 169//169 21//21
f 170//170 130//130 168//168
f 170//170 168//168 166//166
f 170//170 166//166 169//169
f 170//170 22//22 131//131
f 171//171 14//14 13//13
f 171//171 13//13 172//172
f 174//174 23//23 32//32
f 174//174 173//173 23//23
f 59//59 40//40 3//3
f 67//67 182//182 66//66
f 183//183 32//32 33//33
f 183//183 33//33 34//34
f 184//184 32//32 183//183
f 185//185 32//32 184//184
f 186//186 34//34 35//35
f 186//186 183//183 34//34
f 186//186 184//184 183//183
f 187//187 32//32 185//185
f 188//188 184//184 186//186
f 188//188 185//185 184//184
f 189//189 35//35 36//36
f 189//189 36//36 37//37
f 189//189 186//186 35//35
f 190//190 32//32 187//187
f 191//191 185//185 188//188
f 191//191 187//187 185//185
f 192//192 186//186 189//189
f 192//192 188//188 186//186
f 193//193 32//32 190//190
f 194//194 190//190 187//187
f 194//194 187//187 191//191
f 195//195 191//191 188//188
f 195//195 188//188 192//192
f 196//196 37//37 38//38
f 196//196 192//192 189//189
f 196//196 189//189 37//37
f 197//197 175//175 32//32
f 197//197 176//176 175//175
f 197//197 32//32 193//193
f 198//198 193//193 190//190
f 198//198 190//190 194//194
f 199//199 194//194 191//191
f 199//199 191//191 195//195
f 200//200 195//195 192//192
f 200//200 192//192 196//196
f 201//201 38//38 39//39
f 201//201 196//196 38//38
f 202//202 177//177 176//176
f 202//202 176//176 197//197
f 202//202 197//197 193//193
f 202//202 193//193 198//198
f 203//203 198//198 194//194
f 203//203 194//194 199//199
f 204//204 195//195 200//200
f 204//204 199//199 195//195
f 205//205 200//200 196//196
f 205//205 196//196 201//201
f 206//206 202//202 198//198
f 206//206 198//198 203//203
f 207//207 203//203 199//199
f 207//207 199//199 204//204
f 208//208 204//204 200//200
f 208//208 200//200 205//205
f 209//209 39//39 40//40
f 209//209 59//59 60//60
f 209//209 205//205 201//201
f 209//209 40//40 59//59
f 209//209 201//201 39//39
f 210//210 178//178 177//177
f 210//210 179//179 178//178
f 210//210 177//177 202//202
f 210//210 202//202 206//206
f 211//211 203//203 207//207
f 211//211 206//206 203//203
f 212//212 207//207 204//204
f 212//212 204//204 208//208
f 213//213 60//60 61//61
f 213//213 208//208 205//205
f 213//213 209//209 60//60
f 213//213 205//205 209//209
f 214//214 180//180 179//179
f 214//214 179//179 210//210
f 214//214 210//210 206//206
f 214//214 206//206 211//211
f 215//215 207//207 212//212
f 215//215 211//211 207//207
f 216//216 61//61 62//62
f 216//216 212//212 208//208
f 216//216 208//208 213//213
f 216//216 213//213 61//61
f 217//217 214//214 211//211
f 217//217 211//211 215//215
f 218//218 62//62 63//63
f 218//218 63//63 64//64
f 218//218 216//216 62//62
f 218//218 212//212 216//216
f 218//218 215//215 212//212
f 219//219 181//181 180//180
f 219//219 180//180 214//214
f 219//219 214//214 217//217
f 220//220 64//64 65//65
f 220//220 218//218 64//64
f 220//220 217//217 215//215
f 220//220 215//215 218//218
f 221//221 182//182 181//181
f 221//221 65//65 66//66
f 221//221 220//220 65//65
f 221//221 181//181 219//219
f 221//221 219//219 217//217
f 221//221 217//217 220//220
f 221//221 66//66 182//182
f 223//223 50//50 41//41
f 223//223 41//41 222//222
f 51//51 76//76 4//4
f 50//50 231//231 58//58
f 232//232 68//68 69//69
f 232//232 69//69 70//70
f 233//233 68//68 232//232
f 234//234 68//68 233//233
f 235//235 70//70 71//71
f 235//235 232//232 70//70
f 235//235 233//233 232//232
f 236//236 68//68 234//234
f 237//237 233//233 235//235
f 237//237 234//234 233//233
f 238//238 71//71 72//72
f 238//238 72//72 73//73
f 238//238 235//235 71//71
f 239//239 68//68 236//236
f 240//240 234//234 237//237
f 240//240 236//236 234//234
f 241//241 235//235 238//238
f 241//241 237//237 235//235
f 242//242 68//68 239//239
f 243//243 239//239 236//236
f 243//243 236//236 240//240
f 244//244 240//240 237//237
f 244//244 237//237 241//241
f 245//245 73//73 74//74
f 245//245 241//241 238//238
f 245//245 238//238 73//73
f 246//246 224//224 68//68
f 246//246 225//225 224//224
f 246//246 68//68 242//242
f 247//247 242//242 239//239
f 247//247 239//239 243//243
f 248//248 243//243 240//240
f 248//248 240//240 244//244
f 249//249 244//244 241//241
f 249//249 241//241 245//245
f 250//250 74//74 75//75
f 250//250 245//245 74//74
f 251//251 226//226 225//225
f 251//251 225//225 246//246
f 251//251 246//246 242//242
f 251//251 242//242 247//247
f 252//252 247//247 243//243
f 252//252 243//243 248//248
f 253//253 244//244 249//249
f 253//253 248//248 244//244
f 254//254 249//249 245//245
f 254//254 245//245 250//250
f 255//255 251//251 247//247
f 255//255 247//247 252//252
f 256//256 252//252 248//248
f 256//256 248//248 253//253
f 257//257 253//253 249//249
f 257//257 249//249 254//254
f 258//258 75//75 76//76
f 258//258 51//51 52//52
f 258//258 254//254 250//250
f 258//258 76//76 51//51
f 258//258 250//250 75//75
f 259//259 227//227 226//226
f 259//259 228//228 227//227
f 259//259 226//226 251//251
f 259//259 251//251 255//255
f 260//260 252//252 256//256
f 260//260 255//255 252//252
f 261//261 256//256 253//253
f 261//261 253//253 257//257
f 262//262 52//52 53//53
f 262//262 257//257 254//254
f 262//262 258//258 52//52
f 262//262 254//254 258//258
f 263//263 229//229 228//228
f 263//263 228//228 259//259
f 263//263 259//259 255//255
f 263//263 255//255 260//260
f 264//264 256//256 261//261
f 264//264 260//260 256//256
f 265//265 53//53 54//54
f 265//265 261//261 257//257
f 265//265 257//257 262//262
f 265//265 262//262 53//53
f 266//266 263//263 260//260
f 266//266 260//260 264//264
f 267//267 54//54 55//55
f 267//267 55//55 56//56
f 267//267 265//265 54//54
f 267//267 261//261 265//265
f 267//267 264//264 261//261
f 268//268 230//230 229//229
f 268//268 229//229 263//263
f 268//268 263//263 266//266
f 269//269 56//56 57//57
f 269//269 267//267 56//56
f 269//269 266//266 264//264
f 269//269 264//264 267//267
f 270//270 231//231 230//230
f 270//270 57//57 58//58
f 270//270 269//269 57//57
f 270//270 230//230 268//268
f 270//270 268//268 266//266
f 270//270 266//266 269//269
f 270//270 58//58 231//231
f 271//271 67//67 68//68
f 271//271 272//272 67//67
f 280//280 13//13 84//84
f 280//280 172//172 13//13
f 279//279 84//84 83//83
f 279//279 280//280 84//84
f 278//278 83//83 82//82
f 278//278 279//279 83//83
f 277//277 81//81 80//80
f 277//277 82//82 81//81
f 277//277 278//278 82//82
f 276//276 277//277 80//80
f 275//275 80//80 79//79
f 275//275 276//276 80//80
f 274//274 79//79 78//78
f 274//274 275//275 79//79
f 273//273 78//78 77//77
f 273//273 274//274 78//78
f 173//173 77//77 23//23
f 173//173 273//273 77//77
f 288//288 131//131 14//14
f 288//288 14//14 171//171
f 287//287 130//130 131//131
f 287//287 131//131 288//288
f 286//286 129//129 130//130
f 286//286 130//130 287//287
f 285//285 127//127 128//128
f 285//285 128//128 129//129
f 285//285 129//129 286//286
f 284//284 127//127 285//285
f 283//283 126//126 127//127
f 283//283 127//127 284//284
f 282//282 125//125 126//126
f 282//282 126//126 283//283
f 281//281 124//124 125//125
f 281//281 125//125 282//282
f 222//222 41//41 124//124
f 222//222 124//124 281//281
f 299//299 289//289 290//290
f 299//299 291//291 289//289
f 300//300 292//292 291//291
f 300//300 291//291 299//299
f 301//301 293//293 292//292
f 301//301 292//292 300//300
f 302//302 294//294 293//293
f 302//302 295//295 294//294
f 302//302 293//293 301//301
f 303//303 295//295 302//302
f 304//304 296//296 295//295
f 304//304 297//297 296//296
f 304//304 295//295 303//303
f 305//305 297//297 304//304
f 306//306 298//298 297//297
f 306//306 172//172 298//298
f 306//306 297//297 305//305
f 171//171 172//172 306//306
f 314//314 182//182 67//67
f 314//314 67//67 272//272
f 313//313 181//181 182//182
f 313//313 182//182 314//314
f 312//312 180//180 181//181
f 312//312 181//181 313//313
f 311//311 178//178 179//179
f 311//311 179//179 180//180
f 311//311 180//180 312//312
f 310//310 178//178 311//311
f 309//309 177//177 178//178
f 309//309 178//178 310//310
f 308//308 176//176 177//177
f 308//308 177//177 309//309
f 307//307 175//175 176//176
f 307//307 176//176 308//308
f 174//174 32//32 175//175
f 174//174 175//175 307//307
f 330//330 289//289 322//322
f 330//330 331//331 289//289
f 329//329 322//322 321//321
f 329//329 330//330 322//322
f 328//328 320//320 319//319
f 328//328 321//321 320//320
f 328//328 329//329 321//321
f 327//327 328//328 319//319
f 326//326 319//319 318//318
f 326//326 327//327 319//319
f 325//325 318//318 317//317
f 325//325 326//326 318//318
f 324//324 316//316 315//315
f 324//324 317//317 316//316
f 324//324 325//325 317//317
f 323//323 315//315 173//173
f 323//323 324//324 315//315
f 174//174 323//323 173//173
f 332//332 68//68 224//224
f 332//332 271//271 68//68
f 333//333 224//224 225//225
f 333//333 332//332 224//224
f 334//334 225//225 226//226
f 334//334 333//333 225//225
f 335//335 226//226 227//227
f 335//335 334//334 226//226
f 336//336 227//227 228//228
f 336//336 228//228 229//229
f 336//336 335//335 227//227
f 337//337 336//336 229//229
f 338//338 229//229 230//230
f 338//338 337//337 229//229
f 339//339 230//230 231//231
f 339//339 338//338 230//230
f 223//223 231//231 50//50
f 223//223 339//339 231//231
f 349//349 347//347 290//290
f 349//349 290//290 348//348
f 350//350 346//346 347//347
f 350//350 347//347 349//349
f 351//351 345//345 346//346
f 351//351 346//346 350//350
f 352//352 344//344 345//345
f 352//352 345//345 351//351
f 353//353 343//343 344//344
f 353//353 344//344 352//352
f 354//354 342//342 343//343
f 354//354 343//343 353//353
f 355//355 340//340 341//341
f 355//355 341//341 342//342
f 355//355 342//342 354//354
f 356//356 340//340 355//355
f 223//223 222//222 340//340
f 223//223 340//340 356//356
f 348//348 331//331 357//357
f 372//372 357//357 358//358
f 372//372 348//348 357//357
f 371//371 358//358 359//359
f 371//371 372//372 358//358
f 370//370 359//359 360//360
f 370//370 371//371 359//359
f 369//369 360//360 361//361
f 369//369 370//370 360//360
f 368//368 361//361 362//362
f 368//368 369//369 361//361
f 367//367 362//362 363//363
f 367//367 368//368 362//362
f 366//366 367//367 363//363
f 365//365 363//363 364//364
f 365//365 364//364 272//272
f 365//365 366//366 363//363
f 271//271 365//365 272//272
f 291//291 322//322 289//289
f 172//172 280//280 298//298
f 373//373 173//173 315//315
f 373//373 315//315 316//316
f 374//374 173//173 373//373
f 375//375 173//173 374//374
f 376//376 316//316 317//317
f 376//376 373//373 316//316
f 376//376 374//374 373//373
f 377//377 173//173 375//375
f 378//378 374//374 376//376
f 378//378 375//375 374//374
f 379//379 317//317 318//318
f 379//379 318//318 319//319
f 379//379 376//376 317//317
f 380//380 173//173 377//377
f 381//381 375//375 378//378
f 381//381 377//377 375//375
f 382//382 376//376 379//379
f 382//382 378//378 376//376
f 383//383 173//173 380//380
f 384//384 380//380 377//377
f 384//384 377//377 381//381
f 385//385 381//381 378//378
f 385//385 378//378 382//382
f 386//386 319//319 320//320
f 386//386 382//382 379//379
f 386//386 379//379 319//319
f 387//387 273//273 173//173
f 387//387 274//274 273//273
f 387//387 173//173 383//383
f 388//388 383//383 380//380
f 388//388 380//380 384//384
f 389//389 384//384 381//381
f 389//389 381//381 385//385
f 390//390 385//385 382//382
f 390//390 382//382 386//386
f 391//391 320//320 321//321
f 391//391 386//386 320//320
f 392//392 275//275 274//274
f 392//392 274//274 387//387
f 392//392 387//387 383//383
f 392//392 383//383 388//388
f 393//393 388//388 384//384
f 393//393 384//384 389//389
f 394//394 385//385 390//390
f 394//394 389//389 385//385
f 395//395 390//390 386//386
f 395//395 386//386 391//391
f 396//396 392//392 388//388
f 396//396 388//388 393//393
f 397//397 393//393 389//389
f 397//397 389//389 394//394
f 398//398 394//394 390//390
f 398//398 390//390 395//395
f 399//399 321//321 322//322
f 399//399 291//291 292//292
f 399//399 395//395 391//391
f 399//399 322//322 291//291
f 399//399 391//391 321//321
f 400//400 276//276 275//275
f 400//400 277//277 276//276
f 400//400 275//275 392//392
f 400//400 392//392 396//396
f 401//401 393//393 397//397
f 401//401 396//396 393//393
f 402//402 397//397 394//394
f 402//402 394//394 398//398
f 403//403 292//292 293//293
f 403//403 398//398 395//395
f 403//403 399//399 292//292
f 403//403 395//395 399//399
f 404//404 278//278 277//277
f 404//404 277//277 400//400
f 404//404 400//400 396//396
f 404//404 396//396 401//401
f 405//405 397//397 402//402
f 405//405 401//401 397//397
f 406//406 293//293 294//294
f 406//406 402//402 398//398
f 406//406 398//398 403//403
f 406//406 403//403 293//293
f 407//407 404//404 401//401
f 407//407 401//401 405//405
f 408//408 294//294 295//295
f 408//408 295//295 296//296
f 408//408 406//406 294//294
f 408//408 402//402 406//406
f 408//408 405//405 402//402
f 409//409 279//279 278//278
f 409//409 278//278 404//404
f 409//409 404//404 407//407
f 410//410 296//296 297//297
f 410//410 408//408 296//296
f 410//410 407//407 405//405
f 410//410 405//405 408//408
f 411//411 280//280 279//279
f 411//411 297//297 298//298
f 411//411 410//410 297//297
f 411//411 279//279 409//409
f 411//411 409//409 407//407
f 411//411 407//407 410//410
f 411//411 298//298 280//280
f 299//299 290//290 347//347
f 171//171 306//306 288//288
f 412//412 340//340 222//222
f 412//412 341//341 340//340
f 413//413 412//412 222//222
f 414//414 413//413 222//222
f 415//415 342//342 341//341
f 415//415 341//341 412//412
f 415//415 412//412 413//413
f 416//416 414//414 222//222
f 417//417 415//415 413//413
f 417//417 413//413 414//414
f 418//418 343//343 342//342
f 418//418 344//344 343//343
f 418//418 342//342 415//415
f 419//419 416//416 222//222
f 420//420 417//417 414//414
f 420//420 414//414 416//416
f 421//421 418//418 415//415
f 421//421 415//415 417//417
f 422//422 419//419 222//222
f 423//423 416//416 419//419
f 423//423 420//420 416//416
f 424//424 417//417 420//420
f 424//424 421//421 417//417
f 425//425 345//345 344//344
f 425//425 418//418 421//421
f 425//425 344//344 418//418
f 426//426 222//222 281//281
f 426//426 281//281 282//282
f 426//426 422//422 222//222
f 427//427 419//419 422//422
f 427//427 423//423 419//419
f 428//428 420//420 423//423
f 428//428 424//424 420//420
f 429//429 421//421 424//424
f 429//429 425//425 421//421
f 430//430 346//346 345//345
f 430//430 345//345 425//425
f 431//431 282//282 283//283
f 431//431 426//426 282//282
f 431//431 422//422 426//426
f 431//431 427//427 422//422
f 432//432 423//423 427//427
f 432//432 428//428 423//423
f 433//433 429//429 424//424
f 433//433 424//424 428//428
f 434//434 425//425 429//429
f 434//434 430//430 425//425
f 435//435 427//427 431//431
f 435//435 432//432 427//427
f 436//436 428//428 432//432
f 436//436 433//433 428//428
f 437//437 429//429 433//433
f 437//437 434//434 429//429
f 438//438 347//347 346//346
f 438//438 300//300 299//299
f 438//438 430//430 434//434
f 438//438 299//299 347//347
f 438//438 346//346 430//430
f 439//439 283//283 284//284
f 439//439 284//284 285//285
f 439//439 431//431 283//283
f 439//439 435//435 431//431
f 440//440 436//436 432//432
f 440//440 432//432 435//435
f 441//441 433//433 436//436
f 441//441 437//437 433//433
f 442//442 301//301 300//300
f 442//442 434//434 437//437
f 442//442 300//300 438//438
f 442//442 438//438 434//434
f 443//443 285//285 286//286
f 443//443 439//439 285//285
f 443//443 435//435 439//439
f 443//443 440//440 435//435
f 444//444 441//441 436//436
f 444//444 436//436 440//440
f 445//445 302//302 301//301
f 445//445 303//303 302//302
f 445//445 437//437 441//441
f 445//445 442//442 437//437
f 445//445 301//301 442//442
f 446//446 440//440 443//443
f 446//446 444//444 440//440
f 447//447 304//304 303//303
f 447//447 445//445 441//441
f 447//447 441//441 444//444
f 447//447 303//303 445//445
f 448//448 286//286 287//287
f 448//448 443//443 286//286
f 448//448 446//446 443//443
f 449//449 305//305 304//304
f 449//449 444//444 446//446
f 449//449 447//447 444//444
f 449//449 304//304 447//447
f 450//450 287//287 288//288
f 450//450 306//306 305//305
f 450//450 305//305 449//449
f 450//450 448//448 287//287
f 450//450 446//446 448//448
f 450//450 449//449 446//446
f 450//450 288//288 306//306
f 290//290 289//289 331//331
f 290//290 331//331 348//348
f 357//357 331//331 330//330
f 272//272 364//364 314//314
f 451//451 323//323 174//174
f 451//451 324//324 323//323
f 452//452 451//451 174//174
f 453//453 452//452 174//174
f 454//454 325//325 324//324
f 454//454 324//324 451//451
f 454//454 451//451 452//452
f 455//455 453//453 174//174
f 456//456 454//454 452//452
f 456//456 452//452 453//453
f 457//457 326//326 325//325
f 457//457 327//327 326//326
f 457//457 325//325 454//454
f 458//458 455//455 174//174
f 459//459 456//456 453//453
f 459//459 453//453 455//455
f 460//460 457//457 454//454
f 460//460 454//454 456//456
f 461//461 458//458 174//174
f 462//462 455//455 458//458
f 462//462 459//459 455//455
f 463//463 456//456 459//459
f 463//463 460//460 456//456
f 464//464 328//328 327//327
f 464//464 457//457 460//460
f 464//464 327//327 457//457
f 465//465 174//174 307//307
f 465//465 307//307 308//308
f 465//465 461//461 174//174
f 466//466 458//458 461//461
f 466//466 462//462 458//458
f 467//467 459//459 462//462
f 467//467 463//463 459//459
f 468//468 460//460 463//463
f 468//468 464//464 460//460
f 469//469 329//329 328//328
f 469//469 328//328 464//464
f 470//470 308//308 309//309
f 470//470 465//465 308//308
f 470//470 461//461 465//465
f 470//470 466//466 461//461
f 471//471 462//462 466//466
f 471//471 467//467 462//462
f 472//472 468//468 463//463
f 472//472 463//463 467//467
f 473//473 464//464 468//468
f 473//473 469//469 464//464
f 474//474 466//466 470//470
f 474//474 471//471 466//466
f 475//475 467//467 471//471
f 475//475 472//472 467//467
f 476//476 468//468 472//472
f 476//476 473//473 468//468
f 477//477 330//330 329//329
f 477//477 358//358 357//357
f 477//477 469//469 473//473
f 477//477 357//357 330//330
f 477//477 329//329 469//469
f 478//478 309//309 310//310
f 478//478 310//310 311//311
f 478//478 470//470 309//309
f 478//478 474//474 470//470
f 479//479 475//475 471//471
f 479//479 471//471 474//474
f 480//480 472//472 475//475
f 480//480 476//476 472//472
f 481//481 359//359 358//358
f 481//481 473//473 476//476
f 481//481 358//358 477//477
f 481//481 477//477 473//473
f 482//482 311//311 312//312
f 482//482 478//478 311//311
f 482//482 474//474 478//478
f 482//482 479//479 474//474
f 483//483 480//480 475//475
f 483//483 475//475 479//479
f 484//484 360//360 359//359
f 484//484 476//476 480//480
f 484//484 481//481 476//476
f 484//484 359//359 481//481
f 485//485 479//479 482//482
f 485//485 483//483 479//479
f 486//486 361//361 360//360
f 486//486 362//362 361//361
f 486//486 360//360 484//484
f 486//486 484//484 480//480
f 486//486 480//480 483//483
f 487//487 312//312 313//313
f 487//487 482//482 312//312
f 487//487 485//485 482//482
f 488//488 363//363 362//362
f 488//488 362//362 486//486
f 488//488 483//483 485//485
f 488//488 486//486 483//483
f 489//489 313//313 314//314
f 489//489 364//364 363//363
f 489//489 363//363 488//488
f 489//489 487//487 313//313
f 489//489 485//485 487//487
f 489//489 488//488 485//485
f 489//489 314//314 364//364
f 349//349 348//348 372//372
f 223//223 356//356 339//339
f 490//490 365//365 271//271
f 490//490 366//366 365//365
f 491//491 490//490 271//271
f 492//492 491//491 271//271
f 493//493 367//367 366//366
f 493//493 366//366 490//490
f 493//493 490//490 491//491
f 494//494 492//492 271//271
f 495//495 493//493 491//491
f 495//495 491//491 492//492
f 496//496 368//368 367//367
f 496//496 369//369 368//368
f 496//496 367//367 493//493
f 497//497 494//494 271//271
f 498//498 495//495 492//492
f 498//498 492//492 494//494
f 499//499 496//496 493//493
f 499//499 493//493 495//495
f 500//500 497//497 271//271
f 501//501 494//494 497//497
f 501//501 498//498 494//494
f 502//502 495//495 498//498
f 502//502 499//499 495//495
f 503//503 370//370 369//369
f 503//503 496//496 499//499
f 503//503 369//369 496//496
f 504//504 271//271 332//332
f 504//504 332//332 333//333
f 504//504 500//500 271//271
f 505//505 497//497 500//500
f 505//505 501//501 497//497
f 506//506 498//498 501//501
f 506//506 502//502 498//498
f 507//507 499//499 502//502
f 507//507 503//503 499//499
f 508//508 371//371 370//370
f 508//508 370//370 503//503
f 509//509 333//333 334//334
f 509//509 504//504 333//333
f 509//509 500//500 504//504
f 509//509 505//505 500//500
f 510//510 501//501 505//505
f 510//510 506//506 501//501
f 511//511 507//507 502//502
f 511//511 502//502 506//506
f 512//512 503//503 507//507
f 512//512 508//508 503//503
f 513//513 505//505 509//509
f 513//513 510//510 505//505
f 514//514 506//506 510//510
f 514//514 511//511 506//506
f 515//515 507//507 511//511
f 515//515 512//512 507//507
f 516//516 372//372 371//371
f 516//516 350//350 349//349
f 516//516 508//508 512//512
f 516//516 349//349 372//372
f 516//516 371//371 508//508
f 517//517 334//334 335//335
f 517//517 335//335 336//336
f 517//517 509//509 334//334
f 517//517 513//513 509//509
f 518//518 514//514 510//510
f 518//518 510//510 513//513
f 519//519 511//511 514//514
f 519//519 515//515 511//511
f 520//520 351//351 350//350
f 520//520 512//512 515//515
f 520//520 350//350 516//516
f 520//520 516//516 512//512
f 521//521 336//336 337//337
f 521//521 517//517 336//336
f 521//521 513//513 517//517
f 521//521 518//518 513//513
f 522//522 519//519 514//514
f 522//522 514//514 518//518
f 523//523 352//352 351//351
f 523//523 515//515 519//519
f 523//523 520//520 515//515
f 523//523 351//351 520//520
f 524//524 518//518 521//521
f 524//524 522//522 518//518
f 525//525 353//353 352//352
f 525//525 354//354 353//353
f 525//525 352//352 523//523
f 525//525 523//523 519//519
f 525//525 519//519 522//522
f 526//526 337//337 338//338
f 526//526 521//521 337//337
f 526//526 524//524 521//521
f 527//527 355//355 354//354
f 527//527 354//354 525//525
f 527//527 522//522 524//524
f 527//527 525//525 522//522
f 528//528 338//338 339//339
f 528//528 356//356 355//355
f 528//528 355//355 527//527
f 528//528 526//526 338//338
f 528//528 524//524 526//526
f 528//528 527//527 524//524
f 528//528 339//339 356//356
o mounting_ears
usemtl PLA_111114
v -0.02700 0.02600 0.01000
v -0.02700 0.02850 0.01000
v -0.02700 0.02600 -0.01000
v -0.02700 0.02850 -0.01000
v 0.02700 0.02600 0.01000
v 0.02700 0.02850 0.01000
v 0.02700 0.02600 -0.01000
v 0.02700 0.02850 -0.01000
vn -1.0000 0.0000 0.0000
vn -1.0000 0.0000 0.0000
vn -1.0000 0.0000 0.0000
vn -1.0000 0.0000 0.0000
vn 1.0000 -0.0000 -0.0000
vn 1.0000 -0.0000 -0.0000
vn 1.0000 -0.0000 -0.0000
vn 1.0000 -0.0000 -0.0000
f 529//529 532//532 531//531
f 530//530 532//532 529//529
f 533//533 535//535 536//536
f 534//534 533//533 536//536
f 534//534 529//529 533//533
f 534//534 530//530 529//529
f 536//536 535//535 531//531
f 536//536 531//531 532//532
f 535//535 529//529 531//531
f 535//535 533//533 529//529
f 536//536 532//532 530//530
f 536//536 530//530 534//534
o boss
usemtl PLA_333338
v 0.01600 0.03800 0.00000
v 0.01594 0.03800 -0.00084
v 0.01577 0.03800 -0.00165
v 0.01548 0.03800 -0.00244
v 0.01509 0.03800 -0.00318
v 0.01460 0.03800 -0.00386
v 0.01401 0.03800 -0.00446
v 0.01336 0.03800 -0.00497
v 0.01263 0.03800 -0.00539
v 0.01185 0.03800 -0.00571
v 0.01104 0.03800 -0.00591
v 0.01021 0.03800 -0.00600
v 0.00937 0.03800 -0.00597
v 0.00855 0.03800 -0.00582
v 0.00775 0.03800 -0.00556
v 0.00700 0.03800 -0.00520
v 0.00631 0.03800 -0.00473
v 0.00568 0.03800 -0.00417
v 0.00515 0.03800 -0.00353
v 0.00470 0.03800 -0.00282
v 0.00436 0.03800 -0.00205
v 0.00413 0.03800 -0.00125
v 0.00401 0.03800 -0.00042
v 0.00401 0.03800 0.00042
v 0.00413 0.03800 0.00125
v 0.00436 0.03800 0.00205
v 0.00470 0.03800 0.00282
v 0.00515 0.03800 0.00353
v 0.00568 0.03800 0.00417
v 0.00631 0.03800 0.00473
v 0.00700 0.03800 0.00520
v 0.00775 0.03800 0.00556
v 0.00855 0.03800 0.00582
v 0.00937 0.03800 0.00597
v 0.01021 0.03800 0.00600
v 0.01104 0.03800 0.00591
v 0.01185 0.03800 0.00571
v 0.01263 0.03800 0.00539
v 0.01336 0.03800 0.00497
v 0.01401 0.03800 0.00446
v 0.01460 0.03800 0.00386
v 0.01509 0.03800 0.00318
v 0.01548 0.03800 0.00244
v 0.01577 0.03800 0.00165
v 0.01594 0.03800 0.00084
v 0.01600 0.03600 0.00000
v 0.01594 0.03600 -0.00084
v 0.01577 0.03600 -0.00165
v 0.01548 0.03600 -0.00244
v 0.01509 0.03600 -0.00318
v 0.01460 0.03600 -0.00386
v 0.01401 0.03600 -0.00446
v 0.01336 0.03600 -0.00497
v 0.01263 0.03600 -0.00539
v 0.01185 0.03600 -0.00571
v 0.01104 0.03600 -0.00591
v 0.01021 0.03600 -0.00600
v 0.00937 0.03600 -0.00597
v 0.00855 0.03600 -0.00582
v 0.00775 0.03600 -0.00556
v 0.00700 0.03600 -0.00520
v 0.00631 0.03600 -0.00473
v 0.00568 0.03600 -0.00417
v 0.00515 0.03600 -0.00353
v 0.00470 0.03600 -0.00282
v 0.00436 0.03600 -0.00205
v 0.00413 0.03600 -0.00125
v 0.00401 0.03600 -0.00042
v 0.00401 0.03600 0.00042
v 0.00413 0.03600 0.00125
v 0.00436 0.03600 0.00205
v 0.00470 0.03600 0.00282
v 0.00515 0.03600 0.00353
v 0.00568 0.03600 0.00417
v 0.00631 0.03600 0.00473
v 0.00700 0.03600 0.00520
v 0.00775 0.03600 0.00556
v 0.00855 0.03600 0.00582
v 0.00937 0.03600 0.00597
v 0.01021 0.03600 0.00600
v 0.01104 0.03600 0.00591
v 0.01185 0.03600 0.00571
v 0.01263 0.03600 0.00539
v 0.01336 0.03600 0.00497
v 0.01401 0.03600 0.00446
v 0.01460 0.03600 0.00386
v 0.01509 0.03600 0.00318
v 0.01548 0.03600 0.00244
v 0.01577 0.03600 0.00165
v 0.01594 0.03600 0.00084
vn 1.0000 -0.0000 -0.0000
vn 0.9903 -0.0000 -0.1392
vn 0.9613 -0.0000 -0.2756
vn 0.9135 -0.0000 -0.4067
vn 0.8480 -0.0000 -0.5299
vn 0.7660 -0.0000 -0.6428
vn 0.6691 -0.0000 -0.7431
vn 0.5592 -0.0000 -0.8290
vn 0.4384 -0.0000 -0.8988
vn 0.3090 -0.0000 -0.9511
vn 0.1736 -0.0000 -0.9848
vn 0.0349 -0.0000 -0.9994
vn -0.1045 0.0000 -0.9945
vn -0.2419 0.0000 -0.9703
vn -0.3746 0.0000 -0.9272
vn -0.5000 0.0000 -0.8660
vn -0.6157 0.0000 -0.7880
vn -0.7193 0.0000 -0.6947
vn -0.8090 0.0000 -0.5878
vn -0.8829 0.0000 -0.4695
vn -0.9397 0.0000 -0.3420
vn -0.9781 0.0000 -0.2079
vn -0.9976 0.0000 -0.0698
vn -0.9976 0.0000 0.0698
vn -0.9781 0.0000 0.2079
vn -0.9397 0.0000 0.3420
vn -0.8829 0.0000 0.4695
vn -0.8090 0.0000 0.5878
vn -0.7193 0.0000 0.6947
vn -0.6157 0.0000 0.7880
vn -0.5000 0.0000 0.8660
vn -0.3746 0.0000 0.9272
vn -0.2419 0.0000 0.9703
vn -0.1045 0.0000 0.9945
vn 0.0349 0.0000 0.9994
vn 0.1736 0.0000 0.9848
vn 0.3090 0.0000 0.9511
vn 0.4384 0.0000 0.8988
vn 0.5592 0.0000 0.8290
vn 0.6691 0.0000 0.7431
vn 0.7660 0.0000 0.6428
vn 0.8480 0.0000 0.5299
vn 0.9135 0.0000 0.4067
vn 0.9613 0.0000 0.2756
vn 0.9903 0.0000 0.1392
vn 1.0000 -0.0000 -0.0000
vn 0.9903 -0.0000 -0.1392
vn 0.9613 -0.0000 -0.2756
vn 0.9135 -0.0000 -0.4067
vn 0.8480 -0.0000 -0.5299
vn 0.7660 -0.0000 -0.6428
vn 0.6691 -0.0000 -0.7431
vn 0.5592 -0.0000 -0.8290
vn 0.4384 -0.0000 -0.8988
vn 0.3090 -0.0000 -0.9511
vn 0.1736 -0.0000 -0.9848
vn 0.0349 -0.0000 -0.9994
vn -0.1045 0.0000 -0.9945
vn -0.2419 0.0000 -0.9703
vn -0.3746 0.0000 -0.9272
vn -0.5000 0.0000 -0.8660
vn -0.6157 0.0000 -0.7880
vn -0.7193 0.0000 -0.6947
vn -0.8090 0.0000 -0.5878
vn -0.8829 0.0000 -0.4695
vn -0.9397 0.0000 -0.3420
vn -0.9781 0.0000 -0.2079
vn -0.9976 0.0000 -0.0698
vn -0.9976 0.0000 0.0698
vn -0.9781 0.0000 0.2079
vn -0.9397 0.0000 0.3420
vn -0.8829 0.0000 0.4695
vn -0.8090 0.0000 0.5878
vn -0.7193 0.0000 0.6947
vn -0.6157 0.0000 0.7880
vn -0.5000 0.0000 0.8660
vn -0.3746 0.0000 0.9272
vn -0.2419 0.0000 0.9703
vn -0.1045 0.0000 0.9945
vn 0.0349 0.0000 0.9994
vn 0.1736 0.0000 0.9848
vn 0.3090 0.0000 0.9511
vn 0.4384 0.0000 0.8988
vn 0.5592 0.0000 0.8290
vn 0.6691 0.0000 0.7431
vn 0.7660 0.0000 0.6428
vn 0.8480 0.0000 0.5299
vn 0.9135 0.0000 0.4067
vn 0.9613 0.0000 0.2756
vn 0.9903 0.0000 0.1392
f 538//538 537//537 582//582
f 538//538 582//582 583//583
f 539//539 538//538 583//583
f 539//539 583//583 584//584
f 540//540 539//539 584//584
f 540//540 584//584 585//585
f 541//541 540//540 585//585
f 541//541 585//585 586//586
f 542//542 541//541 586//586
f 542//542 586//586 587//587
f 543//543 542//542 587//587
f 543//543 587//587 588//588
f 544//544 543//543 588//588
f 544//544 588//588 589//589
f 545//545 544//544 589//589
f 545//545 589//589 590//590
f 546//546 545//545 590//590
f 546//546 590//590 591//591
f 547//547 546//546 591//591
f 547//547 591//591 592//592
f 547//547 592//592 593//593
f 548//548 547//547 593//593
f 549//549 548//548 593//593
f 549//549 593//593 594//594
f 550//550 549//549 594//594
f 550//550 594//594 595//595
f 550//550 595//595 596//596
f 551//551 550//550 596//596
f 552//552 551//551 596//596
f 552//552 596//596 597//597
f 553//553 552//552 597//597
f 553//553 597//597 598//598
f 554//554 598//598 599//599
f 554//554 553//553 598//598
f 555//555 599//599 600//600
f 555//555 554//554 599//599
f 556//556 600//600 601//601
f 556//556 555//555 600//600
f 557//557 601//601 602//602
f 557//557 556//556 601//601
f 558//558 602//602 603//603
f 558//558 603//603 604//604
f 558//558 557//557 602//602
f 559//559 558//558 604//604
f 560//560 604//604 605//605
f 560//560 605//605 606//606
f 560//560 559//559 604//604
f 561//561 560//560 606//606
f 562//562 606//606 607//607
f 562//562 607//607 608//608
f 562//562 561//561 606//606
f 563//563 562//562 608//608
f 564//564 563//563 608//608
f 564//564 608//608 609//609
f 565//565 564//564 609//609
f 565//565 609//609 610//610
f 566//566 565//565 610//610
f 566//566 610//610 611//611
f 566//566 611//611 612//612
f 567//567 566//566 612//612
f 568//568 567//567 612//612
f 568//568 612//612 613//613
f 568//568 613//613 614//614
f 569//569 568//568 614//614
f 570//570 569//569 614//614
f 570//570 614//614 615//615
f 571//571 570//570 615//615
f 571//571 615//615 616//616
f 571//571 616//616 617//617
f 572//572 571//571 617//617
f 573//573 572//572 617//617
f 573//573 617//617 618//618
f 574//574 573//573 618//618
f 574//574 618//618 619//619
f 575//575 574//574 619//619
f 575//575 619//619 620//620
f 576//576 575//575 620//620
f 576//576 620//620 621//621
f 577//577 576//576 621//621
f 577//577 621//621 622//622
f 578//578 577//577 622//622
f 578//578 622//622 623//623
f 579//579 578//578 623//623
f 579//579 623//623 624//624
f 580//580 579//579 624//624
f 580//580 624//624 625//625
f 581//581 580//580 625//625
f 581//581 625//625 626//626
f 537//537 581//581 626//626
f 537//537 626//626 582//582
f 562//562 563//563 564//564
f 562//562 564//564 565//565
f 569//569 567//567 568//568
f 571//571 569//569 570//570
f 571//571 567//567 569//569
f 559//559 560//560 561//561
f 559//559 561//561 562//562
f 559//559 565//565 566//566
f 559//559 562//562 565//565
f 573//573 571//571 572//572
f 557//557 558//558 559//559
f 574//574 571//571 573//573
f 574//574 567//567 571//571
f 555//555 556//556 557//557
f 555//555 557//557 559//559
f 576//576 574//574 575//575
f 577//577 574//574 576//576
f 578//578 574//574 577//577
f 551//551 552//552 553//553
f 551//551 553//553 554//554
f 551//551 554//554 555//555
f 580//580 566//566 567//567
f 580//580 578//578 579//579
f 580//580 567//567 574//574
f 580//580 574//574 578//578
f 549//549 550//550 551//551
f 548//548 549//549 551//551
f 548//548 555//555 559//559
f 548//548 551//551 555//555
f 539//539 537//537 538//538
f 539//539 580//580 581//581
f 539//539 581//581 537//537
f 545//545 546//546 547//547
f 544//544 545//545 547//547
f 542//542 539//539 540//540
f 542//542 540//540 541//541
f 542//542 547//547 548//548
f 542//542 548//548 559//559
f 542//542 580//580 539//539
f 542//542 559//559 566//566
f 542//542 566//566 580//580
f 543//543 547//547 542//542
f 543//543 544//544 547//547
f 607//607 609//609 608//608
f 607//607 610//610 609//609
f 614//614 613//613 612//612
f 616//616 615//615 614//614
f 616//616 614//614 612//612
f 604//604 606//606 605//605
f 604//604 607//607 606//606
f 604//604 611//611 610//610
f 604//604 610//610 607//607
f 618//618 617//617 616//616
f 602//602 604//604 603//603
f 619//619 618//618 616//616
f 619//619 616//616 612//612
f 600//600 602//602 601//601
f 600//600 604//604 602//602
f 621//621 620//620 619//619
f 622//622 621//621 619//619
f 623//623 622//622 619//619
f 596//596 598//598 597//597
f 596//596 599//599 598//598
f 596//596 600//600 599//599
f 625//625 612//612 611//611
f 625//625 624//624 623//623
f 625//625 619//619 612//612
f 625//625 623//623 619//619
f 594//594 596//596 595//595
f 593//593 596//596 594//594
f 593//593 604//604 600//600
f 593//593 600//600 596//596
f 584//584 583//583 582//582
f 584//584 626//626 625//625
f 584//584 582//582 626//626
f 590//590 592//592 591//591
f 589//589 592//592 590//590
f 587//587 585//585 584//584
f 587//587 586//586 585//585
f 587//587 593//593 592//592
f 587//587 604//604 593//593
f 587//587 584//584 625//625
f 587//587 611//611 604//604
f 587//587 625//625 611//611
f 588//588 587//587 592//592
f 588//588 592//592 589//589
o output_spline
usemtl PLA_c6c9cc
v 0.01250 0.04150 0.00000
v 0.01246 0.04150 -0.00043
v 0.01235 0.04150 -0.00086
v 0.01217 0.04150 -0.00125
v 0.01192 0.04150 -0.00161
v 0.01161 0.04150 -0.00192
v 0.01125 0.04150 -0.00217
v 0.01086 0.04150 -0.00235
v 0.01043 0.04150 -0.00246
v 0.01000 0.04150 -0.00250
v 0.00957 0.04150 -0.00246
v 0.00914 0.04150 -0.00235
v 0.00875 0.04150 -0.00217
v 0.00839 0.04150 -0.00192
v 0.00808 0.04150 -0.00161
v 0.00783 0.04150 -0.00125
v 0.00765 0.04150 -0.00086
v 0.00754 0.04150 -0.00043
v 0.00750 0.04150 -0.00000
v 0.00754 0.04150 0.00043
v 0.00765 0.04150 0.00086
v 0.00783 0.04150 0.00125
v 0.00808 0.04150 0.00161
v 0.00839 0.04150 0.00192
v 0.00875 0.04150 0.00217
v 0.00914 0.04150 0.00235
v 0.00957 0.04150 0.00246
v 0.01000 0.04150 0.00250
v 0.01043 0.04150 0.00246
v 0.01086 0.04150 0.00235
v 0.01125 0.04150 0.00217
v 0.01161 0.04150 0.00192
v 0.01192 0.04150 0.00161
v 0.01217 0.04150 0.00125
v 0.01235 0.04150 0.00086
v 0.01246 0.04150 0.00043
v 0.01250 0.03800 0.00000
v 0.01246 0.03800 -0.00043
v 0.01235 0.03800 -0.00086
v 0.01217 0.03800 -0.00125
v 0.01192 0.03800 -0.00161
v 0.01161 0.03800 -0.00192
v 0.01125 0.03800 -0.00217
v 0.01086 0.03800 -0.00235
v 0.01043 0.03800 -0.00246
v 0.01000 0.03800 -0.00250
v 0.00957 0.03800 -0.00246
v 0.00914 0.03800 -0.00235
v 0.00875 0.03800 -0.00217
v 0.00839 0.03800 -0.00192
v 0.00808 0.03800 -0.00161
v 0.00783 0.03800 -0.00125
v 0.00765 0.03800 -0.00086
v 0.00754 0.03800 -0.00043
v 0.00750 0.03800 -0.00000
v 0.00754 0.03800 0.00043
v 0.00765 0.03800 0.00086
v 0.00783 0.03800 0.00125
v 0.00808 0.03800 0.00161
v 0.00839 0.03800 0.00192
v 0.00875 0.03800 0.00217
v 0.00914 0.03800 0.00235
v 0.00957 0.03800 0.00246
v 0.01000 0.03800 0.00250
v 0.01043 0.03800 0.00246
v 0.01086 0.03800 0.00235
v 0.01125 0.03800 0.00217
v 0.01161 0.03800 0.00192
v 0.01192 0.03800 0.00161
v 0.01217 0.03800 0.00125
v 0.01235 0.03800 0.00086
v 0.01246 0.03800 0.00043
vn 1.0000 -0.0000 -0.0000
vn 0.9848 -0.0000 -0.1736
vn 0.9397 -0.0000 -0.3420
vn 0.8660 -0.0000 -0.5000
vn 0.7660 -0.0000 -0.6428
vn 0.6428 -0.0000 -0.7660
vn 0.5000 -0.0000 -0.8660
vn 0.3420 -0.0000 -0.9397
vn 0.1736 -0.0000 -0.9848
vn 0.0000 -0.0000 -1.0000
vn -0.1736 0.0000 -0.9848
vn -0.3420 0.0000 -0.9397
vn -0.5000 0.0000 -0.8660
vn -0.6428 0.0000 -0.7660
vn -0.7660 0.0000 -0.6428
vn -0.8660 0.0000 -0.5000
vn -0.9397 0.0000 -0.3420
vn -0.9848 0.0000 -0.1736
vn -1.0000 0.0000 -0.0000
vn -0.9848 0.0000 0.1736
vn -0.9397 0.0000 0.3420
vn -0.8660 0.0000 0.5000
vn -0.7660 0.0000 0.6428
vn -0.6428 0.0000 0.7660
vn -0.5000 0.0000 0.8660
vn -0.3420 0.0000 0.9397
vn -0.1736 0.0000 0.9848
vn -0.0000 0.0000 1.0000
vn 0.1736 0.0000 0.9848
vn 0.3420 0.0000 0.9397
vn 0.5000 0.0000 0.8660
vn 0.6428 0.0000 0.7660
vn 0.7660 0.0000 0.6428
vn 0.8660 0.0000 0.5000
vn 0.9397 0.0000 0.3420
vn 0.9848 0.0000 0.1736
vn 1.0000 -0.0000 -0.0000
vn 0.9848 -0.0000 -0.1736
vn 0.9397 -0.0000 -0.3420
vn 0.8660 -0.0000 -0.5000
vn 0.7660 -0.0000 -0.6428
vn 0.6428 -0.0000 -0.7660
vn 0.5000 -0.0000 -0.8660
vn 0.3420 -0.0000 -0.9397
vn 0.1736 -0.0000 -0.9848
vn 0.0000 -0.0000 -1.0000
vn -0.1736 0.0000 -0.9848
vn -0.3420 0.0000 -0.9397
vn -0.5000 0.0000 -0.8660
vn -0.6428 0.0000 -0.7660
vn -0.7660 0.0000 -0.6428
vn -0.8660 0.0000 -0.5000
vn -0.9397 0.0000 -0.3420
vn -0.9848 0.0000 -0.1736
vn -1.0000 0.0000 -0.0000
vn -0.9848 0.0000 0.1736
vn -0.9397 0.0000 0.3420
vn -0.8660 0.0000 0.5000
vn -0.7660 0.0000 0.6428
vn -0.6428 0.0000 0.7660
vn -0.5000 0.0000 0.8660
vn -0.3420 0.0000 0.9397
vn -0.1736 0.0000 0.9848
vn -0.0000 0.0000 1.0000
vn 0.1736 0.0000 0.9848
vn 0.3420 0.0000 0.9397
vn 0.5000 0.0000 0.8660
vn 0.6428 0.0000 0.7660
vn 0.7660 0.0000 0.6428
vn 0.8660 0.0000 0.5000
vn 0.9397 0.0000 0.3420
vn 0.9848 0.0000 0.1736
f 628//628 627//627 663//663
f 628//628 663//663 664//664
f 629//629 664//664 665//665
f 629//629 628//628 664//664
f 630//630 665//665 666//666
f 630//630 666//666 667//667
f 630//630 629//629 665//665
f 631//631 630//630 667//667
f 632//632 667//667 668//668
f 632//632 668//668 669//669
f 632//632 631//631 667//667
f 633//633 632//632 669//669
f 634//634 633//633 669//669
f 634//634 669//669 670//670
f 635//635 634//634 670//670
f 635//635 670//670 671//671
f 636//636 635//635 671//671
f 636//636 671//671 672//672
f 637//637 636//636 672//672
f 637//637 672//672 673//673
f 638//638 637//637 673//673
f 638//638 673//673 674//674
f 639//639 638//638 674//674
f 639//639 674//674 675//675
f 640//640 639//639 675//675
f 640//640 675//675 676//676
f 640//640 676//676 677//677
f 641//641 640//640 677//677
f 642//642 641//641 677//677
f 642//642 677//677 678//678
f 642//642 678//678 679//679
f 643//643 642//642 679//679
f 644//644 643//643 679//679
f 644//644 679//679 680//680
f 645//645 644//644 680//680
f 645//645 680//680 681//681
f 646//646 645//645 681//681
f 646//646 681//681 682//682
f 647//647 646//646 682//682
f 647//647 682//682 683//683
f 648//648 683//683 684//684
f 648//648 647//647 683//683
f 649//649 684//684 685//685
f 649//649 648//648 684//684
f 650//650 685//685 686//686
f 650//650 686//686 687//687
f 650//650 649//649 685//685
f 651//651 650//650 687//687
f 652//652 687//687 688//688
f 652//652 651//651 687//687
f 653//653 688//688 689//689
f 653//653 652//652 688//688
f 654//654 689//689 690//690
f 654//654 653//653 689//689
f 655//655 690//690 691//691
f 655//655 654//654 690//690
f 656//656 691//691 692//692
f 656//656 655//655 691//691
f 657//657 692//692 693//693
f 657//657 693//693 694//694
f 657//657 656//656 692//692
f 658//658 657//657 694//694
f 659//659 658//658 694//694
f 659//659 694//694 695//695
f 660//660 659//659 695//695
f 660//660 695//695 696//696
f 661//661 660//660 696//696
f 661//661 696//696 697//697
f 662//662 661//661 697//697
f 662//662 697//697 698//698
f 627//627 662//662 698//698
f 627//627 698//698 663//663
f 652//652 648//648 649//649
f 652//652 649//649 650//650
f 652//652 650//650 651//651
f 646//646 647//647 648//648
f 657//657 653//653 654//654
f 657//657 654//654 655//655
f 657//657 655//655 656//656
f 641//641 642//642 643//643
f 641//641 643//643 644//644
f 641//641 644//644 645//645
f 641//641 645//645 646//646
f 659//659 657//657 658//658
f 639//639 640//640 641//641
f 661//661 652//652 653//653
f 661//661 659//659 660//660
f 661//661 653//653 657//657
f 661//661 657//657 659//659
f 637//637 638//638 639//639
f 637//637 639//639 641//641
f 628//628 662//662 627//627
f 635//635 636//636 637//637
f 629//629 661//661 662//662
f 629//629 662//662 628//628
f 632//632 633//633 634//634
f 632//632 634//634 635//635
f 631//631 629//629 630//630
f 631//631 648//648 652//652
f 631//631 646//646 648//648
f 631//631 641//641 646//646
f 631//631 652//652 661//661
f 631//631 637//637 641//641
f 631//631 635//635 637//637
f 631//631 661//661 629//629
f 631//631 632//632 635//635
f 688//688 685//685 684//684
f 688//688 686//686 685//685
f 688//688 687//687 686//686
f 682//682 684//684 683//683
f 693//693 690//690 689//689
f 693//693 691//691 690//690
f 693//693 692//692 691//691
f 677//677 679//679 678//678
f 677//677 680//680 679//679
f 677//677 681//681 680//680
f 677//677 682//682 681//681
f 695//695 694//694 693//693
f 675//675 677//677 676//676
f 697//697 689//689 688//688
f 697//697 696//696 695//695
f 697//697 693//693 689//689
f 697//697 695//695 693//693
f 673//673 675//675 674//674
f 673//673 677//677 675//675
f 664//664 663//663 698//698
f 671//671 673//673 672//672
f 665//665 698//698 697//697
f 665//665 664//664 698//698
f 668//668 670//670 669//669
f 668//668 671//671 670//670
f 667//667 666//666 665//665
f 667//667 688//688 684//684
f 667//667 684//684 682//682
f 667//667 682//682 677//677
f 667//667 697//697 688//688
f 667//667 677//677 673//673
f 667//667 673//673 671//671
f 667//667 665//665 697//697
f 667//667 671//671 668//668
o horn
usemtl PLA_eaeae5
v 0.02000 0.04350 0.00000
v 0.01994 0.04350 -0.00108
v 0.01977 0.04350 -0.00215
v 0.01948 0.04350 -0.00319
v 0.01908 0.04350 -0.00420
v 0.01857 0.04350 -0.00516
v 0.01796 0.04350 -0.00605
v 0.01726 0.04350 -0.00688
v 0.01647 0.04350 -0.00762
v 0.01561 0.04350 -0.00828
v 0.01468 0.04350 -0.00884
v 0.01370 0.04350 -0.00929
v 0.01268 0.04350 -0.00964
v 0.01162 0.04350 -0.00987
v 0.01054 0.04350 -0.00999
v 0.00946 0.04350 -0.00999
v 0.00838 0.04350 -0.00987
v 0.00732 0.04350 -0.00964
v 0.00630 0.04350 -0.00929
v 0.00532 0.04350 -0.00884
v 0.00439 0.04350 -0.00828
v 0.00353 0.04350 -0.00762
v 0.00274 0.04350 -0.00688
v 0.00204 0.04350 -0.00605
v 0.00143 0.04350 -0.00516
v 0.00092 0.04350 -0.00420
v 0.00052 0.04350 -0.00319
v 0.00023 0.04350 -0.00215
v 0.00006 0.04350 -0.00108
v 0.00000 0.04350 0.00000
v 0.00006 0.04350 0.00108
v 0.00023 0.04350 0.00215
v 0.00052 0.04350 0.00319
v 0.00092 0.04350 0.00420
v 0.00143 0.04350 0.00516
v 0.00204 0.04350 0.00605
v 0.00274 0.04350 0.00688
v 0.00353 0.04350 0.00762
v 0.00439 0.04350 0.00828
v 0.00532 0.04350 0.00884
v 0.00630 0.04350 0.00929
v 0.00732 0.04350 0.00964
v 0.00838 0.04350 0.00987
v 0.00946 0.04350 0.00999
v 0.01054 0.04350 0.00999
v 0.01162 0.04350 0.00987
v 0.01268 0.04350 0.00964
v 0.01370 0.04350 0.00929
v 0.01468 0.04350 0.00884
v 0.01561 0.04350 0.00828
v 0.01647 0.04350 0.00762
v 0.01726 0.04350 0.00688
v 0.01796 0.04350 0.00605
v 0.01857 0.04350 0.00516
v 0.01908 0.04350 0.00420
v 0.01948 0.04350 0.00319
v 0.01977 0.04350 0.00215
v 0.01994 0.04350 0.00108
v 0.02000 0.04150 0.00000
v 0.01994 0.04150 -0.00108
v 0.01977 0.04150 -0.00215
v 0.01948 0.04150 -0.00319
v 0.01908 0.04150 -0.00420
v 0.01857 0.04150 -0.00516
v 0.01796 0.04150 -0.00605
v 0.01726 0.04150 -0.00688
v 0.01647 0.04150 -0.00762
v 0.01561 0.04150 -0.00828
v 0.01468 0.04150 -0.00884
v 0.01370 0.04150 -0.00929
v 0.01268 0.04150 -0.00964
v 0.01162 0.04150 -0.00987
v 0.01054 0.04150 -0.00999
v 0.00946 0.04150 -0.00999
v 0.00838 0.04150 -0.00987
v 0.00732 0.04150 -0.00964
v 0.00630 0.04150 -0.00929
v 0.00532 0.04150 -0.00884
v 0.00439 0.04150 -0.00828
v 0.00353 0.04150 -0.00762
v 0.00274 0.04150 -0.00688
v 0.00204 0.04150 -0.00605
v 0.00143 0.04150 -0.00516
v 0.00092 0.04150 -0.00420
v 0.00052 0.04150 -0.00319
v 0.00023 0.04150 -0.00215
v 0.00006 0.04150 -0.00108
v 0.00000 0.04150 0.00000
v 0.00006 0.04150 0.00108
v 0.00023 0.04150 0.00215
v 0.00052 0.04150 0.00319
v 0.00092 0.04150 0.00420
v 0.00143 0.04150 0.00516
v 0.00204 0.04150 0.00605
v 0.00274 0.04150 0.00688
v 0.00353 0.04150 0.00762
v 0.00439 0.04150 0.00828
v 0.00532 0.04150 0.00884
v 0.00630 0.04150 0.00929
v 0.00732 0.04150 0.00964
v 0.00838 0.04150 0.00987
v 0.00946 0.04150 0.00999
v 0.01054 0.04150 0.00999
v 0.01162 0.04150 0.00987
v 0.01268 0.04150 0.00964
v 0.01370 0.04150 0.00929
v 0.01468 0.04150 0.00884
v 0.01561 0.04150 0.00828
v 0.01647 0.04150 0.00762
v 0.01726 0.04150 0.00688
v 0.01796 0.04150 0.00605
v 0.01857 0.04150 0.00516
v 0.01908 0.04150 0.00420
v 0.01948 0.04150 0.00319
v 0.01977 0.04150 0.00215
v 0.01994 0.04150 0.00108
vn 1.0000 -0.0000 -0.0000
vn 0.9941 -0.0000 -0.1081
vn 0.9766 -0.0000 -0.2150
vn 0.9477 -0.0000 -0.3193
vn 0.9076 -0.0000 -0.4199
vn 0.8569 -0.0000 -0.5156
vn 0.7961 -0.0000 -0.6052
vn 0.7260 -0.0000 -0.6877
vn 0.6474 -0.0000 -0.7622
vn 0.5612 -0.0000 -0.8277
vn 0.4684 -0.0000 -0.8835
vn 0.3701 -0.0000 -0.9290
vn 0.2675 -0.0000 -0.9635
vn 0.1618 -0.0000 -0.9868
vn 0.0541 -0.0000 -0.9985
vn -0.0541 0.0000 -0.9985
vn -0.1618 0.0000 -0.9868
vn -0.2675 0.0000 -0.9635
vn -0.3701 0.0000 -0.9290
vn -0.4684 0.0000 -0.8835
vn -0.5612 0.0000 -0.8277
vn -0.6474 0.0000 -0.7622
vn -0.7260 0.0000 -0.6877
vn -0.7961 0.0000 -0.6052
vn -0.8569 0.0000 -0.5156
vn -0.9076 0.0000 -0.4199
vn -0.9477 0.0000 -0.3193
vn -0.9766 0.0000 -0.2150
vn -0.9941 0.0000 -0.1081
vn -1.0000 0.0000 0.0000
vn -0.9941 0.0000 0.1081
vn -0.9766 0.0000 0.2150
vn -0.9477 0.0000 0.3193
vn -0.9076 0.0000 0.4199
vn -0.8569 0.0000 0.5156
vn -0.7961 0.0000 0.6052
vn -0.7260 0.0000 0.6877
vn -0.6474 0.0000 0.7622
vn -0.5612 0.0000 0.8277
vn -0.4684 0.0000 0.8835
vn -0.3701 0.0000 0.9290
vn -0.2675 0.0000 0.9635
vn -0.1618 0.0000 0.9868
vn -0.0541 0.0000 0.9985
vn 0.0541 0.0000 0.9985
vn 0.1618 0.0000 0.9868
vn 0.2675 0.0000 0.9635
vn 0.3701 0.0000 0.9290
vn 0.4684 0.0000 0.8835
vn 0.5612 0.0000 0.8277
vn 0.6474 0.0000 0.7622
vn 0.7260 0.0000 0.6877
vn 0.7961 0.0000 0.6052
vn 0.8569 0.0000 0.5156
vn 0.9076 0.0000 0.4199
vn 0.9477 0.0000 0.3193
vn 0.9766 0.0000 0.2150
vn 0.9941 0.0000 0.1081
vn 1.0000 -0.0000 -0.0000
vn 0.9941 -0.0000 -0.1081
vn 0.9766 -0.0000 -0.2150
vn 0.9477 -0.0000 -0.3193
vn 0.9076 -0.0000 -0.4199
vn 0.8569 -0.0000 -0.5156
vn 0.7961 -0.0000 -0.6052
vn 0.7260 -0.0000 -0.6877
vn 0.6474 -0.0000 -0.7622
vn 0.5612 -0.0000 -0.8277
vn 0.4684 -0.0000 -0.8835
vn 0.3701 -0.0000 -0.9290
vn 0.2675 -0.0000 -0.9635
vn 0.1618 -0.0000 -0.9868
vn 0.0541 -0.0000 -0.9985
vn -0.0541 0.0000 -0.9985
vn -0.1618 0.0000 -0.9868
vn -0.2675 0.0000 -0.9635
vn -0.3701 0.0000 -0.9290
vn -0.4684 0.0000 -0.8835
vn -0.5612 0.0000 -0.8277
vn -0.6474 0.0000 -0.7622
vn -0.7260 0.0000 -0.6877
vn -0.7961 0.0000 -0.6052
vn -0.8569 0.0000 -0.5156
vn -0.9076 0.0000 -0.4199
vn -0.9477 0.0000 -0.3193
vn -0.9766 0.0000 -0.2150
vn -0.9941 0.0000 -0.1081
vn -1.0000 0.0000 0.0000
vn -0.9941 0.0000 0.1081
vn -0.9766 0.0000 0.2150
vn -0.9477 0.0000 0.3193
vn -0.9076 0.0000 0.4199
vn -0.8569 0.0000 0.5156
vn -0.7961 0.0000 0.6052
vn -0.7260 0.0000 0.6877
vn -0.6474 0.0000 0.7622
vn -0.5612 0.0000 0.8277
vn -0.4684 0.0000 0.8835
vn -0.3701 0.0000 0.9290
vn -0.2675 0.0000 0.9635
vn -0.1618 0.0000 0.9868
vn -0.0541 0.0000 0.9985
vn 0.0541 0.0000 0.9985
vn 0.1618 0.0000 0.9868
vn 0.2675 0.0000 0.9635
vn 0.3701 0.0000 0.9290
vn 0.4684 0.0000 0.8835
vn 0.5612 0.0000 0.8277
vn 0.6474 0.0000 0.7622
vn 0.7260 0.0000 0.6877
vn 0.7961 0.0000 0.6052
vn 0.8569 0.0000 0.5156
vn 0.9076 0.0000 0.4199
vn 0.9477 0.0000 0.3193
vn 0.9766 0.0000 0.2150
vn 0.9941 0.0000 0.1081
f 700//700 699//699 757//757
f 700//700 757//757 758//758
f 701//701 700//700 758//758
f 701//701 758//758 759//759
f 702//702 701//701 759//759
f 702//702 759//759 760//760
f 703//703 702//702 760//760
f 703//703 760//760 761//761
f 704//704 703//703 761//761
f 704//704 761//761 762//762
f 705//705 704//704 762//762
f 705//705 762//762 763//763
f 706//706 705//705 763//763
f 706//706 763//763 764//764
f 706//706 764//764 765//765
f 707//707 706//706 765//765
f 708//708 707//707 765//765
f 708//708 765//765 766//766
f 708//708 766//766 767//767
f 709//709 708//708 767//767
f 710//710 709//709 767//767
f 710//710 767//767 768//768
f 711//711 768//768 769//769
f 711//711 710//710 768//768
f 711//711 769//769 770//770
f 712//712 711//711 770//770
f 713//713 770//770 771//771
f 713//713 712//712 770//770
f 714//714 771//771 772//772
f 714//714 713//713 771//771
f 715//715 772//772 773//773
f 715//715 714//714 772//772
f 716//716 773//773 774//774
f 716//716 715//715 773//773
f 717//717 774//774 775//775
f 717//717 716//716 774//774
f 718//718 775//775 776//776
f 718//718 717//717 775//775
f 719//719 776//776 777//777
f 719//719 718//718 776//776
f 720//720 719//719 777//777
f 720//720 777//777 778//778
f 721//721 720//720 778//778
f 721//721 778//778 779//779
f 721//721 779//779 780//780
f 722//722 721//721 780//780
f 723//723 722//722 780//780
f 723//723 780//780 781//781
f 723//723 781//781 782//782
f 724//724 723//723 782//782
f 725//725 724//724 782//782
f 725//725 782//782 783//783
f 726//726 725//725 783//783
f 726//726 783//783 784//784
f 727//727 726//726 784//784
f 727//727 784//784 785//785
f 728//728 727//727 785//785
f 728//728 785//785 786//786
f 729//729 728//728 786//786
f 729//729 786//786 787//787
f 730//730 729//729 787//787
f 730//730 787//787 788//788
f 731//731 730//730 788//788
f 731//731 788//788 789//789
f 731//731 789//789 790//790
f 732//732 731//731 790//790
f 733//733 732//732 790//790
f 733//733 790//790 791//791
f 734//734 733//733 791//791
f 734//734 791//791 792//792
f 735//735 734//734 792//792
f 735//735 792//792 793//793
f 736//736 735//735 793//793
f 736//736 793//793 794//794
f 736//736 794//794 795//795
f 737//737 736//736 795//795
f 738//738 737//737 795//795
f 738//738 795//795 796//796
f 739//739 738//738 796//796
f 739//739 796//796 797//797
f 739//739 797//797 798//798
f 740//740 739//739 798//798
f 741//741 798//798 799//799
f 741//741 799//799 800//800
f 741//741 740//740 798//798
f 742//742 741//741 800//800
f 743//743 800//800 801//801
f 743//743 742//742 800//800
f 744//744 801//801 802//802
f 744//744 743//743 801//801
f 745//745 802//802 803//803
f 745//745 744//744 802//802
f 746//746 745//745 803//803
f 746//746 803//803 804//804
f 747//747 804//804 805//805
f 747//747 746//746 804//804
f 748//748 805//805 806//806
f 748//748 747//747 805//805
f 749//749 806//806 807//807
f 749//749 748//748 806//806
f 750//750 807//807 808//808
f 750//750 749//749 807//807
f 751//751 808//808 809//809
f 751//751 750//750 808//808
f 752//752 809//809 810//810
f 752//752 751//751 809//809
f 753//753 810//810 811//811
f 753//753 811//811 812//812
f 753//753 752//752 810//810
f 754//754 753//753 812//812
f 754//754 812//812 813//813
f 755//755 754//754 813//813
f 756//756 813//813 814//814
f 756//756 814//814 757//757
f 756//756 755//755 813//813
f 699//699 756//756 757//757
f 740//740 738//738 739//739
f 729//729 730//730 731//731
f 729//729 731//731 732//732
f 729//729 732//732 733//733
f 729//729 733//733 734//734
f 729//729 734//734 735//735
f 729//729 735//735 736//736
f 743//743 740//740 741//741
f 743//743 741//741 742//742
f 744//744 736//736 737//737
f 744//744 737//737 738//738
f 744//744 738//738 740//740
f 744//744 729//729 736//736
f 744//744 740//740 743//743
f 726//726 727//727 728//728
f 726//726 728//728 729//729
f 723//723 724//724 725//725
f 723//723 725//725 726//726
f 723//723 744//744 745//745
f 723//723 726//726 729//729
f 723//723 729//729 744//744
f 748//748 745//745 746//746
f 748//748 746//746 747//747
f 749//749 745//745 748//748
f 719//719 745//745 749//749
f 719//719 720//720 721//721
f 719//719 721//721 722//722
f 719//719 722//722 723//723
f 719//719 749//749 750//750
f 719//719 723//723 745//745
f 753//753 750//750 751//751
f 753//753 751//751 752//752
f 754//754 719//719 750//750
f 754//754 750//750 753//753
f 715//715 716//716 717//717
f 714//714 717//717 718//718
f 714//714 715//715 717//717
f 699//699 755//755 756//756
f 711//711 712//712 713//713
f 711//711 713//713 714//714
f 703//703 700//700 701//701
f 703//703 701//701 702//702
f 709//709 710//710 711//711
f 704//704 699//699 700//700
f 704//704 700//700 703//703
f 704//704 755//755 699//699
f 704//704 754//754 755//755
f 708//708 709//709 711//711
f 708//708 711//711 714//714
f 706//706 704//704 705//705
f 706//706 707//707 708//708
f 706//706 718//718 719//719
f 706//706 719//719 754//754
f 706//706 714//714 718//718
f 706//706 708//708 714//714
f 706//706 754//754 704//704
f 798//798 797//797 796//796
f 787//787 789//789 788//788
f 787//787 790//790 789//789
f 787//787 791//791 790//790
f 787//787 792//792 791//791
f 787//787 793//793 792//792
f 787//787 794//794 793//793
f 801//801 799//799 798//798
f 801//801 800//800 799//799
f 802//802 795//795 794//794
f 802//802 796//796 795//795
f 802//802 798//798 796//796
f 802//802 794//794 787//787
f 802//802 801//801 798//798
f 784//784 786//786 785//785
f 784//784 787//787 786//786
f 781//781 783//783 782//782
f 781//781 784//784 783//783
f 781//781 803//803 802//802
f 781//781 787//787 784//784
f 781//781 802//802 787//787
f 806//806 804//804 803//803
f 806//806 805//805 804//804
f 807//807 806//806 803//803
f 777//777 807//807 803//803
f 777//777 779//779 778//778
f 777//777 780//780 779//779
f 777//777 781//781 780//780
f 777//777 808//808 807//807
f 777//777 803//803 781//781
f 811//811 809//809 808//808
f 811//811 810//810 809//809
f 812//812 808//808 777//777
f 812//812 811//811 808//808
f 773//773 775//775 774//774
f 772//772 776//776 775//775
f 772//772 775//775 773//773
f 757//757 814//814 813//813
f 769//769 771//771 770//770
f 769//769 772//772 771//771
f 761//761 759//759 758//758
f 761//761 760//760 759//759
f 767//767 769//769 768//768
f 762//762 758//758 757//757
f 762//762 761//761 758//758
f 762//762 757//757 813//813
f 762//762 813//813 812//812
f 766//766 769//769 767//767
f 766//766 772//772 769//769
f 764//764 763//763 762//762
f 764//764 766//766 765//765
f 764//764 777//777 776//776
f 764//764 812//812 777//777
f 764//764 776//776 772//772
f 764//764 772//772 766//766
f 764//764 762//762 812//812
