# robocad OBJ
mtllib soic8.mtl
o package
usemtl PLA_1e1e21
v -0.00245 0.00040 0.00180
v -0.00245 0.00160 0.00180
v -0.00245 0.00040 -0.00180
v -0.00245 0.00160 -0.00180
v -0.00245 0.00040 0.00183
v -0.00244 0.00040 0.00185
v -0.00243 0.00040 0.00187
v -0.00241 0.00040 0.00190
v -0.00240 0.00040 0.00191
v -0.00238 0.00040 0.00193
v -0.00235 0.00040 0.00194
v -0.00233 0.00040 0.00195
v -0.00230 0.00040 0.00195
v -0.00230 0.00160 0.00195
v -0.00245 0.00160 0.00183
v -0.00244 0.00160 0.00185
v -0.00243 0.00160 0.00187
v -0.00241 0.00160 0.00190
v -0.00240 0.00160 0.00191
v -0.00238 0.00160 0.00193
v -0.00235 0.00160 0.00194
v -0.00233 0.00160 0.00195
v -0.00230 0.00025 0.00180
v -0.00233 0.00025 0.00180
v -0.00235 0.00026 0.00180
v -0.00237 0.00027 0.00180
v -0.00240 0.00029 0.00180
v -0.00241 0.00030 0.00180
v -0.00243 0.00032 0.00180
v -0.00244 0.00035 0.00180
v -0.00245 0.00037 0.00180
v -0.00230 0.00025 -0.00180
v -0.00233 0.00025 -0.00180
v -0.00235 0.00026 -0.00180
v -0.00237 0.00027 -0.00180
v -0.00240 0.00029 -0.00180
v -0.00241 0.00030 -0.00180
v -0.00243 0.00032 -0.00180
v -0.00244 0.00035 -0.00180
v -0.00245 0.00037 -0.00180
v -0.00230 0.00175 0.00180
v -0.00233 0.00175 0.00180
v -0.00235 0.00174 0.00180
v -0.00237 0.00173 0.00180
v -0.00240 0.00171 0.00180
v -0.00241 0.00170 0.00180
v -0.00243 0.00168 0.00180
v -0.00244 0.00165 0.00180
v -0.00245 0.00163 0.00180
v -0.00230 0.00175 -0.00180
v -0.00245 0.00163 -0.00180
v -0.00244 0.00165 -0.00180
v -0.00243 0.00168 -0.00180
v -0.00241 0.00170 -0.00180
v -0.00240 0.00171 -0.00180
v -0.00238 0.00173 -0.00180
v -0.00235 0.00174 -0.00180
v -0.00233 0.00175 -0.00180
v -0.00245 0.00040 -0.00183
v -0.00244 0.00040 -0.00185
v -0.00243 0.00040 -0.00187
v -0.00241 0.00040 -0.00190
v -0.00240 0.00040 -0.00191
v -0.00238 0.00040 -0.00193
v -0.00235 0.00040 -0.00194
v -0.00233 0.00040 -0.00195
v -0.00230 0.00040 -0.00195
v -0.00230 0.00160 -0.00195
v -0.00233 0.00160 -0.00195
v -0.00235 0.00160 -0.00194
v -0.00237 0.00160 -0.00193
v -0.00240 0.00160 -0.00191
v -0.00241 0.00160 -0.00190
v -0.00243 0.00160 -0.00188
v -0.00244 0.00160 -0.00185
v -0.00245 0.00160 -0.00183
v -0.00230 0.00025 0.00183
v -0.00230 0.00026 0.00185
v -0.00230 0.00027 0.00187
v -0.00230 0.00029 0.00190
v -0.00230 0.00030 0.00191
v -0.00230 0.00032 0.00193
v -0.00230 0.00035 0.00194
v -0.00230 0.00037 0.00195
v -0.00233 0.00025 0.00180
v -0.00233 0.00025 0.00181
v -0.00233 0.00025 0.00182
v -0.00236 0.00026 0.00181
v -0.00232 0.00025 0.00182
v -0.00236 0.00026 0.00183
v -0.00239 0.00028 0.00181
v -0.00232 0.00025 0.00183
v -0.00235 0.00026 0.00184
v -0.00239 0.00028 0.00183
v -0.00231 0.00025 0.00183
v -0.00234 0.00026 0.00185
v -0.00238 0.00028 0.00185
v -0.00241 0.00031 0.00183
v -0.00230 0.00025 0.00183
v -0.00233 0.00026 0.00186
v -0.00237 0.00028 0.00187
v -0.00241 0.00031 0.00185
v -0.00243 0.00033 0.00182
v -0.00231 0.00026 0.00186
v -0.00235 0.00028 0.00188
v -0.00239 0.00031 0.00187
v -0.00243 0.00033 0.00184
v -0.00233 0.00028 0.00189
v -0.00237 0.00031 0.00189
v -0.00241 0.00033 0.00187
v -0.00244 0.00037 0.00183
v -0.00231 0.00028 0.00189
v -0.00235 0.00031 0.00191
v -0.00240 0.00033 0.00190
v -0.00243 0.00037 0.00186
v -0.00233 0.00031 0.00191
v -0.00237 0.00033 0.00191
v -0.00241 0.00037 0.00189
v -0.00234 0.00033 0.00193
v -0.00239 0.00037 0.00191
v -0.00232 0.00033 0.00193
v -0.00236 0.00037 0.00193
v -0.00233 0.00037 0.00194
v -0.00230 0.00175 0.00183
v -0.00230 0.00174 0.00185
v -0.00230 0.00173 0.00187
v -0.00230 0.00171 0.00190
v -0.00230 0.00170 0.00191
v -0.00230 0.00168 0.00193
v -0.00230 0.00165 0.00194
v -0.00230 0.00163 0.00195
v -0.00233 0.00175 0.00180
v -0.00233 0.00175 0.00181
v -0.00233 0.00175 0.00182
v -0.00236 0.00174 0.00181
v -0.00232 0.00175 0.00182
v -0.00236 0.00174 0.00183
v -0.00239 0.00172 0.00181
v -0.00232 0.00175 0.00183
v -0.00235 0.00174 0.00184
v -0.00239 0.00172 0.00183
v -0.00231 0.00175 0.00183
v -0.00234 0.00174 0.00185
v -0.00238 0.00172 0.00185
v -0.00241 0.00169 0.00183
v -0.00230 0.00175 0.00183
v -0.00233 0.00174 0.00186
v -0.00237 0.00172 0.00187
v -0.00241 0.00169 0.00185
v -0.00243 0.00167 0.00182
v -0.00231 0.00174 0.00186
v -0.00235 0.00172 0.00188
v -0.00239 0.00169 0.00187
v -0.00243 0.00167 0.00184
v -0.00233 0.00172 0.00189
v -0.00237 0.00169 0.00189
v -0.00241 0.00167 0.00187
v -0.00244 0.00163 0.00183
v -0.00231 0.00172 0.00189
v -0.00235 0.00169 0.00191
v -0.00240 0.00167 0.00190
v -0.00243 0.00163 0.00186
v -0.00233 0.00169 0.00191
v -0.00237 0.00167 0.00191
v -0.00241 0.00163 0.00189
v -0.00234 0.00167 0.00193
v -0.00239 0.00163 0.00191
v -0.00232 0.00167 0.00193
v -0.00236 0.00163 0.00193
v -0.00233 0.00163 0.00194
v 0.00230 0.00160 0.00195
v 0.00230 0.00040 0.00195
v 0.00230 0.00025 0.00180
v 0.00230 0.00025 -0.00180
v -0.00230 0.00025 -0.00183
v -0.00230 0.00026 -0.00185
v -0.00230 0.00027 -0.00187
v -0.00230 0.00029 -0.00190
v -0.00230 0.00030 -0.00191
v -0.00230 0.00032 -0.00193
v -0.00230 0.00035 -0.00194
v -0.00230 0.00037 -0.00195
v -0.00233 0.00025 -0.00180
v -0.00233 0.00025 -0.00181
v -0.00233 0.00025 -0.00182
v -0.00236 0.00026 -0.00181
v -0.00232 0.00025 -0.00182
v -0.00236 0.00026 -0.00183
v -0.00239 0.00028 -0.00181
v -0.00232 0.00025 -0.00183
v -0.00235 0.00026 -0.00184
v -0.00239 0.00028 -0.00183
v -0.00231 0.00025 -0.00183
v -0.00234 0.00026 -0.00185
v -0.00238 0.00028 -0.00185
v -0.00241 0.00031 -0.00183
v -0.00230 0.00025 -0.00183
v -0.00233 0.00026 -0.00186
v -0.00237 0.00028 -0.00187
v -0.00241 0.00031 -0.00185
v -0.00243 0.00033 -0.00182
v -0.00231 0.00026 -0.00186
v -0.00235 0.00028 -0.00188
v -0.00239 0.00031 -0.00187
v -0.00243 0.00033 -0.00184
v -0.00233 0.00028 -0.00189
v -0.00237 0.00031 -0.00189
v -0.00241 0.00033 -0.00187
v -0.00244 0.00037 -0.00183
v -0.00231 0.00028 -0.00189
v -0.00235 0.00031 -0.00191
v -0.00240 0.00033 -0.00190
v -0.00243 0.00037 -0.00186
v -0.00233 0.00031 -0.00191
v -0.00237 0.00033 -0.00191
v -0.00241 0.00037 -0.00189
v -0.00234 0.00033 -0.00193
v -0.00239 0.00037 -0.00191
v -0.00232 0.00033 -0.00193
v -0.00236 0.00037 -0.00193
v -0.00233 0.00037 -0.00194
v 0.00230 0.00175 0.00180
v 0.00230 0.00175 -0.00180
v -0.00230 0.00163 -0.00195
v -0.00230 0.00165 -0.00194
v -0.00230 0.00168 -0.00193
v -0.00230 0.00170 -0.00191
v -0.00230 0.00171 -0.00190
v -0.00230 0.00173 -0.00188
v -0.00230 0.00174 -0.00185
v -0.00230 0.00175 -0.00183
v -0.00233 0.00160 -0.00195
v -0.00233 0.00161 -0.00195
v -0.00233 0.00162 -0.00195
v -0.00236 0.00161 -0.00194
v -0.00232 0.00162 -0.00195
v -0.00236 0.00163 -0.00194
v -0.00239 0.00161 -0.00192
v -0.00232 0.00163 -0.00195
v -0.00235 0.00164 -0.00194
v -0.00239 0.00163 -0.00192
v -0.00231 0.00163 -0.00195
v -0.00234 0.00165 -0.00194
v -0.00238 0.00165 -0.00192
v -0.00241 0.00163 -0.00189
v -0.00230 0.00163 -0.00195
v -0.00233 0.00166 -0.00194
v -0.00237 0.00167 -0.00192
v -0.00241 0.00165 -0.00189
v -0.00243 0.00162 -0.00187
v -0.00231 0.00166 -0.00194
v -0.00235 0.00168 -0.00192
v -0.00239 0.00167 -0.00189
v -0.00243 0.00164 -0.00187
v -0.00233 0.00169 -0.00192
v -0.00237 0.00169 -0.00189
v -0.00241 0.00167 -0.00187
v -0.00244 0.00163 -0.00183
v -0.00231 0.00169 -0.00192
v -0.00235 0.00171 -0.00189
v -0.00240 0.00170 -0.00187
v -0.00243 0.00166 -0.00183
v -0.00233 0.00171 -0.00189
v -0.00237 0.00171 -0.00187
v -0.00241 0.00169 -0.00183
v -0.00234 0.00173 -0.00187
v -0.00239 0.00171 -0.00183
v -0.00232 0.00173 -0.00187
v -0.00236 0.00173 -0.00183
v -0.00233 0.00174 -0.00183
v 0.00230 0.00160 -0.00195
v 0.00230 0.00040 -0.00195
v 0.00230 0.00025 0.00183
v 0.00230 0.00026 0.00185
v 0.00230 0.00027 0.00187
v 0.00230 0.00029 0.00190
v 0.00230 0.00030 0.00191
v 0.00230 0.00032 0.00193
v 0.00230 0.00035 0.00194
v 0.00230 0.00037 0.00195
v 0.00230 0.00175 0.00183
v 0.00230 0.00174 0.00185
v 0.00230 0.00173 0.00187
v 0.00230 0.00171 0.00190
v 0.00230 0.00170 0.00191
v 0.00230 0.00168 0.00193
v 0.00230 0.00165 0.00194
v 0.00230 0.00163 0.00195
v 0.00245 0.00040 0.00180
v 0.00245 0.00160 0.00180
v 0.00245 0.00040 0.00183
v 0.00244 0.00040 0.00185
v 0.00243 0.00040 0.00187
v 0.00241 0.00040 0.00190
v 0.00240 0.00040 0.00191
v 0.00237 0.00040 0.00193
v 0.00235 0.00040 0.00194
v 0.00233 0.00040 0.00195
v 0.00245 0.00160 0.00183
v 0.00244 0.00160 0.00185
v 0.00243 0.00160 0.00187
v 0.00241 0.00160 0.00190
v 0.00240 0.00160 0.00191
v 0.00237 0.00160 0.00193
v 0.00235 0.00160 0.00194
v 0.00233 0.00160 0.00195
v 0.00230 0.00025 -0.00183
v 0.00230 0.00026 -0.00185
v 0.00230 0.00027 -0.00187
v 0.00230 0.00029 -0.00190
v 0.00230 0.00030 -0.00191
v 0.00230 0.00032 -0.00193
v 0.00230 0.00035 -0.00194
v 0.00230 0.00037 -0.00195
v 0.00233 0.00025 0.00180
v 0.00235 0.00026 0.00180
v 0.00237 0.00027 0.00180
v 0.00240 0.00029 0.00180
v 0.00241 0.00030 0.00180
v 0.00243 0.00032 0.00180
v 0.00244 0.00035 0.00180
v 0.00245 0.00037 0.00180
v 0.00233 0.00025 -0.00180
v 0.00235 0.00026 -0.00180
v 0.00237 0.00027 -0.00180
v 0.00240 0.00029 -0.00180
v 0.00241 0.00030 -0.00180
v 0.00243 0.00032 -0.00180
v 0.00244 0.00035 -0.00180
v 0.00245 0.00037 -0.00180
v 0.00245 0.00040 -0.00180
v 0.00230 0.00163 -0.00195
v 0.00230 0.00165 -0.00194
v 0.00230 0.00168 -0.00193
v 0.00230 0.00170 -0.00191
v 0.00230 0.00171 -0.00190
v 0.00230 0.00173 -0.00188
v 0.00230 0.00174 -0.00185
v 0.00230 0.00175 -0.00183
v 0.00233 0.00175 0.00180
v 0.00235 0.00174 0.00180
v 0.00237 0.00173 0.00180
v 0.00240 0.00171 0.00180
v 0.00241 0.00170 0.00180
v 0.00243 0.00168 0.00180
v 0.00244 0.00165 0.00180
v 0.00245 0.00163 0.00180
v 0.00245 0.00160 -0.00180
v 0.00245 0.00163 -0.00180
v 0.00244 0.00165 -0.00180
v 0.00243 0.00168 -0.00180
v 0.00241 0.00170 -0.00180
v 0.00240 0.00171 -0.00180
v 0.00237 0.00173 -0.00180
v 0.00235 0.00174 -0.00180
v 0.00233 0.00175 -0.00180
v 0.00245 0.00040 -0.00183
v 0.00244 0.00040 -0.00185
v 0.00243 0.00040 -0.00187
v 0.00241 0.00040 -0.00190
v 0.00240 0.00040 -0.00191
v 0.00237 0.00040 -0.00193
v 0.00235 0.00040 -0.00194
v 0.00233 0.00040 -0.00195
v 0.00233 0.00160 -0.00195
v 0.00235 0.00160 -0.00194
v 0.00237 0.00160 -0.00193
v 0.00240 0.00160 -0.00191
v 0.00241 0.00160 -0.00190
v 0.00243 0.00160 -0.00188
v 0.00244 0.00160 -0.00185
v 0.00245 0.00160 -0.00183
v 0.00233 0.00025 0.00180
v 0.00233 0.00025 0.00181
v 0.00233 0.00025 0.00182
v 0.00236 0.00026 0.00181
v 0.00232 0.00025 0.00182
v 0.00236 0.00026 0.00183
v 0.00239 0.00028 0.00181
v 0.00232 0.00025 0.00183
v 0.00235 0.00026 0.00184
v 0.00239 0.00028 0.00183
v 0.00231 0.00025 0.00183
v 0.00234 0.00026 0.00185
v 0.00238 0.00028 0.00185
v 0.00241 0.00031 0.00183
v 0.00230 0.00025 0.00183
v 0.00233 0.00026 0.00186
v 0.00237 0.00028 0.00187
v 0.00241 0.00031 0.00185
v 0.00243 0.00033 0.00182
v 0.00231 0.00026 0.00186
v 0.00235 0.00028 0.00188
v 0.00239 0.00031 0.00187
v 0.00243 0.00033 0.00184
v 0.00233 0.00028 0.00189
v 0.00237 0.00031 0.00189
v 0.00241 0.00033 0.00187
v 0.00244 0.00037 0.00183
v 0.00231 0.00028 0.00189
v 0.00235 0.00031 0.00191
v 0.00240 0.00033 0.00190
v 0.00243 0.00037 0.00186
v 0.00233 0.00031 0.00191
v 0.00237 0.00033 0.00191
v 0.00241 0.00037 0.00189
v 0.00234 0.00033 0.00193
v 0.00239 0.00037 0.00191
v 0.00232 0.00033 0.00193
v 0.00236 0.00037 0.00193
v 0.00233 0.00037 0.00194
v 0.00233 0.00175 0.00180
v 0.00233 0.00175 0.00181
v 0.00233 0.00175 0.00182
v 0.00236 0.00174 0.00181
v 0.00232 0.00175 0.00182
v 0.00236 0.00174 0.00183
v 0.00239 0.00172 0.00181
v 0.00232 0.00175 0.00183
v 0.00235 0.00174 0.00184
v 0.00239 0.00172 0.00183
v 0.00231 0.00175 0.00183
v 0.00234 0.00174 0.00185
v 0.00238 0.00172 0.00185
v 0.00241 0.00169 0.00183
v 0.00230 0.00175 0.00183
v 0.00233 0.00174 0.00186
v 0.00237 0.00172 0.00187
v 0.00241 0.00169 0.00185
v 0.00243 0.00167 0.00182
v 0.00231 0.00174 0.00186
v 0.00235 0.00172 0.00188
v 0.00239 0.00169 0.00187
v 0.00243 0.00167 0.00184
v 0.00233 0.00172 0.00189
v 0.00237 0.00169 0.00189
v 0.00241 0.00167 0.00187
v 0.00244 0.00163 0.00183
v 0.00231 0.00172 0.00189
v 0.00235 0.00169 0.00191
v 0.00240 0.00167 0.00190
v 0.00243 0.00163 0.00186
v 0.00233 0.00169 0.00191
v 0.00237 0.00167 0.00191
v 0.00241 0.00163 0.00189
v 0.00234 0.00167 0.00193
v 0.00239 0.00163 0.00191
v 0.00232 0.00167 0.00193
v 0.00236 0.00163 0.00193
v 0.00233 0.00163 0.00194
v 0.00233 0.00025 -0.00180
v 0.00233 0.00025 -0.00181
v 0.00233 0.00025 -0.00182
v 0.00236 0.00026 -0.00181
v 0.00232 0.00025 -0.00182
v 0.00236 0.00026 -0.00183
v 0.00239 0.00028 -0.00181
v 0.00232 0.00025 -0.00183
v 0.00235 0.00026 -0.00184
v 0.00239 0.00028 -0.00183
v 0.00231 0.00025 -0.00183
v 0.00234 0.00026 -0.00185
v 0.00238 0.00028 -0.00185
v 0.00241 0.00031 -0.00183
v 0.00230 0.00025 -0.00183
v 0.00233 0.00026 -0.00186
v 0.00237 0.00028 -0.00187
v 0.00241 0.00031 -0.00185
v 0.00243 0.00033 -0.00182
v 0.00231 0.00026 -0.00186
v 0.00235 0.00028 -0.00188
v 0.00239 0.00031 -0.00187
v 0.00243 0.00033 -0.00184
v 0.00233 0.00028 -0.00189
v 0.00237 0.00031 -0.00189
v 0.00241 0.00033 -0.00187
v 0.00244 0.00037 -0.00183
v 0.00231 0.00028 -0.00189
v 0.00235 0.00031 -0.00191
v 0.00240 0.00033 -0.00190
v 0.00243 0.00037 -0.00186
v 0.00233 0.00031 -0.00191
v 0.00237 0.00033 -0.00191
v 0.00241 0.00037 -0.00189
v 0.00234 0.00033 -0.00193
v 0.00239 0.00037 -0.00191
v 0.00232 0.00033 -0.00193
v 0.00236 0.00037 -0.00193
v 0.00233 0.00037 -0.00194
v 0.00233 0.00160 -0.00195
v 0.00233 0.00161 -0.00195
v 0.00233 0.00162 -0.00195
v 0.00236 0.00161 -0.00194
v 0.00232 0.00162 -0.00195
v 0.00236 0.00163 -0.00194
v 0.00239 0.00161 -0.00192
v 0.00232 0.00163 -0.00195
v 0.00235 0.00164 -0.00194
v 0.00239 0.00163 -0.00192
v 0.00231 0.00163 -0.00195
v 0.00234 0.00165 -0.00194
v 0.00238 0.00165 -0.00192
v 0.00241 0.00163 -0.00189
v 0.00230 0.00163 -0.00195
v 0.00233 0.00166 -0.00194
v 0.00237 0.00167 -0.00192
v 0.00241 0.00165 -0.00189
v 0.00243 0.00162 -0.00187
v 0.00231 0.00166 -0.00194
v 0.00235 0.00168 -0.00192
v 0.00239 0.00167 -0.00189
v 0.00243 0.00164 -0.00187
v 0.00233 0.00169 -0.00192
v 0.00237 0.00169 -0.00189
v 0.00241 0.00167 -0.00187
v 0.00244 0.00163 -0.00183
v 0.00231 0.00169 -0.00192
v 0.00235 0.00171 -0.00189
v 0.00240 0.00170 -0.00187
v 0.00243 0.00166 -0.00183
v 0.00233 0.00171 -0.00189
v 0.00237 0.00171 -0.00187
v 0.00241 0.00169 -0.00183
v 0.00234 0.00173 -0.00187
v 0.00239 0.00171 -0.00183
v 0.00232 0.00173 -0.00187
v 0.00236 0.00173 -0.00183
v 0.00233 0.00174 -0.00183
vn -1.0000 0.0000 0.0000
vn -1.0000 0.0000 0.0000
vn -1.0000 0.0000 0.0000
vn -1.0000 0.0000 0.0000
vn -0.9848 0.0000 0.1736
vn -0.9397 0.0000 0.3420
vn -0.8660 0.0000 0.5000
vn -0.7660 0.0000 0.6428
vn -0.6428 0.0000 0.7660
vn -0.5000 0.0000 0.8660
vn -0.3420 0.0000 0.9397
vn -0.1736 0.0000 0.9848
vn 0.0000 0.0000 1.0000
vn 0.0000 0.0000 1.0000
vn -0.9848 0.0000 0.1736
vn -0.9397 0.0000 0.3420
vn -0.8660 0.0000 0.5000
vn -0.7660 0.0000 0.6428
vn -0.6428 0.0000 0.7660
vn -0.5000 0.0000 0.8660
vn -0.3420 0.0000 0.9397
vn -0.1736 0.0000 0.9848
vn -0.0000 -1.0000 0.0000
vn -0.1736 -0.9848 0.0000
vn -0.3420 -0.9397 0.0000
vn -0.5000 -0.8660 0.0000
vn -0.6428 -0.7660 0.0000
vn -0.7660 -0.6428 0.0000
vn -0.8660 -0.5000 0.0000
vn -0.9397 -0.3420 0.0000
vn -0.9848 -0.1736 0.0000
vn -0.0000 -1.0000 0.0000
vn -0.1736 -0.9848 0.0000
vn -0.3420 -0.9397 0.0000
vn -0.5000 -0.8660 0.0000
vn -0.6428 -0.7660 0.0000
vn -0.7660 -0.6428 0.0000
vn -0.8660 -0.5000 0.0000
vn -0.9397 -0.3420 0.0000
vn -0.9848 -0.1736 0.0000
vn -0.0000 1.0000 0.0000
vn -0.1736 0.9848 0.0000
vn -0.3420 0.9397 0.0000
vn -0.5000 0.8660 0.0000
vn -0.6428 0.7660 0.0000
vn -0.7660 0.6428 0.0000
vn -0.8660 0.5000 0.0000
vn -0.9397 0.3420 0.0000
vn -0.9848 0.1736 0.0000
vn -0.0000 1.0000 0.0000
vn -0.9848 0.1736 0.0000
vn -0.9397 0.3420 0.0000
vn -0.8660 0.5000 0.0000
vn -0.7660 0.6428 0.0000
vn -0.6428 0.7660 0.0000
vn -0.5000 0.8660 0.0000
vn -0.3420 0.9397 0.0000
vn -0.1736 0.9848 0.0000
vn -0.9848 -0.0000 -0.1736
vn -0.9397 -0.0000 -0.3420
vn -0.8660 -0.0000 -0.5000
vn -0.7660 -0.0000 -0.6428
vn -0.6428 -0.0000 -0.7660
vn -0.5000 -0.0000 -0.8660
vn -0.3420 -0.0000 -0.9397
vn -0.1736 -0.0000 -0.9848
vn 0.0000 -0.0000 -1.0000
vn 0.0000 -0.0000 -1.0000
vn -0.1736 -0.0000 -0.9848
vn -0.3420 -0.0000 -0.9397
vn -0.5000 -0.0000 -0.8660
vn -0.6428 -0.0000 -0.7660
vn -0.7660 -0.0000 -0.6428
vn -0.8660 -0.0000 -0.5000
vn -0.9397 -0.0000 -0.3420
vn -0.9848 -0.0000 -0.1736
vn -0.0000 -0.9848 0.1736
vn -0.0000 -0.9397 0.3420
vn -0.0000 -0.8660 0.5000
vn -0.0000 -0.7660 0.6428
vn -0.0000 -0.6428 0.7660
vn -0.0000 -0.5000 0.8660
vn -0.0000 -0.3420 0.9397
vn -0.0000 -0.1736 0.9848
vn -0.2211 -0.9749 0.0249
vn -0.2100 -0.9749 0.0735
vn -0.1884 -0.9749 0.1184
vn -0.4230 -0.9010 0.0965
vn -0.1573 -0.9749 0.1573
vn -0.3909 -0.9010 0.1883
vn -0.6196 -0.7818 0.0698
vn -0.1184 -0.9749 0.1884
vn -0.3392 -0.9010 0.2705
vn -0.5885 -0.7818 0.2059
vn -0.0735 -0.9749 0.2100
vn -0.2705 -0.9010 0.3392
vn -0.5279 -0.7818 0.3317
vn -0.7622 -0.6235 0.1740
vn -0.0249 -0.9749 0.2211
vn -0.1883 -0.9010 0.3909
vn -0.4409 -0.7818 0.4409
vn -0.7044 -0.6235 0.3392
vn -0.8953 -0.4339 0.1009
vn -0.0965 -0.9010 0.4230
vn -0.3317 -0.7818 0.5279
vn -0.6113 -0.6235 0.4875
vn -0.8504 -0.4339 0.2976
vn -0.2059 -0.7818 0.5885
vn -0.4875 -0.6235 0.6113
vn -0.7629 -0.4339 0.4793
vn -0.9505 -0.2225 0.2169
vn -0.0698 -0.7818 0.6196
vn -0.3392 -0.6235 0.7044
vn -0.6371 -0.4339 0.6371
vn -0.8784 -0.2225 0.4230
vn -0.1740 -0.6235 0.7622
vn -0.4793 -0.4339 0.7629
vn -0.7622 -0.2225 0.6079
vn -0.2976 -0.4339 0.8504
vn -0.6079 -0.2225 0.7622
vn -0.1009 -0.4339 0.8953
vn -0.4230 -0.2225 0.8784
vn -0.2169 -0.2225 0.9505
vn -0.0000 0.9848 0.1736
vn -0.0000 0.9397 0.3420
vn -0.0000 0.8660 0.5000
vn -0.0000 0.7660 0.6428
vn -0.0000 0.6428 0.7660
vn -0.0000 0.5000 0.8660
vn -0.0000 0.3420 0.9397
vn -0.0000 0.1736 0.9848
vn -0.2211 0.9749 0.0249
vn -0.2100 0.9749 0.0735
vn -0.1884 0.9749 0.1184
vn -0.4230 0.9010 0.0965
vn -0.1573 0.9749 0.1573
vn -0.3909 0.9010 0.1883
vn -0.6196 0.7818 0.0698
vn -0.1184 0.9749 0.1884
vn -0.3392 0.9010 0.2705
vn -0.5885 0.7818 0.2059
vn -0.0735 0.9749 0.2100
vn -0.2705 0.9010 0.3392
vn -0.5279 0.7818 0.3317
vn -0.7622 0.6235 0.1740
vn -0.0249 0.9749 0.2211
vn -0.1883 0.9010 0.3909
vn -0.4409 0.7818 0.4409
vn -0.7044 0.6235 0.3392
vn -0.8953 0.4339 0.1009
vn -0.0965 0.9010 0.4230
vn -0.3317 0.7818 0.5279
vn -0.6113 0.6235 0.4875
vn -0.8504 0.4339 0.2976
vn -0.2059 0.7818 0.5885
vn -0.4875 0.6235 0.6113
vn -0.7629 0.4339 0.4793
vn -0.9505 0.2225 0.2169
vn -0.0698 0.7818 0.6196
vn -0.3392 0.6235 0.7044
vn -0.6371 0.4339 0.6371
vn -0.8784 0.2225 0.4230
vn -0.1740 0.6235 0.7622
vn -0.4793 0.4339 0.7629
vn -0.7622 0.2225 0.6079
vn -0.2976 0.4339 0.8504
vn -0.6079 0.2225 0.7622
vn -0.1009 0.4339 0.8953
vn -0.4230 0.2225 0.8784
vn -0.2169 0.2225 0.9505
vn 0.0000 -0.0000 1.0000
vn 0.0000 -0.0000 1.0000
vn -0.0000 -1.0000 0.0000
vn -0.0000 -1.0000 0.0000
vn -0.0000 -0.9848 -0.1736
vn -0.0000 -0.9397 -0.3420
vn -0.0000 -0.8660 -0.5000
vn -0.0000 -0.7660 -0.6428
vn -0.0000 -0.6428 -0.7660
vn -0.0000 -0.5000 -0.8660
vn -0.0000 -0.3420 -0.9397
vn -0.0000 -0.1736 -0.9848
vn -0.2211 -0.9749 -0.0249
vn -0.2100 -0.9749 -0.0735
vn -0.1884 -0.9749 -0.1184
vn -0.4230 -0.9010 -0.0965
vn -0.1573 -0.9749 -0.1573
vn -0.3909 -0.9010 -0.1883
vn -0.6196 -0.7818 -0.0698
vn -0.1184 -0.9749 -0.1884
vn -0.3392 -0.9010 -0.2705
vn -0.5885 -0.7818 -0.2059
vn -0.0735 -0.9749 -0.2100
vn -0.2705 -0.9010 -0.3392
vn -0.5279 -0.7818 -0.3317
vn -0.7622 -0.6235 -0.1740
vn -0.0249 -0.9749 -0.2211
vn -0.1883 -0.9010 -0.3909
vn -0.4409 -0.7818 -0.4409
vn -0.7044 -0.6235 -0.3392
vn -0.8953 -0.4339 -0.1009
vn -0.0965 -0.9010 -0.4230
vn -0.3317 -0.7818 -0.5279
vn -0.6113 -0.6235 -0.4875
vn -0.8504 -0.4339 -0.2976
vn -0.2059 -0.7818 -0.5885
vn -0.4875 -0.6235 -0.6113
vn -0.7629 -0.4339 -0.4793
vn -0.9505 -0.2225 -0.2169
vn -0.0698 -0.7818 -0.6196
vn -0.3392 -0.6235 -0.7044
vn -0.6371 -0.4339 -0.6371
vn -0.8784 -0.2225 -0.4230
vn -0.1740 -0.6235 -0.7622
vn -0.4793 -0.4339 -0.7629
vn -0.7622 -0.2225 -0.6079
vn -0.2976 -0.4339 -0.8504
vn -0.6079 -0.2225 -0.7622
vn -0.1009 -0.4339 -0.8953
vn -0.4230 -0.2225 -0.8784
vn -0.2169 -0.2225 -0.9505
vn 0.0000 1.0000 -0.0000
vn 0.0000 1.0000 -0.0000
vn -0.0000 0.1736 -0.9848
vn -0.0000 0.3420 -0.9397
vn -0.0000 0.5000 -0.8660
vn -0.0000 0.6428 -0.7660
vn -0.0000 0.7660 -0.6428
vn -0.0000 0.8660 -0.5000
vn -0.0000 0.9397 -0.3420
vn -0.0000 0.9848 -0.1736
vn -0.2211 0.0249 -0.9749
vn -0.2100 0.0735 -0.9749
vn -0.1884 0.1184 -0.9749
vn -0.4230 0.0965 -0.9010
vn -0.1573 0.1573 -0.9749
vn -0.3909 0.1883 -0.9010
vn -0.6196 0.0698 -0.7818
vn -0.1184 0.1884 -0.9749
vn -0.3392 0.2705 -0.9010
vn -0.5885 0.2059 -0.7818
vn -0.0735 0.2100 -0.9749
vn -0.2705 0.3392 -0.9010
vn -0.5279 0.3317 -0.7818
vn -0.7622 0.1740 -0.6235
vn -0.0249 0.2211 -0.9749
vn -0.1883 0.3909 -0.9010
vn -0.4409 0.4409 -0.7818
vn -0.7044 0.3392 -0.6235
vn -0.8953 0.1009 -0.4339
vn -0.0965 0.4230 -0.9010
vn -0.3317 0.5279 -0.7818
vn -0.6113 0.4875 -0.6235
vn -0.8504 0.2976 -0.4339
vn -0.2059 0.5885 -0.7818
vn -0.4875 0.6113 -0.6235
vn -0.7629 0.4793 -0.4339
vn -0.9505 0.2169 -0.2225
vn -0.0698 0.6196 -0.7818
vn -0.3392 0.7044 -0.6235
vn -0.6371 0.6371 -0.4339
vn -0.8784 0.4230 -0.2225
vn -0.1740 0.7622 -0.6235
vn -0.4793 0.7629 -0.4339
vn -0.7622 0.6079 -0.2225
vn -0.2976 0.8504 -0.4339
vn -0.6079 0.7622 -0.2225
vn -0.1009 0.8953 -0.4339
vn -0.4230 0.8784 -0.2225
vn -0.2169 0.9505 -0.2225
vn -0.0000 0.0000 -1.0000
vn -0.0000 0.0000 -1.0000
vn 0.0000 -0.9848 0.1736
vn 0.0000 -0.9397 0.3420
vn 0.0000 -0.8660 0.5000
vn 0.0000 -0.7660 0.6428
vn 0.0000 -0.6428 0.7660
vn 0.0000 -0.5000 0.8660
vn 0.0000 -0.3420 0.9397
vn 0.0000 -0.1736 0.9848
vn 0.0000 0.9848 0.1736
vn 0.0000 0.9397 0.3420
vn 0.0000 0.8660 0.5000
vn 0.0000 0.7660 0.6428
vn 0.0000 0.6428 0.7660
vn 0.0000 0.5000 0.8660
vn 0.0000 0.3420 0.9397
vn 0.0000 0.1736 0.9848
vn 1.0000 -0.0000 0.0000
vn 1.0000 -0.0000 0.0000
vn 0.9848 -0.0000 0.1736
vn 0.9397 -0.0000 0.3420
vn 0.8660 -0.0000 0.5000
vn 0.7660 -0.0000 0.6428
vn 0.6428 -0.0000 0.7660
vn 0.5000 -0.0000 0.8660
vn 0.3420 -0.0000 0.9397
vn 0.1736 -0.0000 0.9848
vn 0.9848 -0.0000 0.1736
vn 0.9397 -0.0000 0.3420
vn 0.8660 -0.0000 0.5000
vn 0.7660 -0.0000 0.6428
vn 0.6428 -0.0000 0.7660
vn 0.5000 -0.0000 0.8660
vn 0.3420 -0.0000 0.9397
vn 0.1736 -0.0000 0.9848
vn -0.0000 -0.9848 -0.1736
vn -0.0000 -0.9397 -0.3420
vn -0.0000 -0.8660 -0.5000
vn -0.0000 -0.7660 -0.6428
vn -0.0000 -0.6428 -0.7660
vn -0.0000 -0.5000 -0.8660
vn -0.0000 -0.3420 -0.9397
vn -0.0000 -0.1736 -0.9848
vn 0.1736 -0.9848 -0.0000
vn 0.3420 -0.9397 -0.0000
vn 0.5000 -0.8660 -0.0000
vn 0.6428 -0.7660 -0.0000
vn 0.7660 -0.6428 -0.0000
vn 0.8660 -0.5000 -0.0000
vn 0.9397 -0.3420 -0.0000
vn 0.9848 -0.1736 -0.0000
vn 0.1736 -0.9848 -0.0000
vn 0.3420 -0.9397 -0.0000
vn 0.5000 -0.8660 -0.0000
vn 0.6428 -0.7660 -0.0000
vn 0.7660 -0.6428 -0.0000
vn 0.8660 -0.5000 -0.0000
vn 0.9397 -0.3420 -0.0000
vn 0.9848 -0.1736 -0.0000
vn 1.0000 0.0000 -0.0000
vn 0.0000 0.1736 -0.9848
vn 0.0000 0.3420 -0.9397
vn 0.0000 0.5000 -0.8660
vn 0.0000 0.6428 -0.7660
vn 0.0000 0.7660 -0.6428
vn 0.0000 0.8660 -0.5000
vn 0.0000 0.9397 -0.3420
vn 0.0000 0.9848 -0.1736
vn 0.1736 0.9848 0.0000
vn 0.3420 0.9397 0.0000
vn 0.5000 0.8660 0.0000
vn 0.6428 0.7660 0.0000
vn 0.7660 0.6428 0.0000
vn 0.8660 0.5000 0.0000
vn 0.9397 0.3420 0.0000
vn 0.9848 0.1736 0.0000
vn 1.0000 -0.0000 -0.0000
vn 0.9848 0.1736 0.0000
vn 0.9397 0.3420 0.0000
vn 0.8660 0.5000 0.0000
vn 0.7660 0.6428 0.0000
vn 0.6428 0.7660 0.0000
vn 0.5000 0.8660 0.0000
vn 0.3420 0.9397 0.0000
vn 0.1736 0.9848 0.0000
vn 0.9848 -0.0000 -0.1736
vn 0.9397 -0.0000 -0.3420
vn 0.8660 -0.0000 -0.5000
vn 0.7660 -0.0000 -0.6428
vn 0.6428 -0.0000 -0.7660
vn 0.5000 -0.0000 -0.8660
vn 0.3420 -0.0000 -0.9397
vn 0.1736 -0.0000 -0.9848
vn 0.1736 -0.0000 -0.9848
vn 0.3420 -0.0000 -0.9397
vn 0.5000 -0.0000 -0.8660
vn 0.6428 -0.0000 -0.7660
vn 0.7660 -0.0000 -0.6428
vn 0.8660 -0.0000 -0.5000
vn 0.9397 -0.0000 -0.3420
vn 0.9848 -0.0000 -0.1736
vn 0.2211 -0.9749 0.0249
vn 0.2100 -0.9749 0.0735
vn 0.1884 -0.9749 0.1184
vn 0.4230 -0.9010 0.0965
vn 0.1573 -0.9749 0.1573
vn 0.3909 -0.9010 0.1883
vn 0.6196 -0.7818 0.0698
vn 0.1184 -0.9749 0.1884
vn 0.3392 -0.9010 0.2705
vn 0.5885 -0.7818 0.2059
vn 0.0735 -0.9749 0.2100
vn 0.2705 -0.9010 0.3392
vn 0.5279 -0.7818 0.3317
vn 0.7622 -0.6235 0.1740
vn 0.0249 -0.9749 0.2211
vn 0.1883 -0.9010 0.3909
vn 0.4409 -0.7818 0.4409
vn 0.7044 -0.6235 0.3392
vn 0.8953 -0.4339 0.1009
vn 0.0965 -0.9010 0.4230
vn 0.3317 -0.7818 0.5279
vn 0.6113 -0.6235 0.4875
vn 0.8504 -0.4339 0.2976
vn 0.2059 -0.7818 0.5885
vn 0.4875 -0.6235 0.6113
vn 0.7629 -0.4339 0.4793
vn 0.9505 -0.2225 0.2169
vn 0.0698 -0.7818 0.6196
vn 0.3392 -0.6235 0.7044
vn 0.6371 -0.4339 0.6371
vn 0.8784 -0.2225 0.4230
vn 0.1740 -0.6235 0.7622
vn 0.4793 -0.4339 0.7629
vn 0.7622 -0.2225 0.6079
vn 0.2976 -0.4339 0.8504
vn 0.6079 -0.2225 0.7622
vn 0.1009 -0.4339 0.8953
vn 0.4230 -0.2225 0.8784
vn 0.2169 -0.2225 0.9505
vn 0.2211 0.9749 0.0249
vn 0.2100 0.9749 0.0735
vn 0.1884 0.9749 0.1184
vn 0.4230 0.9010 0.0965
vn 0.1573 0.9749 0.1573
vn 0.3909 0.9010 0.1883
vn 0.6196 0.7818 0.0698
vn 0.1184 0.9749 0.1884
vn 0.3392 0.9010 0.2705
vn 0.5885 0.7818 0.2059
vn 0.0735 0.9749 0.2100
vn 0.2705 0.9010 0.3392
vn 0.5279 0.7818 0.3317
vn 0.7622 0.6235 0.1740
vn 0.0249 0.9749 0.2211
vn 0.1883 0.9010 0.3909
vn 0.4409 0.7818 0.4409
vn 0.7044 0.6235 0.3392
vn 0.8953 0.4339 0.1009
vn 0.0965 0.9010 0.4230
vn 0.3317 0.7818 0.5279
vn 0.6113 0.6235 0.4875
vn 0.8504 0.4339 0.2976
vn 0.2059 0.7818 0.5885
vn 0.4875 0.6235 0.6113
vn 0.7629 0.4339 0.4793
vn 0.9505 0.2225 0.2169
vn 0.0698 0.7818 0.6196
vn 0.3392 0.6235 0.7044
vn 0.6371 0.4339 0.6371
vn 0.8784 0.2225 0.4230
vn 0.1740 0.6235 0.7622
vn 0.4793 0.4339 0.7629
vn 0.7622 0.2225 0.6079
vn 0.2976 0.4339 0.8504
vn 0.6079 0.2225 0.7622
vn 0.1009 0.4339 0.8953
vn 0.4230 0.2225 0.8784
vn 0.2169 0.2225 0.9505
vn 0.2211 -0.9749 -0.0249
vn 0.2100 -0.9749 -0.0735
vn 0.1884 -0.9749 -0.1184
vn 0.4230 -0.9010 -0.0965
vn 0.1573 -0.9749 -0.1573
vn 0.3909 -0.9010 -0.1883
vn 0.6196 -0.7818 -0.0698
vn 0.1184 -0.9749 -0.1884
vn 0.3392 -0.9010 -0.2705
vn 0.5885 -0.7818 -0.2059
vn 0.0735 -0.9749 -0.2100
vn 0.2705 -0.9010 -0.3392
vn 0.5279 -0.7818 -0.3317
vn 0.7622 -0.6235 -0.1740
vn 0.0249 -0.9749 -0.2211
vn 0.1883 -0.9010 -0.3909
vn 0.4409 -0.7818 -0.4409
vn 0.7044 -0.6235 -0.3392
vn 0.8953 -0.4339 -0.1009
vn 0.0965 -0.9010 -0.4230
vn 0.3317 -0.7818 -0.5279
vn 0.6113 -0.6235 -0.4875
vn 0.8504 -0.4339 -0.2976
vn 0.2059 -0.7818 -0.5885
vn 0.4875 -0.6235 -0.6113
vn 0.7629 -0.4339 -0.4793
vn 0.9505 -0.2225 -0.2169
vn 0.0698 -0.7818 -0.6196
vn 0.3392 -0.6235 -0.7044
vn 0.6371 -0.4339 -0.6371
vn 0.8784 -0.2225 -0.4230
vn 0.1740 -0.6235 -0.7622
vn 0.4793 -0.4339 -0.7629
vn 0.7622 -0.2225 -0.6079
vn 0.2976 -0.4339 -0.8504
vn 0.6079 -0.2225 -0.7622
vn 0.1009 -0.4339 -0.8953
vn 0.4230 -0.2225 -0.8784
vn 0.2169 -0.2225 -0.9505
vn 0.2211 0.0249 -0.9749
vn 0.2100 0.0735 -0.9749
vn 0.1884 0.1184 -0.9749
vn 0.4230 0.0965 -0.9010
vn 0.1573 0.1573 -0.9749
vn 0.3909 0.1883 -0.9010
vn 0.6196 0.0698 -0.7818
vn 0.1184 0.1884 -0.9749
vn 0.3392 0.2705 -0.9010
vn 0.5885 0.2059 -0.7818
vn 0.0735 0.2100 -0.9749
vn 0.2705 0.3392 -0.9010
vn 0.5279 0.3317 -0.7818
vn 0.7622 0.1740 -0.6235
vn 0.0249 0.2211 -0.9749
vn 0.1883 0.3909 -0.9010
vn 0.4409 0.4409 -0.7818
vn 0.7044 0.3392 -0.6235
vn 0.8953 0.1009 -0.4339
vn 0.0965 0.4230 -0.9010
vn 0.3317 0.5279 -0.7818
vn 0.6113 0.4875 -0.6235
vn 0.8504 0.2976 -0.4339
vn 0.2059 0.5885 -0.7818
vn 0.4875 0.6113 -0.6235
vn 0.7629 0.4793 -0.4339
vn 0.9505 0.2169 -0.2225
vn 0.0698 0.6196 -0.7818
vn 0.3392 0.7044 -0.6235
vn 0.6371 0.6371 -0.4339
vn 0.8784 0.4230 -0.2225
vn 0.1740 0.7622 -0.6235
vn 0.4793 0.7629 -0.4339
vn 0.7622 0.6079 -0.2225
vn 0.2976 0.8504 -0.4339
vn 0.6079 0.7622 -0.2225
vn 0.1009 0.8953 -0.4339
vn 0.4230 0.8784 -0.2225
vn 0.2169 0.9505 -0.2225
f 2//2 3//3 1//1
f 2//2 4//4 3//3
f 15//15 2//2 1//1
f 15//15 1//1 5//5
f 16//16 5//5 6//6
f 16//16 15//15 5//5
f 17//17 6//6 7//7
f 17//17 7//7 8//8
f 17//17 16//16 6//6
f 18//18 17//17 8//8
f 19//19 8//8 9//9
f 19//19 18//18 8//8
f 20//20 9//9 10//10
f 20//20 19//19 9//9
f 21//21 10//10 11//11
f 21//21 20//20 10//10
f 22//22 11//11 12//12
f 22//22 21//21 11//11
f 14//14 12//12 13//13
f 14//14 22//22 12//12
f 40//40 31//31 1//1
f 40//40 1//1 3//3
f 39//39 30//30 31//31
f 39//39 31//31 40//40
f 38//38 29//29 30//30
f 38//38 30//30 39//39
f 37//37 28//28 29//29
f 37//37 29//29 38//38
f 36//36 27//27 28//28
f 36//36 28//28 37//37
f 35//35 25//25 26//26
f 35//35 26//26 27//27
f 35//35 27//27 36//36
f 34//34 24//24 25//25
f 34//34 25//25 35//35
f 33//33 24//24 34//34
f 32//32 23//23 24//24
f 32//32 24//24 33//33
f 51//51 2//2 49//49
f 51//51 4//4 2//2
f 52//52 49//49 48//48
f 52//52 51//51 49//49
f 53//53 48//48 47//47
f 53//53 52//52 48//48
f 54//54 47//47 46//46
f 54//54 53//53 47//47
f 55//55 46//46 45//45
f 55//55 54//54 46//46
f 56//56 45//45 44//44
f 56//56 55//55 45//45
f 57//57 44//44 43//43
f 57//57 56//56 44//44
f 58//58 43//43 42//42
f 58//58 57//57 43//43
f 50//50 42//42 41//41
f 50//50 58//58 42//42
f 4//4 59//59 3//3
f 76//76 60//60 59//59
f 76//76 59//59 4//4
f 75//75 61//61 60//60
f 75//75 60//60 76//76
f 74//74 62//62 61//61
f 74//74 61//61 75//75
f 73//73 63//63 62//62
f 73//73 62//62 74//74
f 72//72 64//64 63//63
f 72//72 63//63 73//73
f 71//71 65//65 64//64
f 71//71 64//64 72//72
f 70//70 66//66 65//65
f 70//70 65//65 71//71
f 69//69 66//66 70//70
f 68//68 67//67 66//66
f 68//68 66//66 69//69
f 5//5 1//1 31//31
f 13//13 12//12 84//84
f 85//85 24//24 23//23
f 85//85 25//25 24//24
f 86//86 85//85 23//23
f 87//87 86//86 23//23
f 88//88 26//26 25//25
f 88//88 25//25 85//85
f 88//88 85//85 86//86
f 89//89 87//87 23//23
f 90//90 88//88 86//86
f 90//90 86//86 87//87
f 91//91 27//27 26//26
f 91//91 28//28 27//27
f 91//91 26//26 88//88
f 92//92 89//89 23//23
f 93//93 90//90 87//87
f 93//93 87//87 89//89
f 94//94 91//91 88//88
f 94//94 88//88 90//90
f 95//95 92//92 23//23
f 96//96 89//89 92//92
f 96//96 93//93 89//89
f 97//97 90//90 93//93
f 97//97 94//94 90//90
f 98//98 29//29 28//28
f 98//98 91//91 94//94
f 98//98 28//28 91//91
f 99//99 23//23 77//77
f 99//99 77//77 78//78
f 99//99 95//95 23//23
f 100//100 92//92 95//95
f 100//100 96//96 92//92
f 101//101 93//93 96//96
f 101//101 97//97 93//93
f 102//102 94//94 97//97
f 102//102 98//98 94//94
f 103//103 30//30 29//29
f 103//103 29//29 98//98
f 104//104 78//78 79//79
f 104//104 99//99 78//78
f 104//104 95//95 99//99
f 104//104 100//100 95//95
f 105//105 96//96 100//100
f 105//105 101//101 96//96
f 106//106 102//102 97//97
f 106//106 97//97 101//101
f 107//107 98//98 102//102
f 107//107 103//103 98//98
f 108//108 100//100 104//104
f 108//108 105//105 100//100
f 109//109 101//101 105//105
f 109//109 106//106 101//101
f 110//110 102//102 106//106
f 110//110 107//107 102//102
f 111//111 31//31 30//30
f 111//111 6//6 5//5
f 111//111 103//103 107//107
f 111//111 5//5 31//31
f 111//111 30//30 103//103
f 112//112 79//79 80//80
f 112//112 80//80 81//81
f 112//112 104//104 79//79
f 112//112 108//108 104//104
f 113//113 109//109 105//105
f 113//113 105//105 108//108
f 114//114 106//106 109//109
f 114//114 110//110 106//106
f 115//115 7//7 6//6
f 115//115 107//107 110//110
f 115//115 6//6 111//111
f 115//115 111//111 107//107
f 116//116 81//81 82//82
f 116//116 112//112 81//81
f 116//116 108//108 112//112
f 116//116 113//113 108//108
f 117//117 114//114 109//109
f 117//117 109//109 113//113
f 118//118 8//8 7//7
f 118//118 110//110 114//114
f 118//118 115//115 110//110
f 118//118 7//7 115//115
f 119//119 113//113 116//116
f 119//119 117//117 113//113
f 120//120 9//9 8//8
f 120//120 10//10 9//9
f 120//120 8//8 118//118
f 120//120 118//118 114//114
f 120//120 114//114 117//117
f 121//121 82//82 83//83
f 121//121 116//116 82//82
f 121//121 119//119 116//116
f 122//122 11//11 10//10
f 122//122 10//10 120//120
f 122//122 117//117 119//119
f 122//122 120//120 117//117
f 123//123 83//83 84//84
f 123//123 12//12 11//11
f 123//123 11//11 122//122
f 123//123 121//121 83//83
f 123//123 119//119 121//121
f 123//123 122//122 119//119
f 123//123 84//84 12//12
f 15//15 49//49 2//2
f 14//14 131//131 22//22
f 132//132 41//41 42//42
f 132//132 42//42 43//43
f 133//133 41//41 132//132
f 134//134 41//41 133//133
f 135//135 43//43 44//44
f 135//135 132//132 43//43
f 135//135 133//133 132//132
f 136//136 41//41 134//134
f 137//137 133//133 135//135
f 137//137 134//134 133//133
f 138//138 44//44 45//45
f 138//138 45//45 46//46
f 138//138 135//135 44//44
f 139//139 41//41 136//136
f 140//140 134//134 137//137
f 140//140 136//136 134//134
f 141//141 135//135 138//138
f 141//141 137//137 135//135
f 142//142 41//41 139//139
f 143//143 139//139 136//136
f 143//143 136//136 140//140
f 144//144 140//140 137//137
f 144//144 137//137 141//141
f 145//145 46//46 47//47
f 145//145 141//141 138//138
f 145//145 138//138 46//46
f 146//146 124//124 41//41
f 146//146 125//125 124//124
f 146//146 41//41 142//142
f 147//147 142//142 139//139
f 147//147 139//139 143//143
f 148//148 143//143 140//140
f 148//148 140//140 144//144
f 149//149 144//144 141//141
f 149//149 141//141 145//145
f 150//150 47//47 48//48
f 150//150 145//145 47//47
f 151//151 126//126 125//125
f 151//151 125//125 146//146
f 151//151 146//146 142//142
f 151//151 142//142 147//147
f 152//152 147//147 143//143
f 152//152 143//143 148//148
f 153//153 144//144 149//149
f 153//153 148//148 144//144
f 154//154 149//149 145//145
f 154//154 145//145 150//150
f 155//155 151//151 147//147
f 155//155 147//147 152//152
f 156//156 152//152 148//148
f 156//156 148//148 153//153
f 157//157 153//153 149//149
f 157//157 149//149 154//154
f 158//158 48//48 49//49
f 158//158 15//15 16//16
f 158//158 154//154 150//150
f 158//158 49//49 15//15
f 158//158 150//150 48//48
f 159//159 127//127 126//126
f 159//159 128//128 127//127
f 159//159 126//126 151//151
f 159//159 151//151 155//155
f 160//160 152//152 156//156
f 160//160 155//155 152//152
f 161//161 156//156 153//153
f 161//161 153//153 157//157
f 162//162 16//16 17//17
f 162//162 157//157 154//154
f 162//162 158//158 16//16
f 162//162 154//154 158//158
f 163//163 129//129 128//128
f 163//163 128//128 159//159
f 163//163 159//159 155//155
f 163//163 155//155 160//160
f 164//164 156//156 161//161
f 164//164 160//160 156//156
f 165//165 17//17 18//18
f 165//165 161//161 157//157
f 165//165 157//157 162//162
f 165//165 162//162 17//17
f 166//166 163//163 160//160
f 166//166 160//160 164//164
f 167//167 18//18 19//19
f 167//167 19//19 20//20
f 167//167 165//165 18//18
f 167//167 161//161 165//165
f 167//167 164//164 161//161
f 168//168 130//130 129//129
f 168//168 129//129 163//163
f 168//168 163//163 166//166
f 169//169 20//20 21//21
f 169//169 167//167 20//20
f 169//169 166//166 164//164
f 169//169 164//164 167//167
f 170//170 131//131 130//130
f 170//170 21//21 22//22
f 170//170 169//169 21//21
f 170//170 130//130 168//168
f 170//170 168//168 166//166
f 170//170 166//166 169//169
f 170//170 22//22 131//131
f 171//171 14//14 13//13
f 171//171 13//13 172//172
f 174//174 23//23 32//32
f 174//174 173//173 23//23
f 59//59 40//40 3//3
f 67//67 182//182 66//66
f 183//183 32//32 33//33
f 183//183 33//33 34//34
f 184//184 32//32 183//183
f 185//185 32//32 184//184
f 186//186 34//34 35//35
f 186//186 183//183 34//34
f 186//186 184//184 183//183
f 187//187 32//32 185//185
f 188//188 184//184 186//186
f 188//188 185//185 184//184
f 189//189 35//35 36//36
f 189//189 36//36 37//37
f 189//189 186//186 35//35
f 190//190 32//32 187//187
f 191//191 185//185 188//188
f 191//191 187//187 185//185
f 192//192 186//186 189//189
f 192//192 188//188 186//186
f 193//193 32//32 190//190
f 194//194 190//190 187//187
f 194//194 187//187 191//191
f 195//195 191//191 188//188
f 195//195 188//188 192//192
f 196//196 37//37 38//38
f 196//196 192//192 189//189
f 196//196 189//189 37//37
f 197//197 175//175 32//32
f 197//197 176//176 175//175
f 197//197 32//32 193//193
f 198//198 193//193 190//190
f 198//198 190//190 194//194
f 199//199 194//194 191//191
f 199//199 191//191 195//195
f 200//200 195//195 192//192
f 200//200 192//192 196//196
f 201//201 38//38 39//39
f 201//201 196//196 38//38
f 202//202 177//177 176//176
f 202//202 176//176 197//197
f 202//202 197//197 193//193
f 202//202 193//193 198//198
f 203//203 198//198 194//194
f 203//203 194//194 199//199
f 204//204 195//195 200//200
f 204//204 199//199 195//195
f 205//205 200//200 196//196
f 205//205 196//196 201//201
f 206//206 202//202 198//198
f 206//206 198//198 203//203
f 207//207 203//203 199//199
f 207//207 199//199 204//204
f 208//208 204//204 200//200
f 208//208 200//200 205//205
f 209//209 39//39 40//40
f 209//209 59//59 60//60
f 209//209 205//205 201//201
f 209//209 40//40 59//59
f 209//209 201//201 39//39
f 210//210 178//178 177//177
f 210//210 179//179 178//178
f 210//210 177//177 202//202
f 210//210 202//202 206//206
f 211//211 203//203 207//207
f 211//211 206//206 203//203
f 212//212 207//207 204//204
f 212//212 204//204 208//208
f 213//213 60//60 61//61
f 213//213 208//208 205//205
f 213//213 209//209 60//60
f 213//213 205//205 209//209
f 214//214 180//180 179//179
f 214//214 179//179 210//210
f 214//214 210//210 206//206
f 214//214 206//206 211//211
f 215//215 207//207 212//212
f 215//215 211//211 207//207
f 216//216 61//61 62//62
f 216//216 212//212 208//208
f 216//216 208//208 213//213
f 216//216 213//213 61//61
f 217//217 214//214 211//211
f 217//217 211//211 215//215
f 218//218 62//62 63//63
f 218//218 63//63 64//64
f 218//218 216//216 62//62
f 218//218 212//212 216//216
f 218//218 215//215 212//212
f 219//219 181//181 180//180
f 219//219 180//180 214//214
f 219//219 214//214 217//217
f 220//220 64//64 65//65
f 220//220 218//218 64//64
f 220//220 217//217 215//215
f 220//220 215//215 218//218
f 221//221 182//182 181//181
f 221//221 65//65 66//66
f 221//221 220//220 65//65
f 221//221 181//181 219//219
f 221//221 219//219 217//217
f 221//221 217//217 220//220
f 221//221 66//66 182//182
f 223//223 50//50 41//41
f 223//223 41//41 222//222
f 51//51 76//76 4//4
f 50//50 231//231 58//58
f 232//232 68//68 69//69
f 232//232 69//69 70//70
f 233//233 68//68 232//232
f 234//234 68//68 233//233
f 235//235 70//70 71//71
f 235//235 232//232 70//70
f 235//235 233//233 232//232
f 236//236 68//68 234//234
f 237//237 233//233 235//235
f 237//237 234//234 233//233
f 238//238 71//71 72//72
f 238//238 72//72 73//73
f 238//238 235//235 71//71
f 239//239 68//68 236//236
f 240//240 234//234 237//237
f 240//240 236//236 234//234
f 241//241 235//235 238//238
f 241//241 237//237 235//235
f 242//242 68//68 239//239
f 243//243 239//239 236//236
f 243//243 236//236 240//240
f 244//244 240//240 237//237
f 244//244 237//237 241//241
f 245//245 73//73 74//74
f 245//245 241//241 238//238
f 245//245 238//238 73//73
f 246//246 224//224 68//68
f 246//246 225//225 224//224
f 246//246 68//68 242//242
f 247//247 242//242 239//239
f 247//247 239//239 243//243
f 248//248 243//243 240//240
f 248//248 240//240 244//244
f 249//249 244//244 241//241
f 249//249 241//241 245//245
f 250//250 74//74 75//75
f 250//250 245//245 74//74
f 251//251 226//226 225//225
f 251//251 225//225 246//246
f 251//251 246//246 242//242
f 251//251 242//242 247//247
f 252//252 247//247 243//243
f 252//252 243//243 248//248
f 253//253 244//244 249//249
f 253//253 248//248 244//244
f 254//254 249//249 245//245
f 254//254 245//245 250//250
f 255//255 251//251 247//247
f 255//255 247//247 252//252
f 256//256 252//252 248//248
f 256//256 248//248 253//253
f 257//257 253//253 249//249
f 257//257 249//249 254//254
f 258//258 75//75 76//76
f 258//258 51//51 52//52
f 258//258 254//254 250//250
f 258//258 76//76 51//51
f 258//258 250//250 75//75
f 259//259 227//227 226//226
f 259//259 228//228 227//227
f 259//259 226//226 251//251
f 259//259 251//251 255//255
f 260//260 252//252 256//256
f 260//260 255//255 252//252
f 261//261 256//256 253//253
f 261//261 253//253 257//257
f 262//262 52//52 53//53
f 262//262 257//257 254//254
f 262//262 258//258 52//52
f 262//262 254//254 258//258
f 263//263 229//229 228//228
f 263//263 228//228 259//259
f 263//263 259//259 255//255
f 263//263 255//255 260//260
f 264//264 256//256 261//261
f 264//264 260//260 256//256
f 265//265 53//53 54//54
f 265//265 261//261 257//257
f 265//265 257//257 262//262
f 265//265 262//262 53//53
f 266//266 263//263 260//260
f 266//266 260//260 264//264
f 267//267 54//54 55//55
f 267//267 55//55 56//56
f 267//267 265//265 54//54
f 267//267 261//261 265//265
f 267//267 264//264 261//261
f 268//268 230//230 229//229
f 268//268 229//229 263//263
f 268//268 263//263 266//266
f 269//269 56//56 57//57
f 269//269 267//267 56//56
f 269//269 266//266 264//264
f 269//269 264//264 267//267
f 270//270 231//231 230//230
f 270//270 57//57 58//58
f 270//270 269//269 57//57
f 270//270 230//230 268//268
f 270//270 268//268 266//266
f 270//270 266//266 269//269
f 270//270 58//58 231//231
f 271//271 67//67 68//68
f 271//271 272//272 67//67
f 280//280 13//13 84//84
f 280//280 172//172 13//13
f 279//279 83//83 82//82
f 279//279 84//84 83//83
f 279//279 280//280 84//84
f 278//278 279//279 82//82
f 277//277 82//82 81//81
f 277//277 278//278 82//82
f 276//276 81//81 80//80
f 276//276 277//277 81//81
f 275//275 79//79 78//78
f 275//275 80//80 79//79
f 275//275 276//276 80//80
f 274//274 275//275 78//78
f 273//273 78//78 77//77
f 273//273 274//274 78//78
f 173//173 77//77 23//23
f 173//173 273//273 77//77
f 288//288 131//131 14//14
f 288//288 14//14 171//171
f 287//287 129//129 130//130
f 287//287 130//130 131//131
f 287//287 131//131 288//288
f 286//286 129//129 287//287
f 285//285 128//128 129//129
f 285//285 129//129 286//286
f 284//284 127//127 128//128
f 284//284 128//128 285//285
f 283//283 125//125 126//126
f 283//283 126//126 127//127
f 283//283 127//127 284//284
f 282//282 125//125 283//283
f 281//281 124//124 125//125
f 281//281 125//125 282//282
f 222//222 41//41 124//124
f 222//222 124//124 281//281
f 299//299 289//289 290//290
f 299//299 291//291 289//289
f 300//300 292//292 291//291
f 300//300 291//291 299//299
f 301//301 293//293 292//292
f 301//301 294//294 293//293
f 301//301 292//292 300//300
f 302//302 294//294 301//301
f 303//303 295//295 294//294
f 303//303 294//294 302//302
f 304//304 296//296 295//295
f 304//304 295//295 303//303
f 305//305 297//297 296//296
f 305//305 296//296 304//304
f 306//306 298//298 297//297
f 306//306 297//297 305//305
f 171//171 172//172 298//298
f 171//171 298//298 306//306
f 314//314 182//182 67//67
f 314//314 67//67 272//272
f 313//313 180//180 181//181
f 313//313 181//181 182//182
f 313//313 182//182 314//314
f 312//312 180//180 313//313
f 311//311 179//179 180//180
f 311//311 180//180 312//312
f 310//310 178//178 179//179
f 310//310 179//179 311//311
f 309//309 176//176 177//177
f 309//309 177//177 178//178
f 309//309 178//178 310//310
f 308//308 176//176 309//309
f 307//307 175//175 176//176
f 307//307 176//176 308//308
f 174//174 32//32 175//175
f 174//174 175//175 307//307
f 330//330 289//289 322//322
f 330//330 331//331 289//289
f 329//329 322//322 321//321
f 329//329 330//330 322//322
f 328//328 321//321 320//320
f 328//328 329//329 321//321
f 327//327 320//320 319//319
f 327//327 328//328 320//320
f 326//326 319//319 318//318
f 326//326 327//327 319//319
f 325//325 317//317 316//316
f 325//325 318//318 317//317
f 325//325 326//326 318//318
f 324//324 316//316 315//315
f 324//324 325//325 316//316
f 323//323 324//324 315//315
f 174//174 315//315 173//173
f 174//174 323//323 315//315
f 332//332 68//68 224//224
f 332//332 271//271 68//68
f 333//333 224//224 225//225
f 333//333 225//225 226//226
f 333//333 332//332 224//224
f 334//334 333//333 226//226
f 335//335 226//226 227//227
f 335//335 227//227 228//228
f 335//335 334//334 226//226
f 336//336 335//335 228//228
f 337//337 228//228 229//229
f 337//337 336//336 228//228
f 338//338 229//229 230//230
f 338//338 337//337 229//229
f 339//339 230//230 231//231
f 339//339 338//338 230//230
f 223//223 231//231 50//50
f 223//223 339//339 231//231
f 349//349 347//347 290//290
f 349//349 290//290 348//348
f 350//350 346//346 347//347
f 350//350 347//347 349//349
f 351//351 345//345 346//346
f 351//351 346//346 350//350
f 352//352 344//344 345//345
f 352//352 345//345 351//351
f 353//353 343//343 344//344
f 353//353 344//344 352//352
f 354//354 342//342 343//343
f 354//354 343//343 353//353
f 355//355 341//341 342//342
f 355//355 342//342 354//354
f 356//356 340//340 341//341
f 356//356 341//341 355//355
f 223//223 222//222 340//340
f 223//223 340//340 356//356
f 348//348 331//331 357//357
f 372//372 357//357 358//358
f 372//372 348//348 357//357
f 371//371 358//358 359//359
f 371//371 372//372 358//358
f 370//370 359//359 360//360
f 370//370 371//371 359//359
f 369//369 360//360 361//361
f 369//369 370//370 360//360
f 368//368 361//361 362//362
f 368//368 369//369 361//361
f 367//367 362//362 363//363
f 367//367 368//368 362//362
f 366//366 363//363 364//364
f 366//366 367//367 363//363
f 365//365 366//366 364//364
f 271//271 364//364 272//272
f 271//271 365//365 364//364
f 291//291 322//322 289//289
f 172//172 280//280 298//298
f 373//373 173//173 315//315
f 373//373 315//315 316//316
f 374//374 173//173 373//373
f 375//375 173//173 374//374
f 376//376 316//316 317//317
f 376//376 373//373 316//316
f 376//376 374//374 373//373
f 377//377 173//173 375//375
f 378//378 374//374 376//376
f 378//378 375//375 374//374
f 379//379 317//317 318//318
f 379//379 318//318 319//319
f 379//379 376//376 317//317
f 380//380 173//173 377//377
f 381//381 375//375 378//378
f 381//381 377//377 375//375
f 382//382 376//376 379//379
f 382//382 378//378 376//376
f 383//383 173//173 380//380
f 384//384 380//380 377//377
f 384//384 377//377 381//381
f 385//385 381//381 378//378
f 385//385 378//378 382//382
f 386//386 319//319 320//320
f 386//386 382//382 379//379
f 386//386 379//379 319//319
f 387//387 273//273 173//173
f 387//387 274//274 273//273
f 387//387 173//173 383//383
f 388//388 383//383 380//380
f 388//388 380//380 384//384
f 389//389 384//384 381//381
f 389//389 381//381 385//385
f 390//390 385//385 382//382
f 390//390 382//382 386//386
f 391//391 320//320 321//321
f 391//391 386//386 320//320
f 392//392 275//275 274//274
f 392//392 274//274 387//387
f 392//392 387//387 383//383
f 392//392 383//383 388//388
f 393//393 388//388 384//384
f 393//393 384//384 389//389
f 394//394 385//385 390//390
f 394//394 389//389 385//385
f 395//395 390//390 386//386
f 395//395 386//386 391//391
f 396//396 392//392 388//388
f 396//396 388//388 393//393
f 397//397 393//393 389//389
f 397//397 389//389 394//394
f 398//398 394//394 390//390
f 398//398 390//390 395//395
f 399//399 321//321 322//322
f 399//399 291//291 292//292
f 399//399 395//395 391//391
f 399//399 322//322 291//291
f 399//399 391//391 321//321
f 400//400 276//276 275//275
f 400//400 277//277 276//276
f 400//400 275//275 392//392
f 400//400 392//392 396//396
f 401//401 393//393 397//397
f 401//401 396//396 393//393
f 402//402 397//397 394//394
f 402//402 394//394 398//398
f 403//403 292//292 293//293
f 403//403 398//398 395//395
f 403//403 399//399 292//292
f 403//403 395//395 399//399
f 404//404 278//278 277//277
f 404//404 277//277 400//400
f 404//404 400//400 396//396
f 404//404 396//396 401//401
f 405//405 397//397 402//402
f 405//405 401//401 397//397
f 406//406 293//293 294//294
f 406//406 402//402 398//398
f 406//406 398//398 403//403
f 406//406 403//403 293//293
f 407//407 404//404 401//401
f 407//407 401//401 405//405
f 408//408 294//294 295//295
f 408//408 295//295 296//296
f 408//408 406//406 294//294
f 408//408 402//402 406//406
f 408//408 405//405 402//402
f 409//409 279//279 278//278
f 409//409 278//278 404//404
f 409//409 404//404 407//407
f 410//410 296//296 297//297
f 410//410 408//408 296//296
f 410//410 407//407 405//405
f 410//410 405//405 408//408
f 411//411 280//280 279//279
f 411//411 297//297 298//298
f 411//411 410//410 297//297
f 411//411 279//279 409//409
f 411//411 409//409 407//407
f 411//411 407//407 410//410
f 411//411 298//298 280//280
f 299//299 290//290 347//347
f 171//171 306//306 288//288
f 412//412 340//340 222//222
f 412//412 341//341 340//340
f 413//413 412//412 222//222
f 414//414 413//413 222//222
f 415//415 342//342 341//341
f 415//415 341//341 412//412
f 415//415 412//412 413//413
f 416//416 414//414 222//222
f 417//417 415//415 413//413
f 417//417 413//413 414//414
f 418//418 343//343 342//342
f 418//418 344//344 343//343
f 418//418 342//342 415//415
f 419//419 416//416 222//222
f 420//420 417//417 414//414
f 420//420 414//414 416//416
f 421//421 418//418 415//415
f 421//421 415//415 417//417
f 422//422 419//419 222//222
f 423//423 416//416 419//419
f 423//423 420//420 416//416
f 424//424 417//417 420//420
f 424//424 421//421 417//417
f 425//425 345//345 344//344
f 425//425 418//418 421//421
f 425//425 344//344 418//418
f 426//426 222//222 281//281
f 426//426 281//281 282//282
f 426//426 422//422 222//222
f 427//427 419//419 422//422
f 427//427 423//423 419//419
f 428//428 420//420 423//423
f 428//428 424//424 420//420
f 429//429 421//421 424//424
f 429//429 425//425 421//421
f 430//430 346//346 345//345
f 430//430 345//345 425//425
f 431//431 282//282 283//283
f 431//431 426//426 282//282
f 431//431 422//422 426//426
f 431//431 427//427 422//422
f 432//432 423//423 427//427
f 432//432 428//428 423//423
f 433//433 429//429 424//424
f 433//433 424//424 428//428
f 434//434 425//425 429//429
f 434//434 430//430 425//425
f 435//435 427//427 431//431
f 435//435 432//432 427//427
f 436//436 428//428 432//432
f 436//436 433//433 428//428
f 437//437 429//429 433//433
f 437//437 434//434 429//429
f 438//438 347//347 346//346
f 438//438 300//300 299//299
f 438//438 430//430 434//434
f 438//438 299//299 347//347
f 438//438 346//346 430//430
f 439//439 283//283 284//284
f 439//439 284//284 285//285
f 439//439 431//431 283//283
f 439//439 435//435 431//431
f 440//440 436//436 432//432
f 440//440 432//432 435//435
f 441//441 433//433 436//436
f 441//441 437//437 433//433
f 442//442 301//301 300//300
f 442//442 434//434 437//437
f 442//442 300//300 438//438
f 442//442 438//438 434//434
f 443//443 285//285 286//286
f 443//443 439//439 285//285
f 443//443 435//435 439//439
f 443//443 440//440 435//435
f 444//444 441//441 436//436
f 444//444 436//436 440//440
f 445//445 302//302 301//301
f 445//445 437//437 441//441
f 445//445 442//442 437//437
f 445//445 301//301 442//442
f 446//446 440//440 443//443
f 446//446 444//444 440//440
f 447//447 303//303 302//302
f 447//447 304//304 303//303
f 447//447 302//302 445//445
f 447//447 445//445 441//441
f 447//447 441//441 444//444
f 448//448 286//286 287//287
f 448//448 443//443 286//286
f 448//448 446//446 443//443
f 449//449 305//305 304//304
f 449//449 304//304 447//447
f 449//449 444//444 446//446
f 449//449 447//447 444//444
f 450//450 287//287 288//288
f 450//450 306//306 305//305
f 450//450 305//305 449//449
f 450//450 448//448 287//287
f 450//450 446//446 448//448
f 450//450 449//449 446//446
f 450//450 288//288 306//306
f 290//290 289//289 331//331
f 290//290 331//331 348//348
f 357//357 331//331 330//330
f 272//272 364//364 314//314
f 451//451 323//323 174//174
f 451//451 324//324 323//323
f 452//452 451//451 174//174
f 453//453 452//452 174//174
f 454//454 325//325 324//324
f 454//454 324//324 451//451
f 454//454 451//451 452//452
f 455//455 453//453 174//174
f 456//456 454//454 452//452
f 456//456 452//452 453//453
f 457//457 326//326 325//325
f 457//457 327//327 326//326
f 457//457 325//325 454//454
f 458//458 455//455 174//174
f 459//459 456//456 453//453
f 459//459 453//453 455//455
f 460//460 457//457 454//454
f 460//460 454//454 456//456
f 461//461 458//458 174//174
f 462//462 455//455 458//458
f 462//462 459//459 455//455
f 463//463 456//456 459//459
f 463//463 460//460 456//456
f 464//464 328//328 327//327
f 464//464 457//457 460//460
f 464//464 327//327 457//457
f 465//465 174//174 307//307
f 465//465 307//307 308//308
f 465//465 461//461 174//174
f 466//466 458//458 461//461
f 466//466 462//462 458//458
f 467//467 459//459 462//462
f 467//467 463//463 459//459
f 468//468 460//460 463//463
f 468//468 464//464 460//460
f 469//469 329//329 328//328
f 469//469 328//328 464//464
f 470//470 308//308 309//309
f 470//470 465//465 308//308
f 470//470 461//461 465//465
f 470//470 466//466 461//461
f 471//471 462//462 466//466
f 471//471 467//467 462//462
f 472//472 468//468 463//463
f 472//472 463//463 467//467
f 473//473 464//464 468//468
f 473//473 469//469 464//464
f 474//474 466//466 470//470
f 474//474 471//471 466//466
f 475//475 467//467 471//471
f 475//475 472//472 467//467
f 476//476 468//468 472//472
f 476//476 473//473 468//468
f 477//477 330//330 329//329
f 477//477 358//358 357//357
f 477//477 469//469 473//473
f 477//477 357//357 330//330
f 477//477 329//329 469//469
f 478//478 309//309 310//310
f 478//478 310//310 311//311
f 478//478 470//470 309//309
f 478//478 474//474 470//470
f 479//479 475//475 471//471
f 479//479 471//471 474//474
f 480//480 472//472 475//475
f 480//480 476//476 472//472
f 481//481 359//359 358//358
f 481//481 473//473 476//476
f 481//481 358//358 477//477
f 481//481 477//477 473//473
f 482//482 311//311 312//312
f 482//482 478//478 311//311
f 482//482 474//474 478//478
f 482//482 479//479 474//474
f 483//483 480//480 475//475
f 483//483 475//475 479//479
f 484//484 360//360 359//359
f 484//484 476//476 480//480
f 484//484 481//481 476//476
f 484//484 359//359 481//481
f 485//485 479//479 482//482
f 485//485 483//483 479//479
f 486//486 361//361 360//360
f 486//486 362//362 361//361
f 486//486 360//360 484//484
f 486//486 484//484 480//480
f 486//486 480//480 483//483
f 487//487 312//312 313//313
f 487//487 482//482 312//312
f 487//487 485//485 482//482
f 488//488 363//363 362//362
f 488//488 362//362 486//486
f 488//488 483//483 485//485
f 488//488 486//486 483//483
f 489//489 313//313 314//314
f 489//489 364//364 363//363
f 489//489 363//363 488//488
f 489//489 487//487 313//313
f 489//489 485//485 487//487
f 489//489 488//488 485//485
f 489//489 314//314 364//364
f 349//349 348//348 372//372
f 223//223 356//356 339//339
f 490//490 365//365 271//271
f 490//490 366//366 365//365
f 491//491 490//490 271//271
f 492//492 491//491 271//271
f 493//493 367//367 366//366
f 493//493 366//366 490//490
f 493//493 490//490 491//491
f 494//494 492//492 271//271
f 495//495 493//493 491//491
f 495//495 491//491 492//492
f 496//496 368//368 367//367
f 496//496 369//369 368//368
f 496//496 367//367 493//493
f 497//497 494//494 271//271
f 498//498 495//495 492//492
f 498//498 492//492 494//494
f 499//499 496//496 493//493
f 499//499 493//493 495//495
f 500//500 497//497 271//271
f 501//501 494//494 497//497
f 501//501 498//498 494//494
f 502//502 495//495 498//498
f 502//502 499//499 495//495
f 503//503 370//370 369//369
f 503//503 496//496 499//499
f 503//503 369//369 496//496
f 504//504 271//271 332//332
f 504//504 332//332 333//333
f 504//504 500//500 271//271
f 505//505 497//497 500//500
f 505//505 501//501 497//497
f 506//506 498//498 501//501
f 506//506 502//502 498//498
f 507//507 499//499 502//502
f 507//507 503//503 499//499
f 508//508 371//371 370//370
f 508//508 370//370 503//503
f 509//509 333//333 334//334
f 509//509 504//504 333//333
f 509//509 500//500 504//504
f 509//509 505//505 500//500
f 510//510 501//501 505//505
f 510//510 506//506 501//501
f 511//511 507//507 502//502
f 511//511 502//502 506//506
f 512//512 503//503 507//507
f 512//512 508//508 503//503
f 513//513 505//505 509//509
f 513//513 510//510 505//505
f 514//514 506//506 510//510
f 514//514 511//511 506//506
f 515//515 507//507 511//511
f 515//515 512//512 507//507
f 516//516 372//372 371//371
f 516//516 350//350 349//349
f 516//516 508//508 512//512
f 516//516 349//349 372//372
f 516//516 371//371 508//508
f 517//517 334//334 335//335
f 517//517 335//335 336//336
f 517//517 509//509 334//334
f 517//517 513//513 509//509
f 518//518 514//514 510//510
f 518//518 510//510 513//513
f 519//519 511//511 514//514
f 519//519 515//515 511//511
f 520//520 351//351 350//350
f 520//520 512//512 515//515
f 520//520 350//350 516//516
f 520//520 516//516 512//512
f 521//521 336//336 337//337
f 521//521 517//517 336//336
f 521//521 513//513 517//517
f 521//521 518//518 513//513
f 522//522 519//519 514//514
f 522//522 514//514 518//518
f 523//523 352//352 351//351
f 523//523 515//515 519//519
f 523//523 520//520 515//515
f 523//523 351//351 520//520
f 524//524 518//518 521//521
f 524//524 522//522 518//518
f 525//525 353//353 352//352
f 525//525 354//354 353//353
f 525//525 352//352 523//523
f 525//525 523//523 519//519
f 525//525 519//519 522//522
f 526//526 337//337 338//338
f 526//526 521//521 337//337
f 526//526 524//524 521//521
f 527//527 355//355 354//354
f 527//527 354//354 525//525
f 527//527 522//522 524//524
f 527//527 525//525 522//522
f 528//528 338//338 339//339
f 528//528 356//356 355//355
f 528//528 355//355 527//527
f 528//528 526//526 338//338
f 528//528 524//524 526//526
f 528//528 527//527 524//524
f 528//528 339//339 356//356
o lead
usemtl PLA_c6c9cc
v -0.00211 0.00000 0.00300
v -0.00211 0.00025 0.00300
v -0.00211 0.00000 0.00195
v -0.00211 0.00025 0.00195
v -0.00171 0.00000 0.00300
v -0.00171 0.00025 0.00300
v -0.00171 0.00000 0.00195
v -0.00171 0.00025 0.00195
vn -1.0000 0.0000 0.0000
vn -1.0000 0.0000 0.0000
vn -1.0000 0.0000 0.0000
vn -1.0000 0.0000 0.0000
vn 1.0000 -0.0000 -0.0000
vn 1.0000 -0.0000 -0.0000
vn 1.0000 -0.0000 -0.0000
vn 1.0000 -0.0000 -0.0000
f 530//530 531//531 529//529
f 530//530 532//532 531//531
f 534//534 533//533 535//535
f 534//534 535//535 536//536
f 534//534 529//529 533//533
f 534//534 530//530 529//529
f 536//536 535//535 531//531
f 536//536 531//531 532//532
f 535//535 529//529 531//531
f 535//535 533//533 529//529
f 536//536 532//532 530//530
f 536//536 530//530 534//534
o lead_2
usemtl PLA_c6c9cc
v -0.00211 0.00000 -0.00195
v -0.00211 0.00025 -0.00195
v -0.00211 0.00000 -0.00300
v -0.00211 0.00025 -0.00300
v -0.00171 0.00000 -0.00195
v -0.00171 0.00025 -0.00195
v -0.00171 0.00000 -0.00300
v -0.00171 0.00025 -0.00300
vn -1.0000 0.0000 0.0000
vn -1.0000 0.0000 0.0000
vn -1.0000 0.0000 0.0000
vn -1.0000 0.0000 0.0000
vn 1.0000 -0.0000 -0.0000
vn 1.0000 -0.0000 -0.0000
vn 1.0000 -0.0000 -0.0000
vn 1.0000 -0.0000 -0.0000
f 538//538 539//539 537//537
f 538//538 540//540 539//539
f 542//542 541//541 543//543
f 542//542 543//543 544//544
f 542//542 537//537 541//541
f 542//542 538//538 537//537
f 544//544 543//543 539//539
f 544//544 539//539 540//540
f 543//543 537//537 539//539
f 543//543 541//541 537//537
f 544//544 540//540 538//538
f 544//544 538//538 542//542
o lead_3
usemtl PLA_c6c9cc
v -0.00084 0.00000 0.00300
v -0.00084 0.00025 0.00300
v -0.00084 0.00000 0.00195
v -0.00084 0.00025 0.00195
v -0.00043 0.00000 0.00300
v -0.00043 0.00025 0.00300
v -0.00043 0.00000 0.00195
v -0.00043 0.00025 0.00195
vn -1.0000 0.0000 0.0000
vn -1.0000 0.0000 0.0000
vn -1.0000 0.0000 0.0000
vn -1.0000 0.0000 0.0000
vn 1.0000 -0.0000 -0.0000
vn 1.0000 -0.0000 -0.0000
vn 1.0000 -0.0000 -0.0000
vn 1.0000 -0.0000 -0.0000
f 546//546 547//547 545//545
f 546//546 548//548 547//547
f 550//550 549//549 551//551
f 550//550 551//551 552//552
f 550//550 545//545 549//549
f 550//550 546//546 545//545
f 552//552 551//551 547//547
f 552//552 547//547 548//548
f 551//551 545//545 547//547
f 551//551 549//549 545//545
f 552//552 548//548 546//546
f 552//552 546//546 550//550
o lead_4
usemtl PLA_c6c9cc
v -0.00084 0.00000 -0.00195
v -0.00084 0.00025 -0.00195
v -0.00084 0.00000 -0.00300
v -0.00084 0.00025 -0.00300
v -0.00043 0.00000 -0.00195
v -0.00043 0.00025 -0.00195
v -0.00043 0.00000 -0.00300
v -0.00043 0.00025 -0.00300
vn -1.0000 0.0000 0.0000
vn -1.0000 0.0000 0.0000
vn -1.0000 0.0000 0.0000
vn -1.0000 0.0000 0.0000
vn 1.0000 -0.0000 -0.0000
vn 1.0000 -0.0000 -0.0000
vn 1.0000 -0.0000 -0.0000
vn 1.0000 -0.0000 -0.0000
f 554//554 555//555 553//553
f 554//554 556//556 555//555
f 558//558 557//557 559//559
f 558//558 559//559 560//560
f 558//558 553//553 557//557
f 558//558 554//554 553//553
f 560//560 559//559 555//555
f 560//560 555//555 556//556
f 559//559 553//553 555//555
f 559//559 557//557 553//553
f 560//560 556//556 554//554
f 560//560 554//554 558//558
o lead_5
usemtl PLA_c6c9cc
v 0.00044 0.00000 0.00300
v 0.00044 0.00025 0.00300
v 0.00044 0.00000 0.00195
v 0.00044 0.00025 0.00195
v 0.00084 0.00000 0.00300
v 0.00084 0.00025 0.00300
v 0.00084 0.00000 0.00195
v 0.00084 0.00025 0.00195
vn -1.0000 0.0000 0.0000
vn -1.0000 0.0000 0.0000
vn -1.0000 0.0000 0.0000
vn -1.0000 0.0000 0.0000
vn 1.0000 -0.0000 -0.0000
vn 1.0000 -0.0000 -0.0000
vn 1.0000 -0.0000 -0.0000
vn 1.0000 -0.0000 -0.0000
f 562//562 563//563 561//561
f 562//562 564//564 563//563
f 566//566 565//565 567//567
f 566//566 567//567 568//568
f 566//566 561//561 565//565
f 566//566 562//562 561//561
f 568//568 567//567 563//563
f 568//568 563//563 564//564
f 567//567 561//561 563//563
f 567//567 565//565 561//561
f 568//568 564//564 562//562
f 568//568 562//562 566//566
o lead_6
usemtl PLA_c6c9cc
v 0.00044 0.00000 -0.00195
v 0.00044 0.00025 -0.00195
v 0.00044 0.00000 -0.00300
v 0.00044 0.00025 -0.00300
v 0.00084 0.00000 -0.00195
v 0.00084 0.00025 -0.00195
v 0.00084 0.00000 -0.00300
v 0.00084 0.00025 -0.00300
vn -1.0000 0.0000 0.0000
vn -1.0000 0.0000 0.0000
vn -1.0000 0.0000 0.0000
vn -1.0000 0.0000 0.0000
vn 1.0000 -0.0000 -0.0000
vn 1.0000 -0.0000 -0.0000
vn 1.0000 -0.0000 -0.0000
vn 1.0000 -0.0000 -0.0000
f 570//570 571//571 569//569
f 570//570 572//572 571//571
f 574//574 573//573 575//575
f 574//574 575//575 576//576
f 574//574 569//569 573//573
f 574//574 570//570 569//569
f 576//576 575//575 571//571
f 576//576 571//571 572//572
f 575//575 569//569 571//571
f 575//575 573//573 569//569
f 576//576 572//572 570//570
f 576//576 570//570 574//574
o lead_7
usemtl PLA_c6c9cc
v 0.00171 0.00000 0.00300
v 0.00171 0.00025 0.00300
v 0.00171 0.00000 0.00195
v 0.00171 0.00025 0.00195
v 0.00211 0.00000 0.00300
v 0.00211 0.00025 0.00300
v 0.00211 0.00000 0.00195
v 0.00211 0.00025 0.00195
vn -1.0000 0.0000 0.0000
vn -1.0000 0.0000 0.0000
vn -1.0000 0.0000 0.0000
vn -1.0000 0.0000 0.0000
vn 1.0000 -0.0000 -0.0000
vn 1.0000 -0.0000 -0.0000
vn 1.0000 -0.0000 -0.0000
vn 1.0000 -0.0000 -0.0000
f 578//578 579//579 577//577
f 578//578 580//580 579//579
f 582//582 581//581 583//583
f 582//582 583//583 584//584
f 582//582 577//577 581//581
f 582//582 578//578 577//577
f 584//584 583//583 579//579
f 584//584 579//579 580//580
f 583//583 577//577 579//579
f 583//583 581//581 577//577
f 584//584 580//580 578//578
f 584//584 578//578 582//582
o lead_8
usemtl PLA_c6c9cc
v 0.00171 0.00000 -0.00195
v 0.00171 0.00025 -0.00195
v 0.00171 0.00000 -0.00300
v 0.00171 0.00025 -0.00300
v 0.00211 0.00000 -0.00195
v 0.00211 0.00025 -0.00195
v 0.00211 0.00000 -0.00300
v 0.00211 0.00025 -0.00300
vn -1.0000 0.0000 0.0000
vn -1.0000 0.0000 0.0000
vn -1.0000 0.0000 0.0000
vn -1.0000 0.0000 0.0000
vn 1.0000 -0.0000 -0.0000
vn 1.0000 -0.0000 -0.0000
vn 1.0000 -0.0000 -0.0000
vn 1.0000 -0.0000 -0.0000
f 586//586 587//587 585//585
f 586//586 588//588 587//587
f 590//590 589//589 591//591
f 590//590 591//591 592//592
f 590//590 585//585 589//589
f 590//590 586//586 585//585
f 592//592 591//591 587//587
f 592//592 587//587 588//588
f 591//591 585//585 587//587
f 591//591 589//589 585//585
f 592//592 588//588 586//586
f 592//592 586//586 590//590
o pin_1
usemtl PLA_59595e
v -0.00125 0.00177 0.00110
v -0.00126 0.00177 0.00104
v -0.00127 0.00177 0.00098
v -0.00130 0.00177 0.00093
v -0.00133 0.00177 0.00088
v -0.00138 0.00177 0.00083
v -0.00143 0.00177 0.00080
v -0.00148 0.00177 0.00077
v -0.00154 0.00177 0.00076
v -0.00160 0.00177 0.00075
v -0.00166 0.00177 0.00076
v -0.00172 0.00177 0.00077
v -0.00177 0.00177 0.00080
v -0.00182 0.00177 0.00083
v -0.00187 0.00177 0.00088
v -0.00190 0.00177 0.00092
v -0.00193 0.00177 0.00098
v -0.00194 0.00177 0.00104
v -0.00195 0.00177 0.00110
v -0.00194 0.00177 0.00116
v -0.00193 0.00177 0.00122
v -0.00190 0.00177 0.00127
v -0.00187 0.00177 0.00132
v -0.00182 0.00177 0.00137
v -0.00178 0.00177 0.00140
v -0.00172 0.00177 0.00143
v -0.00166 0.00177 0.00144
v -0.00160 0.00177 0.00145
v -0.00154 0.00177 0.00144
v -0.00148 0.00177 0.00143
v -0.00143 0.00177 0.00140
v -0.00138 0.00177 0.00137
v -0.00133 0.00177 0.00132
v -0.00130 0.00177 0.00128
v -0.00127 0.00177 0.00122
v -0.00126 0.00177 0.00116
v -0.00125 0.00175 0.00110
v -0.00126 0.00175 0.00104
v -0.00127 0.00175 0.00098
v -0.00130 0.00175 0.00093
v -0.00133 0.00175 0.00088
v -0.00138 0.00175 0.00083
v -0.00143 0.00175 0.00080
v -0.00148 0.00175 0.00077
v -0.00154 0.00175 0.00076
v -0.00160 0.00175 0.00075
v -0.00166 0.00175 0.00076
v -0.00172 0.00175 0.00077
v -0.00177 0.00175 0.00080
v -0.00182 0.00175 0.00083
v -0.00187 0.00175 0.00088
v -0.00190 0.00175 0.00092
v -0.00193 0.00175 0.00098
v -0.00194 0.00175 0.00104
v -0.00195 0.00175 0.00110
v -0.00194 0.00175 0.00116
v -0.00193 0.00175 0.00122
v -0.00190 0.00175 0.00127
v -0.00187 0.00175 0.00132
v -0.00182 0.00175 0.00137
v -0.00178 0.00175 0.00140
v -0.00172 0.00175 0.00143
v -0.00166 0.00175 0.00144
v -0.00160 0.00175 0.00145
v -0.00154 0.00175 0.00144
v -0.00148 0.00175 0.00143
v -0.00143 0.00175 0.00140
v -0.00138 0.00175 0.00137
v -0.00133 0.00175 0.00132
v -0.00130 0.00175 0.00128
v -0.00127 0.00175 0.00122
v -0.00126 0.00175 0.00116
vn 1.0000 -0.0000 -0.0000
vn 0.9848 -0.0000 -0.1736
vn 0.9397 -0.0000 -0.3420
vn 0.8660 -0.0000 -0.5000
vn 0.7660 -0.0000 -0.6428
vn 0.6428 -0.0000 -0.7660
vn 0.5000 -0.0000 -0.8660
vn 0.3420 -0.0000 -0.9397
vn 0.1736 -0.0000 -0.9848
vn 0.0000 -0.0000 -1.0000
vn -0.1736 0.0000 -0.9848
vn -0.3420 0.0000 -0.9397
vn -0.5000 0.0000 -0.8660
vn -0.6428 0.0000 -0.7660
vn -0.7660 0.0000 -0.6428
vn -0.8660 0.0000 -0.5000
vn -0.9397 0.0000 -0.3420
vn -0.9848 0.0000 -0.1736
vn -1.0000 0.0000 -0.0000
vn -0.9848 0.0000 0.1736
vn -0.9397 0.0000 0.3420
vn -0.8660 0.0000 0.5000
vn -0.7660 0.0000 0.6428
vn -0.6428 0.0000 0.7660
vn -0.5000 0.0000 0.8660
vn -0.3420 0.0000 0.9397
vn -0.1736 0.0000 0.9848
vn -0.0000 0.0000 1.0000
vn 0.1736 0.0000 0.9848
vn 0.3420 0.0000 0.9397
vn 0.5000 0.0000 0.8660
vn 0.6428 0.0000 0.7660
vn 0.7660 0.0000 0.6428
vn 0.8660 0.0000 0.5000
vn 0.9397 0.0000 0.3420
vn 0.9848 0.0000 0.1736
vn 1.0000 -0.0000 -0.0000
vn 0.9848 -0.0000 -0.1736
vn 0.9397 -0.0000 -0.3420
vn 0.8660 -0.0000 -0.5000
vn 0.7660 -0.0000 -0.6428
vn 0.6428 -0.0000 -0.7660
vn 0.5000 -0.0000 -0.8660
vn 0.3420 -0.0000 -0.9397
vn 0.1736 -0.0000 -0.9848
vn 0.0000 -0.0000 -1.0000
vn -0.1736 0.0000 -0.9848
vn -0.3420 0.0000 -0.9397
vn -0.5000 0.0000 -0.8660
vn -0.6428 0.0000 -0.7660
vn -0.7660 0.0000 -0.6428
vn -0.8660 0.0000 -0.5000
vn -0.9397 0.0000 -0.3420
vn -0.9848 0.0000 -0.1736
vn -1.0000 0.0000 -0.0000
vn -0.9848 0.0000 0.1736
vn -0.9397 0.0000 0.3420
vn -0.8660 0.0000 0.5000
vn -0.7660 0.0000 0.6428
vn -0.6428 0.0000 0.7660
vn -0.5000 0.0000 0.8660
vn -0.3420 0.0000 0.9397
vn -0.1736 0.0000 0.9848
vn -0.0000 0.0000 1.0000
vn 0.1736 0.0000 0.9848
vn 0.3420 0.0000 0.9397
vn 0.5000 0.0000 0.8660
vn 0.6428 0.0000 0.7660
vn 0.7660 0.0000 0.6428
vn 0.8660 0.0000 0.5000
vn 0.9397 0.0000 0.3420
vn 0.9848 0.0000 0.1736
f 594//594 593//593 629//629
f 594//594 629//629 630//630
f 595//595 630//630 631//631
f 595//595 594//594 630//630
f 596//596 631//631 632//632
f 596//596 595//595 631//631
f 597//597 632//632 633//633
f 597//597 596//596 632//632
f 598//598 633//633 634//634
f 598//598 597//597 633//633
f 599//599 598//598 634//634
f 599//599 634//634 635//635
f 600//600 599//599 635//635
f 600//600 635//635 636//636
f 601//601 600//600 636//636
f 601//601 636//636 637//637
f 602//602 601//601 637//637
f 602//602 637//637 638//638
f 603//603 602//602 638//638
f 603//603 638//638 639//639
f 604//604 603//603 639//639
f 604//604 639//639 640//640
f 605//605 604//604 640//640
f 605//605 640//640 641//641
f 606//606 605//605 641//641
f 606//606 641//641 642//642
f 607//607 606//606 642//642
f 607//607 642//642 643//643
f 608//608 607//607 643//643
f 608//608 643//643 644//644
f 609//609 608//608 644//644
f 609//609 644//644 645//645
f 610//610 609//609 645//645
f 610//610 645//645 646//646
f 611//611 610//610 646//646
f 611//611 646//646 647//647
f 612//612 647//647 648//648
f 612//612 611//611 647//647
f 613//613 648//648 649//649
f 613//613 612//612 648//648
f 614//614 613//613 649//649
f 614//614 649//649 650//650
f 615//615 650//650 651//651
f 615//615 614//614 650//650
f 616//616 651//651 652//652
f 616//616 615//615 651//651
f 617//617 652//652 653//653
f 617//617 616//616 652//652
f 618//618 653//653 654//654
f 618//618 617//617 653//653
f 619//619 654//654 655//655
f 619//619 618//618 654//654
f 620//620 655//655 656//656
f 620//620 619//619 655//655
f 621//621 656//656 657//657
f 621//621 620//620 656//656
f 622//622 657//657 658//658
f 622//622 621//621 657//657
f 623//623 658//658 659//659
f 623//623 622//622 658//658
f 624//624 623//623 659//659
f 624//624 659//659 660//660
f 625//625 624//624 660//660
f 625//625 660//660 661//661
f 626//626 625//625 661//661
f 626//626 661//661 662//662
f 627//627 626//626 662//662
f 627//627 662//662 663//663
f 628//628 627//627 663//663
f 628//628 663//663 664//664
f 593//593 628//628 664//664
f 593//593 664//664 629//629
f 624//624 622//622 623//623
f 607//607 608//608 609//609
f 626//626 624//624 625//625
f 605//605 606//606 607//607
f 600//600 601//601 602//602
f 597//597 593//593 594//594
f 597//597 594//594 595//595
f 597//597 595//595 596//596
f 597//597 598//598 599//599
f 597//597 599//599 600//600
f 597//597 602//602 603//603
f 597//597 603//603 604//604
f 597//597 604//604 605//605
f 597//597 609//609 610//610
f 597//597 610//610 611//611
f 597//597 611//611 612//612
f 597//597 612//612 613//613
f 597//597 613//613 614//614
f 597//597 614//614 615//615
f 597//597 615//615 616//616
f 597//597 616//616 617//617
f 597//597 617//617 618//618
f 597//597 618//618 619//619
f 597//597 619//619 620//620
f 597//597 620//620 621//621
f 597//597 621//621 622//622
f 597//597 626//626 627//627
f 597//597 627//627 628//628
f 597//597 628//628 593//593
f 597//597 622//622 624//624
f 597//597 624//624 626//626
f 597//597 607//607 609//609
f 597//597 605//605 607//607
f 597//597 600//600 602//602
f 660//660 659//659 658//658
f 643//643 645//645 644//644
f 662//662 661//661 660//660
f 641//641 643//643 642//642
f 636//636 638//638 637//637
f 633//633 630//630 629//629
f 633//633 631//631 630//630
f 633//633 632//632 631//631
f 633//633 635//635 634//634
f 633//633 636//636 635//635
f 633//633 639//639 638//638
f 633//633 640//640 639//639
f 633//633 641//641 640//640
f 633//633 646//646 645//645
f 633//633 647//647 646//646
f 633//633 648//648 647//647
f 633//633 649//649 648//648
f 633//633 650//650 649//649
f 633//633 651//651 650//650
f 633//633 652//652 651//651
f 633//633 653//653 652//652
f 633//633 654//654 653//653
f 633//633 655//655 654//654
f 633//633 656//656 655//655
f 633//633 657//657 656//656
f 633//633 658//658 657//657
f 633//633 663//663 662//662
f 633//633 664//664 663//663
f 633//633 629//629 664//664
f 633//633 660//660 658//658
f 633//633 662//662 660//660
f 633//633 645//645 643//643
f 633//633 643//643 641//641
f 633//633 638//638 636//636
