# robocad OBJ
mtllib sot23.mtl
o package
usemtl PLA_1e1e21
v -0.00145 0.00025 0.00055
v -0.00145 0.00105 0.00055
v -0.00145 0.00025 -0.00055
v -0.00145 0.00105 -0.00055
v -0.00145 0.00025 0.00057
v -0.00144 0.00025 0.00058
v -0.00144 0.00025 0.00060
v -0.00143 0.00025 0.00061
v -0.00141 0.00025 0.00063
v -0.00140 0.00025 0.00064
v -0.00138 0.00025 0.00064
v -0.00137 0.00025 0.00065
v -0.00135 0.00025 0.00065
v -0.00135 0.00105 0.00065
v -0.00145 0.00105 0.00057
v -0.00144 0.00105 0.00058
v -0.00144 0.00105 0.00060
v -0.00143 0.00105 0.00061
v -0.00141 0.00105 0.00063
v -0.00140 0.00105 0.00064
v -0.00138 0.00105 0.00064
v -0.00137 0.00105 0.00065
v -0.00135 0.00015 0.00055
v -0.00137 0.00015 0.00055
v -0.00138 0.00016 0.00055
v -0.00140 0.00016 0.00055
v -0.00141 0.00017 0.00055
v -0.00143 0.00019 0.00055
v -0.00144 0.00020 0.00055
v -0.00144 0.00022 0.00055
v -0.00145 0.00023 0.00055
v -0.00135 0.00015 -0.00055
v -0.00137 0.00015 -0.00055
v -0.00138 0.00016 -0.00055
v -0.00140 0.00016 -0.00055
v -0.00141 0.00017 -0.00055
v -0.00143 0.00019 -0.00055
v -0.00144 0.00020 -0.00055
v -0.00144 0.00022 -0.00055
v -0.00145 0.00023 -0.00055
v -0.00135 0.00115 0.00055
v -0.00137 0.00115 0.00055
v -0.00138 0.00114 0.00055
v -0.00140 0.00114 0.00055
v -0.00141 0.00113 0.00055
v -0.00143 0.00111 0.00055
v -0.00144 0.00110 0.00055
v -0.00144 0.00108 0.00055
v -0.00145 0.00107 0.00055
v -0.00135 0.00115 -0.00055
v -0.00145 0.00107 -0.00055
v -0.00144 0.00108 -0.00055
v -0.00144 0.00110 -0.00055
v -0.00143 0.00111 -0.00055
v -0.00141 0.00113 -0.00055
v -0.00140 0.00114 -0.00055
v -0.00138 0.00114 -0.00055
v -0.00137 0.00115 -0.00055
v -0.00145 0.00025 -0.00057
v -0.00145 0.00025 -0.00058
v -0.00144 0.00025 -0.00060
v -0.00143 0.00025 -0.00061
v -0.00142 0.00025 -0.00062
v -0.00141 0.00025 -0.00063
v -0.00140 0.00025 -0.00064
v -0.00138 0.00025 -0.00065
v -0.00137 0.00025 -0.00065
v -0.00135 0.00025 -0.00065
v -0.00135 0.00105 -0.00065
v -0.00137 0.00105 -0.00065
v -0.00138 0.00105 -0.00064
v -0.00140 0.00105 -0.00064
v -0.00141 0.00105 -0.00063
v -0.00143 0.00105 -0.00061
v -0.00144 0.00105 -0.00060
v -0.00144 0.00105 -0.00058
v -0.00145 0.00105 -0.00057
v -0.00135 0.00015 0.00057
v -0.00135 0.00016 0.00058
v -0.00135 0.00016 0.00060
v -0.00135 0.00017 0.00061
v -0.00135 0.00019 0.00063
v -0.00135 0.00020 0.00064
v -0.00135 0.00022 0.00064
v -0.00135 0.00023 0.00065
v -0.00137 0.00015 0.00055
v -0.00137 0.00015 0.00056
v -0.00137 0.00015 0.00056
v -0.00139 0.00016 0.00056
v -0.00137 0.00015 0.00057
v -0.00139 0.00016 0.00057
v -0.00141 0.00017 0.00056
v -0.00136 0.00015 0.00057
v -0.00138 0.00016 0.00058
v -0.00141 0.00017 0.00057
v -0.00136 0.00015 0.00057
v -0.00138 0.00016 0.00058
v -0.00140 0.00017 0.00058
v -0.00143 0.00019 0.00057
v -0.00135 0.00015 0.00057
v -0.00137 0.00016 0.00059
v -0.00139 0.00017 0.00059
v -0.00142 0.00019 0.00058
v -0.00144 0.00021 0.00056
v -0.00136 0.00016 0.00059
v -0.00138 0.00017 0.00060
v -0.00141 0.00019 0.00060
v -0.00144 0.00021 0.00058
v -0.00137 0.00017 0.00061
v -0.00140 0.00019 0.00061
v -0.00143 0.00021 0.00060
v -0.00145 0.00023 0.00057
v -0.00136 0.00017 0.00061
v -0.00138 0.00019 0.00062
v -0.00141 0.00021 0.00061
v -0.00144 0.00023 0.00059
v -0.00137 0.00019 0.00063
v -0.00140 0.00021 0.00063
v -0.00143 0.00023 0.00061
v -0.00138 0.00021 0.00064
v -0.00141 0.00023 0.00063
v -0.00136 0.00021 0.00064
v -0.00139 0.00023 0.00064
v -0.00137 0.00023 0.00065
v -0.00135 0.00115 0.00057
v -0.00135 0.00114 0.00058
v -0.00135 0.00114 0.00060
v -0.00135 0.00113 0.00061
v -0.00135 0.00111 0.00063
v -0.00135 0.00110 0.00064
v -0.00135 0.00108 0.00064
v -0.00135 0.00107 0.00065
v -0.00137 0.00115 0.00055
v -0.00137 0.00115 0.00056
v -0.00137 0.00115 0.00056
v -0.00139 0.00114 0.00056
v -0.00137 0.00115 0.00057
v -0.00139 0.00114 0.00057
v -0.00141 0.00113 0.00056
v -0.00136 0.00115 0.00057
v -0.00138 0.00114 0.00058
v -0.00141 0.00113 0.00057
v -0.00136 0.00115 0.00057
v -0.00138 0.00114 0.00058
v -0.00140 0.00113 0.00058
v -0.00143 0.00111 0.00057
v -0.00135 0.00115 0.00057
v -0.00137 0.00114 0.00059
v -0.00139 0.00113 0.00059
v -0.00142 0.00111 0.00058
v -0.00144 0.00109 0.00056
v -0.00136 0.00114 0.00059
v -0.00138 0.00113 0.00060
v -0.00141 0.00111 0.00060
v -0.00144 0.00109 0.00058
v -0.00137 0.00113 0.00061
v -0.00140 0.00111 0.00061
v -0.00143 0.00109 0.00060
v -0.00145 0.00107 0.00057
v -0.00136 0.00113 0.00061
v -0.00138 0.00111 0.00062
v -0.00141 0.00109 0.00061
v -0.00144 0.00107 0.00059
v -0.00137 0.00111 0.00063
v -0.00140 0.00109 0.00063
v -0.00143 0.00107 0.00061
v -0.00138 0.00109 0.00064
v -0.00141 0.00107 0.00063
v -0.00136 0.00109 0.00064
v -0.00139 0.00107 0.00064
v -0.00137 0.00107 0.00065
v 0.00135 0.00105 0.00065
v 0.00135 0.00025 0.00065
v 0.00135 0.00015 0.00055
v 0.00135 0.00015 -0.00055
v -0.00135 0.00015 -0.00057
v -0.00135 0.00016 -0.00058
v -0.00135 0.00016 -0.00060
v -0.00135 0.00017 -0.00061
v -0.00135 0.00019 -0.00063
v -0.00135 0.00020 -0.00064
v -0.00135 0.00022 -0.00064
v -0.00135 0.00023 -0.00065
v -0.00137 0.00015 -0.00055
v -0.00137 0.00015 -0.00056
v -0.00137 0.00015 -0.00056
v -0.00139 0.00016 -0.00056
v -0.00137 0.00015 -0.00057
v -0.00139 0.00016 -0.00057
v -0.00141 0.00017 -0.00056
v -0.00136 0.00015 -0.00057
v -0.00138 0.00016 -0.00058
v -0.00141 0.00017 -0.00057
v -0.00136 0.00015 -0.00057
v -0.00138 0.00016 -0.00058
v -0.00140 0.00017 -0.00058
v -0.00143 0.00019 -0.00057
v -0.00135 0.00015 -0.00057
v -0.00137 0.00016 -0.00059
v -0.00139 0.00017 -0.00059
v -0.00142 0.00019 -0.00058
v -0.00144 0.00021 -0.00056
v -0.00136 0.00016 -0.00059
v -0.00138 0.00017 -0.00060
v -0.00141 0.00019 -0.00060
v -0.00144 0.00021 -0.00058
v -0.00137 0.00017 -0.00061
v -0.00140 0.00019 -0.00061
v -0.00143 0.00021 -0.00060
v -0.00145 0.00023 -0.00057
v -0.00136 0.00017 -0.00061
v -0.00138 0.00019 -0.00062
v -0.00141 0.00021 -0.00061
v -0.00144 0.00023 -0.00059
v -0.00137 0.00019 -0.00063
v -0.00140 0.00021 -0.00063
v -0.00143 0.00023 -0.00061
v -0.00138 0.00021 -0.00064
v -0.00141 0.00023 -0.00063
v -0.00136 0.00021 -0.00064
v -0.00139 0.00023 -0.00064
v -0.00137 0.00023 -0.00065
v 0.00135 0.00115 0.00055
v 0.00135 0.00115 -0.00055
v -0.00135 0.00107 -0.00065
v -0.00135 0.00108 -0.00064
v -0.00135 0.00110 -0.00064
v -0.00135 0.00111 -0.00063
v -0.00135 0.00113 -0.00061
v -0.00135 0.00114 -0.00060
v -0.00135 0.00114 -0.00058
v -0.00135 0.00115 -0.00057
v -0.00137 0.00105 -0.00065
v -0.00137 0.00106 -0.00065
v -0.00137 0.00106 -0.00065
v -0.00139 0.00106 -0.00064
v -0.00137 0.00107 -0.00065
v -0.00139 0.00107 -0.00064
v -0.00141 0.00106 -0.00063
v -0.00136 0.00107 -0.00065
v -0.00138 0.00108 -0.00064
v -0.00141 0.00107 -0.00063
v -0.00136 0.00107 -0.00065
v -0.00138 0.00108 -0.00064
v -0.00140 0.00108 -0.00063
v -0.00143 0.00107 -0.00061
v -0.00135 0.00107 -0.00065
v -0.00137 0.00109 -0.00064
v -0.00139 0.00109 -0.00063
v -0.00142 0.00108 -0.00061
v -0.00144 0.00106 -0.00059
v -0.00136 0.00109 -0.00064
v -0.00138 0.00110 -0.00063
v -0.00141 0.00110 -0.00061
v -0.00144 0.00108 -0.00059
v -0.00137 0.00111 -0.00063
v -0.00140 0.00111 -0.00061
v -0.00143 0.00110 -0.00059
v -0.00145 0.00107 -0.00057
v -0.00136 0.00111 -0.00063
v -0.00138 0.00112 -0.00061
v -0.00141 0.00111 -0.00059
v -0.00144 0.00109 -0.00057
v -0.00137 0.00113 -0.00061
v -0.00140 0.00113 -0.00059
v -0.00143 0.00111 -0.00057
v -0.00138 0.00114 -0.00059
v -0.00141 0.00113 -0.00057
v -0.00136 0.00114 -0.00059
v -0.00139 0.00114 -0.00057
v -0.00137 0.00115 -0.00057
v 0.00135 0.00105 -0.00065
v 0.00135 0.00025 -0.00065
v 0.00135 0.00015 0.00057
v 0.00135 0.00016 0.00058
v 0.00135 0.00016 0.00060
v 0.00135 0.00017 0.00061
v 0.00135 0.00019 0.00063
v 0.00135 0.00020 0.00064
v 0.00135 0.00022 0.00064
v 0.00135 0.00023 0.00065
v 0.00135 0.00115 0.00057
v 0.00135 0.00114 0.00058
v 0.00135 0.00114 0.00060
v 0.00135 0.00113 0.00061
v 0.00135 0.00111 0.00063
v 0.00135 0.00110 0.00064
v 0.00135 0.00108 0.00064
v 0.00135 0.00107 0.00065
v 0.00145 0.00025 0.00055
v 0.00145 0.00105 0.00055
v 0.00145 0.00025 0.00057
v 0.00144 0.00025 0.00058
v 0.00144 0.00025 0.00060
v 0.00143 0.00025 0.00061
v 0.00141 0.00025 0.00063
v 0.00140 0.00025 0.00064
v 0.00138 0.00025 0.00064
v 0.00137 0.00025 0.00065
v 0.00145 0.00105 0.00057
v 0.00144 0.00105 0.00058
v 0.00144 0.00105 0.00060
v 0.00143 0.00105 0.00061
v 0.00141 0.00105 0.00063
v 0.00140 0.00105 0.00064
v 0.00138 0.00105 0.00064
v 0.00137 0.00105 0.00065
v 0.00135 0.00015 -0.00057
v 0.00135 0.00016 -0.00058
v 0.00135 0.00016 -0.00060
v 0.00135 0.00017 -0.00061
v 0.00135 0.00019 -0.00063
v 0.00135 0.00020 -0.00064
v 0.00135 0.00022 -0.00064
v 0.00135 0.00023 -0.00065
v 0.00137 0.00015 0.00055
v 0.00138 0.00016 0.00055
v 0.00140 0.00016 0.00055
v 0.00141 0.00017 0.00055
v 0.00143 0.00019 0.00055
v 0.00144 0.00020 0.00055
v 0.00144 0.00022 0.00055
v 0.00145 0.00023 0.00055
v 0.00137 0.00015 -0.00055
v 0.00138 0.00016 -0.00055
v 0.00140 0.00016 -0.00055
v 0.00141 0.00017 -0.00055
v 0.00143 0.00019 -0.00055
v 0.00144 0.00020 -0.00055
v 0.00144 0.00022 -0.00055
v 0.00145 0.00023 -0.00055
v 0.00145 0.00025 -0.00055
v 0.00135 0.00107 -0.00065
v 0.00135 0.00108 -0.00064
v 0.00135 0.00110 -0.00064
v 0.00135 0.00111 -0.00063
v 0.00135 0.00113 -0.00061
v 0.00135 0.00114 -0.00060
v 0.00135 0.00114 -0.00058
v 0.00135 0.00115 -0.00057
v 0.00137 0.00115 0.00055
v 0.00138 0.00114 0.00055
v 0.00140 0.00114 0.00055
v 0.00141 0.00113 0.00055
v 0.00143 0.00111 0.00055
v 0.00144 0.00110 0.00055
v 0.00144 0.00108 0.00055
v 0.00145 0.00107 0.00055
v 0.00145 0.00105 -0.00055
v 0.00145 0.00107 -0.00055
v 0.00144 0.00108 -0.00055
v 0.00144 0.00110 -0.00055
v 0.00143 0.00111 -0.00055
v 0.00141 0.00113 -0.00055
v 0.00140 0.00114 -0.00055
v 0.00138 0.00114 -0.00055
v 0.00137 0.00115 -0.00055
v 0.00145 0.00025 -0.00057
v 0.00145 0.00025 -0.00058
v 0.00144 0.00025 -0.00060
v 0.00143 0.00025 -0.00061
v 0.00142 0.00025 -0.00062
v 0.00141 0.00025 -0.00063
v 0.00140 0.00025 -0.00064
v 0.00138 0.00025 -0.00065
v 0.00137 0.00025 -0.00065
v 0.00137 0.00105 -0.00065
v 0.00138 0.00105 -0.00064
v 0.00140 0.00105 -0.00064
v 0.00141 0.00105 -0.00063
v 0.00143 0.00105 -0.00061
v 0.00144 0.00105 -0.00060
v 0.00144 0.00105 -0.00058
v 0.00145 0.00105 -0.00057
v 0.00137 0.00015 0.00055
v 0.00137 0.00015 0.00056
v 0.00137 0.00015 0.00056
v 0.00139 0.00016 0.00056
v 0.00137 0.00015 0.00057
v 0.00139 0.00016 0.00057
v 0.00141 0.00017 0.00056
v 0.00136 0.00015 0.00057
v 0.00138 0.00016 0.00058
v 0.00141 0.00017 0.00057
v 0.00136 0.00015 0.00057
v 0.00138 0.00016 0.00058
v 0.00140 0.00017 0.00058
v 0.00143 0.00019 0.00057
v 0.00135 0.00015 0.00057
v 0.00137 0.00016 0.00059
v 0.00139 0.00017 0.00059
v 0.00142 0.00019 0.00058
v 0.00144 0.00021 0.00056
v 0.00136 0.00016 0.00059
v 0.00138 0.00017 0.00060
v 0.00141 0.00019 0.00060
v 0.00144 0.00021 0.00058
v 0.00137 0.00017 0.00061
v 0.00140 0.00019 0.00061
v 0.00143 0.00021 0.00060
v 0.00145 0.00023 0.00057
v 0.00136 0.00017 0.00061
v 0.00138 0.00019 0.00062
v 0.00141 0.00021 0.00061
v 0.00144 0.00023 0.00059
v 0.00137 0.00019 0.00063
v 0.00140 0.00021 0.00063
v 0.00143 0.00023 0.00061
v 0.00138 0.00021 0.00064
v 0.00141 0.00023 0.00063
v 0.00136 0.00021 0.00064
v 0.00139 0.00023 0.00064
v 0.00137 0.00023 0.00065
v 0.00137 0.00115 0.00055
v 0.00137 0.00115 0.00056
v 0.00137 0.00115 0.00056
v 0.00139 0.00114 0.00056
v 0.00137 0.00115 0.00057
v 0.00139 0.00114 0.00057
v 0.00141 0.00113 0.00056
v 0.00136 0.00115 0.00057
v 0.00138 0.00114 0.00058
v 0.00141 0.00113 0.00057
v 0.00136 0.00115 0.00057
v 0.00138 0.00114 0.00058
v 0.00140 0.00113 0.00058
v 0.00143 0.00111 0.00057
v 0.00135 0.00115 0.00057
v 0.00137 0.00114 0.00059
v 0.00139 0.00113 0.00059
v 0.00142 0.00111 0.00058
v 0.00144 0.00109 0.00056
v 0.00136 0.00114 0.00059
v 0.00138 0.00113 0.00060
v 0.00141 0.00111 0.00060
v 0.00144 0.00109 0.00058
v 0.00137 0.00113 0.00061
v 0.00140 0.00111 0.00061
v 0.00143 0.00109 0.00060
v 0.00145 0.00107 0.00057
v 0.00136 0.00113 0.00061
v 0.00138 0.00111 0.00062
v 0.00141 0.00109 0.00061
v 0.00144 0.00107 0.00059
v 0.00137 0.00111 0.00063
v 0.00140 0.00109 0.00063
v 0.00143 0.00107 0.00061
v 0.00138 0.00109 0.00064
v 0.00141 0.00107 0.00063
v 0.00136 0.00109 0.00064
v 0.00139 0.00107 0.00064
v 0.00137 0.00107 0.00065
v 0.00137 0.00015 -0.00055
v 0.00137 0.00015 -0.00056
v 0.00137 0.00015 -0.00056
v 0.00139 0.00016 -0.00056
v 0.00137 0.00015 -0.00057
v 0.00139 0.00016 -0.00057
v 0.00141 0.00017 -0.00056
v 0.00136 0.00015 -0.00057
v 0.00138 0.00016 -0.00058
v 0.00141 0.00017 -0.00057
v 0.00136 0.00015 -0.00057
v 0.00138 0.00016 -0.00058
v 0.00140 0.00017 -0.00058
v 0.00143 0.00019 -0.00057
v 0.00135 0.00015 -0.00057
v 0.00137 0.00016 -0.00059
v 0.00139 0.00017 -0.00059
v 0.00142 0.00019 -0.00058
v 0.00144 0.00021 -0.00056
v 0.00136 0.00016 -0.00059
v 0.00138 0.00017 -0.00060
v 0.00141 0.00019 -0.00060
v 0.00144 0.00021 -0.00058
v 0.00137 0.00017 -0.00061
v 0.00140 0.00019 -0.00061
v 0.00143 0.00021 -0.00060
v 0.00145 0.00023 -0.00057
v 0.00136 0.00017 -0.00061
v 0.00138 0.00019 -0.00062
v 0.00141 0.00021 -0.00061
v 0.00144 0.00023 -0.00059
v 0.00137 0.00019 -0.00063
v 0.00140 0.00021 -0.00063
v 0.00143 0.00023 -0.00061
v 0.00138 0.00021 -0.00064
v 0.00141 0.00023 -0.00063
v 0.00136 0.00021 -0.00064
v 0.00139 0.00023 -0.00064
v 0.00137 0.00023 -0.00065
v 0.00137 0.00105 -0.00065
v 0.00137 0.00106 -0.00065
v 0.00137 0.00106 -0.00065
v 0.00139 0.00106 -0.00064
v 0.00137 0.00107 -0.00065
v 0.00139 0.00107 -0.00064
v 0.00141 0.00106 -0.00063
v 0.00136 0.00107 -0.00065
v 0.00138 0.00108 -0.00064
v 0.00141 0.00107 -0.00063
v 0.00136 0.00107 -0.00065
v 0.00138 0.00108 -0.00064
v 0.00140 0.00108 -0.00063
v 0.00143 0.00107 -0.00061
v 0.00135 0.00107 -0.00065
v 0.00137 0.00109 -0.00064
v 0.00139 0.00109 -0.00063
v 0.00142 0.00108 -0.00061
v 0.00144 0.00106 -0.00059
v 0.00136 0.00109 -0.00064
v 0.00138 0.00110 -0.00063
v 0.00141 0.00110 -0.00061
v 0.00144 0.00108 -0.00059
v 0.00137 0.00111 -0.00063
v 0.00140 0.00111 -0.00061
v 0.00143 0.00110 -0.00059
v 0.00145 0.00107 -0.00057
v 0.00136 0.00111 -0.00063
v 0.00138 0.00112 -0.00061
v 0.00141 0.00111 -0.00059
v 0.00144 0.00109 -0.00057
v 0.00137 0.00113 -0.00061
v 0.00140 0.00113 -0.00059
v 0.00143 0.00111 -0.00057
v 0.00138 0.00114 -0.00059
v 0.00141 0.00113 -0.00057
v 0.00136 0.00114 -0.00059
v 0.00139 0.00114 -0.00057
v 0.00137 0.00115 -0.00057
vn -1.0000 0.0000 0.0000
vn -1.0000 0.0000 0.0000
vn -1.0000 0.0000 0.0000
vn -1.0000 0.0000 0.0000
vn -0.9848 0.0000 0.1736
vn -0.9397 0.0000 0.3420
vn -0.8660 0.0000 0.5000
vn -0.7660 0.0000 0.6428
vn -0.6428 0.0000 0.7660
vn -0.5000 0.0000 0.8660
vn -0.3420 0.0000 0.9397
vn -0.1736 0.0000 0.9848
vn -0.0000 0.0000 1.0000
vn -0.0000 0.0000 1.0000
vn -0.9848 0.0000 0.1736
vn -0.9397 0.0000 0.3420
vn -0.8660 0.0000 0.5000
vn -0.7660 0.0000 0.6428
vn -0.6428 0.0000 0.7660
vn -0.5000 0.0000 0.8660
vn -0.3420 0.0000 0.9397
vn -0.1736 0.0000 0.9848
vn -0.0000 -1.0000 0.0000
vn -0.1736 -0.9848 0.0000
vn -0.3420 -0.9397 0.0000
vn -0.5000 -0.8660 0.0000
vn -0.6428 -0.7660 0.0000
vn -0.7660 -0.6428 0.0000
vn -0.8660 -0.5000 0.0000
vn -0.9397 -0.3420 0.0000
vn -0.9848 -0.1736 0.0000
vn -0.0000 -1.0000 0.0000
vn -0.1736 -0.9848 0.0000
vn -0.3420 -0.9397 0.0000
vn -0.5000 -0.8660 0.0000
vn -0.6428 -0.7660 0.0000
vn -0.7660 -0.6428 0.0000
vn -0.8660 -0.5000 0.0000
vn -0.9397 -0.3420 0.0000
vn -0.9848 -0.1736 0.0000
vn -0.0000 1.0000 0.0000
vn -0.1736 0.9848 0.0000
vn -0.3420 0.9397 0.0000
vn -0.5000 0.8660 0.0000
vn -0.6428 0.7660 0.0000
vn -0.7660 0.6428 0.0000
vn -0.8660 0.5000 0.0000
vn -0.9397 0.3420 0.0000
vn -0.9848 0.1736 0.0000
vn -0.0000 1.0000 0.0000
vn -0.9848 0.1736 0.0000
vn -0.9397 0.3420 0.0000
vn -0.8660 0.5000 0.0000
vn -0.7660 0.6428 0.0000
vn -0.6428 0.7660 0.0000
vn -0.5000 0.8660 0.0000
vn -0.3420 0.9397 0.0000
vn -0.1736 0.9848 0.0000
vn -0.9877 -0.0000 -0.1564
vn -0.9511 -0.0000 -0.3090
vn -0.8910 -0.0000 -0.4540
vn -0.8090 -0.0000 -0.5878
vn -0.7071 -0.0000 -0.7071
vn -0.5878 -0.0000 -0.8090
vn -0.4540 -0.0000 -0.8910
vn -0.3090 -0.0000 -0.9511
vn -0.1564 -0.0000 -0.9877
vn -0.0000 -0.0000 -1.0000
vn -0.0000 -0.0000 -1.0000
vn -0.1736 -0.0000 -0.9848
vn -0.3420 -0.0000 -0.9397
vn -0.5000 -0.0000 -0.8660
vn -0.6428 -0.0000 -0.7660
vn -0.7660 -0.0000 -0.6428
vn -0.8660 -0.0000 -0.5000
vn -0.9397 -0.0000 -0.3420
vn -0.9848 -0.0000 -0.1736
vn -0.0000 -0.9848 0.1736
vn -0.0000 -0.9397 0.3420
vn -0.0000 -0.8660 0.5000
vn -0.0000 -0.7660 0.6428
vn -0.0000 -0.6428 0.7660
vn -0.0000 -0.5000 0.8660
vn -0.0000 -0.3420 0.9397
vn -0.0000 -0.1736 0.9848
vn -0.2211 -0.9749 0.0249
vn -0.2100 -0.9749 0.0735
vn -0.1884 -0.9749 0.1184
vn -0.4230 -0.9010 0.0965
vn -0.1573 -0.9749 0.1573
vn -0.3909 -0.9010 0.1883
vn -0.6196 -0.7818 0.0698
vn -0.1184 -0.9749 0.1884
vn -0.3392 -0.9010 0.2705
vn -0.5885 -0.7818 0.2059
vn -0.0735 -0.9749 0.2100
vn -0.2705 -0.9010 0.3392
vn -0.5279 -0.7818 0.3317
vn -0.7622 -0.6235 0.1740
vn -0.0249 -0.9749 0.2211
vn -0.1883 -0.9010 0.3909
vn -0.4409 -0.7818 0.4409
vn -0.7044 -0.6235 0.3392
vn -0.8953 -0.4339 0.1009
vn -0.0965 -0.9010 0.4230
vn -0.3317 -0.7818 0.5279
vn -0.6113 -0.6235 0.4875
vn -0.8504 -0.4339 0.2976
vn -0.2059 -0.7818 0.5885
vn -0.4875 -0.6235 0.6113
vn -0.7629 -0.4339 0.4793
vn -0.9505 -0.2225 0.2169
vn -0.0698 -0.7818 0.6196
vn -0.3392 -0.6235 0.7044
vn -0.6371 -0.4339 0.6371
vn -0.8784 -0.2225 0.4230
vn -0.1740 -0.6235 0.7622
vn -0.4793 -0.4339 0.7629
vn -0.7622 -0.2225 0.6079
vn -0.2976 -0.4339 0.8504
vn -0.6079 -0.2225 0.7622
vn -0.1009 -0.4339 0.8953
vn -0.4230 -0.2225 0.8784
vn -0.2169 -0.2225 0.9505
vn -0.0000 0.9848 0.1736
vn -0.0000 0.9397 0.3420
vn -0.0000 0.8660 0.5000
vn -0.0000 0.7660 0.6428
vn -0.0000 0.6428 0.7660
vn -0.0000 0.5000 0.8660
vn -0.0000 0.3420 0.9397
vn -0.0000 0.1736 0.9848
vn -0.2211 0.9749 0.0249
vn -0.2100 0.9749 0.0735
vn -0.1884 0.9749 0.1184
vn -0.4230 0.9010 0.0965
vn -0.1573 0.9749 0.1573
vn -0.3909 0.9010 0.1883
vn -0.6196 0.7818 0.0698
vn -0.1184 0.9749 0.1884
vn -0.3392 0.9010 0.2705
vn -0.5885 0.7818 0.2059
vn -0.0735 0.9749 0.2100
vn -0.2705 0.9010 0.3392
vn -0.5279 0.7818 0.3317
vn -0.7622 0.6235 0.1740
vn -0.0249 0.9749 0.2211
vn -0.1883 0.9010 0.3909
vn -0.4409 0.7818 0.4409
vn -0.7044 0.6235 0.3392
vn -0.8953 0.4339 0.1009
vn -0.0965 0.9010 0.4230
vn -0.3317 0.7818 0.5279
vn -0.6113 0.6235 0.4875
vn -0.8504 0.4339 0.2976
vn -0.2059 0.7818 0.5885
vn -0.4875 0.6235 0.6113
vn -0.7629 0.4339 0.4793
vn -0.9505 0.2225 0.2169
vn -0.0698 0.7818 0.6196
vn -0.3392 0.6235 0.7044
vn -0.6371 0.4339 0.6371
vn -0.8784 0.2225 0.4230
vn -0.1740 0.6235 0.7622
vn -0.4793 0.4339 0.7629
vn -0.7622 0.2225 0.6079
vn -0.2976 0.4339 0.8504
vn -0.6079 0.2225 0.7622
vn -0.1009 0.4339 0.8953
vn -0.4230 0.2225 0.8784
vn -0.2169 0.2225 0.9505
vn 0.0000 -0.0000 1.0000
vn 0.0000 -0.0000 1.0000
vn -0.0000 -1.0000 0.0000
vn -0.0000 -1.0000 0.0000
vn -0.0000 -0.9848 -0.1736
vn -0.0000 -0.9397 -0.3420
vn -0.0000 -0.8660 -0.5000
vn -0.0000 -0.7660 -0.6428
vn -0.0000 -0.6428 -0.7660
vn -0.0000 -0.5000 -0.8660
vn -0.0000 -0.3420 -0.9397
vn -0.0000 -0.1736 -0.9848
vn -0.2211 -0.9749 -0.0249
vn -0.2100 -0.9749 -0.0735
vn -0.1884 -0.9749 -0.1184
vn -0.4230 -0.9010 -0.0965
vn -0.1573 -0.9749 -0.1573
vn -0.3909 -0.9010 -0.1883
vn -0.6196 -0.7818 -0.0698
vn -0.1184 -0.9749 -0.1884
vn -0.3392 -0.9010 -0.2705
vn -0.5885 -0.7818 -0.2059
vn -0.0735 -0.9749 -0.2100
vn -0.2705 -0.9010 -0.3392
vn -0.5279 -0.7818 -0.3317
vn -0.7622 -0.6235 -0.1740
vn -0.0249 -0.9749 -0.2211
vn -0.1883 -0.9010 -0.3909
vn -0.4409 -0.7818 -0.4409
vn -0.7044 -0.6235 -0.3392
vn -0.8953 -0.4339 -0.1009
vn -0.0965 -0.9010 -0.4230
vn -0.3317 -0.7818 -0.5279
vn -0.6113 -0.6235 -0.4875
vn -0.8504 -0.4339 -0.2976
vn -0.2059 -0.7818 -0.5885
vn -0.4875 -0.6235 -0.6113
vn -0.7629 -0.4339 -0.4793
vn -0.9505 -0.2225 -0.2169
vn -0.0698 -0.7818 -0.6196
vn -0.3392 -0.6235 -0.7044
vn -0.6371 -0.4339 -0.6371
vn -0.8784 -0.2225 -0.4230
vn -0.1740 -0.6235 -0.7622
vn -0.4793 -0.4339 -0.7629
vn -0.7622 -0.2225 -0.6079
vn -0.2976 -0.4339 -0.8504
vn -0.6079 -0.2225 -0.7622
vn -0.1009 -0.4339 -0.8953
vn -0.4230 -0.2225 -0.8784
vn -0.2169 -0.2225 -0.9505
vn 0.0000 1.0000 -0.0000
vn 0.0000 1.0000 -0.0000
vn -0.0000 0.1736 -0.9848
vn -0.0000 0.3420 -0.9397
vn -0.0000 0.5000 -0.8660
vn -0.0000 0.6428 -0.7660
vn -0.0000 0.7660 -0.6428
vn -0.0000 0.8660 -0.5000
vn -0.0000 0.9397 -0.3420
vn -0.0000 0.9848 -0.1736
vn -0.2211 0.0249 -0.9749
vn -0.2100 0.0735 -0.9749
vn -0.1884 0.1184 -0.9749
vn -0.4230 0.0965 -0.9010
vn -0.1573 0.1573 -0.9749
vn -0.3909 0.1883 -0.9010
vn -0.6196 0.0698 -0.7818
vn -0.1184 0.1884 -0.9749
vn -0.3392 0.2705 -0.9010
vn -0.5885 0.2059 -0.7818
vn -0.0735 0.2100 -0.9749
vn -0.2705 0.3392 -0.9010
vn -0.5279 0.3317 -0.7818
vn -0.7622 0.1740 -0.6235
vn -0.0249 0.2211 -0.9749
vn -0.1883 0.3909 -0.9010
vn -0.4409 0.4409 -0.7818
vn -0.7044 0.3392 -0.6235
vn -0.8953 0.1009 -0.4339
vn -0.0965 0.4230 -0.9010
vn -0.3317 0.5279 -0.7818
vn -0.6113 0.4875 -0.6235
vn -0.8504 0.2976 -0.4339
vn -0.2059 0.5885 -0.7818
vn -0.4875 0.6113 -0.6235
vn -0.7629 0.4793 -0.4339
vn -0.9505 0.2169 -0.2225
vn -0.0698 0.6196 -0.7818
vn -0.3392 0.7044 -0.6235
vn -0.6371 0.6371 -0.4339
vn -0.8784 0.4230 -0.2225
vn -0.1740 0.7622 -0.6235
vn -0.4793 0.7629 -0.4339
vn -0.7622 0.6079 -0.2225
vn -0.2976 0.8504 -0.4339
vn -0.6079 0.7622 -0.2225
vn -0.1009 0.8953 -0.4339
vn -0.4230 0.8784 -0.2225
vn -0.2169 0.9505 -0.2225
vn -0.0000 0.0000 -1.0000
vn -0.0000 0.0000 -1.0000
vn 0.0000 -0.9848 0.1736
vn 0.0000 -0.9397 0.3420
vn 0.0000 -0.8660 0.5000
vn 0.0000 -0.7660 0.6428
vn 0.0000 -0.6428 0.7660
vn 0.0000 -0.5000 0.8660
vn 0.0000 -0.3420 0.9397
vn 0.0000 -0.1736 0.9848
vn 0.0000 0.9848 0.1736
vn 0.0000 0.9397 0.3420
vn 0.0000 0.8660 0.5000
vn 0.0000 0.7660 0.6428
vn 0.0000 0.6428 0.7660
vn 0.0000 0.5000 0.8660
vn 0.0000 0.3420 0.9397
vn 0.0000 0.1736 0.9848
vn 1.0000 -0.0000 0.0000
vn 1.0000 -0.0000 0.0000
vn 0.9848 -0.0000 0.1736
vn 0.9397 -0.0000 0.3420
vn 0.8660 -0.0000 0.5000
vn 0.7660 -0.0000 0.6428
vn 0.6428 -0.0000 0.7660
vn 0.5000 -0.0000 0.8660
vn 0.3420 -0.0000 0.9397
vn 0.1736 -0.0000 0.9848
vn 0.9848 -0.0000 0.1736
vn 0.9397 -0.0000 0.3420
vn 0.8660 -0.0000 0.5000
vn 0.7660 -0.0000 0.6428
vn 0.6428 -0.0000 0.7660
vn 0.5000 -0.0000 0.8660
vn 0.3420 -0.0000 0.9397
vn 0.1736 -0.0000 0.9848
vn -0.0000 -0.9848 -0.1736
vn -0.0000 -0.9397 -0.3420
vn -0.0000 -0.8660 -0.5000
vn -0.0000 -0.7660 -0.6428
vn -0.0000 -0.6428 -0.7660
vn -0.0000 -0.5000 -0.8660
vn -0.0000 -0.3420 -0.9397
vn -0.0000 -0.1736 -0.9848
vn 0.1736 -0.9848 -0.0000
vn 0.3420 -0.9397 -0.0000
vn 0.5000 -0.8660 -0.0000
vn 0.6428 -0.7660 -0.0000
vn 0.7660 -0.6428 -0.0000
vn 0.8660 -0.5000 -0.0000
vn 0.9397 -0.3420 -0.0000
vn 0.9848 -0.1736 -0.0000
vn 0.1736 -0.9848 -0.0000
vn 0.3420 -0.9397 -0.0000
vn 0.5000 -0.8660 -0.0000
vn 0.6428 -0.7660 -0.0000
vn 0.7660 -0.6428 -0.0000
vn 0.8660 -0.5000 -0.0000
vn 0.9397 -0.3420 -0.0000
vn 0.9848 -0.1736 -0.0000
vn 1.0000 0.0000 -0.0000
vn 0.0000 0.1736 -0.9848
vn 0.0000 0.3420 -0.9397
vn 0.0000 0.5000 -0.8660
vn 0.0000 0.6428 -0.7660
vn 0.0000 0.7660 -0.6428
vn 0.0000 0.8660 -0.5000
vn 0.0000 0.9397 -0.3420
vn 0.0000 0.9848 -0.1736
vn 0.1736 0.9848 0.0000
vn 0.3420 0.9397 0.0000
vn 0.5000 0.8660 0.0000
vn 0.6428 0.7660 0.0000
vn 0.7660 0.6428 0.0000
vn 0.8660 0.5000 0.0000
vn 0.9397 0.3420 0.0000
vn 0.9848 0.1736 0.0000
vn 1.0000 -0.0000 -0.0000
vn 0.9848 0.1736 0.0000
vn 0.9397 0.3420 0.0000
vn 0.8660 0.5000 0.0000
vn 0.7660 0.6428 0.0000
vn 0.6428 0.7660 0.0000
vn 0.5000 0.8660 0.0000
vn 0.3420 0.9397 0.0000
vn 0.1736 0.9848 0.0000
vn 0.9877 -0.0000 -0.1564
vn 0.9511 -0.0000 -0.3090
vn 0.8910 -0.0000 -0.4540
vn 0.8090 -0.0000 -0.5878
vn 0.7071 -0.0000 -0.7071
vn 0.5878 -0.0000 -0.8090
vn 0.4540 -0.0000 -0.8910
vn 0.3090 -0.0000 -0.9511
vn 0.1564 -0.0000 -0.9877
vn 0.1736 -0.0000 -0.9848
vn 0.3420 -0.0000 -0.9397
vn 0.5000 -0.0000 -0.8660
vn 0.6428 -0.0000 -0.7660
vn 0.7660 -0.0000 -0.6428
vn 0.8660 -0.0000 -0.5000
vn 0.9397 -0.0000 -0.3420
vn 0.9848 -0.0000 -0.1736
vn 0.2211 -0.9749 0.0249
vn 0.2100 -0.9749 0.0735
vn 0.1884 -0.9749 0.1184
vn 0.4230 -0.9010 0.0965
vn 0.1573 -0.9749 0.1573
vn 0.3909 -0.9010 0.1883
vn 0.6196 -0.7818 0.0698
vn 0.1184 -0.9749 0.1884
vn 0.3392 -0.9010 0.2705
vn 0.5885 -0.7818 0.2059
vn 0.0735 -0.9749 0.2100
vn 0.2705 -0.9010 0.3392
vn 0.5279 -0.7818 0.3317
vn 0.7622 -0.6235 0.1740
vn 0.0249 -0.9749 0.2211
vn 0.1883 -0.9010 0.3909
vn 0.4409 -0.7818 0.4409
vn 0.7044 -0.6235 0.3392
vn 0.8953 -0.4339 0.1009
vn 0.0965 -0.9010 0.4230
vn 0.3317 -0.7818 0.5279
vn 0.6113 -0.6235 0.4875
vn 0.8504 -0.4339 0.2976
vn 0.2059 -0.7818 0.5885
vn 0.4875 -0.6235 0.6113
vn 0.7629 -0.4339 0.4793
vn 0.9505 -0.2225 0.2169
vn 0.0698 -0.7818 0.6196
vn 0.3392 -0.6235 0.7044
vn 0.6371 -0.4339 0.6371
vn 0.8784 -0.2225 0.4230
vn 0.1740 -0.6235 0.7622
vn 0.4793 -0.4339 0.7629
vn 0.7622 -0.2225 0.6079
vn 0.2976 -0.4339 0.8504
vn 0.6079 -0.2225 0.7622
vn 0.1009 -0.4339 0.8953
vn 0.4230 -0.2225 0.8784
vn 0.2169 -0.2225 0.9505
vn 0.2211 0.9749 0.0249
vn 0.2100 0.9749 0.0735
vn 0.1884 0.9749 0.1184
vn 0.4230 0.9010 0.0965
vn 0.1573 0.9749 0.1573
vn 0.3909 0.9010 0.1883
vn 0.6196 0.7818 0.0698
vn 0.1184 0.9749 0.1884
vn 0.3392 0.9010 0.2705
vn 0.5885 0.7818 0.2059
vn 0.0735 0.9749 0.2100
vn 0.2705 0.9010 0.3392
vn 0.5279 0.7818 0.3317
vn 0.7622 0.6235 0.1740
vn 0.0249 0.9749 0.2211
vn 0.1883 0.9010 0.3909
vn 0.4409 0.7818 0.4409
vn 0.7044 0.6235 0.3392
vn 0.8953 0.4339 0.1009
vn 0.0965 0.9010 0.4230
vn 0.3317 0.7818 0.5279
vn 0.6113 0.6235 0.4875
vn 0.8504 0.4339 0.2976
vn 0.2059 0.7818 0.5885
vn 0.4875 0.6235 0.6113
vn 0.7629 0.4339 0.4793
vn 0.9505 0.2225 0.2169
vn 0.0698 0.7818 0.6196
vn 0.3392 0.6235 0.7044
vn 0.6371 0.4339 0.6371
vn 0.8784 0.2225 0.4230
vn 0.1740 0.6235 0.7622
vn 0.4793 0.4339 0.7629
vn 0.7622 0.2225 0.6079
vn 0.2976 0.4339 0.8504
vn 0.6079 0.2225 0.7622
vn 0.1009 0.4339 0.8953
vn 0.4230 0.2225 0.8784
vn 0.2169 0.2225 0.9505
vn 0.2211 -0.9749 -0.0249
vn 0.2100 -0.9749 -0.0735
vn 0.1884 -0.9749 -0.1184
vn 0.4230 -0.9010 -0.0965
vn 0.1573 -0.9749 -0.1573
vn 0.3909 -0.9010 -0.1883
vn 0.6196 -0.7818 -0.0698
vn 0.1184 -0.9749 -0.1884
vn 0.3392 -0.9010 -0.2705
vn 0.5885 -0.7818 -0.2059
vn 0.0735 -0.9749 -0.2100
vn 0.2705 -0.9010 -0.3392
vn 0.5279 -0.7818 -0.3317
vn 0.7622 -0.6235 -0.1740
vn 0.0249 -0.9749 -0.2211
vn 0.1883 -0.9010 -0.3909
vn 0.4409 -0.7818 -0.4409
vn 0.7044 -0.6235 -0.3392
vn 0.8953 -0.4339 -0.1009
vn 0.0965 -0.9010 -0.4230
vn 0.3317 -0.7818 -0.5279
vn 0.6113 -0.6235 -0.4875
vn 0.8504 -0.4339 -0.2976
vn 0.2059 -0.7818 -0.5885
vn 0.4875 -0.6235 -0.6113
vn 0.7629 -0.4339 -0.4793
vn 0.9505 -0.2225 -0.2169
vn 0.0698 -0.7818 -0.6196
vn 0.3392 -0.6235 -0.7044
vn 0.6371 -0.4339 -0.6371
vn 0.8784 -0.2225 -0.4230
vn 0.1740 -0.6235 -0.7622
vn 0.4793 -0.4339 -0.7629
vn 0.7622 -0.2225 -0.6079
vn 0.2976 -0.4339 -0.8504
vn 0.6079 -0.2225 -0.7622
vn 0.1009 -0.4339 -0.8953
vn 0.4230 -0.2225 -0.8784
vn 0.2169 -0.2225 -0.9505
vn 0.2211 0.0249 -0.9749
vn 0.2100 0.0735 -0.9749
vn 0.1884 0.1184 -0.9749
vn 0.4230 0.0965 -0.9010
vn 0.1573 0.1573 -0.9749
vn 0.3909 0.1883 -0.9010
vn 0.6196 0.0698 -0.7818
vn 0.1184 0.1884 -0.9749
vn 0.3392 0.2705 -0.9010
vn 0.5885 0.2059 -0.7818
vn 0.0735 0.2100 -0.9749
vn 0.2705 0.3392 -0.9010
vn 0.5279 0.3317 -0.7818
vn 0.7622 0.1740 -0.6235
vn 0.0249 0.2211 -0.9749
vn 0.1883 0.3909 -0.9010
vn 0.4409 0.4409 -0.7818
vn 0.7044 0.3392 -0.6235
vn 0.8953 0.1009 -0.4339
vn 0.0965 0.4230 -0.9010
vn 0.3317 0.5279 -0.7818
vn 0.6113 0.4875 -0.6235
vn 0.8504 0.2976 -0.4339
vn 0.2059 0.5885 -0.7818
vn 0.4875 0.6113 -0.6235
vn 0.7629 0.4793 -0.4339
vn 0.9505 0.2169 -0.2225
vn 0.0698 0.6196 -0.7818
vn 0.3392 0.7044 -0.6235
vn 0.6371 0.6371 -0.4339
vn 0.8784 0.4230 -0.2225
vn 0.1740 0.7622 -0.6235
vn 0.4793 0.7629 -0.4339
vn 0.7622 0.6079 -0.2225
vn 0.2976 0.8504 -0.4339
vn 0.6079 0.7622 -0.2225
vn 0.1009 0.8953 -0.4339
vn 0.4230 0.8784 -0.2225
vn 0.2169 0.9505 -0.2225
f 2//2 3//3 1//1
f 2//2 4//4 3//3
f 15//15 2//2 1//1
f 15//15 1//1 5//5
f 16//16 5//5 6//6
f 16//16 15//15 5//5
f 17//17 6//6 7//7
f 17//17 16//16 6//6
f 18//18 7//7 8//8
f 18//18 17//17 7//7
f 19//19 8//8 9//9
f 19//19 18//18 8//8
f 20//20 9//9 10//10
f 20//20 19//19 9//9
f 21//21 10//10 11//11
f 21//21 20//20 10//10
f 22//22 11//11 12//12
f 22//22 21//21 11//11
f 14//14 12//12 13//13
f 14//14 22//22 12//12
f 40//40 31//31 1//1
f 40//40 1//1 3//3
f 39//39 30//30 31//31
f 39//39 31//31 40//40
f 38//38 29//29 30//30
f 38//38 30//30 39//39
f 37//37 28//28 29//29
f 37//37 29//29 38//38
f 36//36 27//27 28//28
f 36//36 28//28 37//37
f 35//35 26//26 27//27
f 35//35 27//27 36//36
f 34//34 24//24 25//25
f 34//34 25//25 26//26
f 34//34 26//26 35//35
f 33//33 23//23 24//24
f 33//33 24//24 34//34
f 32//32 23//23 33//33
f 51//51 2//2 49//49
f 51//51 4//4 2//2
f 52//52 49//49 48//48
f 52//52 51//51 49//49
f 53//53 48//48 47//47
f 53//53 52//52 48//48
f 54//54 47//47 46//46
f 54//54 53//53 47//47
f 55//55 46//46 45//45
f 55//55 54//54 46//46
f 56//56 45//45 44//44
f 56//56 55//55 45//45
f 57//57 44//44 43//43
f 57//57 56//56 44//44
f 58//58 43//43 42//42
f 58//58 57//57 43//43
f 50//50 42//42 41//41
f 50//50 58//58 42//42
f 4//4 59//59 3//3
f 77//77 60//60 59//59
f 77//77 59//59 4//4
f 76//76 61//61 60//60
f 76//76 60//60 77//77
f 75//75 62//62 61//61
f 75//75 61//61 76//76
f 74//74 63//63 62//62
f 74//74 62//62 75//75
f 73//73 64//64 63//63
f 73//73 63//63 74//74
f 72//72 65//65 64//64
f 72//72 64//64 73//73
f 71//71 66//66 65//65
f 71//71 65//65 72//72
f 70//70 67//67 66//66
f 70//70 66//66 71//71
f 69//69 68//68 67//67
f 69//69 67//67 70//70
f 5//5 1//1 31//31
f 13//13 12//12 85//85
f 86//86 24//24 23//23
f 86//86 25//25 24//24
f 87//87 86//86 23//23
f 88//88 87//87 23//23
f 89//89 26//26 25//25
f 89//89 25//25 86//86
f 89//89 86//86 87//87
f 90//90 88//88 23//23
f 91//91 89//89 87//87
f 91//91 87//87 88//88
f 92//92 27//27 26//26
f 92//92 28//28 27//27
f 92//92 26//26 89//89
f 93//93 90//90 23//23
f 94//94 91//91 88//88
f 94//94 88//88 90//90
f 95//95 92//92 89//89
f 95//95 89//89 91//91
f 96//96 93//93 23//23
f 97//97 90//90 93//93
f 97//97 94//94 90//90
f 98//98 91//91 94//94
f 98//98 95//95 91//91
f 99//99 29//29 28//28
f 99//99 92//92 95//95
f 99//99 28//28 92//92
f 100//100 23//23 78//78
f 100//100 78//78 79//79
f 100//100 96//96 23//23
f 101//101 93//93 96//96
f 101//101 97//97 93//93
f 102//102 94//94 97//97
f 102//102 98//98 94//94
f 103//103 95//95 98//98
f 103//103 99//99 95//95
f 104//104 30//30 29//29
f 104//104 29//29 99//99
f 105//105 79//79 80//80
f 105//105 100//100 79//79
f 105//105 96//96 100//100
f 105//105 101//101 96//96
f 106//106 97//97 101//101
f 106//106 102//102 97//97
f 107//107 103//103 98//98
f 107//107 98//98 102//102
f 108//108 99//99 103//103
f 108//108 104//104 99//99
f 109//109 101//101 105//105
f 109//109 106//106 101//101
f 110//110 102//102 106//106
f 110//110 107//107 102//102
f 111//111 103//103 107//107
f 111//111 108//108 103//103
f 112//112 31//31 30//30
f 112//112 6//6 5//5
f 112//112 104//104 108//108
f 112//112 5//5 31//31
f 112//112 30//30 104//104
f 113//113 80//80 81//81
f 113//113 81//81 82//82
f 113//113 105//105 80//80
f 113//113 109//109 105//105
f 114//114 110//110 106//106
f 114//114 106//106 109//109
f 115//115 107//107 110//110
f 115//115 111//111 107//107
f 116//116 7//7 6//6
f 116//116 108//108 111//111
f 116//116 6//6 112//112
f 116//116 112//112 108//108
f 117//117 82//82 83//83
f 117//117 113//113 82//82
f 117//117 109//109 113//113
f 117//117 114//114 109//109
f 118//118 115//115 110//110
f 118//118 110//110 114//114
f 119//119 8//8 7//7
f 119//119 111//111 115//115
f 119//119 116//116 111//111
f 119//119 7//7 116//116
f 120//120 114//114 117//117
f 120//120 118//118 114//114
f 121//121 9//9 8//8
f 121//121 10//10 9//9
f 121//121 8//8 119//119
f 121//121 119//119 115//115
f 121//121 115//115 118//118
f 122//122 83//83 84//84
f 122//122 117//117 83//83
f 122//122 120//120 117//117
f 123//123 11//11 10//10
f 123//123 10//10 121//121
f 123//123 118//118 120//120
f 123//123 121//121 118//118
f 124//124 84//84 85//85
f 124//124 12//12 11//11
f 124//124 11//11 123//123
f 124//124 122//122 84//84
f 124//124 120//120 122//122
f 124//124 123//123 120//120
f 124//124 85//85 12//12
f 15//15 49//49 2//2
f 14//14 132//132 22//22
f 133//133 41//41 42//42
f 133//133 42//42 43//43
f 134//134 41//41 133//133
f 135//135 41//41 134//134
f 136//136 43//43 44//44
f 136//136 133//133 43//43
f 136//136 134//134 133//133
f 137//137 41//41 135//135
f 138//138 134//134 136//136
f 138//138 135//135 134//134
f 139//139 44//44 45//45
f 139//139 45//45 46//46
f 139//139 136//136 44//44
f 140//140 41//41 137//137
f 141//141 135//135 138//138
f 141//141 137//137 135//135
f 142//142 136//136 139//139
f 142//142 138//138 136//136
f 143//143 41//41 140//140
f 144//144 140//140 137//137
f 144//144 137//137 141//141
f 145//145 141//141 138//138
f 145//145 138//138 142//142
f 146//146 46//46 47//47
f 146//146 142//142 139//139
f 146//146 139//139 46//46
f 147//147 125//125 41//41
f 147//147 126//126 125//125
f 147//147 41//41 143//143
f 148//148 143//143 140//140
f 148//148 140//140 144//144
f 149//149 144//144 141//141
f 149//149 141//141 145//145
f 150//150 145//145 142//142
f 150//150 142//142 146//146
f 151//151 47//47 48//48
f 151//151 146//146 47//47
f 152//152 127//127 126//126
f 152//152 126//126 147//147
f 152//152 147//147 143//143
f 152//152 143//143 148//148
f 153//153 148//148 144//144
f 153//153 144//144 149//149
f 154//154 145//145 150//150
f 154//154 149//149 145//145
f 155//155 150//150 146//146
f 155//155 146//146 151//151
f 156//156 152//152 148//148
f 156//156 148//148 153//153
f 157//157 153//153 149//149
f 157//157 149//149 154//154
f 158//158 154//154 150//150
f 158//158 150//150 155//155
f 159//159 48//48 49//49
f 159//159 15//15 16//16
f 159//159 155//155 151//151
f 159//159 49//49 15//15
f 159//159 151//151 48//48
f 160//160 128//128 127//127
f 160//160 129//129 128//128
f 160//160 127//127 152//152
f 160//160 152//152 156//156
f 161//161 153//153 157//157
f 161//161 156//156 153//153
f 162//162 157//157 154//154
f 162//162 154//154 158//158
f 163//163 16//16 17//17
f 163//163 158//158 155//155
f 163//163 159//159 16//16
f 163//163 155//155 159//159
f 164//164 130//130 129//129
f 164//164 129//129 160//160
f 164//164 160//160 156//156
f 164//164 156//156 161//161
f 165//165 157//157 162//162
f 165//165 161//161 157//157
f 166//166 17//17 18//18
f 166//166 162//162 158//158
f 166//166 158//158 163//163
f 166//166 163//163 17//17
f 167//167 164//164 161//161
f 167//167 161//161 165//165
f 168//168 18//18 19//19
f 168//168 19//19 20//20
f 168//168 166//166 18//18
f 168//168 162//162 166//166
f 168//168 165//165 162//162
f 169//169 131//131 130//130
f 169//169 130//130 164//164
f 169//169 164//164 167//167
f 170//170 20//20 21//21
f 170//170 168//168 20//20
f 170//170 167//167 165//165
f 170//170 165//165 168//168
f 171//171 132//132 131//131
f 171//171 21//21 22//22
f 171//171 170//170 21//21
f 171//171 131//131 169//169
f 171//171 169//169 167//167
f 171//171 167//167 170//170
f 171//171 22//22 132//132
f 172//172 14//14 13//13
f 172//172 13//13 173//173
f 175//175 23//23 32//32
f 175//175 174//174 23//23
f 59//59 40//40 3//3
f 68//68 183//183 67//67
f 184//184 32//32 33//33
f 184//184 33//33 34//34
f 185//185 32//32 184//184
f 186//186 32//32 185//185
f 187//187 34//34 35//35
f 187//187 184//184 34//34
f 187//187 185//185 184//184
f 188//188 32//32 186//186
f 189//189 185//185 187//187
f 189//189 186//186 185//185
f 190//190 35//35 36//36
f 190//190 36//36 37//37
f 190//190 187//187 35//35
f 191//191 32//32 188//188
f 192//192 188//188 186//186
f 192//192 186//186 189//189
f 193//193 189//189 187//187
f 193//193 187//187 190//190
f 194//194 32//32 191//191
f 195//195 191//191 188//188
f 195//195 188//188 192//192
f 196//196 192//192 189//189
f 196//196 189//189 193//193
f 197//197 37//37 38//38
f 197//197 193//193 190//190
f 197//197 190//190 37//37
f 198//198 176//176 32//32
f 198//198 177//177 176//176
f 198//198 32//32 194//194
f 199//199 194//194 191//191
f 199//199 191//191 195//195
f 200//200 195//195 192//192
f 200//200 192//192 196//196
f 201//201 196//196 193//193
f 201//201 193//193 197//197
f 202//202 38//38 39//39
f 202//202 197//197 38//38
f 203//203 194//194 199//199
f 203//203 178//178 177//177
f 203//203 177//177 198//198
f 203//203 198//198 194//194
f 204//204 195//195 200//200
f 204//204 199//199 195//195
f 205//205 196//196 201//201
f 205//205 200//200 196//196
f 206//206 201//201 197//197
f 206//206 197//197 202//202
f 207//207 199//199 204//204
f 207//207 203//203 199//199
f 208//208 200//200 205//205
f 208//208 204//204 200//200
f 209//209 205//205 201//201
f 209//209 201//201 206//206
f 210//210 39//39 40//40
f 210//210 59//59 60//60
f 210//210 206//206 202//202
f 210//210 40//40 59//59
f 210//210 202//202 39//39
f 211//211 178//178 203//203
f 211//211 179//179 178//178
f 211//211 203//203 207//207
f 211//211 180//180 179//179
f 212//212 204//204 208//208
f 212//212 207//207 204//204
f 213//213 205//205 209//209
f 213//213 208//208 205//205
f 214//214 210//210 60//60
f 214//214 60//60 61//61
f 214//214 61//61 62//62
f 214//214 209//209 206//206
f 214//214 206//206 210//210
f 215//215 181//181 180//180
f 215//215 211//211 207//207
f 215//215 180//180 211//211
f 215//215 207//207 212//212
f 216//216 212//212 208//208
f 216//216 208//208 213//213
f 217//217 62//62 63//63
f 217//217 213//213 209//209
f 217//217 209//209 214//214
f 217//217 214//214 62//62
f 218//218 212//212 216//216
f 218//218 215//215 212//212
f 219//219 63//63 64//64
f 219//219 217//217 63//63
f 219//219 216//216 213//213
f 219//219 213//213 217//217
f 220//220 182//182 181//181
f 220//220 181//181 215//215
f 220//220 215//215 218//218
f 221//221 64//64 65//65
f 221//221 65//65 66//66
f 221//221 218//218 216//216
f 221//221 216//216 219//219
f 221//221 219//219 64//64
f 222//222 183//183 182//182
f 222//222 66//66 67//67
f 222//222 182//182 220//220
f 222//222 220//220 218//218
f 222//222 218//218 221//221
f 222//222 221//221 66//66
f 222//222 67//67 183//183
f 224//224 50//50 41//41
f 224//224 41//41 223//223
f 51//51 77//77 4//4
f 50//50 232//232 58//58
f 233//233 69//69 70//70
f 233//233 70//70 71//71
f 234//234 69//69 233//233
f 235//235 69//69 234//234
f 236//236 71//71 72//72
f 236//236 233//233 71//71
f 236//236 234//234 233//233
f 237//237 69//69 235//235
f 238//238 234//234 236//236
f 238//238 235//235 234//234
f 239//239 72//72 73//73
f 239//239 73//73 74//74
f 239//239 236//236 72//72
f 240//240 69//69 237//237
f 241//241 235//235 238//238
f 241//241 237//237 235//235
f 242//242 236//236 239//239
f 242//242 238//238 236//236
f 243//243 69//69 240//240
f 244//244 240//240 237//237
f 244//244 237//237 241//241
f 245//245 241//241 238//238
f 245//245 238//238 242//242
f 246//246 74//74 75//75
f 246//246 242//242 239//239
f 246//246 239//239 74//74
f 247//247 225//225 69//69
f 247//247 226//226 225//225
f 247//247 69//69 243//243
f 248//248 243//243 240//240
f 248//248 240//240 244//244
f 249//249 244//244 241//241
f 249//249 241//241 245//245
f 250//250 245//245 242//242
f 250//250 242//242 246//246
f 251//251 75//75 76//76
f 251//251 246//246 75//75
f 252//252 227//227 226//226
f 252//252 226//226 247//247
f 252//252 247//247 243//243
f 252//252 243//243 248//248
f 253//253 248//248 244//244
f 253//253 244//244 249//249
f 254//254 245//245 250//250
f 254//254 249//249 245//245
f 255//255 250//250 246//246
f 255//255 246//246 251//251
f 256//256 252//252 248//248
f 256//256 248//248 253//253
f 257//257 253//253 249//249
f 257//257 249//249 254//254
f 258//258 254//254 250//250
f 258//258 250//250 255//255
f 259//259 76//76 77//77
f 259//259 51//51 52//52
f 259//259 255//255 251//251
f 259//259 77//77 51//51
f 259//259 251//251 76//76
f 260//260 228//228 227//227
f 260//260 229//229 228//228
f 260//260 227//227 252//252
f 260//260 252//252 256//256
f 261//261 253//253 257//257
f 261//261 256//256 253//253
f 262//262 257//257 254//254
f 262//262 254//254 258//258
f 263//263 52//52 53//53
f 263//263 258//258 255//255
f 263//263 259//259 52//52
f 263//263 255//255 259//259
f 264//264 230//230 229//229
f 264//264 229//229 260//260
f 264//264 260//260 256//256
f 264//264 256//256 261//261
f 265//265 257//257 262//262
f 265//265 261//261 257//257
f 266//266 53//53 54//54
f 266//266 262//262 258//258
f 266//266 258//258 263//263
f 266//266 263//263 53//53
f 267//267 264//264 261//261
f 267//267 261//261 265//265
f 268//268 54//54 55//55
f 268//268 55//55 56//56
f 268//268 266//266 54//54
f 268//268 262//262 266//266
f 268//268 265//265 262//262
f 269//269 231//231 230//230
f 269//269 230//230 264//264
f 269//269 264//264 267//267
f 270//270 56//56 57//57
f 270//270 268//268 56//56
f 270//270 267//267 265//265
f 270//270 265//265 268//268
f 271//271 232//232 231//231
f 271//271 57//57 58//58
f 271//271 270//270 57//57
f 271//271 231//231 269//269
f 271//271 269//269 267//267
f 271//271 267//267 270//270
f 271//271 58//58 232//232
f 272//272 68//68 69//69
f 272//272 273//273 68//68
f 281//281 13//13 85//85
f 281//281 173//173 13//13
f 280//280 85//85 84//84
f 280//280 281//281 85//85
f 279//279 84//84 83//83
f 279//279 280//280 84//84
f 278//278 83//83 82//82
f 278//278 279//279 83//83
f 277//277 82//82 81//81
f 277//277 278//278 82//82
f 276//276 81//81 80//80
f 276//276 277//277 81//81
f 275//275 79//79 78//78
f 275//275 80//80 79//79
f 275//275 276//276 80//80
f 274//274 275//275 78//78
f 174//174 78//78 23//23
f 174//174 274//274 78//78
f 289//289 132//132 14//14
f 289//289 14//14 172//172
f 288//288 131//131 132//132
f 288//288 132//132 289//289
f 287//287 130//130 131//131
f 287//287 131//131 288//288
f 286//286 129//129 130//130
f 286//286 130//130 287//287
f 285//285 128//128 129//129
f 285//285 129//129 286//286
f 284//284 127//127 128//128
f 284//284 128//128 285//285
f 283//283 125//125 126//126
f 283//283 126//126 127//127
f 283//283 127//127 284//284
f 282//282 125//125 283//283
f 223//223 41//41 125//125
f 223//223 125//125 282//282
f 300//300 290//290 291//291
f 300//300 292//292 290//290
f 301//301 293//293 292//292
f 301//301 292//292 300//300
f 302//302 294//294 293//293
f 302//302 293//293 301//301
f 303//303 295//295 294//294
f 303//303 294//294 302//302
f 304//304 296//296 295//295
f 304//304 295//295 303//303
f 305//305 297//297 296//296
f 305//305 296//296 304//304
f 306//306 298//298 297//297
f 306//306 297//297 305//305
f 307//307 299//299 298//298
f 307//307 298//298 306//306
f 172//172 173//173 299//299
f 172//172 299//299 307//307
f 315//315 183//183 68//68
f 315//315 68//68 273//273
f 314//314 182//182 183//183
f 314//314 183//183 315//315
f 313//313 181//181 182//182
f 313//313 182//182 314//314
f 312//312 180//180 181//181
f 312//312 181//181 313//313
f 311//311 179//179 180//180
f 311//311 180//180 312//312
f 310//310 178//178 179//179
f 310//310 179//179 311//311
f 309//309 176//176 177//177
f 309//309 177//177 178//178
f 309//309 178//178 310//310
f 308//308 176//176 309//309
f 175//175 32//32 176//176
f 175//175 176//176 308//308
f 331//331 290//290 323//323
f 331//331 332//332 290//290
f 330//330 323//323 322//322
f 330//330 331//331 323//323
f 329//329 322//322 321//321
f 329//329 330//330 322//322
f 328//328 321//321 320//320
f 328//328 329//329 321//321
f 327//327 320//320 319//319
f 327//327 328//328 320//320
f 326//326 319//319 318//318
f 326//326 327//327 319//319
f 325//325 317//317 316//316
f 325//325 318//318 317//317
f 325//325 326//326 318//318
f 324//324 316//316 174//174
f 324//324 325//325 316//316
f 175//175 324//324 174//174
f 333//333 69//69 225//225
f 333//333 272//272 69//69
f 334//334 225//225 226//226
f 334//334 333//333 225//225
f 335//335 226//226 227//227
f 335//335 334//334 226//226
f 336//336 227//227 228//228
f 336//336 335//335 227//227
f 337//337 228//228 229//229
f 337//337 336//336 228//228
f 338//338 229//229 230//230
f 338//338 337//337 229//229
f 339//339 230//230 231//231
f 339//339 231//231 232//232
f 339//339 338//338 230//230
f 340//340 339//339 232//232
f 224//224 232//232 50//50
f 224//224 340//340 232//232
f 350//350 348//348 291//291
f 350//350 291//291 349//349
f 351//351 347//347 348//348
f 351//351 348//348 350//350
f 352//352 346//346 347//347
f 352//352 347//347 351//351
f 353//353 345//345 346//346
f 353//353 346//346 352//352
f 354//354 344//344 345//345
f 354//354 345//345 353//353
f 355//355 343//343 344//344
f 355//355 344//344 354//354
f 356//356 342//342 343//343
f 356//356 343//343 355//355
f 357//357 341//341 342//342
f 357//357 342//342 356//356
f 224//224 223//223 341//341
f 224//224 341//341 357//357
f 349//349 332//332 358//358
f 374//374 358//358 359//359
f 374//374 349//349 358//358
f 373//373 359//359 360//360
f 373//373 374//374 359//359
f 372//372 360//360 361//361
f 372//372 373//373 360//360
f 371//371 361//361 362//362
f 371//371 372//372 361//361
f 370//370 362//362 363//363
f 370//370 371//371 362//362
f 369//369 363//363 364//364
f 369//369 370//370 363//363
f 368//368 364//364 365//365
f 368//368 369//369 364//364
f 367//367 365//365 366//366
f 367//367 368//368 365//365
f 272//272 366//366 273//273
f 272//272 367//367 366//366
f 292//292 323//323 290//290
f 173//173 281//281 299//299
f 375//375 174//174 316//316
f 375//375 316//316 317//317
f 376//376 174//174 375//375
f 377//377 174//174 376//376
f 378//378 317//317 318//318
f 378//378 375//375 317//317
f 378//378 376//376 375//375
f 379//379 174//174 377//377
f 380//380 376//376 378//378
f 380//380 377//377 376//376
f 381//381 318//318 319//319
f 381//381 319//319 320//320
f 381//381 378//378 318//318
f 382//382 174//174 379//379
f 383//383 377//377 380//380
f 383//383 379//379 377//377
f 384//384 378//378 381//381
f 384//384 380//380 378//378
f 385//385 174//174 382//382
f 386//386 382//382 379//379
f 386//386 379//379 383//383
f 387//387 383//383 380//380
f 387//387 380//380 384//384
f 388//388 320//320 321//321
f 388//388 384//384 381//381
f 388//388 381//381 320//320
f 389//389 274//274 174//174
f 389//389 275//275 274//274
f 389//389 174//174 385//385
f 390//390 385//385 382//382
f 390//390 382//382 386//386
f 391//391 386//386 383//383
f 391//391 383//383 387//387
f 392//392 387//387 384//384
f 392//392 384//384 388//388
f 393//393 321//321 322//322
f 393//393 388//388 321//321
f 394//394 276//276 275//275
f 394//394 275//275 389//389
f 394//394 389//389 385//385
f 394//394 385//385 390//390
f 395//395 390//390 386//386
f 395//395 386//386 391//391
f 396//396 387//387 392//392
f 396//396 391//391 387//387
f 397//397 392//392 388//388
f 397//397 388//388 393//393
f 398//398 394//394 390//390
f 398//398 390//390 395//395
f 399//399 395//395 391//391
f 399//399 391//391 396//396
f 400//400 396//396 392//392
f 400//400 392//392 397//397
f 401//401 322//322 323//323
f 401//401 292//292 293//293
f 401//401 397//397 393//393
f 401//401 323//323 292//292
f 401//401 393//393 322//322
f 402//402 277//277 276//276
f 402//402 278//278 277//277
f 402//402 276//276 394//394
f 402//402 394//394 398//398
f 403//403 395//395 399//399
f 403//403 398//398 395//395
f 404//404 399//399 396//396
f 404//404 396//396 400//400
f 405//405 293//293 294//294
f 405//405 400//400 397//397
f 405//405 401//401 293//293
f 405//405 397//397 401//401
f 406//406 279//279 278//278
f 406//406 278//278 402//402
f 406//406 402//402 398//398
f 406//406 398//398 403//403
f 407//407 399//399 404//404
f 407//407 403//403 399//399
f 408//408 294//294 295//295
f 408//408 404//404 400//400
f 408//408 400//400 405//405
f 408//408 405//405 294//294
f 409//409 406//406 403//403
f 409//409 403//403 407//407
f 410//410 295//295 296//296
f 410//410 296//296 297//297
f 410//410 408//408 295//295
f 410//410 404//404 408//408
f 410//410 407//407 404//404
f 411//411 280//280 279//279
f 411//411 279//279 406//406
f 411//411 406//406 409//409
f 412//412 297//297 298//298
f 412//412 410//410 297//297
f 412//412 409//409 407//407
f 412//412 407//407 410//410
f 413//413 281//281 280//280
f 413//413 298//298 299//299
f 413//413 412//412 298//298
f 413//413 280//280 411//411
f 413//413 411//411 409//409
f 413//413 409//409 412//412
f 413//413 299//299 281//281
f 300//300 291//291 348//348
f 172//172 307//307 289//289
f 414//414 341//341 223//223
f 414//414 342//342 341//341
f 415//415 414//414 223//223
f 416//416 415//415 223//223
f 417//417 343//343 342//342
f 417//417 342//342 414//414
f 417//417 414//414 415//415
f 418//418 416//416 223//223
f 419//419 417//417 415//415
f 419//419 415//415 416//416
f 420//420 344//344 343//343
f 420//420 345//345 344//344
f 420//420 343//343 417//417
f 421//421 418//418 223//223
f 422//422 419//419 416//416
f 422//422 416//416 418//418
f 423//423 420//420 417//417
f 423//423 417//417 419//419
f 424//424 421//421 223//223
f 425//425 418//418 421//421
f 425//425 422//422 418//418
f 426//426 419//419 422//422
f 426//426 423//423 419//419
f 427//427 346//346 345//345
f 427//427 420//420 423//423
f 427//427 345//345 420//420
f 428//428 223//223 282//282
f 428//428 282//282 283//283
f 428//428 424//424 223//223
f 429//429 421//421 424//424
f 429//429 425//425 421//421
f 430//430 422//422 425//425
f 430//430 426//426 422//422
f 431//431 423//423 426//426
f 431//431 427//427 423//423
f 432//432 347//347 346//346
f 432//432 346//346 427//427
f 433//433 283//283 284//284
f 433//433 428//428 283//283
f 433//433 424//424 428//428
f 433//433 429//429 424//424
f 434//434 425//425 429//429
f 434//434 430//430 425//425
f 435//435 431//431 426//426
f 435//435 426//426 430//430
f 436//436 427//427 431//431
f 436//436 432//432 427//427
f 437//437 429//429 433//433
f 437//437 434//434 429//429
f 438//438 430//430 434//434
f 438//438 435//435 430//430
f 439//439 431//431 435//435
f 439//439 436//436 431//431
f 440//440 348//348 347//347
f 440//440 301//301 300//300
f 440//440 432//432 436//436
f 440//440 300//300 348//348
f 440//440 347//347 432//432
f 441//441 284//284 285//285
f 441//441 285//285 286//286
f 441//441 433//433 284//284
f 441//441 437//437 433//433
f 442//442 438//438 434//434
f 442//442 434//434 437//437
f 443//443 435//435 438//438
f 443//443 439//439 435//435
f 444//444 302//302 301//301
f 444//444 436//436 439//439
f 444//444 301//301 440//440
f 444//444 440//440 436//436
f 445//445 286//286 287//287
f 445//445 441//441 286//286
f 445//445 437//437 441//441
f 445//445 442//442 437//437
f 446//446 443//443 438//438
f 446//446 438//438 442//442
f 447//447 303//303 302//302
f 447//447 439//439 443//443
f 447//447 444//444 439//439
f 447//447 302//302 444//444
f 448//448 442//442 445//445
f 448//448 446//446 442//442
f 449//449 304//304 303//303
f 449//449 305//305 304//304
f 449//449 303//303 447//447
f 449//449 447//447 443//443
f 449//449 443//443 446//446
f 450//450 287//287 288//288
f 450//450 445//445 287//287
f 450//450 448//448 445//445
f 451//451 306//306 305//305
f 451//451 305//305 449//449
f 451//451 446//446 448//448
f 451//451 449//449 446//446
f 452//452 288//288 289//289
f 452//452 307//307 306//306
f 452//452 306//306 451//451
f 452//452 450//450 288//288
f 452//452 448//448 450//450
f 452//452 451//451 448//448
f 452//452 289//289 307//307
f 291//291 290//290 332//332
f 291//291 332//332 349//349
f 358//358 332//332 331//331
f 273//273 366//366 315//315
f 453//453 324//324 175//175
f 453//453 325//325 324//324
f 454//454 453//453 175//175
f 455//455 454//454 175//175
f 456//456 326//326 325//325
f 456//456 325//325 453//453
f 456//456 453//453 454//454
f 457//457 455//455 175//175
f 458//458 456//456 454//454
f 458//458 454//454 455//455
f 459//459 327//327 326//326
f 459//459 328//328 327//327
f 459//459 326//326 456//456
f 460//460 457//457 175//175
f 461//461 455//455 457//457
f 461//461 458//458 455//455
f 462//462 456//456 458//458
f 462//462 459//459 456//456
f 463//463 460//460 175//175
f 464//464 457//457 460//460
f 464//464 461//461 457//457
f 465//465 458//458 461//461
f 465//465 462//462 458//458
f 466//466 329//329 328//328
f 466//466 459//459 462//462
f 466//466 328//328 459//459
f 467//467 175//175 308//308
f 467//467 308//308 309//309
f 467//467 463//463 175//175
f 468//468 460//460 463//463
f 468//468 464//464 460//460
f 469//469 461//461 464//464
f 469//469 465//465 461//461
f 470//470 462//462 465//465
f 470//470 466//466 462//462
f 471//471 330//330 329//329
f 471//471 329//329 466//466
f 472//472 468//468 463//463
f 472//472 309//309 310//310
f 472//472 467//467 309//309
f 472//472 463//463 467//467
f 473//473 469//469 464//464
f 473//473 464//464 468//468
f 474//474 470//470 465//465
f 474//474 465//465 469//469
f 475//475 466//466 470//470
f 475//475 471//471 466//466
f 476//476 473//473 468//468
f 476//476 468//468 472//472
f 477//477 474//474 469//469
f 477//477 469//469 473//473
f 478//478 470//470 474//474
f 478//478 475//475 470//470
f 479//479 331//331 330//330
f 479//479 359//359 358//358
f 479//479 471//471 475//475
f 479//479 358//358 331//331
f 479//479 330//330 471//471
f 480//480 472//472 310//310
f 480//480 310//310 311//311
f 480//480 476//476 472//472
f 480//480 311//311 312//312
f 481//481 477//477 473//473
f 481//481 473//473 476//476
f 482//482 478//478 474//474
f 482//482 474//474 477//477
f 483//483 359//359 479//479
f 483//483 360//360 359//359
f 483//483 361//361 360//360
f 483//483 475//475 478//478
f 483//483 479//479 475//475
f 484//484 312//312 313//313
f 484//484 476//476 480//480
f 484//484 480//480 312//312
f 484//484 481//481 476//476
f 485//485 477//477 481//481
f 485//485 482//482 477//477
f 486//486 362//362 361//361
f 486//486 478//478 482//482
f 486//486 483//483 478//478
f 486//486 361//361 483//483
f 487//487 485//485 481//481
f 487//487 481//481 484//484
f 488//488 363//363 362//362
f 488//488 362//362 486//486
f 488//488 482//482 485//485
f 488//488 486//486 482//482
f 489//489 313//313 314//314
f 489//489 484//484 313//313
f 489//489 487//487 484//484
f 490//490 364//364 363//363
f 490//490 365//365 364//364
f 490//490 485//485 487//487
f 490//490 488//488 485//485
f 490//490 363//363 488//488
f 491//491 314//314 315//315
f 491//491 366//366 365//365
f 491//491 489//489 314//314
f 491//491 487//487 489//489
f 491//491 490//490 487//487
f 491//491 365//365 490//490
f 491//491 315//315 366//366
f 350//350 349//349 374//374
f 224//224 357//357 340//340
f 492//492 367//367 272//272
f 492//492 368//368 367//367
f 493//493 492//492 272//272
f 494//494 493//493 272//272
f 495//495 369//369 368//368
f 495//495 368//368 492//492
f 495//495 492//492 493//493
f 496//496 494//494 272//272
f 497//497 495//495 493//493
f 497//497 493//493 494//494
f 498//498 370//370 369//369
f 498//498 371//371 370//370
f 498//498 369//369 495//495
f 499//499 496//496 272//272
f 500//500 497//497 494//494
f 500//500 494//494 496//496
f 501//501 498//498 495//495
f 501//501 495//495 497//497
f 502//502 499//499 272//272
f 503//503 496//496 499//499
f 503//503 500//500 496//496
f 504//504 497//497 500//500
f 504//504 501//501 497//497
f 505//505 372//372 371//371
f 505//505 498//498 501//501
f 505//505 371//371 498//498
f 506//506 272//272 333//333
f 506//506 333//333 334//334
f 506//506 502//502 272//272
f 507//507 499//499 502//502
f 507//507 503//503 499//499
f 508//508 500//500 503//503
f 508//508 504//504 500//500
f 509//509 501//501 504//504
f 509//509 505//505 501//501
f 510//510 373//373 372//372
f 510//510 372//372 505//505
f 511//511 334//334 335//335
f 511//511 506//506 334//334
f 511//511 502//502 506//506
f 511//511 507//507 502//502
f 512//512 503//503 507//507
f 512//512 508//508 503//503
f 513//513 509//509 504//504
f 513//513 504//504 508//508
f 514//514 505//505 509//509
f 514//514 510//510 505//505
f 515//515 507//507 511//511
f 515//515 512//512 507//507
f 516//516 508//508 512//512
f 516//516 513//513 508//508
f 517//517 509//509 513//513
f 517//517 514//514 509//509
f 518//518 374//374 373//373
f 518//518 351//351 350//350
f 518//518 510//510 514//514
f 518//518 350//350 374//374
f 518//518 373//373 510//510
f 519//519 335//335 336//336
f 519//519 336//336 337//337
f 519//519 511//511 335//335
f 519//519 515//515 511//511
f 520//520 516//516 512//512
f 520//520 512//512 515//515
f 521//521 513//513 516//516
f 521//521 517//517 513//513
f 522//522 352//352 351//351
f 522//522 514//514 517//517
f 522//522 351//351 518//518
f 522//522 518//518 514//514
f 523//523 337//337 338//338
f 523//523 519//519 337//337
f 523//523 515//515 519//519
f 523//523 520//520 515//515
f 524//524 521//521 516//516
f 524//524 516//516 520//520
f 525//525 353//353 352//352
f 525//525 517//517 521//521
f 525//525 522//522 517//517
f 525//525 352//352 522//522
f 526//526 520//520 523//523
f 526//526 524//524 520//520
f 527//527 354//354 353//353
f 527//527 355//355 354//354
f 527//527 353//353 525//525
f 527//527 525//525 521//521
f 527//527 521//521 524//524
f 528//528 338//338 339//339
f 528//528 523//523 338//338
f 528//528 526//526 523//523
f 529//529 356//356 355//355
f 529//529 355//355 527//527
f 529//529 524//524 526//526
f 529//529 527//527 524//524
f 530//530 339//339 340//340
f 530//530 357//357 356//356
f 530//530 356//356 529//529
f 530//530 528//528 339//339
f 530//530 526//526 528//528
f 530//530 529//529 526//526
f 530//530 340//340 357//357
o lead
usemtl PLA_c6c9cc
v -0.00115 0.00000 0.00115
v -0.00115 0.00015 0.00115
v -0.00115 0.00000 0.00065
v -0.00115 0.00015 0.00065
v -0.00075 0.00000 0.00115
v -0.00075 0.00015 0.00115
v -0.00075 0.00000 0.00065
v -0.00075 0.00015 0.00065
vn -1.0000 0.0000 0.0000
vn -1.0000 0.0000 0.0000
vn -1.0000 0.0000 0.0000
vn -1.0000 0.0000 0.0000
vn 1.0000 -0.0000 -0.0000
vn 1.0000 -0.0000 -0.0000
vn 1.0000 -0.0000 -0.0000
vn 1.0000 -0.0000 -0.0000
f 532//532 533//533 531//531
f 532//532 534//534 533//533
f 536//536 535//535 537//537
f 536//536 537//537 538//538
f 536//536 531//531 535//535
f 536//536 532//532 531//531
f 538//538 537//537 533//533
f 538//538 533//533 534//534
f 537//537 531//531 533//533
f 537//537 535//535 531//531
f 538//538 534//534 532//532
f 538//538 532//532 536//536
o lead_2
usemtl PLA_c6c9cc
v 0.00075 0.00000 0.00115
v 0.00075 0.00015 0.00115
v 0.00075 0.00000 0.00065
v 0.00075 0.00015 0.00065
v 0.00115 0.00000 0.00115
v 0.00115 0.00015 0.00115
v 0.00115 0.00000 0.00065
v 0.00115 0.00015 0.00065
vn -1.0000 0.0000 0.0000
vn -1.0000 0.0000 0.0000
vn -1.0000 0.0000 0.0000
vn -1.0000 0.0000 0.0000
vn 1.0000 -0.0000 -0.0000
vn 1.0000 -0.0000 -0.0000
vn 1.0000 -0.0000 -0.0000
vn 1.0000 -0.0000 -0.0000
f 540//540 541//541 539//539
f 540//540 542//542 541//541
f 544//544 543//543 545//545
f 544//544 545//545 546//546
f 544//544 539//539 543//543
f 544//544 540//540 539//539
f 546//546 545//545 541//541
f 546//546 541//541 542//542
f 545//545 539//539 541//541
f 545//545 543//543 539//539
f 546//546 542//542 540//540
f 546//546 540//540 544//544
o lead_3
usemtl PLA_c6c9cc
v -0.00020 0.00000 -0.00065
v -0.00020 0.00015 -0.00065
v -0.00020 0.00000 -0.00115
v -0.00020 0.00015 -0.00115
v 0.00020 0.00000 -0.00065
v 0.00020 0.00015 -0.00065
v 0.00020 0.00000 -0.00115
v 0.00020 0.00015 -0.00115
vn -1.0000 0.0000 0.0000
vn -1.0000 0.0000 0.0000
vn -1.0000 0.0000 0.0000
vn -1.0000 0.0000 0.0000
vn 1.0000 -0.0000 -0.0000
vn 1.0000 -0.0000 -0.0000
vn 1.0000 -0.0000 -0.0000
vn 1.0000 -0.0000 -0.0000
f 548//548 549//549 547//547
f 548//548 550//550 549//549
f 552//552 551//551 553//553
f 552//552 553//553 554//554
f 552//552 547//547 551//551
f 552//552 548//548 547//547
f 554//554 553//553 549//549
f 554//554 549//549 550//550
f 553//553 547//547 549//549
f 553//553 551//551 547//547
f 554//554 550//550 548//548
f 554//554 548//548 552//552
